<?xml version="1.0" encoding="UTF-8" standalone="no"?>
<!DOCTYPE svg PUBLIC "-//W3C//DTD SVG 1.1//EN"
"http://www.w3.org/Graphics/SVG/1.1/DTD/svg11.dtd">


<!-- Page 1 -->
<svg x="0" y="0" width="1210" height="935" viewBox="0 0 1210 935" version="1.1" xmlns="http://www.w3.org/2000/svg" xmlns:xlink="http://www.w3.org/1999/xlink"
style="display: block;margin-left: auto;margin-right: auto;">
<defs>

<style type="text/css"><![CDATA[

.g1_1{
fill: none;
stroke: #7F7F7F;
stroke-width: 1.0999999;
stroke-linecap: round;
stroke-linejoin: round;
}
.g2_1{
fill: none;
stroke: #000000;
stroke-width: 1.0999999;
stroke-linecap: round;
stroke-linejoin: round;
}
.g3_1{
fill: #7F7F7F;
}
.g4_1{
fill: none;
stroke: #000000;
stroke-width: 1.0999999;
stroke-linecap: round;
stroke-linejoin: bevel;
}
.g5_1{
fill: none;
stroke: #535353;
stroke-width: 1.0999999;
stroke-linecap: round;
stroke-linejoin: round;
}


]]></style>

</defs>
<path d="M0,0
L0,935
L1210,935
L1210,0 Z " 
fill="#FFFFFF" stroke="none" />
<path d="M890.2,382.9l-276.1,0l0,-167.5" class="g1_1" />
<path d="M624.6,391.6l-14.7,0" class="g2_1" />
<path d="M624.6,389.9l-14.7,0" class="g2_1" />
<path d="M624.6,390.8l-14.7,0" class="g2_1" />
<path d="M640.2,391.6l-14.8,0" class="g2_1" />
<path d="M640.2,389.9l-14.8,0" class="g2_1" />
<path d="M640.2,390.8l-14.8,0" class="g2_1" />
<path d="M655.8,391.6l-14.8,0" class="g2_1" />
<path d="M655.8,389.9l-14.8,0" class="g2_1" />
<path d="M655.8,390.8l-14.8,0" class="g2_1" />
<path d="M671.4,391.6l-14.7,0" class="g2_1" />
<path d="M671.4,389.9l-14.7,0" class="g2_1" />
<path d="M671.4,390.8l-14.7,0" class="g2_1" />
<path d="M687,391.6l-14.7,0" class="g2_1" />
<path d="M687,389.9l-14.7,0" class="g2_1" />
<path d="M687,390.8l-14.7,0" class="g2_1" />
<path d="M702.5,391.6l-14.6,0" class="g2_1" />
<path d="M702.5,389.9l-14.6,0" class="g2_1" />
<path d="M702.5,390.8l-14.6,0" class="g2_1" />
<path d="M718.1,391.6l-14.6,0" class="g2_1" />
<path d="M718.1,389.9l-14.6,0" class="g2_1" />
<path d="M718.1,390.8l-14.6,0" class="g2_1" />
<path d="M733.7,391.6l-14.7,0" class="g2_1" />
<path d="M733.7,389.9l-14.7,0" class="g2_1" />
<path d="M733.7,390.8l-14.7,0" class="g2_1" />
<path d="M749.3,391.6l-14.7,0" class="g2_1" />
<path d="M749.3,389.9l-14.7,0" class="g2_1" />
<path d="M749.3,390.8l-14.7,0" class="g2_1" />
<path d="M765,391.6l-14.8,0" class="g2_1" />
<path d="M765,389.9l-14.8,0" class="g2_1" />
<path d="M765,390.8l-14.8,0" class="g2_1" />
<path d="M780.5,391.6l-14.7,0" class="g2_1" />
<path d="M780.5,389.9l-14.7,0" class="g2_1" />
<path d="M780.5,390.8l-14.7,0" class="g2_1" />
<path d="M796.1,391.6l-14.7,0" class="g2_1" />
<path d="M796.1,389.9l-14.7,0" class="g2_1" />
<path d="M796.1,390.8l-14.7,0" class="g2_1" />
<path d="M811.7,391.6l-14.7,0" class="g2_1" />
<path d="M811.7,389.9l-14.7,0" class="g2_1" />
<path d="M811.7,390.8l-14.7,0" class="g2_1" />
<path d="M827.3,391.6l-14.8,0" class="g2_1" />
<path d="M827.3,389.9l-14.8,0" class="g2_1" />
<path d="M827.3,390.8l-14.8,0" class="g2_1" />
<path d="M842.9,391.6l-14.8,0" class="g2_1" />
<path d="M842.9,389.9l-14.8,0" class="g2_1" />
<path d="M842.9,390.8l-14.8,0" class="g2_1" />
<path d="M858.5,391.6l-14.8,0" class="g2_1" />
<path d="M858.5,389.9l-14.8,0" class="g2_1" />
<path d="M858.5,390.8l-14.8,0" class="g2_1" />
<path d="M874,391.6l-14.7,0" class="g2_1" />
<path d="M874,389.9l-14.7,0" class="g2_1" />
<path d="M874,390.8l-14.7,0" class="g2_1" />
<path d="M547.2,591l33.6,0" class="g1_1" />
<path d="M548.5,589.6l30.9,0" class="g1_1" />
<path d="M580.8,591l0,-24" class="g1_1" />
<path d="M579.4,589.6l0,-23.3" class="g1_1" />
<path d="M547.2,591l0,-34.1" class="g1_1" />
<path d="M548.5,558.3l30.9,0" class="g1_1" />
<path d="M549.8,555.1l0,-0.7" class="g1_1" />
<path d="M549.8,553.9l0,-19.8" class="g1_1" />
<path d="M549.8,533.6l0,-0.7" class="g1_1" />
<path d="M553.6,555.1l0,-0.7" class="g1_1" />
<path d="M553.6,553.9l0,-19.8" class="g1_1" />
<path d="M553.6,533.6l0,-0.7" class="g1_1" />
<path d="M557.4,555.1l0,-0.7" class="g1_1" />
<path d="M557.4,553.9l0,-19.8" class="g1_1" />
<path d="M557.4,533.6l0,-0.7" class="g1_1" />
<path d="M561.2,555.1l0,-0.7" class="g1_1" />
<path d="M561.2,553.9l0,-19.8" class="g1_1" />
<path d="M561.2,533.6l0,-0.7" class="g1_1" />
<path d="M565,555.1l0,-0.7" class="g1_1" />
<path d="M565,553.9l0,-19.8" class="g1_1" />
<path d="M565,533.6l0,-0.7" class="g1_1" />
<path d="M568.9,555.1l0,-0.7" class="g1_1" />
<path d="M568.9,553.9l0,-19.8" class="g1_1" />
<path d="M568.9,533.6l0,-0.7" class="g1_1" />
<path d="M572.6,555.1l0,-0.7" class="g1_1" />
<path d="M572.6,553.9l0,-19.8" class="g1_1" />
<path d="M572.6,533.6l0,-0.7" class="g1_1" />
<path d="M576.5,555.1l0,-0.7" class="g1_1" />
<path d="M576.5,553.9l0,-19.8" class="g1_1" />
<path d="M576.5,533.6l0,-0.7" class="g1_1" />
<path d="M582.5,560.3l0.7,0" class="g1_1" />
<path d="M583.7,560.3l19.7,0" class="g1_1" />
<path d="M604,560.3l0.7,0" class="g1_1" />
<path d="M582.5,564.1l0.7,0" class="g1_1" />
<path d="M583.7,564.1l19.7,0" class="g1_1" />
<path d="M604,564.1l0.7,0" class="g1_1" />
<path d="M586.8,568l16.6,0" class="g1_1" />
<path d="M604,568l0.7,0" class="g1_1" />
<path d="M580.8,575.6l17.9,0" class="g1_1" />
<path d="M602.7,575.6l0.7,0" class="g1_1" />
<path d="M604,575.6l0.7,0" class="g1_1" />
<path d="M580.8,579.3l22.6,0" class="g1_1" />
<path d="M604,579.3l0.7,0" class="g1_1" />
<path d="M580.8,583.2l22.6,0" class="g1_1" />
<path d="M604,583.2l0.7,0" class="g1_1" />
<path d="M580.8,586.9l22.6,0" class="g1_1" />
<path d="M604,586.9l0.7,0" class="g1_1" />
<path d="M562.1,614.7l0,-0.7" class="g1_1" />
<path d="M562.1,613.4l0,-22.4" class="g1_1" />
<path d="M565.9,614.7l0,-0.7" class="g1_1" />
<path d="M565.9,613.4l0,-22.4" class="g1_1" />
<path d="M569.7,614.7l0,-0.7" class="g1_1" />
<path d="M569.7,613.4l0,-22.4" class="g1_1" />
<path d="M573.6,614.7l0,-0.7" class="g1_1" />
<path d="M573.6,613.4l0,-22.4" class="g1_1" />
<path d="M577.3,614.7l0,-0.7" class="g1_1" />
<path d="M577.3,613.4l0,-22.4" class="g1_1" />
<path d="M579.4,564.4l0,-6.1" class="g1_1" />
<path d="M580.8,571.7l9.9,0" class="g1_1" />
<path d="M591.8,571.7l0.7,0" class="g1_1" />
<path d="M593,571.7l0.7,0" class="g1_1" />
<path d="M594.7,571.7l8.7,0" class="g1_1" />
<path d="M604,571.7l0.7,0" class="g1_1" />
<path d="M580.8,568l1.9,0" class="g1_1" />
<path d="M541.3,604.3l0,-4.2l1.4,0l0.6,0.2l0.4,0.4l0.2,0.5l0.1,0.5l0,1l-0.1,0.7l-0.2,0.3l-0.4,0.4l-0.6,0.2l-1.4,0Z" class="g1_1" />
<path d="M545.4,604.3l0,-4.2l2.9,4.2l0,-4.2" class="g1_1" />
<path d="M540.4,541.9l0,3l0.2,0.6l0.3,0.4l0.7,0.2l0.3,0l0.6,-0.2l0.4,-0.4l0.2,-0.6l0,-3" class="g1_1" />
<path d="M544.7,546.1l0,-4.2l1.8,0l0.6,0.2l0.1,0.2l0.2,0.5l0,0.5l-0.2,0.5l-0.1,0.1l-0.6,0.2l-1.8,0" class="g1_1" />
<path d="M451.4,543.3l-4.7,0" class="g2_1" />
<path d="M446.7,557.9l4.7,0l0,-14.6" class="g2_1" />
<path d="M425.1,564.1l0,-27" class="g2_1" />
<path d="M446.7,564.1l0,-6.2" class="g2_1" />
<path d="M446.7,543.3l0,-6.2" class="g2_1" />
<path d="M448.6,557.9l0,-14.6" class="g2_1" />
<path d="M446.7,537.1l-21.6,0" class="g2_1" />
<path d="M425.1,564.1l21.6,0l-21.6,-27" class="g2_1" />
<path d="M446.7,537.1l-21.6,27" class="g2_1" />
<path d="M451.4,550.6l-2.8,0" class="g2_1" />
<path d="M450,557.9l0,-14.6" class="g2_1" />
<path d="M603.4,230.2l0,-14.6" class="g2_1" />
<path d="M605,230.2l0,-14.6" class="g2_1" />
<path d="M604.2,230.2l0,-14.6" class="g2_1" />
<path d="M603.4,245.4l0,-14.6" class="g2_1" />
<path d="M605,245.4l0,-14.6" class="g2_1" />
<path d="M604.2,245.4l0,-14.6" class="g2_1" />
<path d="M603.3,260.6l0,-14.5" class="g2_1" />
<path d="M605,260.6l0,-14.5" class="g2_1" />
<path d="M604.2,260.6l0,-14.5" class="g2_1" />
<path d="M603.3,275.9l0,-14.6" class="g2_1" />
<path d="M605,275.9l0,-14.6" class="g2_1" />
<path d="M604.2,275.9l0,-14.6" class="g2_1" />
<path d="M603.3,291.1l0,-14.5" class="g2_1" />
<path d="M605,291.1l0,-14.5" class="g2_1" />
<path d="M604.2,291.1l0,-14.5" class="g2_1" />
<path d="M603.3,306.3l0,-14.4" class="g2_1" />
<path d="M605,306.3l0,-14.4" class="g2_1" />
<path d="M604.2,306.3l0,-14.4" class="g2_1" />
<path d="M603.3,324.4l0,-15.6" class="g2_1" />
<path d="M605,324.4l0,-15.6" class="g2_1" />
<path d="M604.2,324.4l0,-15.6" class="g2_1" />
<path d="M603.3,339.6l0,-14.6" class="g2_1" />
<path d="M605,339.6L605,325" class="g2_1" />
<path d="M604.2,339.6l0,-14.6" class="g2_1" />
<path d="M603.3,354.8l0,-14.4" class="g2_1" />
<path d="M605,354.8l0,-14.4" class="g2_1" />
<path d="M604.2,354.8l0,-14.4" class="g2_1" />
<path d="M603.3,370.1l0,-14.5" class="g2_1" />
<path d="M605,370.1l0,-14.5" class="g2_1" />
<path d="M604.2,370.1l0,-14.5" class="g2_1" />
<path d="M603.3,385.4l0,-14.6" class="g2_1" />
<path d="M605,385.4l0,-14.6" class="g2_1" />
<path d="M604.2,385.4l0,-14.6" class="g2_1" />
<path d="M65.4,100.7l14.2,0" class="g1_1" />
<path d="M66.7,102l12.2,0" class="g1_1" />
<path d="M116.6,104.4l0,-14.7" class="g1_1" />
<path d="M115.2,103l0,-13.3" class="g1_1" />
<path d="M116.6,104.4l-51.2,0" class="g1_1" />
<path d="M115.2,103l-48.5,0" class="g1_1" />
<path d="M83.3,92.9l0,-3.2" class="g1_1" />
<path d="M79.6,100.7l0,-11" class="g1_1" />
<path d="M75.7,100.7l0,-11" class="g1_1" />
<path d="M71.9,100.7l0,-11" class="g1_1" />
<path d="M68.1,100.7l0,-11" class="g1_1" />
<path d="M65.4,104.4l0,-3.7" class="g1_1" />
<path d="M66.7,103l0,-1" class="g1_1" />
<path d="M68.5,120.4l0,-0.8" class="g1_1" />
<path d="M68.5,119.2l0,-14.8" class="g1_1" />
<path d="M72.2,120.4l0,-0.8" class="g1_1" />
<path d="M72.2,119.2l0,-14.8" class="g1_1" />
<path d="M76.1,120.4l0,-0.8" class="g1_1" />
<path d="M76.1,119.2l0,-14.8" class="g1_1" />
<path d="M79.8,120.4l0,-0.8" class="g1_1" />
<path d="M79.8,119.2l0,-14.8" class="g1_1" />
<path d="M83.7,120.4l0,-0.8" class="g1_1" />
<path d="M83.7,119.2l0,-14.8" class="g1_1" />
<path d="M87.5,120.4l0,-0.8" class="g1_1" />
<path d="M87.5,119.2l0,-14.8" class="g1_1" />
<path d="M91.3,120.4l0,-0.8" class="g1_1" />
<path d="M91.3,119.2l0,-14.8" class="g1_1" />
<path d="M95.2,120.4l0,-0.8" class="g1_1" />
<path d="M95.2,119.2l0,-14.8" class="g1_1" />
<path d="M98.9,120.4l0,-0.8" class="g1_1" />
<path d="M98.9,119.2l0,-14.8" class="g1_1" />
<path d="M118.1,114.4l0,-4.2l1.3,0l0.7,0.3l0.4,0.3l0.1,0.4l0.2,0.6l0,0.9l-0.2,0.7l-0.1,0.4l-0.4,0.4l-0.7,0.2l-1.3,0Z" class="g1_1" />
<path d="M122.2,114.4l0,-4.2l2.8,4.2l0,-4.2" class="g1_1" />
<path d="M26.9,758.5l0,-23.1" class="g1_1" />
<path d="M28.2,757.1l0,-21.1" class="g1_1" />
<path d="M30.7,707.9l-14.4,0" class="g1_1" />
<path d="M29.3,709.2l-13,0" class="g1_1" />
<path d="M30.7,707.9l0,50.6" class="g1_1" />
<path d="M29.3,709.2l0,47.9" class="g1_1" />
<path d="M21.5,732.8l-5.2,0" class="g1_1" />
<path d="M26.9,736.6l-10.6,0" class="g1_1" />
<path d="M26.9,740.4l-10.6,0" class="g1_1" />
<path d="M26.9,744.2l-10.6,0" class="g1_1" />
<path d="M26.9,748.1l-10.6,0" class="g1_1" />
<path d="M26.9,751.8l-10.6,0" class="g1_1" />
<path d="M26.9,755.7l-10.6,0" class="g1_1" />
<path d="M30.7,758.4l-3.8,0" class="g1_1" />
<path d="M29.3,757.1l-1.1,0" class="g1_1" />
<path d="M46.6,755.3l-0.7,0" class="g1_1" />
<path d="M45.4,755.3l-14.7,0" class="g1_1" />
<path d="M46.6,751.5l-0.7,0" class="g1_1" />
<path d="M45.4,751.5l-14.7,0" class="g1_1" />
<path d="M46.6,747.7l-0.7,0" class="g1_1" />
<path d="M45.4,747.7l-14.7,0" class="g1_1" />
<path d="M46.6,743.9l-0.7,0" class="g1_1" />
<path d="M45.4,743.9l-14.7,0" class="g1_1" />
<path d="M46.6,740.1l-0.7,0" class="g1_1" />
<path d="M45.4,740.1l-14.7,0" class="g1_1" />
<path d="M46.6,736.3l-0.7,0" class="g1_1" />
<path d="M45.4,736.3l-14.7,0" class="g1_1" />
<path d="M46.6,732.5l-0.7,0" class="g1_1" />
<path d="M45.4,732.5l-14.7,0" class="g1_1" />
<path d="M46.6,728.7l-0.7,0" class="g1_1" />
<path d="M45.4,728.7l-14.7,0" class="g1_1" />
<path d="M46.6,724.8l-0.7,0" class="g1_1" />
<path d="M45.4,724.8l-14.7,0" class="g1_1" />
<path d="M35.2,708.2l0,-4.1l1.4,0l0.5,0.2l0.5,0.3l0.2,0.4l0.2,0.6l0,1.1l-0.2,0.5l-0.2,0.5L37.1,708l-0.5,0.2l-1.4,0Z" class="g1_1" />
<path d="M39.3,708.2l0,-4.1l2.8,4.1l0,-4.1" class="g1_1" />
<path d="M1163.8,666l0,-14.6l4.7,0" class="g2_1" />
<path d="M1163.8,666l4.7,0" class="g2_1" />
<path d="M1190.1,672.2l0,-27" class="g2_1" />
<path d="M1168.5,672.2l0,-6.2" class="g2_1" />
<path d="M1168.5,651.4l0,-6.2" class="g2_1" />
<path d="M1166.6,666l0,-14.6" class="g2_1" />
<path d="M1168.5,645.2l21.6,0" class="g2_1" />
<path d="M1190.1,672.2l-21.6,0l21.6,-27" class="g2_1" />
<path d="M1168.5,645.2l21.6,27" class="g2_1" />
<path d="M1163.8,658.7l2.8,0" class="g2_1" />
<path d="M1165.2,666l0,-14.6" class="g2_1" />
<path d="M959.8,408.6l-43.7,0" class="g1_1" />
<path d="M959.8,405.8l-46.4,0" class="g1_1" />
<path d="M914.9,405.8l0,-0.7" class="g1_1" />
<path d="M914.9,404.6l0,-16.7" class="g1_1" />
<path d="M914.9,387.5l0,-0.8" class="g1_1" />
<path d="M905.9,398.4l0,-4.2l1.4,0l0.6,0.2l0.4,0.4l0.2,0.4l0.2,0.6l0,0.9l-0.2,0.7l-0.2,0.3l-0.4,0.5l-0.6,0.2l-1.4,0Z" class="g1_1" />
<path d="M910.1,398.4l0,-4.2l2.7,4.2l0,-4.2" class="g1_1" />
<path d="M548.5,589.6l0,-31.3" class="g1_1" />
<path d="M558.2,614.7l0,-0.7" class="g1_1" />
<path d="M558.2,613.4l0,-22.4" class="g1_1" />
<path d="M554.5,614.7l0,-0.7" class="g1_1" />
<path d="M554.5,613.4l0,-22.4" class="g1_1" />
<path d="M550.6,614.7l0,-0.7" class="g1_1" />
<path d="M550.6,613.4l0,-22.4" class="g1_1" />
<path d="M548.4,589.6l0,-32.7" class="g1_1" />
<path d="M547.3,556.9l0,32.7l1.1,0" class="g1_1" />
<path d="M579.4,558.3l-30.9,31.3" class="g1_1" />
<path d="M475.8,845.1L422.9,791.7" class="g1_1" />
<path d="M422.9,845.1l52.9,-53.4" class="g1_1" />
<path d="M1171.1,784.6l0,-38.2" class="g1_1" />
<path d="M1169,782.6l0,-37.3" class="g1_1" />
<path d="M1164.2,719.9l0,64.7" class="g1_1" />
<path d="M1166.3,721.9l0,60.7" class="g1_1" />
<path d="M1164.2,784.6l6.9,0" class="g1_1" />
<path d="M1166.3,782.6l2.7,0" class="g1_1" />
<path d="M1143,783.9l0.7,0" class="g1_1" />
<path d="M1144.3,783.9l19.9,0" class="g1_1" />
<path d="M1143,780.1l0.7,0" class="g1_1" />
<path d="M1144.3,780.1l19.9,0" class="g1_1" />
<path d="M1143,776.3l0.7,0" class="g1_1" />
<path d="M1144.3,776.3l19.9,0" class="g1_1" />
<path d="M1143,772.5l0.7,0" class="g1_1" />
<path d="M1144.3,772.5l19.9,0" class="g1_1" />
<path d="M1143,768.6l0.7,0" class="g1_1" />
<path d="M1144.3,768.6l19.9,0" class="g1_1" />
<path d="M1143,764.9l0.7,0" class="g1_1" />
<path d="M1144.3,764.9l19.9,0" class="g1_1" />
<path d="M1143,761l0.7,0" class="g1_1" />
<path d="M1144.3,761l19.9,0" class="g1_1" />
<path d="M1143,757.3l0.7,0" class="g1_1" />
<path d="M1144.3,757.3l19.9,0" class="g1_1" />
<path d="M1171.1,751.4l10.4,0" class="g1_1" />
<path d="M1171.1,747.5l2.4,0" class="g1_1" />
<path d="M1171.1,755.2l18.4,0" class="g1_1" />
<path d="M1171.1,759l19.6,0" class="g1_1" />
<path d="M1191.2,759l0.6,0" class="g1_1" />
<path d="M1171.1,762.8l19.6,0" class="g1_1" />
<path d="M1191.2,762.8l0.6,0" class="g1_1" />
<path d="M1171.1,766.6l19.6,0" class="g1_1" />
<path d="M1191.2,766.6l0.6,0" class="g1_1" />
<path d="M1171.1,770.4l19.6,0" class="g1_1" />
<path d="M1191.2,770.4l0.6,0" class="g1_1" />
<path d="M1171.1,774.2l19.6,0" class="g1_1" />
<path d="M1191.2,774.2l0.6,0" class="g1_1" />
<path d="M1171.1,778.1l19.6,0" class="g1_1" />
<path d="M1191.2,778.1l0.6,0" class="g1_1" />
<path d="M1171.1,781.8l19.6,0" class="g1_1" />
<path d="M1191.2,781.8l0.6,0" class="g1_1" />
<path d="M1150.1,755.2l0,-4.2l1.4,0l0.7,0.2l0.3,0.4l0.2,0.4l0.2,0.6l0,1l-0.2,0.5l-0.2,0.5l-0.3,0.4l-0.7,0.2l-1.4,0Z" class="g1_1" />
<path d="M1154.3,755.2l0,-4.2l2.8,4.2l0,-4.2" class="g1_1" />
<path d="M959.7,405.8l0,2.8" class="g1_1" />
<path d="M936.9,408.6l0,0.1" class="g1_1" />
<path d="M940.9,409.8l0,16.6" class="g1_1" />
<path d="M940.9,426.9l0,0.7" class="g1_1" />
<path d="M944.9,408.6l0,0.7" class="g1_1" />
<path d="M944.9,409.8l0,16.6" class="g1_1" />
<path d="M944.9,426.9l0,0.7" class="g1_1" />
<path d="M948.8,408.6l0,0.7" class="g1_1" />
<path d="M948.8,409.8l0,16.6" class="g1_1" />
<path d="M948.8,426.9l0,0.7" class="g1_1" />
<path d="M952.9,408.6l0,0.7" class="g1_1" />
<path d="M952.9,409.8l0,16.6" class="g1_1" />
<path d="M952.9,426.9l0,0.7" class="g1_1" />
<path d="M956.8,408.6l0,0.7" class="g1_1" />
<path d="M956.8,409.8l0,16.6" class="g1_1" />
<path d="M956.8,426.9l0,0.7" class="g1_1" />
<path d="M936.9,418.1l0,8.3" class="g1_1" />
<path d="M936.9,426.9l0,0.7" class="g1_1" />
<path d="M933.1,426.1l0,0.3" class="g1_1" />
<path d="M933.1,426.9l0,0.7" class="g1_1" />
<path d="M918.9,405.8l0,-0.7" class="g1_1" />
<path d="M918.9,404.6l0,-16.7" class="g1_1" />
<path d="M918.9,387.5l0,-0.8" class="g1_1" />
<path d="M922.9,405.8l0,-0.7" class="g1_1" />
<path d="M922.9,404.6l0,-16.7" class="g1_1" />
<path d="M922.9,387.5l0,-0.8" class="g1_1" />
<path d="M926.8,405.8l0,-0.7" class="g1_1" />
<path d="M926.8,404.6l0,-16.7" class="g1_1" />
<path d="M926.8,387.5l0,-0.8" class="g1_1" />
<path d="M930.9,405.8l0,-0.7" class="g1_1" />
<path d="M930.9,404.6l0,-16.7" class="g1_1" />
<path d="M930.9,387.5l0,-0.8" class="g1_1" />
<path d="M934.8,405.8l0,-0.7" class="g1_1" />
<path d="M934.8,404.6l0,-16.7" class="g1_1" />
<path d="M934.8,387.5l0,-0.8" class="g1_1" />
<path d="M938.8,405.8l0,-0.7" class="g1_1" />
<path d="M938.8,404.6l0,-16.7" class="g1_1" />
<path d="M938.8,387.5l0,-0.8" class="g1_1" />
<path d="M942.8,405.8l0,-0.7" class="g1_1" />
<path d="M942.8,404.6l0,-16.7" class="g1_1" />
<path d="M942.8,387.5l0,-0.8" class="g1_1" />
<path d="M946.8,405.8l0,-0.7" class="g1_1" />
<path d="M946.8,404.6l0,-16.7" class="g1_1" />
<path d="M946.8,387.5l0,-0.8" class="g1_1" />
<path d="M950.8,405.8l0,-0.7" class="g1_1" />
<path d="M950.8,404.6l0,-16.7" class="g1_1" />
<path d="M950.8,387.5l0,-0.8" class="g1_1" />
<path d="M954.7,405.8l0,-0.7" class="g1_1" />
<path d="M954.7,404.6l0,-16.7" class="g1_1" />
<path d="M954.7,387.5l0,-0.8" class="g1_1" />
<path d="M958.7,405.8l0,-0.7" class="g1_1" />
<path d="M958.7,404.6l0,-16.7" class="g1_1" />
<path d="M958.7,387.5l0,-0.8" class="g1_1" />
<path d="M565.2,681.9l39.5,92.9" class="g1_1" />
<path d="M604.7,681.9l-39.5,92.9" class="g1_1" />
<path d="M102.8,120.4l0,-0.8" class="g1_1" />
<path d="M102.8,119.2l0,-14.8" class="g1_1" />
<path d="M106.5,120.4l0,-0.8" class="g1_1" />
<path d="M106.5,119.2l0,-14.8" class="g1_1" />
<path d="M110.4,120.4l0,-0.8" class="g1_1" />
<path d="M110.4,119.2l0,-14.8" class="g1_1" />
<path d="M46.6,721l-0.7,0" class="g1_1" />
<path d="M45.4,721l-14.7,0" class="g1_1" />
<path d="M46.6,717.2l-0.7,0" class="g1_1" />
<path d="M45.4,717.2l-14.7,0" class="g1_1" />
<path d="M46.6,713.4l-0.7,0" class="g1_1" />
<path d="M45.4,713.4l-14.7,0" class="g1_1" />
<path d="M548.5,558.2l30.9,31.4" class="g1_1" />
<path d="M613,779.6l87.8,0" class="g1_1" />
<path d="M704,779.6l90.3,0" class="g1_1" />
<path d="M797.5,779.6l90.4,0" class="g1_1" />
<path d="M891,779.6l87.4,0" class="g1_1" />
<path d="M613,782l365.4,0" class="g1_1" />
<path d="M1164.2,719.9l27.6,0" class="g1_1" />
<path d="M1166.3,721.9l25.5,0" class="g1_1" />
<path d="M1173.5,500l0,87.5" class="g1_1" />
<path d="M1173.5,590.6l0,45.9" class="g1_1" />
<path d="M1175.6,500l0,136.5" class="g1_1" />
<path d="M1047.3,500l-11.8,0" class="g2_1" />
<path d="M1047.3,498.3l-11.8,0" class="g2_1" />
<path d="M1047.3,499.1l-11.8,0" class="g2_1" />
<path d="M1059.8,500l-11.9,0" class="g2_1" />
<path d="M1059.8,498.3l-11.9,0" class="g2_1" />
<path d="M1059.8,499.1l-11.9,0" class="g2_1" />
<path d="M1072.2,500l-11.8,0" class="g2_1" />
<path d="M1072.2,498.3l-11.8,0" class="g2_1" />
<path d="M1072.2,499.1l-11.8,0" class="g2_1" />
<path d="M931.1,499.7l0,-17" class="g2_1" />
<path d="M929,499.7l0,-17" class="g2_1" />
<path d="M930,499.7l0,-17" class="g2_1" />
<path d="M931.1,482l0,-17" class="g2_1" />
<path d="M929,482l0,-17" class="g2_1" />
<path d="M930,482l0,-17" class="g2_1" />
<path d="M931.1,464.4l0,-17.1" class="g2_1" />
<path d="M929,464.4l0,-17.1" class="g2_1" />
<path d="M930,464.4l0,-17.1" class="g2_1" />
<path d="M931.1,446.7l0,-15.2" class="g2_1" />
<path d="M929,446.7l0,-15.2" class="g2_1" />
<path d="M930,446.7l0,-15.2" class="g2_1" />
<path d="M978.2,502.4l-15.6,0" class="g2_1" />
<path d="M978.2,500.4l-15.6,0" class="g2_1" />
<path d="M978.2,501.4l-15.6,0" class="g2_1" />
<path d="M947.3,502.4l-15.6,0" class="g2_1" />
<path d="M947.3,500.4l-15.6,0" class="g2_1" />
<path d="M947.3,501.4l-15.6,0" class="g2_1" />
<path d="M984.7,677.7l0,-16.2" class="g2_1" />
<path d="M982.7,677.7l0,-16.2" class="g2_1" />
<path d="M983.7,677.7l0,-16.2" class="g2_1" />
<path d="M984.7,660.7l0,-16.2" class="g2_1" />
<path d="M982.7,660.7l0,-16.2" class="g2_1" />
<path d="M983.7,660.7l0,-16.2" class="g2_1" />
<path d="M984.7,643.8l0,-16.2" class="g2_1" />
<path d="M982.7,643.8l0,-16.2" class="g2_1" />
<path d="M983.7,643.8l0,-16.2" class="g2_1" />
<path d="M984.7,626.8l0,-14.2" class="g2_1" />
<path d="M982.7,626.8l0,-14.2" class="g2_1" />
<path d="M983.7,626.8l0,-14.2" class="g2_1" />
<path d="M1003.4,611.9l17.3,0" class="g2_1" />
<path d="M1003.4,609.9l17.3,0" class="g2_1" />
<path d="M1003.4,610.9l17.3,0" class="g2_1" />
<path d="M985.4,609.9l17.3,0" class="g2_1" />
<path d="M985.4,611.9l17.3,0" class="g2_1" />
<path d="M985.4,610.9l17.3,0" class="g2_1" />
<path d="M1036,611.9l17.3,0" class="g2_1" />
<path d="M1036,609.9l17.3,0" class="g2_1" />
<path d="M1036,610.9l17.3,0" class="g2_1" />
<path d="M1054,611.9l17.3,0" class="g2_1" />
<path d="M1054,609.9l17.3,0" class="g2_1" />
<path d="M1054,610.9l17.3,0" class="g2_1" />
<path d="M913.4,427.6l0,-21.8" class="g1_1" />
<path d="M916.1,427.6l0,-19" class="g1_1" />
<path d="M907.3,386.7l-8,0" class="g1_1" />
<path d="M907.3,382.9l-8,0" class="g1_1" />
<path d="M907.3,384.8l-8,0" class="g2_1" />
<path d="M907.3,384.5l-8,0" class="g2_1" />
<path d="M907.3,385.2l-8,0" class="g2_1" />
<path d="M498.7,218.1l12.4,0" class="g2_1" />
<path d="M498.7,216.3l12.4,0" class="g2_1" />
<path d="M498.7,217.2l12.4,0" class="g2_1" />
<path d="M485.6,218.1l12.4,0" class="g2_1" />
<path d="M485.6,216.3l12.4,0" class="g2_1" />
<path d="M485.6,217.2l12.4,0" class="g2_1" />
<path d="M440,218.1l12.5,0" class="g2_1" />
<path d="M440,216.3l12.5,0" class="g2_1" />
<path d="M440,217.2l12.5,0" class="g2_1" />
<path d="M426.8,218.1l12.5,0" class="g2_1" />
<path d="M426.8,216.3l12.5,0" class="g2_1" />
<path d="M426.8,217.2l12.5,0" class="g2_1" />
<path d="M114.1,120.4l0,-0.8" class="g1_1" />
<path d="M114.1,119.2l0,-14.8" class="g1_1" />
<path d="M46.6,709.6l-0.7,0" class="g1_1" />
<path d="M45.4,709.6l-14.7,0" class="g1_1" />
<path d="M331.4,789.6l16.6,0" class="g2_1" />
<path d="M331.4,791.7l16.6,0" class="g2_1" />
<path d="M331.4,790.6l16.6,0" class="g2_1" />
<path d="M349.1,789.6l16.6,0" class="g2_1" />
<path d="M349.1,791.7l16.6,0" class="g2_1" />
<path d="M349.1,790.6l16.6,0" class="g2_1" />
<path d="M366.7,789.6l16.7,0" class="g2_1" />
<path d="M366.7,791.7l16.7,0" class="g2_1" />
<path d="M366.7,790.6l16.7,0" class="g2_1" />
<path d="M384.4,789.6l16.6,0" class="g2_1" />
<path d="M384.4,791.7l16.6,0" class="g2_1" />
<path d="M384.4,790.6l16.6,0" class="g2_1" />
<path d="M402.1,789.6l16.5,0" class="g2_1" />
<path d="M402.1,791.7l16.5,0" class="g2_1" />
<path d="M402.1,790.6l16.5,0" class="g2_1" />
<path d="M231.6,789.6l-16.6,0" class="g2_1" />
<path d="M231.6,791.7l-16.6,0" class="g2_1" />
<path d="M231.6,790.6l-16.6,0" class="g2_1" />
<path d="M214,789.6l-16.7,0" class="g2_1" />
<path d="M214,791.7l-16.7,0" class="g2_1" />
<path d="M214,790.6l-16.7,0" class="g2_1" />
<path d="M196.3,789.6l-16.6,0" class="g2_1" />
<path d="M196.3,791.7l-16.6,0" class="g2_1" />
<path d="M196.3,790.6l-16.6,0" class="g2_1" />
<path d="M178.6,789.6l-16.6,0" class="g2_1" />
<path d="M178.6,791.7l-16.6,0" class="g2_1" />
<path d="M178.6,790.6l-16.6,0" class="g2_1" />
<path d="M161,789.6l-16.7,0" class="g2_1" />
<path d="M161,791.7l-16.7,0" class="g2_1" />
<path d="M161,790.6l-16.7,0" class="g2_1" />
<path d="M34.1,679.4l0,-16.6" class="g2_1" />
<path d="M32.1,679.4l0,-16.6" class="g2_1" />
<path d="M33.1,679.4l0,-16.6" class="g2_1" />
<path d="M34.1,661.8l0,-16.7" class="g2_1" />
<path d="M32.1,661.8l0,-16.7" class="g2_1" />
<path d="M33.1,661.8l0,-16.7" class="g2_1" />
<path d="M34.1,644.1l0,-16.6" class="g2_1" />
<path d="M32.1,644.1l0,-16.6" class="g2_1" />
<path d="M33.1,644.1l0,-16.6" class="g2_1" />
<path d="M34.1,626.4l0,-16.5" class="g2_1" />
<path d="M32.1,626.4l0,-16.5" class="g2_1" />
<path d="M33.1,626.4l0,-16.5" class="g2_1" />
<path d="M34.1,608.8l0,-16.6" class="g2_1" />
<path d="M32.1,608.8l0,-16.6" class="g2_1" />
<path d="M33.1,608.8l0,-16.6" class="g2_1" />
<path d="M34.1,405.1l0,16.7" class="g2_1" />
<path d="M32.1,405.1l0,16.7" class="g2_1" />
<path d="M33.1,405.1l0,16.7" class="g2_1" />
<path d="M34.1,422.8l0,16.6" class="g2_1" />
<path d="M32.1,422.8l0,16.6" class="g2_1" />
<path d="M33.1,422.8l0,16.6" class="g2_1" />
<path d="M34.1,440.5l0,16.5" class="g2_1" />
<path d="M32.1,440.5l0,16.5" class="g2_1" />
<path d="M33.1,440.5l0,16.5" class="g2_1" />
<path d="M34.1,458.1l0,16.6" class="g2_1" />
<path d="M32.1,458.1l0,16.6" class="g2_1" />
<path d="M33.1,458.1l0,16.6" class="g2_1" />
<path d="M34.1,475.7l0,16.7" class="g2_1" />
<path d="M32.1,475.7l0,16.7" class="g2_1" />
<path d="M33.1,475.7l0,16.7" class="g2_1" />
<path d="M34.1,305.3l0,-16.6" class="g2_1" />
<path d="M32.1,305.3l0,-16.6" class="g2_1" />
<path d="M33.1,305.3l0,-16.6" class="g2_1" />
<path d="M34.1,287.6l0,-16.5" class="g2_1" />
<path d="M32.1,287.6l0,-16.5" class="g2_1" />
<path d="M33.1,287.6l0,-16.5" class="g2_1" />
<path d="M34.1,270l0,-16.6" class="g2_1" />
<path d="M32.1,270l0,-16.6" class="g2_1" />
<path d="M33.1,270l0,-16.6" class="g2_1" />
<path d="M34.1,252.4l0,-16.7" class="g2_1" />
<path d="M32.1,252.4l0,-16.7" class="g2_1" />
<path d="M33.1,252.4l0,-16.7" class="g2_1" />
<path d="M34.1,234.7l0,-16.6" class="g2_1" />
<path d="M32.1,234.7l0,-16.6" class="g2_1" />
<path d="M33.1,234.7l0,-16.6" class="g2_1" />
<path d="M231.6,107.9l-16.6,0" class="g2_1" />
<path d="M231.6,105.8l-16.6,0" class="g2_1" />
<path d="M231.6,106.9l-16.6,0" class="g2_1" />
<path d="M213.9,107.9l-16.6,0" class="g2_1" />
<path d="M213.9,105.8l-16.6,0" class="g2_1" />
<path d="M213.9,106.9l-16.6,0" class="g2_1" />
<path d="M196.3,107.9l-16.6,0" class="g2_1" />
<path d="M196.3,105.8l-16.6,0" class="g2_1" />
<path d="M196.3,106.9l-16.6,0" class="g2_1" />
<path d="M178.6,107.9l-16.6,0" class="g2_1" />
<path d="M178.6,105.8l-16.6,0" class="g2_1" />
<path d="M178.6,106.9l-16.6,0" class="g2_1" />
<path d="M161,107.9l-16.7,0" class="g2_1" />
<path d="M161,105.8l-16.7,0" class="g2_1" />
<path d="M161,106.9l-16.7,0" class="g2_1" />
<path d="M331.4,107.9l16.6,0" class="g2_1" />
<path d="M331.4,105.8l16.6,0" class="g2_1" />
<path d="M331.4,106.9l16.6,0" class="g2_1" />
<path d="M349.1,107.9l16.6,0" class="g2_1" />
<path d="M349.1,105.8l16.6,0" class="g2_1" />
<path d="M349.1,106.9l16.6,0" class="g2_1" />
<path d="M366.7,107.9l16.6,0" class="g2_1" />
<path d="M366.7,105.8l16.6,0" class="g2_1" />
<path d="M366.7,106.9l16.6,0" class="g2_1" />
<path d="M384.4,107.9l16.6,0" class="g2_1" />
<path d="M384.4,105.8l16.6,0" class="g2_1" />
<path d="M384.4,106.9l16.6,0" class="g2_1" />
<path d="M402,107.9l16.6,0" class="g2_1" />
<path d="M402,105.8l16.6,0" class="g2_1" />
<path d="M402,106.9l16.6,0" class="g2_1" />
<path d="M84.8,89.7l-2.1,4.4l1.4,1l-3.8,0l1.5,1.1L78.9,102" class="g1_1" />
<path d="M16.3,730.3l4.3,2l0.9,-1.4l0,3.8l1.1,-1.5l5.6,2.8" class="g1_1" />
<path d="M579.4,566.3l12.1,5.8l1,-1.4l0,3.8l0.9,-1.5l11.3,5.4" class="g1_1" />
<path d="M579.4,564.4l12.6,6l1,-1.4l0,3.7l1,-1.3l10.7,5.1" class="g1_1" />
<path fill-rule="evenodd" d="M594.3,560l-0.7,4.1L592.9,560Z" class="g3_1" />
<path d="M593.6,560l0,-16l-43.8,0" class="g1_1" />
<path fill-rule="evenodd" d="M591.4,583.6l0.8,-4.3l0.6,4.3Z" class="g3_1" />
<path d="M592.2,583.6l0,18.7l-41.6,0" class="g1_1" />
<path d="M941.5,408.6l-4.1,8.6l1.4,0.9l-3.8,0l1.5,1l-4.2,8.5" class="g1_1" />
<path fill-rule="evenodd" d="M949,418.8l-4.1,-0.7l4.1,-0.6Z" class="g3_1" />
<path d="M949,418.1l20.1,0l0,-21.8l-54.2,0" class="g1_1" />
<path d="M1169,745.3l11.5,5.5l1,-1.3l0,3.7l1,-1.3l9.3,4.4" class="g1_1" />
<path fill-rule="evenodd" d="M1180.8,763.1l0.7,-4.1l0.7,4.1Z" class="g3_1" />
<path d="M1181.5,763.1l0,30.6l-27.9,0l0,-36.4" class="g1_1" />
<path d="M890.2,382.9l0,7" class="g2_1" />
<path d="M614.1,215.2l-9.1,0" class="g2_1" />
<path d="M549.3,211.8l64.8,0l0,3.4" class="g2_1" />
<path d="M517.7,123.8l0,-4.8" class="g2_1" />
<path d="M512.9,123.8l0,-4.8" class="g2_1" />
<path d="M424.2,123.8l0,-4.8" class="g2_1" />
<path d="M419.4,119l0,4.8l4.8,0" class="g2_1" />
<path d="M330.6,123.8l-4.8,0" class="g2_1" />
<path d="M237.1,123.8l0,-4.8" class="g2_1" />
<path d="M232.3,119l0,4.8l4.8,0" class="g2_1" />
<path d="M143.6,119l0,-31" class="g2_1" />
<path d="M143.6,123.8l-4.8,0l0,-4.8" class="g2_1" />
<path d="M50,123.8L50,119" class="g2_1" />
<path d="M45.2,119l0,4.8l4.8,0" class="g2_1" />
<path d="M45.2,212.5l4.8,0l0,4.8l-4.8,0" class="g2_1" />
<path d="M45.2,306.1l4.8,0l0,4.7l-4.8,0" class="g2_1" />
<path d="M45.2,399.6l4.8,0l0,4.8l-4.8,0" class="g2_1" />
<path d="M45.2,493.1l4.8,0l0,4.8l-4.8,0" class="g2_1" />
<path d="M45.2,586.7l4.8,0l0,4.7l-4.8,0" class="g2_1" />
<path d="M45.2,680.2l4.8,0l0,4.8" class="g2_1" />
<path d="M45.2,778.5l4.8,0l0,-4.8" class="g2_1" />
<path d="M138.8,773.7l0,4.8" class="g2_1" />
<path d="M143.6,778.5l0,-4.8l-4.8,0" class="g2_1" />
<path d="M232.3,773.7l0,4.8" class="g2_1" />
<path d="M237.1,778.5l0,-4.8l-4.8,0" class="g2_1" />
<path d="M325.8,773.7l0,4.8" class="g2_1" />
<path d="M330.6,778.5l0,-4.8l-4.8,0" class="g2_1" />
<path d="M231.6,791.7l99.8,0" class="g2_1" />
<path d="M517.4,791.7l0,-13.2" class="g2_1" />
<path d="M613,780.3l-4.9,0" class="g2_1" />
<path d="M609.9,391.6l-0.7,0" class="g2_1" />
<path d="M612,389.9l-7,0" class="g2_1" />
<path d="M624.6,391.6l0,-1.7" class="g2_1" />
<path d="M609.9,391.6l0,-1.7" class="g2_1" />
<path d="M625.4,391.6l-0.8,0" class="g2_1" />
<path d="M625.4,389.9l-0.8,0" class="g2_1" />
<path d="M640.2,391.6l0,-1.7" class="g2_1" />
<path d="M625.4,391.6l0,-1.7" class="g2_1" />
<path d="M641,391.6l-0.8,0" class="g2_1" />
<path d="M641,389.9l-0.8,0" class="g2_1" />
<path d="M655.8,391.6l0,-1.7" class="g2_1" />
<path d="M641,391.6l0,-1.7" class="g2_1" />
<path d="M656.7,391.6l-0.9,0" class="g2_1" />
<path d="M656.7,389.9l-0.9,0" class="g2_1" />
<path d="M671.4,391.6l0,-1.7" class="g2_1" />
<path d="M656.7,391.6l0,-1.7" class="g2_1" />
<path d="M672.3,391.6l-0.9,0" class="g2_1" />
<path d="M672.3,389.9l-0.9,0" class="g2_1" />
<path d="M687,391.6l0,-1.7" class="g2_1" />
<path d="M672.3,391.6l0,-1.7" class="g2_1" />
<path d="M687.9,391.6l-0.9,0" class="g2_1" />
<path d="M687.9,389.9l-0.9,0" class="g2_1" />
<path d="M702.5,391.6l0,-1.7" class="g2_1" />
<path d="M687.9,391.6l0,-1.7" class="g2_1" />
<path d="M703.5,391.6l-1,0" class="g2_1" />
<path d="M703.5,389.9l-1,0" class="g2_1" />
<path d="M718.1,391.6l0,-1.7" class="g2_1" />
<path d="M703.5,391.6l0,-1.7" class="g2_1" />
<path d="M719,391.6l-0.9,0" class="g2_1" />
<path d="M719,389.9l-0.9,0" class="g2_1" />
<path d="M733.7,391.6l0,-1.7" class="g2_1" />
<path d="M719,391.6l0,-1.7" class="g2_1" />
<path d="M734.6,391.6l-0.9,0" class="g2_1" />
<path d="M734.6,389.9l-0.9,0" class="g2_1" />
<path d="M749.3,391.6l0,-1.7" class="g2_1" />
<path d="M734.6,391.6l0,-1.7" class="g2_1" />
<path d="M750.2,391.6l-0.9,0" class="g2_1" />
<path d="M750.2,389.9l-0.9,0" class="g2_1" />
<path d="M765,391.6l0,-1.7" class="g2_1" />
<path d="M750.2,391.6l0,-1.7" class="g2_1" />
<path d="M765.8,391.6l-0.8,0" class="g2_1" />
<path d="M765.8,389.9l-0.8,0" class="g2_1" />
<path d="M780.5,391.6l0,-1.7" class="g2_1" />
<path d="M765.8,391.6l0,-1.7" class="g2_1" />
<path d="M781.4,391.6l-0.9,0" class="g2_1" />
<path d="M781.4,389.9l-0.9,0" class="g2_1" />
<path d="M796.1,391.6l0,-1.7" class="g2_1" />
<path d="M781.4,391.6l0,-1.7" class="g2_1" />
<path d="M797,391.6l-0.9,0" class="g2_1" />
<path d="M797,389.9l-0.9,0" class="g2_1" />
<path d="M811.7,391.6l0,-1.7" class="g2_1" />
<path d="M797,391.6l0,-1.7" class="g2_1" />
<path d="M812.5,391.6l-0.8,0" class="g2_1" />
<path d="M812.5,389.9l-0.8,0" class="g2_1" />
<path d="M827.3,391.6l0,-1.7" class="g2_1" />
<path d="M812.5,391.6l0,-1.7" class="g2_1" />
<path d="M828.1,391.6l-0.8,0" class="g2_1" />
<path d="M828.1,389.9l-0.8,0" class="g2_1" />
<path d="M842.9,391.6l0,-1.7" class="g2_1" />
<path d="M828.1,391.6l0,-1.7" class="g2_1" />
<path d="M843.7,391.6l-0.8,0" class="g2_1" />
<path d="M843.7,389.9l-0.8,0" class="g2_1" />
<path d="M858.5,391.6l0,-1.7" class="g2_1" />
<path d="M843.7,391.6l0,-1.7" class="g2_1" />
<path d="M890.5,391.6l-16.5,0" class="g2_1" />
<path d="M859.3,391.6l-0.8,0" class="g2_1" />
<path d="M890.2,389.9l-16.2,0" class="g2_1" />
<path d="M859.3,389.9l-0.8,0" class="g2_1" />
<path d="M874,391.6l0,-1.7" class="g2_1" />
<path d="M859.3,391.6l0,-1.7" class="g2_1" />
<path d="M613,584.9l0,8.3l-8.3,0l0,-8.3l8.3,0Z" class="g2_1" />
<path d="M1191.9,803l0,-118.2" class="g2_1" />
<path d="M605,529.5l-94.9,0" class="g2_1" />
<path d="M609.2,584.9l0,-55.4" class="g2_1" />
<path d="M422.9,656.2l0,-38.1" class="g2_1" />
<path d="M519.5,533l-9.4,0l0,-3.5" class="g2_1" />
<path d="M468.5,533.3l-13.1,0" class="g2_1" />
<path d="M604.7,614.7l0,-81.7" class="g2_1" />
<path d="M523,533l23.5,0" class="g2_1" />
<path d="M519.5,618.1l0,-31.2" class="g2_1" />
<path d="M519.5,560.3l0,-27.3" class="g2_1" />
<path d="M519.5,586.9l1.4,0" class="g2_1" />
<path d="M519.5,560.3l1.4,0" class="g2_1" />
<path d="M523,614.7l0,-28.6" class="g2_1" />
<path d="M523,561.2L523,533" class="g2_1" />
<path d="M520.9,586.9l0,-0.8" class="g2_1" />
<path d="M520.9,561.2l0,-0.9" class="g2_1" />
<path d="M520.9,586.8l2.1,0" class="g2_1" />
<path d="M520.9,560.5l2.1,0" class="g2_1" />
<path d="M523,614.7l81.7,0" class="g2_1" />
<path d="M580.8,565l0,-8.1" class="g2_1" />
<path d="M455.4,541.3l0,-8" class="g2_1" />
<path d="M455.4,560l-0.7,0l0,-2.1" class="g2_1" />
<path d="M455.4,541.3l-0.7,0l0,2l-3.3,0" class="g2_1" />
<path d="M451.4,557.9l3.3,0" class="g2_1" />
<path d="M451.9,607.1l0,-18.6" class="g2_1" />
<path d="M453.5,588.5l0,-0.8" class="g2_1" />
<path d="M453.5,575.2l0,-0.9" class="g2_1" />
<path d="M455.4,618.1l0,-31.2" class="g2_1" />
<path d="M455.4,575.2l0,-15.2" class="g2_1" />
<path d="M455.4,588.3l-1.9,0" class="g2_1" />
<path d="M455.4,574.5l-1.9,0" class="g2_1" />
<path d="M453.5,574.3l-1.6,0" class="g2_1" />
<path d="M453.5,588.5l-1.6,0" class="g2_1" />
<path d="M451.9,574.3l0,-2.2l-29,0" class="g2_1" />
<path d="M451.9,607.1l-29,0l0,-14.9" class="g2_1" />
<path d="M422.9,585.9l0,-13.8" class="g2_1" />
<path d="M418.6,585.9l0,6.3l6.3,0l0,-6.3l-6.3,0Z" class="g2_1" />
<path d="M451.9,610.2l-29,0l0,6.3" class="g2_1" />
<path d="M451.9,610.2l0,6.3l-6.2,0" class="g2_1" />
<path d="M429.1,616.5l-6.2,0" class="g2_1" />
<path d="M455.4,618.1l-9.7,0" class="g2_1" />
<path d="M429.1,618.1l-6.2,0" class="g2_1" />
<path d="M446.4,618.1l0,-1.6" class="g2_1" />
<path d="M428.4,618.1l0,-1.6" class="g2_1" />
<path d="M518.5,498.7l-6.3,0" class="g2_1" />
<path d="M512.2,492.4l6.3,0l0,6.3" class="g2_1" />
<path d="M512.2,492.4l0,6.3" class="g2_1" />
<path d="M419.4,679.4l0,-87.2" class="g2_1" />
<path d="M468.5,488.2l-49.9,0" class="g2_1" />
<path d="M419.4,585.9l0,-55.4" class="g2_1" />
<path d="M331.4,585.9l0,6.3l-6.3,0" class="g2_1" />
<path d="M331.4,585.9l-6.3,0l0,6.3" class="g2_1" />
<path d="M325.1,492.4l0,6.3l6.3,0l0,-6.3l-6.3,0Z" class="g2_1" />
<path d="M325.1,398.8l0,6.3l6.3,0l0,-6.3l-6.3,0Z" class="g2_1" />
<path d="M325.1,305.3l0,6.3l6.3,0l0,-6.3l-6.3,0Z" class="g2_1" />
<path d="M325.1,211.8l0,6.3l6.3,0l0,-6.3l-6.3,0Z" class="g2_1" />
<path d="M561.7,732l-117.9,0" class="g2_1" />
<path d="M422.9,685.7l0,4.4" class="g2_1" />
<path d="M424.9,679.4l0,6.3l-6.3,0l0,-6.3l6.3,0Z" class="g2_1" />
<path d="M331.4,676.7l0,9l-6.3,0l0,-9" class="g2_1" />
<path d="M237.9,303.2l0,8.4l-6.3,0l0,-8.4" class="g2_1" />
<path d="M144.3,305.3l0,6.3l-6.2,0" class="g2_1" />
<path d="M144.3,305.3l-6.2,0l0,6.3" class="g2_1" />
<path d="M418.6,492.4l0,6.3l6.3,0l0,-6.3l-6.3,0Z" class="g2_1" />
<path d="M418.6,398.8l0,6.3l6.3,0l0,-6.3l-6.3,0Z" class="g2_1" />
<path d="M418.6,305.3l0,6.3l6.3,0l0,-6.3l-6.3,0Z" class="g2_1" />
<path d="M512.2,398.8l0,6.3l6.3,0l0,-6.3l-6.3,0Z" class="g2_1" />
<path d="M512.2,304.6l0,6.2l6.3,0l0,-6.2l-6.3,0Z" class="g2_1" />
<path d="M518.5,215.2l84.9,0l0,0.4" class="g2_1" />
<path d="M605,215.2l0,0.4" class="g2_1" />
<path d="M603.4,230.2l1.6,0" class="g2_1" />
<path d="M603.4,215.6l1.6,0" class="g2_1" />
<path d="M603.4,230.8l0,-0.6" class="g2_1" />
<path d="M605,230.2l0,0.6" class="g2_1" />
<path d="M603.4,245.4l1.6,0" class="g2_1" />
<path d="M603.4,230.8l1.6,0" class="g2_1" />
<path d="M603.4,246.1l0,-0.7" class="g2_1" />
<path d="M605,245.4l0,0.7" class="g2_1" />
<path d="M603.4,260.6l1.6,0" class="g2_1" />
<path d="M603.4,246.1l1.6,0" class="g2_1" />
<path d="M603.4,261.3l0,-0.7" class="g2_1" />
<path d="M605,260.6l0,0.7" class="g2_1" />
<path d="M603.4,275.9l1.6,0" class="g2_1" />
<path d="M603.4,261.3l1.6,0" class="g2_1" />
<path d="M603.4,276.6l0,-0.7" class="g2_1" />
<path d="M605,275.9l0,0.7" class="g2_1" />
<path d="M603.4,291.1l1.6,0" class="g2_1" />
<path d="M603.4,276.6l1.6,0" class="g2_1" />
<path d="M603.4,291.9l0,-0.8" class="g2_1" />
<path d="M605,291.1l0,0.8" class="g2_1" />
<path d="M603.4,306.3l1.6,0" class="g2_1" />
<path d="M603.4,291.9l1.6,0" class="g2_1" />
<path d="M605,306.3l0,2.5" class="g2_1" />
<path d="M605,324.4l-1.6,0l0,0.6" class="g2_1" />
<path d="M605,324.4l0,0.6" class="g2_1" />
<path d="M603.4,339.6l1.6,0" class="g2_1" />
<path d="M603.4,325l1.6,0" class="g2_1" />
<path d="M603.4,340.4l0,-0.8" class="g2_1" />
<path d="M605,339.6l0,0.8" class="g2_1" />
<path d="M603.4,354.8l1.6,0" class="g2_1" />
<path d="M603.4,340.4l1.6,0" class="g2_1" />
<path d="M603.4,355.6l0,-0.8" class="g2_1" />
<path d="M605,354.8l0,0.8" class="g2_1" />
<path d="M603.4,370.1l1.6,0" class="g2_1" />
<path d="M603.4,355.6l1.6,0" class="g2_1" />
<path d="M603.4,401.7l0,-16.3" class="g2_1" />
<path d="M603.4,370.8l0,-0.7" class="g2_1" />
<path d="M605,370.1l0,0.7" class="g2_1" />
<path d="M605,382.6l0,7.3" class="g2_1" />
<path d="M603.4,385.4l1.6,0" class="g2_1" />
<path d="M603.4,370.8l1.6,0" class="g2_1" />
<path d="M603.4,308.8l1.6,0" class="g2_1" />
<path d="M418.6,211.8l0,6.3l6.3,0l0,-6.3l-6.3,0Z" class="g2_1" />
<path d="M512.2,211.8l0,6.3l6.3,0l0,-6.3l-6.3,0Z" class="g2_1" />
<path d="M517.7,123.8l-4.8,0" class="g2_1" />
<path d="M517.7,119l-4.8,0" class="g2_1" />
<path d="M419.4,119l4.8,0" class="g2_1" />
<path d="M325.8,123.8l0,-4.8" class="g2_1" />
<path d="M330.6,123.8l0,-4.8" class="g2_1" />
<path d="M232.3,119l4.8,0" class="g2_1" />
<path d="M45.2,212.5l0,4.8" class="g2_1" />
<path d="M102.8,124.2l-52.7,0" class="g2_1" />
<path d="M119,124.2l0,2.8l-16.2,0l0,-2.8" class="g2_1" />
<path d="M143.6,124.2l-5.7,0" class="g2_1" />
<path d="M123.7,124.2l-4.7,0" class="g2_1" />
<path d="M137.9,124.2l0,-1.7" class="g2_1" />
<path d="M123.7,124.2l0,-1.7" class="g2_1" />
<path d="M143.6,119l-4.8,0" class="g2_1" />
<path d="M140.2,119l0,-29.3" class="g2_1" />
<path d="M50.1,119l-4.9,0l0,-28.1" class="g2_1" />
<path d="M48.7,116.9l0,-27.2" class="g2_1" />
<path d="M138.8,120.4l-1.8,0" class="g2_1" />
<path d="M124.6,120.4l-72.4,0" class="g2_1" />
<path d="M137.9,122.5l-0.9,0" class="g2_1" />
<path d="M124.6,122.5l-0.9,0" class="g2_1" />
<path d="M137.7,122.5l0,-2.1" class="g2_1" />
<path d="M123.8,122.5l0,-2.1" class="g2_1" />
<path d="M48.7,116.9l3.5,3.5" class="g2_1" />
<path d="M36.2,404.4l0,-98.3" class="g2_1" />
<path d="M45.2,310.8l0,-4.7" class="g2_1" />
<path d="M45.2,399.6l0,4.8" class="g2_1" />
<path d="M144.3,211.8l0,6.3l-6.2,0" class="g2_1" />
<path d="M144.3,211.8l-6.2,0l0,6.3" class="g2_1" />
<path d="M231.6,218.1l0,-9.1" class="g2_1" />
<path d="M237.9,209l0,9.1l-6.3,0" class="g2_1" />
<path d="M231.6,405.1l6.3,0l0,-6.3" class="g2_1" />
<path d="M231.6,405.1l0,-6.3l6.3,0" class="g2_1" />
<path d="M138.1,405.1l6.2,0l0,-6.3" class="g2_1" />
<path d="M138.1,405.1l0,-6.3l6.2,0" class="g2_1" />
<path d="M45.2,497.9l0,-4.8" class="g2_1" />
<path d="M237.9,498.7l0,-9.1" class="g2_1" />
<path d="M231.6,498.7l0,-9.1" class="g2_1" />
<path d="M237.9,583.8l0,8.4l-6.3,0l0,-8.4" class="g2_1" />
<path d="M231.6,498.7l6.3,0" class="g2_1" />
<path d="M237.9,676.7l0,9l-6.3,0l0,-9" class="g2_1" />
<path d="M144.3,585.9l0,6.3l-6.2,0" class="g2_1" />
<path d="M144.3,585.9l-6.2,0l0,6.3" class="g2_1" />
<path d="M138.1,492.4l0,6.3l6.2,0l0,-6.3l-6.2,0Z" class="g2_1" />
<path d="M144.3,679.4l0,6.3l-6.2,0" class="g2_1" />
<path d="M144.3,679.4l-6.2,0l0,6.3" class="g2_1" />
<path d="M45.2,586.7l0,4.7" class="g2_1" />
<path d="M232.3,778.5l4.8,0" class="g2_1" />
<path d="M143.6,778.5l-4.8,0" class="g2_1" />
<path d="M143.6,123.8l0,-4.8" class="g2_1" />
<path d="M50.1,685l-4.9,0" class="g2_1" />
<path d="M50.1,773.7l-4.9,0" class="g2_1" />
<path d="M50.4,721l0,52.7" class="g2_1" />
<path d="M53.2,701.4l0,19.6l-2.8,0" class="g2_1" />
<path d="M50.4,680.2l0,5.6" class="g2_1" />
<path d="M50.4,700.1l0,1.3" class="g2_1" />
<path d="M50.4,685.8l-1.4,0" class="g2_1" />
<path d="M50.4,700.1l-1.4,0" class="g2_1" />
<path d="M45.2,680.2l0,4.8" class="g2_1" />
<path d="M45.2,683.6l-28.9,0" class="g2_1" />
<path d="M45.2,773.7l0,4.8" class="g2_1" />
<path d="M43.2,775l-26.9,0" class="g2_1" />
<path d="M46.6,685l0,1.8" class="g2_1" />
<path d="M46.6,699.2l0,72.4" class="g2_1" />
<path d="M49,685.8l0,1" class="g2_1" />
<path d="M49,699.2l0,0.9" class="g2_1" />
<path d="M49,686l-2.4,0" class="g2_1" />
<path d="M49,699.9l-2.4,0" class="g2_1" />
<path d="M43.2,775l3.4,-3.4" class="g2_1" />
<path d="M50.4,701.4l2.8,0" class="g2_1" />
<path d="M419.4,685.7l0,89.3" class="g2_1" />
<path d="M330.6,778.5l-4.8,0" class="g2_1" />
<path d="M232.3,787.5l98.3,0" class="g2_1" />
<path d="M424.2,773.7l0,18" class="g2_1" />
<path d="M419.4,791.7l0,-18l4.8,0" class="g2_1" />
<path d="M424.2,791.7l-4.8,0l0,56.1" class="g2_1" />
<path d="M561.7,735.4l-138.8,0l0,38.3" class="g2_1" />
<path d="M422.9,791.7l0,53.4" class="g2_1" />
<path d="M514,787.9l-3.9,0" class="g2_1" />
<path d="M499.8,787.9l-75.6,0" class="g2_1" />
<path d="M514,787.9l0,-13.1" class="g2_1" />
<path d="M604.7,774.8l-39.5,0l0,-92.9" class="g2_1" />
<path d="M561.7,735.4l0,39.4l-47.7,0" class="g2_1" />
<path d="M604.7,774.8l0,-94.3" class="g2_1" />
<path d="M465.8,530.5l-44.3,0" class="g2_1" />
<path d="M465.8,491.1l-44.3,0" class="g2_1" />
<path d="M421.5,530.5l0,-31.8" class="g2_1" />
<path d="M421.5,492.4l0,-1.3" class="g2_1" />
<path d="M465.8,530.5l0,-13.9" class="g2_1" />
<path d="M465.8,504.2l0,-13.1" class="g2_1" />
<path d="M468.5,533.3l0,-16.7" class="g2_1" />
<path d="M468.5,504.2l0,-16" class="g2_1" />
<path d="M468.5,517.4l-2.7,0" class="g2_1" />
<path d="M468.5,503.5l-2.7,0" class="g2_1" />
<path d="M1159.7,681.2l0,-15.2l4.1,0" class="g2_1" />
<path d="M1163.8,651.4l-4.1,0l0,-14.9" class="g2_1" />
<path d="M890.5,431.1l0,-5.2" class="g2_1" />
<path d="M890.5,412.4l0,-7.3" class="g2_1" />
<path d="M890.5,425.9l1.7,0" class="g2_1" />
<path d="M890.5,412.4l1.7,0" class="g2_1" />
<path d="M894.3,427.6l0,-2.3" class="g2_1" />
<path d="M894.3,412.9l0,-26.2" class="g2_1" />
<path d="M892.2,426.1l0,-0.8" class="g2_1" />
<path d="M892.2,412.9l0,-0.7" class="g2_1" />
<path d="M892.2,426.1l2.1,0" class="g2_1" />
<path d="M892.2,412.2l2.1,0" class="g2_1" />
<path d="M973.6,427.6l-79.3,0" class="g2_1" />
<path d="M519.5,618.1l85.2,0" class="g2_1" />
<path d="M613,678.4l0,8.4l-8.3,0l0,-8.4l8.3,0Z" class="g2_1" />
<path d="M613.5,678.1l-5,0" class="g2_1" />
<path d="M613.5,701.2l-5.4,0" class="g2_1" />
<path d="M613,771.9l0,8.4l-8.3,0l0,-8.4l8.3,0Z" class="g2_1" />
<path d="M604.7,778.5l-87.3,0" class="g2_1" />
<path d="M479.3,791.7l0,56.1" class="g2_1" />
<path d="M475.8,845.1l0,-53.4l-51.6,0" class="g2_1" />
<path d="M479.3,791.7l20.5,0" class="g2_1" />
<path d="M510.1,791.7l7.3,0" class="g2_1" />
<path d="M419.4,847.8l59.9,0" class="g2_1" />
<path d="M422.9,845.1l52.9,0" class="g2_1" />
<path d="M1174.5,386.4l16.3,0l0,-3.5" class="g2_1" />
<path d="M1174.5,491.7l0,-105.3" class="g2_1" />
<path d="M1176.6,500l0,-8.3l-2.1,0" class="g2_1" />
<path d="M1173.8,495.5l-0.1,-0.9l-0.4,-0.9c-1.5,-2.8,-5.6,-2.4,-6.7,0.5l-0.3,0.9l0,0.9c0.5,3.6,5.2,4.6,7,1.4l0.4,-0.9l0.1,-1Z" class="g4_1" />
<path d="M1171.1,490.1l0,-75.5" class="g2_1" />
<path d="M1173.8,402l-0.1,-1l-0.4,-0.9c-1.5,-2.8,-5.6,-2.4,-6.7,0.5l-0.3,0.9l0,0.9c0.5,3.6,5.2,4.6,7,1.4l0.4,-0.9l0.1,-0.9Z" class="g4_1" />
<path d="M1171.1,396.5l0,-9.8" class="g2_1" />
<path d="M981.3,458.2l0,-53.1" class="g2_1" />
<path d="M981.3,398.8l0,-12.1" class="g2_1" />
<path d="M1159.7,681.2l-20.5,0l0,4.8" class="g2_1" />
<path d="M1139.2,712.1l0,65.4" class="g2_1" />
<path d="M1139.2,686l1.8,0" class="g2_1" />
<path d="M1139.2,712.1l1.8,0" class="g2_1" />
<path d="M1143,684.8l0,1.8" class="g2_1" />
<path d="M1143,711.5l0,91.5" class="g2_1" />
<path d="M1141,685.9l0,0.7" class="g2_1" />
<path d="M1141,711.5l0,0.8" class="g2_1" />
<path d="M1141,685.9l2,0" class="g2_1" />
<path d="M1141,712.3l2,0" class="g2_1" />
<path d="M1143,684.8l48.9,0" class="g2_1" />
<path d="M1143,803l48.9,0" class="g2_1" />
<path d="M1159.7,636.5l36.4,0l0,170.8l-56.9,0l0,-25.7" class="g2_1" />
<path d="M1139.2,777.5l-32.9,0" class="g2_1" />
<path d="M986.8,783.6l0,-2" class="g2_1" />
<path d="M978.5,771.9l0,11.7l8.3,0" class="g2_1" />
<path d="M1139.2,781.6l-152.4,0" class="g2_1" />
<path d="M1080.3,776.1l-0.1,-0.9l-0.4,-0.9c-1.5,-2.8,-5.6,-2.5,-6.7,0.5l-0.3,0.9l0,0.9c0.5,3.6,5.2,4.6,7,1.4l0.4,-0.9l0.1,-1Z" class="g4_1" />
<path d="M706.1,776.1L706,775.2l-0.3,-0.9c-1.6,-2.8,-5.7,-2.5,-6.8,0.5l-0.3,0.9l0,0.9c0.6,3.6,5.2,4.6,7.1,1.4l0.3,-0.9l0.1,-1Z" class="g4_1" />
<path d="M799.7,776.1l-0.1,-0.9l-0.4,-0.9c-1.5,-2.8,-5.6,-2.5,-6.7,0.5l-0.3,0.9l0,0.9c0.6,3.6,5.2,4.6,7,1.4l0.4,-0.9l0.1,-1Z" class="g4_1" />
<path d="M893.2,776.1l-0.1,-0.9l-0.4,-0.9c-1.5,-2.8,-5.6,-2.5,-6.7,0.5l-0.3,0.9l0,0.9c0.6,3.6,5.2,4.6,7,1.4l0.4,-0.9l0.1,-1Z" class="g4_1" />
<path d="M978.5,422.8l0,-31.2l-4.9,-4.9" class="g2_1" />
<path d="M978.5,422.8l-4.9,4.8" class="g2_1" />
<path d="M890.5,398.8l0,-7.2" class="g2_1" />
<path d="M608.5,678.1l0,-1.4" class="g2_1" />
<path d="M608.5,663.2l0,-70" class="g2_1" />
<path d="M608.5,676.7l-1.4,0" class="g2_1" />
<path d="M608.5,663.2l-1.4,0" class="g2_1" />
<path d="M604.7,678.4l0,-2.3" class="g2_1" />
<path d="M604.7,663.7l0,-45.6" class="g2_1" />
<path d="M607.1,676.9l0,-0.8" class="g2_1" />
<path d="M607.1,663.7l0,-0.7" class="g2_1" />
<path d="M607.1,676.9l-2.4,0" class="g2_1" />
<path d="M607.1,663l-2.4,0" class="g2_1" />
<path d="M604.7,681.9l-39.5,0" class="g2_1" />
<path d="M422.9,679.4l0,-21.4l1.7,0" class="g2_1" />
<path d="M437.1,658l4.9,0" class="g2_1" />
<path d="M422.9,656.2l1.7,0" class="g2_1" />
<path d="M437.1,656.2l105.8,0" class="g2_1" />
<path d="M423.9,656.2l0,1.8" class="g2_1" />
<path d="M437.7,656.2l0,1.8" class="g2_1" />
<path d="M442,691.8l0,37.7" class="g2_1" />
<path d="M422.9,691.8l0,37.7l19.1,0" class="g2_1" />
<path d="M422.9,691.8l3.4,0" class="g2_1" />
<path d="M438.7,691.8l3.3,0" class="g2_1" />
<path d="M422.9,690.1l3.4,0" class="g2_1" />
<path d="M438.7,690.1l3.3,0" class="g2_1" />
<path d="M425.6,690.1l0,1.7" class="g2_1" />
<path d="M439.5,690.1l0,1.7" class="g2_1" />
<path d="M541.1,658l-97.3,0l0,1.5" class="g2_1" />
<path d="M443.8,672l0,18.1" class="g2_1" />
<path d="M442,658l0,1.5" class="g2_1" />
<path d="M442,672l0,18.1" class="g2_1" />
<path d="M442,658.9l1.8,0" class="g2_1" />
<path d="M442,672.7l1.8,0" class="g2_1" />
<path d="M443.8,690.1l97.3,0l0,-32.1" class="g2_1" />
<path d="M542.9,656.2l0,22.2" class="g2_1" />
<path d="M542.9,680.2l0,32.1" class="g2_1" />
<path d="M561.7,680.2l0,32.1" class="g2_1" />
<path d="M604.7,678.4l-47.3,0" class="g2_1" />
<path d="M545,678.4l-2.1,0" class="g2_1" />
<path d="M561.7,680.2l-4.3,0" class="g2_1" />
<path d="M545,680.2l-2.1,0" class="g2_1" />
<path d="M558.1,680.2l0,-1.8" class="g2_1" />
<path d="M544.2,680.2l0,-1.8" class="g2_1" />
<path d="M561.7,732l0,-17.9l-2.1,0" class="g2_1" />
<path d="M547.2,714.1l-6.1,0" class="g2_1" />
<path d="M561.7,712.3l-2.1,0" class="g2_1" />
<path d="M547.2,712.3l-4.4,0" class="g2_1" />
<path d="M560.4,712.3l0,1.8" class="g2_1" />
<path d="M546.5,712.3l0,1.8" class="g2_1" />
<path d="M443.8,732l0,-32.6l97.3,0l0,14.7" class="g2_1" />
<path d="M978.8,431.1l-47.7,0" class="g2_1" />
<path d="M997.1,500l0,2.4" class="g2_1" />
<path d="M140.2,89.7l-91.5,0" class="g2_1" />
<path d="M143.6,88L13.7,88" class="g2_1" />
<path d="M16.3,683.6l0,91.4" class="g2_1" />
<path d="M143.6,123.8l0,0.4" class="g2_1" />
<path d="M50.1,680.2l0.3,0" class="g2_1" />
<path d="M419.4,530.5l-0.8,0l0,-31.8" class="g2_1" />
<path d="M418.6,492.4l0,-4.2" class="g2_1" />
<path d="M512.9,304.6l0,-26.7" class="g2_1" />
<path d="M516.4,304.6l0,-27.5" class="g2_1" />
<path d="M603.4,306.3l-0.8,0l0,-0.6" class="g2_1" />
<path d="M1173.8,589.1l-0.1,-1l-0.4,-0.9c-1.5,-2.8,-5.6,-2.4,-6.7,0.5l-0.3,0.9l0,0.9c0.5,3.6,5.2,4.6,7,1.4l0.4,-0.9l0.1,-0.9Z" class="g4_1" />
<path d="M546.5,556.9l34.3,0" class="g2_1" />
<path d="M548.3,555.1l34.2,0" class="g2_1" />
<path d="M548.3,532.9l56.4,0" class="g2_1" />
<path d="M582.5,565.9l0,-10.8" class="g2_1" />
<path d="M546.5,556.9l0,-6.3" class="g2_1" />
<path d="M546.5,538.2l0,-5.3" class="g2_1" />
<path d="M548.3,555.1l0,-4.5" class="g2_1" />
<path d="M548.3,538.2l0,-5.3" class="g2_1" />
<path d="M548.3,551.3l-1.8,0" class="g2_1" />
<path d="M548.3,537.4l-1.8,0" class="g2_1" />
<path d="M605,457.8l-94.5,0" class="g2_1" />
<path d="M613.5,678.1l0,23.2" class="g2_1" />
<path d="M1073.4,592.2l0,-6.3l6.3,0l0,6.3l-6.3,0Z" class="g2_1" />
<path d="M1079.7,498.7l0,-6.3l-6.3,0l0,6.3l6.3,0Z" class="g2_1" />
<path d="M1079.7,405.1l0,-6.3l-6.3,0l0,6.3l6.3,0Z" class="g2_1" />
<path d="M981.3,386.7l189.8,0" class="g2_1" />
<path d="M1079.7,498.3l86.2,0" class="g2_1" />
<path d="M986.2,405.1l0,-6.3l-6.4,0l0,6.3l6.4,0Z" class="g2_1" />
<path d="M986.2,498.7l0,-6.3l-6.4,0l0,6.3l6.4,0Z" class="g2_1" />
<path d="M1165.9,498.3l0,-8.2l5.2,0" class="g2_1" />
<path d="M1171.1,414.6l-5.2,0l0,-18.1l5.2,0" class="g2_1" />
<path d="M981.3,458.2l14.8,0" class="g2_1" />
<path d="M996.1,494.8l3.9,0l0,3.5" class="g2_1" />
<path d="M981.3,460l13.1,0" class="g2_1" />
<path d="M994.4,494.8l0,-12.8" class="g2_1" />
<path d="M994.4,469.5l0,-9.5" class="g2_1" />
<path d="M996.1,494.8l0,-12.8" class="g2_1" />
<path d="M996.1,469.5l0,-11.3" class="g2_1" />
<path d="M996.1,482.7l-1.7,0" class="g2_1" />
<path d="M996.1,468.9l-1.7,0" class="g2_1" />
<path d="M1019.9,500l-22.8,0" class="g2_1" />
<path d="M1000,498.3l19.9,0" class="g2_1" />
<path d="M1019.2,498.3l0,1.7" class="g2_1" />
<path d="M1033.1,498.3l0,1.7" class="g2_1" />
<path d="M1035.5,500l-3.1,0" class="g2_1" />
<path d="M1032.4,498.3l3.1,0" class="g2_1" />
<path d="M1047.3,500l0,-1.7" class="g2_1" />
<path d="M1035.5,500l0,-1.7" class="g2_1" />
<path d="M1047.9,500l-0.6,0" class="g2_1" />
<path d="M1047.3,498.3l0.6,0" class="g2_1" />
<path d="M1059.8,500l0,-1.7" class="g2_1" />
<path d="M1047.9,500l0,-1.7" class="g2_1" />
<path d="M1176.6,500l-104.4,0" class="g2_1" />
<path d="M1060.4,500l-0.6,0" class="g2_1" />
<path d="M1059.8,498.3l0.6,0" class="g2_1" />
<path d="M1073.4,498.3l-1.2,0l0,1.7" class="g2_1" />
<path d="M1060.4,500l0,-1.7" class="g2_1" />
<path d="M892.6,498.7l0,-6.3l-6.3,0l0,6.3l6.3,0Z" class="g2_1" />
<path d="M892.6,405.1l0,-6.3l-6.3,0l0,6.3l6.3,0Z" class="g2_1" />
<path d="M1079.7,685.7l0,-6.3l-6.3,0l0,6.3l6.3,0Z" class="g2_1" />
<path d="M929,431.1l-38.5,0" class="g2_1" />
<path d="M978.8,500.4l0,-69.3" class="g2_1" />
<path d="M994.4,494.8l-8.2,0" class="g2_1" />
<path d="M981.3,460l0,32.4" class="g2_1" />
<path d="M931.1,500.4l0,-0.7" class="g2_1" />
<path d="M929,502.4l0,-2.7l2.1,0" class="g2_1" />
<path d="M929,482.7l2.1,0l0,-0.7" class="g2_1" />
<path d="M929,482.7l0,-0.7l2.1,0" class="g2_1" />
<path d="M929,465l2.1,0l0,-0.6" class="g2_1" />
<path d="M929,465l0,-0.6l2.1,0" class="g2_1" />
<path d="M929,447.3l2.1,0l0,-0.6" class="g2_1" />
<path d="M931.1,431.5l0,-0.4" class="g2_1" />
<path d="M929,447.3l0,-0.6" class="g2_1" />
<path d="M929,431.5l0,-0.4" class="g2_1" />
<path d="M931.1,446.7l-2.1,0" class="g2_1" />
<path d="M931.1,431.5l-2.1,0" class="g2_1" />
<path d="M961.9,500.4l0,2" class="g2_1" />
<path d="M948,500.4l0,2" class="g2_1" />
<path d="M997.1,502.4l-18.9,0" class="g2_1" />
<path d="M962.6,502.4l-1.5,0" class="g2_1" />
<path d="M978.8,500.4l-0.6,0" class="g2_1" />
<path d="M962.6,500.4l-1.5,0" class="g2_1" />
<path d="M978.2,502.4l0,-2" class="g2_1" />
<path d="M962.6,502.4l0,-2" class="g2_1" />
<path d="M948.7,502.4l-1.4,0" class="g2_1" />
<path d="M931.7,502.4l-2.7,0" class="g2_1" />
<path d="M948.7,500.4l-1.4,0" class="g2_1" />
<path d="M931.7,500.4l-0.6,0" class="g2_1" />
<path d="M947.3,502.4l0,-2" class="g2_1" />
<path d="M931.7,502.4l0,-2" class="g2_1" />
<path d="M986.2,592.2l0,-6.3l-6.4,0l0,6.3l6.4,0Z" class="g2_1" />
<path d="M892.6,685.7l0,-6.3l-6.3,0l0,6.3l6.3,0Z" class="g2_1" />
<path d="M892.6,592.2l0,-6.3l-6.3,0l0,6.3l6.3,0Z" class="g2_1" />
<path d="M799.1,592.2l0,-6.3l-6.3,0l0,6.3l6.3,0Z" class="g2_1" />
<path d="M799.4,679.2l-10.4,0" class="g2_1" />
<path d="M799.4,686L789,686l0,-6.8" class="g2_1" />
<path d="M799.4,686l0,-6.8" class="g2_1" />
<path d="M799.4,492.1l-10.4,0" class="g2_1" />
<path d="M799.4,498.9l-10.4,0l0,-6.8" class="g2_1" />
<path d="M799.4,498.9l0,-6.8" class="g2_1" />
<path d="M792.8,398.8l6.3,0" class="g2_1" />
<path d="M799.1,405.1l-6.3,0l0,-6.3" class="g2_1" />
<path d="M799.1,405.1l0,-6.3" class="g2_1" />
<path d="M699.2,398.8l6.3,0" class="g2_1" />
<path d="M705.5,405.1l-6.3,0l0,-6.3" class="g2_1" />
<path d="M705.5,405.1l0,-6.3" class="g2_1" />
<path d="M699.2,498.7l0,-6.3l6.3,0l0,6.3l-6.3,0Z" class="g2_1" />
<path d="M705.5,585.9l-6.3,0l0,6.3" class="g2_1" />
<path d="M705.5,585.9l0,6.3l-6.3,0" class="g2_1" />
<path d="M705.5,685.7l0,-6.3l-6.3,0l0,6.3l6.3,0Z" class="g2_1" />
<path d="M605.4,398.8l6.9,0" class="g2_1" />
<path d="M605.4,405.1l6.9,0l0,-6.3" class="g2_1" />
<path d="M609.2,398.8l0,-7.2" class="g2_1" />
<path d="M605.4,405.1l0,-6.3" class="g2_1" />
<path d="M612.3,492.4l-6.9,0" class="g2_1" />
<path d="M605.4,498.7l6.9,0l0,-6.3" class="g2_1" />
<path d="M605.4,498.7l0,-6.3" class="g2_1" />
<path d="M609.2,492.4l0,-87.3" class="g2_1" />
<path d="M987.2,678.4l84.8,0l0,-66.5" class="g2_1" />
<path d="M984.7,678.4l0,-0.7" class="g2_1" />
<path d="M982.7,678.4l0,-0.7l2,0" class="g2_1" />
<path d="M982.7,661.5l2,0l0,-0.8" class="g2_1" />
<path d="M982.7,661.5l0,-0.8l2,0" class="g2_1" />
<path d="M982.7,644.5l2,0l0,-0.7" class="g2_1" />
<path d="M982.7,644.5l0,-0.7l2,0" class="g2_1" />
<path d="M982.7,627.5l2,0l0,-0.7" class="g2_1" />
<path d="M984.7,612.6l0,-0.7" class="g2_1" />
<path d="M982.7,627.5l0,-0.7" class="g2_1" />
<path d="M982.7,612.6l0,-2.7" class="g2_1" />
<path d="M984.7,626.8l-2,0" class="g2_1" />
<path d="M984.7,612.6l-2,0" class="g2_1" />
<path d="M1021.4,611.9l0,-2" class="g2_1" />
<path d="M1035.3,611.9l0,-2" class="g2_1" />
<path d="M1020.7,611.9l1.5,0" class="g2_1" />
<path d="M1020.7,609.9l1.5,0" class="g2_1" />
<path d="M1003.4,611.9l0,-2" class="g2_1" />
<path d="M1020.7,611.9l0,-2" class="g2_1" />
<path d="M982.7,609.9l2.7,0" class="g2_1" />
<path d="M1002.7,609.9l0.7,0" class="g2_1" />
<path d="M984.7,611.9l0.7,0" class="g2_1" />
<path d="M1002.7,611.9l0.7,0" class="g2_1" />
<path d="M985.4,609.9l0,2" class="g2_1" />
<path d="M1002.7,609.9l0,2" class="g2_1" />
<path d="M1034.6,611.9l1.4,0" class="g2_1" />
<path d="M1034.6,609.9l1.4,0l0,2" class="g2_1" />
<path d="M1053.3,609.9l0,2l0.7,0" class="g2_1" />
<path d="M1071.3,611.9l0.7,0" class="g2_1" />
<path d="M1053.3,609.9l0.7,0l0,2" class="g2_1" />
<path d="M1071.3,611.9l0,-2" class="g2_1" />
<path d="M1072,611.9l2.4,0" class="g2_1" />
<path d="M1086.9,611.9l17.3,0" class="g2_1" />
<path d="M1069.9,609.9l4.5,0" class="g2_1" />
<path d="M1086.9,609.9l19.4,0" class="g2_1" />
<path d="M1073.8,609.9l0,2" class="g2_1" />
<path d="M1087.6,609.9l0,2" class="g2_1" />
<path d="M1104.2,611.9l0,54.6" class="g2_1" />
<path d="M1074.1,611.9l0,54.6l30.1,0" class="g2_1" />
<path d="M978.8,678.4l8.4,0" class="g2_1" />
<path d="M987.2,686.8l-8.4,0l0,-8.4" class="g2_1" />
<path d="M987.2,686.8l0,-8.4" class="g2_1" />
<path d="M978.8,771.9l8.4,0" class="g2_1" />
<path d="M987.2,780.3l-8.4,0l0,-8.4" class="g2_1" />
<path d="M987.2,780.3l0,-8.4" class="g2_1" />
<path d="M978.8,771.9l-0.3,0" class="g2_1" />
<path d="M983.3,769.2l0,2.7" class="g2_1" />
<path d="M981.3,686.8l0,69.9" class="g2_1" />
<path d="M981.3,769.2l0,2.7" class="g2_1" />
<path d="M981.3,756.1l2,0" class="g2_1" />
<path d="M981.3,769.9l2,0" class="g2_1" />
<path d="M987.2,771.9l22.1,0l0,5.6" class="g2_1" />
<path d="M1104.2,777.5l-23.9,0" class="g2_1" />
<path d="M1072.7,776.1l0,1.4" class="g2_1" />
<path d="M1080.3,776.1l0,1.4" class="g2_1" />
<path d="M1072.7,777.5l-63.4,0" class="g2_1" />
<path d="M608.1,701.2l0,70.7" class="g2_1" />
<path d="M983.3,754.6l0,2.1" class="g2_1" />
<path d="M1104.2,754.6l0,22.9" class="g2_1" />
<path d="M1103.2,752.6l-31.2,0" class="g2_1" />
<path d="M1104.2,754.6l-39.8,0" class="g2_1" />
<path d="M1065.1,754.6l0,-2" class="g2_1" />
<path d="M1052.6,754.6l0,-2" class="g2_1" />
<path d="M1053.3,752.6l-2.1,0" class="g2_1" />
<path d="M1025.9,752.6l-5.5,0" class="g2_1" />
<path d="M1053.3,754.6l-16.3,0" class="g2_1" />
<path d="M1025.9,754.6l-42.6,0" class="g2_1" />
<path d="M1037.8,754.6l0,-2" class="g2_1" />
<path d="M1025.3,754.6l0,-2" class="g2_1" />
<path d="M1020.4,724.8l18.7,0l0,27.8" class="g2_1" />
<path d="M1051.2,752.6l0,-27.8l18.7,0" class="g2_1" />
<path d="M1039.1,752.6l-2.1,0" class="g2_1" />
<path d="M1103.2,752.6l0,-65.2" class="g2_1" />
<path d="M1069.9,752.6l-5.5,0" class="g2_1" />
<path d="M1072,752.6l0,-13.9" class="g2_1" />
<path d="M1072,727.6l0,-4.4" class="g2_1" />
<path d="M1069.9,752.6l0,-13.9" class="g2_1" />
<path d="M1069.9,727.6l0,-2.8" class="g2_1" />
<path d="M1069.9,739.4l2.1,0" class="g2_1" />
<path d="M1069.9,726.9l2.1,0" class="g2_1" />
<path d="M1103.2,687.4l-52,0" class="g2_1" />
<path d="M1051.2,752.6l0,-27.8" class="g2_1" />
<path d="M1072,723.2l-20.8,0l0,-35.8" class="g2_1" />
<path d="M985.1,752.6l0,-65.2" class="g2_1" />
<path d="M1020.4,752.6l0,-13.9" class="g2_1" />
<path d="M1020.4,727.6l0,-2.8" class="g2_1" />
<path d="M1018.3,752.6l0,-13.9" class="g2_1" />
<path d="M1018.3,727.6l0,-4.4" class="g2_1" />
<path d="M1018.3,739.4l2.1,0" class="g2_1" />
<path d="M1018.3,726.9l2.1,0" class="g2_1" />
<path d="M1018.3,752.6l-33.2,0" class="g2_1" />
<path d="M1039.1,687.4l-54,0" class="g2_1" />
<path d="M1018.3,723.2l20.8,0l0,-35.8" class="g2_1" />
<path d="M1104.2,668.7l0,2.8" class="g2_1" />
<path d="M1104.2,682.5l0,2.9" class="g2_1" />
<path d="M1106.3,777.5l0,-95" class="g2_1" />
<path d="M1106.3,671.5l0,-61.6" class="g2_1" />
<path d="M1106.3,683.3l-2.1,0" class="g2_1" />
<path d="M1106.3,670.8l-2.1,0" class="g2_1" />
<path d="M1104.2,668.7l-30.1,0l0,10.7" class="g2_1" />
<path d="M1104.2,685.4l-24.5,0" class="g2_1" />
<path d="M973.6,386.7l-66.3,0" class="g2_1" />
<path d="M899.3,386.7l-5,0" class="g2_1" />
<path d="M890.2,382.9l9.1,0" class="g2_1" />
<path d="M1190.8,382.9l-283.5,0l0,3.8" class="g2_1" />
<path d="M899.3,386.7l0,-3.8" class="g2_1" />
<path d="M512.9,387.3l-2.4,0" class="g2_1" />
<path d="M325.8,123.8l-88.7,0" class="g2_1" />
<path d="M325.8,119l4.8,0l0,-11.1" class="g2_1" />
<path d="M50.1,212.5l0,-88.3" class="g2_1" />
<path d="M36.2,404.4l-2.1,0" class="g2_1" />
<path d="M50.1,497.9l0,88.8" class="g2_1" />
<path d="M45.2,591.4l-11.1,0" class="g2_1" />
<path d="M138.8,773.7l-88.4,0" class="g2_1" />
<path d="M232.3,787.5l0,2.1" class="g2_1" />
<path d="M330.6,787.5l0,2.1" class="g2_1" />
<path d="M609.2,529.5l0,-2.1" class="g2_1" />
<path d="M609.2,500.7l0,-2" class="g2_1" />
<path d="M609.2,527.4l-2.1,0" class="g2_1" />
<path d="M609.2,500.7l-2.1,0" class="g2_1" />
<path d="M605,457.8l0,43.8" class="g2_1" />
<path d="M605,526.5l0,3" class="g2_1" />
<path d="M607.1,527.4l0,-0.9" class="g2_1" />
<path d="M607.1,501.6l0,-0.9" class="g2_1" />
<path d="M607.1,527.2l-2.1,0" class="g2_1" />
<path d="M607.1,500.9l-2.1,0" class="g2_1" />
<path d="M510.5,457.8l0,-20.1" class="g2_1" />
<path d="M510.5,423.1l0,-35.8" class="g2_1" />
<path d="M510.5,437.7l1.4,0" class="g2_1" />
<path d="M510.5,423.1l1.4,0" class="g2_1" />
<path d="M605,455.7l0,-49.9" class="g2_1" />
<path d="M514,455.7l0,-19.1" class="g2_1" />
<path d="M514,424.1l0,-18.3" class="g2_1" />
<path d="M511.9,437.7l0,-1.1" class="g2_1" />
<path d="M511.9,424.1l0,-1" class="g2_1" />
<path d="M511.9,437.3l2.1,0" class="g2_1" />
<path d="M511.9,423.5l2.1,0" class="g2_1" />
<path d="M514,455.7l91,0" class="g2_1" />
<path d="M514,405.8l91,0" class="g2_1" />
<path d="M512.9,387.3l0,-16.7" class="g2_1" />
<path d="M512.9,356.4l0,-4.5" class="g2_1" />
<path d="M512.9,370.6l1.4,0" class="g2_1" />
<path d="M512.9,356.4l1.4,0" class="g2_1" />
<path d="M516.4,398.8l0,-29" class="g2_1" />
<path d="M516.4,357.3l0,-2.1" class="g2_1" />
<path d="M514.3,370.6l0,-0.8" class="g2_1" />
<path d="M514.3,357.3l0,-0.9" class="g2_1" />
<path d="M514.3,370.4l2.1,0" class="g2_1" />
<path d="M514.3,356.6l2.1,0" class="g2_1" />
<path d="M518.5,401.7l84.9,0" class="g2_1" />
<path d="M516.4,355.2l87,0" class="g2_1" />
<path d="M512.9,337.7l1.4,0" class="g2_1" />
<path d="M512.9,351.9l1.4,0" class="g2_1" />
<path d="M514.3,337.7l0,0.9" class="g2_1" />
<path d="M514.3,351.1l0,0.8" class="g2_1" />
<path d="M514.3,337.9l2.1,0" class="g2_1" />
<path d="M514.3,351.7l2.1,0" class="g2_1" />
<path d="M512.9,337.7l0,-26.9" class="g2_1" />
<path d="M516.4,337.9l0,-27.1" class="g2_1" />
<path d="M603.4,353.1l-87,0l0,-2" class="g2_1" />
<path d="M518.5,307.7l84.9,0l0,1.1" class="g2_1" />
<path d="M512.9,277.9l1.4,0" class="g2_1" />
<path d="M512.9,263.7l1.4,0" class="g2_1" />
<path d="M514.3,277.9l0,-0.8" class="g2_1" />
<path d="M514.3,264.6l0,-0.9" class="g2_1" />
<path d="M514.3,277.8l2.1,0" class="g2_1" />
<path d="M514.3,263.9l2.1,0" class="g2_1" />
<path d="M512.9,245l1.4,0" class="g2_1" />
<path d="M512.9,259.2l1.4,0" class="g2_1" />
<path d="M514.3,245l0,0.9" class="g2_1" />
<path d="M514.3,258.4l0,0.8" class="g2_1" />
<path d="M514.3,245.2l2.1,0" class="g2_1" />
<path d="M514.3,259l2.1,0" class="g2_1" />
<path d="M512.9,263.7l0,-4.5" class="g2_1" />
<path d="M516.4,264.6l0,-2.5" class="g2_1" />
<path d="M512.9,245l0,-26.9" class="g2_1" />
<path d="M516.4,245.9l0,-27.8" class="g2_1" />
<path d="M516.4,260l87,0" class="g2_1" />
<path d="M516.4,262.1l87,0" class="g2_1" />
<path d="M518.5,305.7l84.1,0" class="g2_1" />
<path d="M516.4,260l0,-1.6" class="g2_1" />
<path d="M466.3,216.3l1.2,0" class="g2_1" />
<path d="M453.1,218.1l0,-1.8" class="g2_1" />
<path d="M467,218.1l0,-1.8" class="g2_1" />
<path d="M424.2,122.1l43.3,0" class="g2_1" />
<path d="M421.8,123.8l0,58.4" class="g2_1" />
<path d="M421.8,183.9l0,22.4" class="g2_1" />
<path d="M424.9,211.8l0,-5.6l-3.1,0" class="g2_1" />
<path d="M467.5,122.1l0,60.1" class="g2_1" />
<path d="M467.5,183.9l0,4.8" class="g2_1" />
<path d="M512.9,123.8l0,58.4" class="g2_1" />
<path d="M469.6,122.1l0,60.1" class="g2_1" />
<path d="M467.5,214.8l2.1,0" class="g2_1" />
<path d="M467.5,188.7l2.1,0" class="g2_1" />
<path d="M467.5,214.8l0,1.5" class="g2_1" />
<path d="M469.6,214.8l0,1.5" class="g2_1" />
<path d="M469.6,122.1l43.3,0" class="g2_1" />
<path d="M469.6,183.9l0,4.8" class="g2_1" />
<path d="M512.9,183.9l0,27.9" class="g2_1" />
<path d="M469.6,182.2l2.8,0" class="g2_1" />
<path d="M484.8,182.2l28.1,0" class="g2_1" />
<path d="M469.6,183.9l2.8,0" class="g2_1" />
<path d="M484.8,183.9l28.1,0" class="g2_1" />
<path d="M471.6,183.9l0,-1.7" class="g2_1" />
<path d="M485.6,183.9l0,-1.7" class="g2_1" />
<path d="M511.1,218.1l1.8,0" class="g2_1" />
<path d="M511.1,216.3l1.1,0" class="g2_1" />
<path d="M498.7,218.1l0,-1.8" class="g2_1" />
<path d="M511.1,218.1l0,-1.8" class="g2_1" />
<path d="M466.3,218.1l19.3,0" class="g2_1" />
<path d="M498,218.1l0.7,0" class="g2_1" />
<path d="M469.6,216.3l16,0" class="g2_1" />
<path d="M498,216.3l0.7,0" class="g2_1" />
<path d="M485.6,218.1l0,-1.8" class="g2_1" />
<path d="M498,218.1l0,-1.8" class="g2_1" />
<path d="M452.5,218.1l1.3,0" class="g2_1" />
<path d="M452.5,216.3l1.3,0" class="g2_1" />
<path d="M440,218.1l0,-1.8" class="g2_1" />
<path d="M452.5,218.1l0,-1.8" class="g2_1" />
<path d="M424.9,218.1l1.9,0" class="g2_1" />
<path d="M439.3,218.1l0.7,0" class="g2_1" />
<path d="M424.9,216.3l1.9,0" class="g2_1" />
<path d="M439.3,216.3l0.7,0" class="g2_1" />
<path d="M426.8,218.1l0,-1.8" class="g2_1" />
<path d="M439.3,218.1l0,-1.8" class="g2_1" />
<path d="M330.6,789.6l0.8,0l0,2.1" class="g2_1" />
<path d="M348,791.7l0,-2.1l1.1,0" class="g2_1" />
<path d="M348,791.7l1.1,0l0,-2.1" class="g2_1" />
<path d="M365.7,791.7l0,-2.1l1,0" class="g2_1" />
<path d="M365.7,791.7l1,0l0,-2.1" class="g2_1" />
<path d="M383.3,791.7l0,-2.1l1.1,0" class="g2_1" />
<path d="M383.3,791.7l1.1,0l0,-2.1" class="g2_1" />
<path d="M401,791.7l0,-2.1l1,0" class="g2_1" />
<path d="M418.6,789.6l0.8,0" class="g2_1" />
<path d="M419.4,791.7l-0.8,0" class="g2_1" />
<path d="M401,791.7l1,0l0,-2.1" class="g2_1" />
<path d="M418.6,789.6l0,2.1" class="g2_1" />
<path d="M232.3,789.6l-0.7,0l0,2.1" class="g2_1" />
<path d="M215,791.7l0,-2.1l-1,0" class="g2_1" />
<path d="M215,791.7l-1,0l0,-2.1" class="g2_1" />
<path d="M197.3,791.7l0,-2.1l-1,0" class="g2_1" />
<path d="M197.3,791.7l-1,0l0,-2.1" class="g2_1" />
<path d="M179.7,791.7l0,-2.1l-1.1,0" class="g2_1" />
<path d="M179.7,791.7l-1.1,0l0,-2.1" class="g2_1" />
<path d="M162,791.7l0,-2.1l-1,0" class="g2_1" />
<path d="M144.3,789.6l-0.7,0" class="g2_1" />
<path d="M162,791.7l-1,0l0,-2.1" class="g2_1" />
<path d="M144.3,789.6l0,2.1" class="g2_1" />
<path d="M34.1,680.2l0,-0.8l-2,0" class="g2_1" />
<path d="M32.1,662.8l2,0l0,-1" class="g2_1" />
<path d="M32.1,662.8l0,-1l2,0" class="g2_1" />
<path d="M32.1,645.2l2,0l0,-1.1" class="g2_1" />
<path d="M32.1,645.2l0,-1.1l2,0" class="g2_1" />
<path d="M32.1,627.5l2,0l0,-1.1" class="g2_1" />
<path d="M32.1,627.5l0,-1.1l2,0" class="g2_1" />
<path d="M32.1,609.9l2,0l0,-1.1" class="g2_1" />
<path d="M34.1,592.2l0,-0.8" class="g2_1" />
<path d="M32.1,609.9l0,-1.1l2,0" class="g2_1" />
<path d="M34.1,592.2l-2,0" class="g2_1" />
<path d="M32.1,679.4l0,0.8" class="g2_1" />
<path d="M34.1,404.4l0,0.7l-2,0" class="g2_1" />
<path d="M32.1,421.8l2,0l0,1" class="g2_1" />
<path d="M32.1,421.8l0,1l2,0" class="g2_1" />
<path d="M32.1,439.4l2,0l0,1.1" class="g2_1" />
<path d="M32.1,439.4l0,1.1l2,0" class="g2_1" />
<path d="M32.1,457l2,0l0,1.1" class="g2_1" />
<path d="M32.1,457l0,1.1l2,0" class="g2_1" />
<path d="M32.1,474.7l2,0l0,1" class="g2_1" />
<path d="M34.1,492.4l0,0.7" class="g2_1" />
<path d="M32.1,474.7l0,1l2,0" class="g2_1" />
<path d="M34.1,492.4l-2,0l0,0.7" class="g2_1" />
<path d="M36.2,306.1l-2.1,0l0,-0.8l-2,0" class="g2_1" />
<path d="M32.1,288.7l2,0l0,-1.1" class="g2_1" />
<path d="M32.1,288.7l0,-1.1l2,0" class="g2_1" />
<path d="M32.1,271.1l2,0l0,-1.1" class="g2_1" />
<path d="M32.1,271.1l0,-1.1l2,0" class="g2_1" />
<path d="M32.1,253.4l2,0l0,-1" class="g2_1" />
<path d="M32.1,253.4l0,-1l2,0" class="g2_1" />
<path d="M32.1,235.7l2,0l0,-1" class="g2_1" />
<path d="M34.1,218.1l0,-0.8" class="g2_1" />
<path d="M32.1,235.7l0,-1l2,0" class="g2_1" />
<path d="M34.1,218.1l-2,0" class="g2_1" />
<path d="M32.1,305.3l0,99.8" class="g2_1" />
<path d="M32.1,218.1l0,-0.8" class="g2_1" />
<path d="M232.3,107.9l-0.7,0l0,-2.1" class="g2_1" />
<path d="M215,105.8l0,2.1l-1.1,0" class="g2_1" />
<path d="M215,105.8l-1.1,0l0,2.1" class="g2_1" />
<path d="M197.3,105.8l0,2.1l-1,0" class="g2_1" />
<path d="M197.3,105.8l-1,0l0,2.1" class="g2_1" />
<path d="M179.7,105.8l0,2.1l-1.1,0" class="g2_1" />
<path d="M179.7,105.8l-1.1,0l0,2.1" class="g2_1" />
<path d="M162,105.8l0,2.1l-1,0" class="g2_1" />
<path d="M144.3,107.9l-0.7,0" class="g2_1" />
<path d="M162,105.8l-1,0l0,2.1" class="g2_1" />
<path d="M144.3,107.9l0,-2.1l-0.7,0" class="g2_1" />
<path d="M330.6,107.9l0.8,0l0,-2.1" class="g2_1" />
<path d="M348,105.8l0,2.1l1.1,0" class="g2_1" />
<path d="M348,105.8l1.1,0l0,2.1" class="g2_1" />
<path d="M365.7,105.8l0,2.1l1,0" class="g2_1" />
<path d="M365.7,105.8l1,0l0,2.1" class="g2_1" />
<path d="M383.3,105.8l0,2.1l1.1,0" class="g2_1" />
<path d="M383.3,105.8l1.1,0l0,2.1" class="g2_1" />
<path d="M401,105.8l0,2.1l1,0" class="g2_1" />
<path d="M418.6,107.9l0.8,0" class="g2_1" />
<path d="M401,105.8l1,0l0,2.1" class="g2_1" />
<path d="M418.6,107.9l0,-2.1l0.8,0" class="g2_1" />
<path d="M231.6,676.7l6.3,0" class="g2_1" />
<path d="M325.1,676.7l6.3,0" class="g2_1" />
<path d="M231.6,583.8l6.3,0" class="g2_1" />
<path d="M143.6,778.5l0,0.4" class="g2_1" />
<path d="M143.6,788.2l0,1.4" class="g2_1" />
<path d="M141.9,778.5l0,0.4" class="g2_1" />
<path d="M141.9,788.2l0,18.4" class="g2_1" />
<path d="M141.9,778.5l1.7,0" class="g2_1" />
<path d="M141.9,788.6l1.7,0" class="g2_1" />
<path d="M138.8,777.1l-88.8,0" class="g2_1" />
<path d="M144.3,791.7l-0.7,0" class="g2_1" />
<path d="M141.9,806.6l-126.5,0" class="g2_1" />
<path d="M46.6,497.9l0,88.8" class="g2_1" />
<path d="M45.2,493.1l-0.3,0" class="g2_1" />
<path d="M35.6,493.1l-1.5,0" class="g2_1" />
<path d="M45.2,494.8l-0.3,0" class="g2_1" />
<path d="M35.6,494.8l-20.2,0" class="g2_1" />
<path d="M45.2,494.8l0,-1.7" class="g2_1" />
<path d="M35.2,494.8l0,-1.7" class="g2_1" />
<path d="M32.1,493.1l-18.4,0" class="g2_1" />
<path d="M15.4,589.8l29.8,0" class="g2_1" />
<path d="M13.7,591.4l18.4,0l0,0.8" class="g2_1" />
<path d="M32.1,217.3l-18.4,0" class="g2_1" />
<path d="M46.6,212.5l0,-88.7" class="g2_1" />
<path d="M15.4,90.9l29.8,0" class="g2_1" />
<path d="M45.2,215.6l-0.3,0" class="g2_1" />
<path d="M35.6,215.6l-20.2,0" class="g2_1" />
<path d="M45.2,217.3l-0.3,0" class="g2_1" />
<path d="M35.6,217.3l-1.5,0" class="g2_1" />
<path d="M45.2,217.3l0,-1.7" class="g2_1" />
<path d="M35.2,217.3l0,-1.7" class="g2_1" />
<path d="M330.6,87.4l0,18.4l0.8,0" class="g2_1" />
<path d="M232.3,87.4l0,18.4l-0.7,0" class="g2_1" />
<path d="M328.9,119l0,-29.8" class="g2_1" />
<path d="M325.8,120.4l-88.7,0" class="g2_1" />
<path d="M232.3,119l0,-0.4" class="g2_1" />
<path d="M232.3,109.3l0,-1.4" class="g2_1" />
<path d="M234,119l0,-0.4" class="g2_1" />
<path d="M234,109.3l0,-20.1" class="g2_1" />
<path d="M234,119l-1.7,0" class="g2_1" />
<path d="M234,108.9l-1.7,0" class="g2_1" />
<path d="M419.4,105.8l0,-18.3" class="g2_1" />
<path d="M419.4,123.8l0,88" class="g2_1" />
<path d="M419.4,119l0,-0.4" class="g2_1" />
<path d="M419.4,109.3l0,-1.4" class="g2_1" />
<path d="M421.1,119l0,-0.4" class="g2_1" />
<path d="M421.1,109.3l0,-20.1" class="g2_1" />
<path d="M421.1,119l-1.7,0" class="g2_1" />
<path d="M421.1,108.9l-1.7,0" class="g2_1" />
<path d="M424.2,119l88.7,0" class="g2_1" />
<path d="M516.4,211.8l0,-88" class="g2_1" />
<path d="M518.5,213.2l29,0l0,-93.2" class="g2_1" />
<path d="M549.3,211.8l0,-124.3" class="g2_1" />
<path d="M517.7,119l0.8,0" class="g2_1" />
<path d="M530.9,119l16.6,0" class="g2_1" />
<path d="M517.7,120l0.8,0" class="g2_1" />
<path d="M530.9,120l16.6,0" class="g2_1" />
<path d="M518.1,120l0,-1" class="g2_1" />
<path d="M531.2,120l0,-1" class="g2_1" />
<path d="M421.1,89.2l126.4,0" class="g2_1" />
<path d="M419.4,87.5l129.9,0" class="g2_1" />
<path d="M547.5,119l0,-29.8" class="g2_1" />
<path d="M328.9,89.2l-94.9,0" class="g2_1" />
<path d="M330.6,87.5l-98.3,0" class="g2_1" />
<path d="M15.4,215.6l0,-124.7" class="g2_1" />
<path d="M13.7,217.3L13.7,88" class="g2_1" />
<path d="M15.4,494.8l0,95" class="g2_1" />
<path d="M13.7,493.1l0,98.3" class="g2_1" />
<path d="M45.2,778.5l-29.8,0l0,28.1" class="g2_1" />
<path d="M45.2,680.2l-31.5,0l0,128.1l129.9,0l0,-16.6" class="g2_1" />
<path d="M231.6,489.6l6.3,0" class="g2_1" />
<path d="M231.6,303.2l6.3,0" class="g2_1" />
<path d="M231.6,209l6.3,0" class="g2_1" />
<path d="M422.9,568l0,-34.7" class="g2_1" />
<path d="M451.4,543.3l0,-10" class="g2_1" />
<path d="M451.4,557.9l0,10.1" class="g2_1" />
<path d="M451.4,533.3l-28.5,0" class="g2_1" />
<path d="M451.4,568l-28.5,0" class="g2_1" />
<path d="M1192.4,641.4l0,34.6" class="g2_1" />
<path d="M1163.8,666l0,10" class="g2_1" />
<path d="M1163.8,651.4l0,-10" class="g2_1" />
<path d="M1163.8,676l28.6,0" class="g2_1" />
<path d="M1163.8,641.4l28.6,0" class="g2_1" />
<path d="M499,787.9l0,3.8" class="g2_1" />
<path d="M510.9,787.9l0,3.8" class="g2_1" />
<path d="M422.9,735.4L561.7,773" class="g1_1" />
<path d="M561.7,735.4L422.9,773" class="g1_1" />
<path d="M561.7,773l-138.8,0" class="g5_1" />
<path d="M510.1,791.7l-10.3,0" class="g5_1" />
<path fill-rule="evenodd" d="M20.9,744.6l0.6,-4.2l0.8,4.2Z" class="g3_1" />
<path d="M21.5,744.6l0,20.6l17.2,0l0,-55.6" class="g1_1" />
<path fill-rule="evenodd" d="M71.6,94.4l4.1,0.7l-4.1,0.8Z" class="g3_1" />
<path d="M71.6,95.2l-13,0l0,16.5l55.5,0" class="g1_1" />
<path d="M467.5,182.2l-2.7,0" class="g2_1" />
<path d="M452.3,182.2l-5.6,0" class="g2_1" />
<path d="M434.2,182.2l-12.4,0" class="g2_1" />
<path d="M467.5,183.9l-2.7,0" class="g2_1" />
<path d="M452.3,183.9l-5.6,0" class="g2_1" />
<path d="M434.2,183.9l-12.4,0" class="g2_1" />
<path d="M446.7,182.2l0,1.7" class="g2_1" />
<path d="M434.2,183.9l0,-1.7l12.5,0" class="g2_1" />
<path d="M434.2,183.9l12.5,0" class="g2_1" />
<path d="M434.2,183.1l12.5,0" class="g2_1" />
<path d="M451.6,183.9l0,-1.7" class="g2_1" />
<path d="M465.4,183.9l0,-1.7" class="g2_1" />

</svg>
