<svg xmlns="http://www.w3.org/2000/svg" viewBox="0 0 643.9 35" width="391" height="23"><path fill="#FAFBFB" d="M28.1 14.4v5.2c0 6.4.1 10.2.2 11.5.2 1.6.7 2.4 1.7 2.5v.7h-11.2v-.7c.9-.1 1.4-.8 1.7-2.1.2-1.1.2-4 .2-8.9v-2h-11.6v2c0 4.9.1 7.8.2 8.9.2 1.3.7 2 1.6 2.1v.7h-11v-.7c.9-.1 1.4-.9 1.6-2.5.2-1.3.2-5.1.2-11.5v-5.2c0-6-.1-9.6-.2-10.8-.1-1.5-.7-2.3-1.5-2.4v-.7h10.8v.7c-.8.1-1.3.8-1.5 2.2-.1 1.1-.2 4.1-.2 9v1.5h11.6v-1.6c0-4.9-.1-7.9-.2-8.9-.2-1.3-.6-2-1.4-2.1v-.8h10.6v.7c-.8.1-1.2.9-1.4 2.4-.1 1.2-.2 4.8-.2 10.8zM35.2 18.7v-4.3c0-6-.1-9.6-.2-10.8-.2-1.5-.6-2.3-1.4-2.4v-.7h10.8v.7c-.8.1-1.4.9-1.5 2.4-.1 1.2-.2 4.8-.2 10.8v4.3c0 2.7.4 4.7 1.2 6 1 1.7 2.6 2.5 4.9 2.5 1.9 0 3.4-.8 4.5-2.4.8-1.2 1.3-3.3 1.3-6.1v-4.3c0-6-.1-9.6-.2-10.8-.2-1.5-.7-2.3-1.6-2.4v-.7h10.600000000000001v.7c-.7.1-1.2.9-1.3 2.4-.1 1.3-.2 4.9-.2 10.8v4.1c0 4.5-.9 8.1-2.7 10.9-.9 1.5-2.2 2.7-3.9 3.7-2 1.2-4.1 1.8-6.5 1.8-5.7 0-9.7-2.2-11.9-6.7-1.1-2.2-1.7-5.4-1.7-9.5zM67.4 19.6l2.6-19.3h1c6.5 11.3 10.4 18.3 11.6 20.8h.1c1.2-2.5 5.1-9.4 11.8-20.8h1.1l2.5 19.3c.8 6.3 1.4 10.1 1.7 11.5.3 1.6.9 2.4 1.5 2.5v.7h-10.6v-.7c.8-.1 1.2-.8 1.2-2.1 0-.7-.2-2.4-.5-5s-.5-5-.7-7.1c-.8 1.9-1.8 3.9-3 6-1.1 2-2.7 4.8-4.9 8.4h-1.1c-2.1-3.3-3.7-6.2-5.1-8.6-1.1-1.9-2-3.9-2.9-5.8-.1 1.8-.3 4.2-.6 7.1-.3 2.4-.4 4-.4 4.8 0 1.5.4 2.2 1.3 2.3v.7h-10.100000000000001v-.7c.7-.1 1.2-.9 1.6-2.4.4-1.5 1-5.4 1.9-11.6zM125.9 24.7c0 3.3-1.3 5.8-3.8 7.6-2.1 1.5-5.3 2.2-9.7 2.2-1.1 0-2.5 0-4.2-.1-2.1-.1-3.5-.1-4.1-.1v-.7c.8 0 1.3-.8 1.5-2.4.2-1.3.2-5.2.2-11.5v-5.2c0-5.9-.1-9.5-.2-10.7-.2-1.4-.6-2.2-1.3-2.3v-.9h4.1c2.6-.1 4.3-.2 5-.2 2.2 0 4.1.3 5.7.8 1.5.5 2.7 1.3 3.7 2.6 1.3 1.5 1.9 3.4 1.9 5.7 0 1.7-.5 3.2-1.4 4.5-.9 1.3-2.1 2.2-3.5 2.6v.1c1.7.3 3.1 1.2 4.2 2.7 1.2 1.5 1.9 3.2 1.9 5.3zm-8.4-14.3c0-1.1-.3-1.9-.9-2.6-.6-.6-1.5-1-2.5-1-.5 0-1 0-1.5.1v6.9h1.2c.7 0 1.3-.1 1.9-.4 1.1-.4 1.8-1.5 1.8-3zm.9 13.5c0-1.8-.8-2.9-2.3-3.5-.6-.2-1.3-.3-2.1-.3-.1 0-.6 0-1.5.1v6.6c0 .5.1.8.4.8.2.1.7.1 1.4.1.9 0 1.8-.2 2.5-.7 1.1-.7 1.6-1.8 1.6-3.1zM162.8 17.2c0 5.1-1.6 9.3-4.8 12.7-3.2 3.4-7.1 5.1-11.9 5.1-4.6 0-8.5-1.7-11.7-5-3.2-3.3-4.8-7.4-4.8-12.3 0-5.1 1.6-9.4 4.8-12.7 3.2-3.3 7.2-5 12.1-5 4.6 0 8.5 1.6 11.6 4.8 3.2 3.3 4.7 7.4 4.7 12.4zm-7.8.4c0-2.9-.8-5.3-2.4-7.4-1.6-2-3.7-3-6.1-3-2.7 0-4.8 1-6.4 3-1.6 2-2.4 4.5-2.4 7.4 0 2.9.8 5.3 2.4 7.3 1.6 2 3.7 2.9 6.3 2.9 2.6 0 4.7-1 6.3-2.9 1.5-2 2.3-4.4 2.3-7.3zM168.4 19.6v-5.2c0-5.9-.1-9.5-.2-10.7-.2-1.5-.7-2.3-1.6-2.4v-.8h10.899999999999999v.8c-.8.1-1.3.9-1.5 2.4-.2 1.3-.2 4.8-.2 10.7v12.4c0 .6.3.9.8.9h5.4c.9 0 1.7-.2 2.3-.5.6-.3 1-.8 1.1-1.4h.7l-.2 8.6h-19.1v-.8c.8-.1 1.3-.9 1.5-2.5.1-1.2.1-5.1.1-11.5zM217.6 16.7c0 6.2-2.1 11-6.4 14.4-2.8 2.2-6.8 3.3-11.9 3.3h-5.3c-1.1 0-2.6-.1-4.4-.1v-.7c.9-.1 1.4-.9 1.6-2.5.2-1.3.2-5.1.2-11.5v-5.2c0-5.9-.1-9.4-.2-10.6-.2-1.4-.7-2.1-1.6-2.3v-.8c1-.1 2.6-.1 4.8-.2 4.4-.1 6.4-.1 6.1-.1 4.3 0 7.7.8 10.4 2.4 2.2 1.4 3.9 3.4 5.1 6.1 1.1 2.3 1.6 4.9 1.6 7.8zm-7.8.5c0-3.6-1-6.2-3-8-1.5-1.3-3.4-1.9-5.8-1.9-.5 0-1.2.1-2.2.2v19c0 .5.1.7.4.8.4.1 1 .2 1.7.2 2.3 0 4.1-.6 5.6-1.9 2.2-2 3.3-4.8 3.3-8.4zM229.2 19.6v-12.6h-4.9c-1.8 0-2.9.7-3.3 2.2h-.7v-8.7h25.1v8.7h-.7c-.4-1.5-1.5-2.2-3.2-2.2h-4.9v12.6c0 6.4.1 10.3.2 11.6.2 1.6.8 2.4 1.7 2.4v.7h-11.2v-.7c.9-.1 1.4-1 1.6-2.5.2-1.3.3-5.1.3-11.5z"/><path fill="#F7F3A5" d="M278.6 24.9c0 3-1 5.4-3 7.2-2 1.8-4.6 2.7-7.7 2.7-2.8 0-5.1-.4-6.8-1.3.1-1.5.1-4.5.3-8.8h.7c.6 2.2 2.3 3.3 5.2 3.3 2.4 0 3.6-1 3.6-3 0-1.1-.7-2.2-2-3.4-.7-.5-1.7-1.4-3.1-2.6-2.9-2.4-4.4-5.3-4.4-8.7 0-2.9.9-5.2 2.7-7.1 1.9-2 4.6-2.9 7.9-2.9 2 0 3.7.3 5.1.8-.1 1.8-.1 4.7-.2 8.7h-.7c-.2-.8-.7-1.5-1.4-2-.6-.5-1.4-.7-2.4-.7s-1.9.3-2.5.8c-.6.5-.9 1.2-.9 2.1 0 1 .5 1.9 1.5 2.8.7.6 2 1.7 3.8 3.3 2.8 2.6 4.3 5.5 4.3 8.8zM289 19.6v-12.6h-4.9c-1.8 0-2.9.7-3.3 2.2h-.7v-8.7h25.1v8.7h-.7c-.4-1.5-1.5-2.2-3.2-2.2h-4.9v12.6c0 6.4.1 10.3.2 11.6.2 1.6.8 2.4 1.7 2.4v.7h-11.2v-.7c.9-.1 1.4-1 1.6-2.5.2-1.3.3-5.1.3-11.5zM320.5 29.2h-8.8c-.6 1.7-.9 2.8-.9 3.3 0 .6.3.9.9 1v.8h-10.5v-.8c.6-.1 1.3-.9 2.1-2.4.7-1.5 2.3-5.3 4.8-11.6l7.8-19.5h1.2l7.7 19.5c2.5 6.2 4.1 10.1 4.7 11.5.8 1.6 1.4 2.4 2.1 2.5v.8h-11.1v-.8c.6-.1.9-.4.9-1 0-.5-.3-1.6-.9-3.3zm-6.7-6.1h4.7v-.1l-1.3-4.1c-.5-1.5-.8-2.6-.9-3.1h-.1l-2.4 7.2v.1zM336.2 19.6v-12.6h-4.9c-1.8 0-2.9.7-3.3 2.2h-.7v-8.7h25.1v8.7h-.7c-.4-1.5-1.5-2.2-3.2-2.2h-4.9v12.6c0 6.4.1 10.3.2 11.6.2 1.6.8 2.4 1.7 2.4v.7h-11.2v-.7c.9-.1 1.4-1 1.6-2.5.2-1.3.3-5.1.3-11.5zM356.4 19.6v-5.2c0-5.9-.1-9.5-.2-10.8-.2-1.5-.6-2.3-1.4-2.4v-.7h19l-.4 8.5h-.7c-.2-1.3-1.7-2-4.5-2h-4.5v7h3.9c1.4 0 2.4-.1 2.9-.2s.8-.4.9-.8h.6v8.6h-.6c-.2-.6-.7-.9-1.7-1.1-.3 0-.9-.1-2-.1h-3.9v5.9c0 .8.3 1.2.8 1.4h5.5c2-.1 3.2-.7 3.4-1.8h.7c-.1 4.4-.2 7.2-.2 8.5h-19.3v-.7c.8-.1 1.3-.9 1.4-2.5.2-1.4.3-5.2.3-11.6zM392.8 18.7v-4.3c0-6-.1-9.6-.2-10.8-.2-1.5-.6-2.3-1.4-2.4v-.7h10.8v.7c-.8.1-1.4.9-1.5 2.4-.1 1.2-.2 4.8-.2 10.8v4.3c0 2.7.4 4.7 1.2 6 1 1.7 2.6 2.5 4.9 2.5 1.9 0 3.4-.8 4.5-2.4.8-1.2 1.3-3.3 1.3-6.1v-4.3c0-6-.1-9.6-.2-10.8-.2-1.5-.7-2.3-1.6-2.4v-.7h10.600000000000001v.7c-.7.1-1.2.9-1.3 2.4-.1 1.3-.2 4.9-.2 10.8v4.1c0 4.5-.9 8.1-2.6 10.9-.9 1.5-2.2 2.7-3.9 3.7-2 1.2-4.1 1.8-6.5 1.8-5.7 0-9.7-2.2-11.9-6.7-1.3-2.2-1.8-5.4-1.8-9.5zM451.3 14.4v20.3h-1.1c-6.3-5.9-10.5-9.9-12.8-12.1-1.9-1.9-3.9-4-5.9-6.3h-.1c0 1.6.1 2.8.1 3.8 0 6.1.1 9.8.2 11.1.2 1.5.7 2.3 1.5 2.4v.7h-10.100000000000001v-.7c.8-.1 1.4-.9 1.5-2.5.2-1.3.2-5.1.2-11.5v-19.3h1.1c6.3 6.1 10.6 10.2 12.7 12.4 1.9 2 3.9 4.1 5.8 6.4h.1c0-2.1-.1-3.8-.1-5.1 0-5.7-.1-9.2-.2-10.4-.2-1.4-.7-2.2-1.6-2.3v-.8h10.100000000000001v.7c-.8.1-1.3.9-1.4 2.4.1 1.2 0 4.8 0 10.8zM466 14.4v5.2c0 6.4.1 10.2.2 11.4.2 1.5.7 2.4 1.6 2.6v.7h-11.1v-.7c.9-.2 1.4-1 1.6-2.5.2-1.3.2-5.1.2-11.4v-5.2c0-5.9-.1-9.5-.2-10.7-.2-1.4-.7-2.2-1.6-2.4v-.9h10.8v.8c-.8.2-1.3 1-1.5 2.4.1 1.3 0 4.8 0 10.7zM494.6 14.4l-8.5 20.5h-1.1l-8.8-20.5c-2.5-5.8-4.1-9.4-4.8-10.8-.8-1.5-1.5-2.3-2.1-2.4v-.7h11.5v.7c-.8.1-1.2.4-1.2 1.1 0 .7.9 3.4 2.8 8 1.2 3 2.3 5.9 3.3 8.8h.1c.8-2.7 1.9-5.6 3.1-8.7 1.8-4.7 2.8-7.4 2.8-8.2 0-.6-.3-.9-1-1v-.7h10.7v.7c-.6.1-1.3.9-2.1 2.3-.7 1.5-2.2 5.1-4.7 10.9zM504.4 19.6v-5.2c0-5.9-.1-9.5-.2-10.8-.2-1.5-.6-2.3-1.4-2.4v-.7h19l-.3 8.5h-.7c-.2-1.4-1.7-2.1-4.5-2.1h-4.5v7.1h3.9c1.4 0 2.4-.1 2.9-.2s.8-.4.9-.8h.6v8.6h-.6c-.2-.6-.7-.9-1.7-1.1-.3 0-.9-.1-2-.1h-3.9v5.9c0 .8.3 1.2.8 1.4h5.5c2-.1 3.2-.7 3.4-1.8h.7c-.1 4.4-.2 7.2-.2 8.5h-19.3v-.7c.8-.1 1.3-.9 1.5-2.5 0-1.4.1-5.2.1-11.6zM527.3 19.6v-5.2c0-6-.1-9.6-.2-10.8-.2-1.5-.6-2.3-1.4-2.3v-.7c.3 0 1.8 0 4.6-.1 3.4-.1 5-.1 4.9-.1 2.3 0 4.3.3 6 1 3.9 1.5 5.9 4.7 5.9 9.6 0 3.1-1 5.6-2.9 7.5-.8.7-1.5 1.3-2.1 1.6v.1c.9 1.4 3.2 4.8 6.8 10.2 1.3 1.9 2.3 3 3.1 3.2v.7h-7.800000000000001c-1 0-1.6-.2-2-.6-2.2-3.7-4.5-7.7-7-12h-.9v1.9c0 4.3.1 6.9.2 8 .2 1.2.6 1.9 1.4 2v.7h-10.100000000000001v-.7c.8-.1 1.2-.9 1.4-2.5.1-1.2.1-5.1.1-11.5zm12.5-8.3c0-1.3-.4-2.4-1.1-3.1-.7-.8-1.7-1.2-2.9-1.2 0 0-.6 0-1.6.1v8.8h1.2c1 0 1.9-.3 2.7-.9 1.2-.7 1.7-2 1.7-3.7zM570.4 24.9c0 3-1 5.4-3 7.2-2 1.8-4.6 2.7-7.7 2.7-2.8 0-5.1-.4-6.8-1.3.1-1.5.1-4.5.3-8.8h.7c.6 2.2 2.3 3.3 5.2 3.3 2.4 0 3.6-1 3.6-3 0-1.1-.7-2.2-2-3.4-.7-.5-1.7-1.4-3-2.6-2.9-2.4-4.4-5.3-4.4-8.7 0-2.9.9-5.2 2.7-7.1 1.9-2 4.6-2.9 7.9-2.9 2 0 3.7.3 5.1.8-.1 1.8-.1 4.7-.2 8.7h-.8c-.2-.8-.7-1.5-1.4-2-.6-.5-1.4-.7-2.4-.7-1.1 0-1.9.3-2.5.8-.6.5-.9 1.2-.9 2.1 0 1 .5 1.9 1.5 2.8.7.6 2 1.7 3.8 3.3 2.8 2.6 4.3 5.5 4.3 8.8zM582.8 14.4v5.2c0 6.4.1 10.2.2 11.4.2 1.5.7 2.4 1.6 2.6v.7h-11.1v-.7c.9-.2 1.4-1 1.6-2.5.2-1.3.2-5.1.2-11.4v-5.2c0-5.9-.1-9.5-.2-10.7-.2-1.4-.7-2.2-1.6-2.4v-.9h10.8v.8c-.8.2-1.3 1-1.5 2.4.1 1.3 0 4.8 0 10.7zM596.3 19.6v-12.6h-4.9c-1.8 0-2.9.7-3.3 2.2h-.7v-8.7h25.1v8.7h-.7c-.4-1.5-1.5-2.2-3.2-2.2h-4.9v12.6c0 6.4.1 10.3.2 11.6.2 1.6.8 2.4 1.7 2.4v.7h-11.2v-.7c.9-.1 1.4-1 1.6-2.5.2-1.3.3-5.1.3-11.5zM635.2 15.7l-2.4 4.6v2c0 5 .1 8 .2 9.1.2 1.3.7 2 1.7 2.2v.7h-11.1v-.7c.9-.1 1.4-.8 1.6-2.1.2-1 .2-4 .2-9v-1.6l-2.6-5.1c-3.7-7.2-5.8-11.2-6.2-12-.9-1.6-1.8-2.5-2.5-2.6v-.7h11.3v.7c-.6.1-.9.4-.9.9s.7 2.2 2 5c.7 1.4 1.6 3.3 2.6 5.7h.1c.2-.6 1.1-2.4 2.6-5.4 1.5-3 2.3-4.8 2.3-5.4 0-.4-.2-.7-.8-.7v-.8h10.5v.7c-.6.1-1.3 1-2.2 2.5-.5 1-2.7 5-6.4 12z"/></svg>