<svg id="svg" version="1.1" width="400" height="400" xmlns="http://www.w3.org/2000/svg" xmlns:xlink="http://www.w3.org/1999/xlink" style="display: block;"><g id="svgg"><path id="path0" d="" stroke="none" fill="#0055ff" fill-rule="evenodd"></path><path id="path1" d="M161.600 14.025 C 154.464 14.300,146.681 14.956,145.600 15.375 C 145.270 15.503,143.740 15.793,142.200 16.019 C 138.057 16.628,135.615 17.079,133.600 17.608 C 132.610 17.868,131.080 18.258,130.200 18.474 C 127.250 19.198,124.206 20.096,123.505 20.450 C 123.123 20.642,122.493 20.800,122.105 20.800 C 121.318 20.801,117.795 22.071,117.352 22.515 C 117.195 22.672,116.661 22.800,116.166 22.800 C 115.670 22.800,114.665 23.100,113.932 23.468 C 111.591 24.641,111.219 24.800,110.816 24.800 C 110.599 24.800,109.382 25.272,108.111 25.848 C 106.840 26.424,105.170 27.166,104.400 27.497 C 100.737 29.068,93.842 32.644,90.200 34.862 C 89.540 35.264,88.730 35.716,88.400 35.866 C 86.740 36.620,72.847 46.285,71.800 47.414 C 71.580 47.651,70.680 48.369,69.800 49.008 C 65.305 52.274,51.789 65.881,47.521 71.437 C 47.029 72.077,46.519 72.690,46.386 72.800 C 46.253 72.910,45.356 74.080,44.392 75.400 C 43.429 76.720,42.406 78.038,42.120 78.329 C 41.834 78.619,41.600 78.990,41.600 79.153 C 41.600 79.316,41.280 79.798,40.888 80.225 C 40.104 81.078,34.394 90.119,32.440 93.600 C 29.536 98.773,24.307 109.934,23.164 113.400 C 22.874 114.280,22.493 115.171,22.318 115.380 C 22.143 115.589,21.999 116.039,21.998 116.380 C 21.996 116.721,21.726 117.516,21.398 118.146 C 21.069 118.776,20.800 119.601,20.800 119.979 C 20.800 120.357,20.671 120.795,20.514 120.953 C 20.357 121.110,19.990 122.085,19.700 123.119 C 19.409 124.154,19.009 125.540,18.812 126.200 C 18.163 128.366,17.156 132.170,16.800 133.800 C 15.152 141.351,14.658 144.264,14.022 150.200 C 13.809 152.180,13.451 155.510,13.225 157.600 C 12.954 160.105,12.812 199.330,12.807 272.719 L 12.800 384.038 13.888 385.047 C 14.487 385.601,15.481 386.156,16.097 386.279 C 16.713 386.403,17.314 386.660,17.432 386.852 C 17.554 387.049,96.364 387.200,198.775 387.200 C 396.342 387.200,380.939 387.372,384.102 385.126 L 385.204 384.343 385.066 270.271 C 384.939 165.104,384.874 155.794,384.239 151.000 C 383.861 148.140,383.462 144.900,383.353 143.800 C 383.245 142.700,383.044 141.530,382.907 141.200 C 382.675 140.638,382.039 137.759,381.228 133.600 C 381.035 132.610,380.575 130.810,380.207 129.600 C 379.838 128.390,379.390 126.770,379.211 126.000 C 378.844 124.422,377.646 120.756,376.138 116.600 C 375.211 114.045,374.770 112.932,373.519 110.000 C 373.285 109.450,372.947 108.640,372.768 108.200 C 371.772 105.744,370.505 102.999,368.892 99.800 C 366.091 94.243,365.974 94.031,365.575 93.784 C 365.369 93.657,365.200 93.203,365.200 92.776 C 365.200 92.349,365.059 92.000,364.887 92.000 C 364.715 92.000,363.956 90.830,363.200 89.400 C 362.444 87.970,361.685 86.800,361.513 86.800 C 361.341 86.800,361.200 86.633,361.200 86.429 C 361.200 86.015,358.183 81.457,357.105 80.242 C 356.722 79.811,356.305 79.131,356.178 78.729 C 356.050 78.328,355.778 78.000,355.573 78.000 C 355.368 78.000,355.200 77.745,355.200 77.433 C 355.200 77.122,355.064 76.807,354.897 76.733 C 354.730 76.660,353.970 75.790,353.207 74.800 C 352.445 73.810,351.725 72.910,351.608 72.800 C 351.491 72.690,350.870 71.880,350.229 71.000 C 349.587 70.120,348.778 69.100,348.431 68.734 C 348.084 68.368,346.450 66.595,344.800 64.793 C 339.271 58.758,332.258 52.127,327.249 48.200 C 325.846 47.100,323.733 45.435,322.554 44.500 C 321.376 43.565,320.272 42.800,320.102 42.800 C 319.931 42.800,319.307 42.350,318.713 41.800 C 318.120 41.250,317.549 40.800,317.444 40.800 C 317.338 40.800,315.666 39.748,313.726 38.462 C 311.787 37.176,309.570 35.781,308.800 35.362 C 308.030 34.943,307.310 34.510,307.200 34.400 C 306.483 33.683,292.578 26.800,291.847 26.800 C 291.491 26.800,291.200 26.620,291.200 26.400 C 291.200 26.180,290.874 26.000,290.476 26.000 C 290.079 26.000,289.404 25.736,288.976 25.413 C 288.549 25.090,287.883 24.820,287.495 24.813 C 287.107 24.806,286.477 24.646,286.095 24.459 C 283.860 23.361,278.847 21.503,276.200 20.791 C 275.540 20.614,274.010 20.174,272.800 19.814 C 269.948 18.965,267.846 18.443,265.527 18.008 C 264.496 17.815,263.293 17.464,262.853 17.228 C 262.413 16.993,261.469 16.800,260.755 16.800 C 260.041 16.800,258.904 16.634,258.228 16.431 C 254.602 15.340,246.900 14.524,235.600 14.033 C 225.963 13.615,172.417 13.609,161.600 14.025 M243.800 15.115 C 246.440 15.331,250.400 15.797,252.600 16.151 C 254.800 16.506,257.410 16.902,258.400 17.031 C 259.390 17.160,260.650 17.416,261.200 17.599 C 261.750 17.783,263.640 18.236,265.400 18.607 C 267.160 18.978,269.050 19.428,269.600 19.608 C 270.150 19.789,271.680 20.242,273.000 20.617 C 275.783 21.406,281.036 23.088,282.200 23.562 C 282.640 23.741,284.530 24.481,286.400 25.205 C 298.093 29.734,319.057 41.470,322.800 45.582 C 322.910 45.703,324.080 46.611,325.400 47.600 C 326.720 48.589,327.890 49.491,328.000 49.605 C 328.110 49.719,329.460 50.885,331.000 52.197 C 336.640 57.003,346.029 66.804,351.311 73.400 C 353.017 75.529,356.555 80.362,357.266 81.531 C 357.756 82.339,358.270 83.090,358.406 83.200 C 358.855 83.561,364.127 92.141,365.534 94.800 C 368.671 100.729,369.757 102.984,372.275 108.800 C 373.807 112.338,374.668 114.500,375.382 116.600 C 375.756 117.700,376.203 118.960,376.375 119.400 C 376.547 119.840,377.001 121.280,377.384 122.600 C 377.767 123.920,378.242 125.313,378.440 125.695 C 378.638 126.077,378.800 126.682,378.800 127.041 C 378.800 127.399,379.061 128.527,379.380 129.546 C 380.785 134.034,381.989 139.938,382.819 146.400 C 383.031 148.050,383.311 149.670,383.441 150.000 C 384.555 152.829,384.769 173.077,384.784 277.045 L 384.800 383.491 383.772 384.519 C 381.597 386.694,392.507 386.563,200.800 386.707 C 3.678 386.855,16.184 387.036,13.714 384.000 C 13.332 383.531,13.223 360.262,13.213 277.522 C 13.200 174.220,13.338 160.512,14.470 152.200 C 14.709 150.440,15.038 147.830,15.201 146.400 C 15.460 144.121,15.961 141.379,17.213 135.400 C 18.090 131.208,18.462 129.746,18.816 129.105 C 19.027 128.723,19.201 128.093,19.202 127.705 C 19.203 127.317,19.649 125.740,20.193 124.200 C 20.738 122.660,21.187 121.031,21.192 120.580 C 21.196 120.129,21.355 119.589,21.545 119.380 C 21.735 119.171,22.386 117.560,22.991 115.800 C 24.150 112.428,24.653 111.175,26.282 107.600 C 26.833 106.390,27.732 104.410,28.280 103.200 C 28.827 101.990,29.532 100.517,29.845 99.926 C 30.158 99.335,30.906 97.895,31.507 96.726 C 32.108 95.557,32.690 94.510,32.800 94.400 C 32.910 94.290,33.196 93.840,33.436 93.400 C 35.406 89.785,36.156 88.514,36.640 87.969 C 36.948 87.621,37.200 87.204,37.200 87.042 C 37.200 86.879,37.650 86.157,38.200 85.436 C 38.750 84.714,39.200 83.931,39.200 83.696 C 39.200 83.460,39.335 83.207,39.500 83.133 C 39.665 83.060,40.678 81.704,41.751 80.121 C 42.824 78.537,43.994 76.917,44.351 76.520 C 44.708 76.124,45.530 75.079,46.178 74.200 C 51.870 66.469,64.190 54.070,72.400 47.808 C 73.830 46.717,75.205 45.627,75.456 45.385 C 75.707 45.143,77.237 44.058,78.856 42.973 C 80.475 41.888,81.890 40.901,82.000 40.779 C 83.904 38.677,101.262 29.381,109.600 25.997 C 110.810 25.506,112.367 24.856,113.060 24.552 C 113.754 24.248,114.598 24.000,114.937 24.000 C 115.276 24.000,115.664 23.820,115.800 23.600 C 115.936 23.380,116.476 23.200,117.000 23.200 C 117.524 23.200,118.051 23.040,118.172 22.845 C 118.293 22.650,119.045 22.368,119.845 22.218 C 120.644 22.068,121.591 21.793,121.949 21.606 C 122.307 21.419,123.680 20.967,125.000 20.601 C 126.320 20.235,127.850 19.789,128.400 19.608 C 128.950 19.428,130.840 18.976,132.600 18.603 C 134.360 18.231,136.340 17.777,137.000 17.595 C 137.660 17.413,140.270 16.967,142.800 16.603 C 145.330 16.240,148.155 15.776,149.077 15.571 C 150.000 15.367,152.430 15.187,154.477 15.172 C 156.525 15.156,158.560 14.988,159.000 14.798 C 160.082 14.330,237.751 14.621,243.800 15.115 " stroke="none" fill="#9f547a" fill-rule="evenodd"></path><path id="path2" d="M159.000 14.798 C 158.560 14.988,156.525 15.156,154.477 15.172 C 152.430 15.187,150.000 15.367,149.077 15.571 C 148.155 15.776,145.330 16.240,142.800 16.603 C 140.270 16.967,137.660 17.413,137.000 17.595 C 136.340 17.777,134.360 18.231,132.600 18.603 C 130.840 18.976,128.950 19.428,128.400 19.608 C 127.850 19.789,126.320 20.235,125.000 20.601 C 123.680 20.967,122.307 21.419,121.949 21.606 C 121.591 21.793,120.644 22.068,119.845 22.218 C 119.045 22.368,118.293 22.650,118.172 22.845 C 118.051 23.040,117.524 23.200,117.000 23.200 C 116.476 23.200,115.936 23.380,115.800 23.600 C 115.664 23.820,115.276 24.000,114.937 24.000 C 114.598 24.000,113.754 24.248,113.060 24.552 C 112.367 24.856,110.810 25.506,109.600 25.997 C 101.262 29.381,83.904 38.677,82.000 40.779 C 81.890 40.901,80.475 41.888,78.856 42.973 C 77.237 44.058,75.707 45.143,75.456 45.385 C 75.205 45.627,73.830 46.717,72.400 47.808 C 64.190 54.070,51.870 66.469,46.178 74.200 C 45.530 75.079,44.708 76.124,44.351 76.520 C 43.994 76.917,42.824 78.537,41.751 80.121 C 40.678 81.704,39.665 83.060,39.500 83.133 C 39.335 83.207,39.200 83.460,39.200 83.696 C 39.200 83.931,38.750 84.714,38.200 85.436 C 37.650 86.157,37.200 86.879,37.200 87.042 C 37.200 87.204,36.948 87.621,36.640 87.969 C 36.156 88.514,35.406 89.785,33.436 93.400 C 33.196 93.840,32.910 94.290,32.800 94.400 C 32.690 94.510,32.108 95.557,31.507 96.726 C 30.906 97.895,30.158 99.335,29.845 99.926 C 29.532 100.517,28.827 101.990,28.280 103.200 C 27.732 104.410,26.833 106.390,26.282 107.600 C 24.653 111.175,24.150 112.428,22.991 115.800 C 22.386 117.560,21.735 119.171,21.545 119.380 C 21.355 119.589,21.196 120.129,21.192 120.580 C 21.187 121.031,20.738 122.660,20.193 124.200 C 19.649 125.740,19.203 127.317,19.202 127.705 C 19.201 128.093,19.027 128.723,18.816 129.105 C 18.462 129.746,18.090 131.208,17.213 135.400 C 15.961 141.379,15.460 144.121,15.201 146.400 C 15.038 147.830,14.709 150.440,14.470 152.200 C 13.338 160.512,13.200 174.220,13.213 277.522 C 13.223 360.262,13.332 383.531,13.714 384.000 C 16.184 387.036,3.678 386.855,200.800 386.707 C 392.507 386.563,381.597 386.694,383.772 384.519 L 384.800 383.491 384.784 277.045 C 384.769 173.077,384.555 152.829,383.441 150.000 C 383.311 149.670,383.031 148.050,382.819 146.400 C 381.989 139.938,380.785 134.034,379.380 129.546 C 379.061 128.527,378.800 127.399,378.800 127.041 C 378.800 126.682,378.638 126.077,378.440 125.695 C 378.242 125.313,377.767 123.920,377.384 122.600 C 377.001 121.280,376.547 119.840,376.375 119.400 C 376.203 118.960,375.756 117.700,375.382 116.600 C 374.668 114.500,373.807 112.338,372.275 108.800 C 369.757 102.984,368.671 100.729,365.534 94.800 C 364.127 92.141,358.855 83.561,358.406 83.200 C 358.270 83.090,357.756 82.339,357.266 81.531 C 356.555 80.362,353.017 75.529,351.311 73.400 C 346.029 66.804,336.640 57.003,331.000 52.197 C 329.460 50.885,328.110 49.719,328.000 49.605 C 327.890 49.491,326.720 48.589,325.400 47.600 C 324.080 46.611,322.910 45.703,322.800 45.582 C 319.057 41.470,298.093 29.734,286.400 25.205 C 284.530 24.481,282.640 23.741,282.200 23.562 C 281.036 23.088,275.783 21.406,273.000 20.617 C 271.680 20.242,270.150 19.789,269.600 19.608 C 269.050 19.428,267.160 18.978,265.400 18.607 C 263.640 18.236,261.750 17.783,261.200 17.599 C 260.650 17.416,259.390 17.160,258.400 17.031 C 257.410 16.902,254.800 16.506,252.600 16.151 C 250.400 15.797,246.440 15.331,243.800 15.115 C 237.751 14.621,160.082 14.330,159.000 14.798 " stroke="none" fill="#ff0000" fill-rule="evenodd"></path><path id="path3" d="M149.000 10.000 C 148.864 10.220,147.548 10.401,146.076 10.402 C 144.485 10.404,142.936 10.647,142.254 11.002 C 141.624 11.331,140.139 11.600,138.954 11.600 C 137.769 11.600,136.800 11.780,136.800 12.000 C 136.800 12.220,135.823 12.400,134.629 12.400 C 133.232 12.400,132.243 12.614,131.857 13.000 C 131.499 13.358,130.521 13.600,129.429 13.600 C 128.423 13.600,127.600 13.780,127.600 14.000 C 127.600 14.220,127.105 14.401,126.500 14.402 C 125.895 14.404,124.884 14.674,124.254 15.002 C 123.624 15.331,122.589 15.600,121.954 15.600 C 121.319 15.600,120.800 15.780,120.800 16.000 C 120.800 16.220,120.164 16.400,119.387 16.400 C 118.501 16.400,117.889 16.623,117.745 17.000 C 117.604 17.367,116.997 17.600,116.181 17.600 C 115.447 17.600,114.736 17.780,114.600 18.000 C 114.464 18.220,113.926 18.400,113.405 18.400 C 112.884 18.400,112.187 18.670,111.857 19.000 C 111.527 19.330,110.805 19.600,110.252 19.600 C 109.699 19.600,109.136 19.780,109.000 20.000 C 108.864 20.220,108.425 20.400,108.025 20.400 C 107.625 20.400,107.074 20.670,106.800 21.000 C 106.526 21.330,105.981 21.600,105.588 21.600 C 105.195 21.600,104.002 22.034,102.937 22.565 C 101.872 23.095,100.235 23.850,99.300 24.242 C 98.365 24.633,97.600 25.099,97.600 25.277 C 97.600 25.455,97.326 25.600,96.992 25.600 C 96.658 25.600,95.671 26.050,94.800 26.600 C 93.929 27.150,92.953 27.600,92.632 27.600 C 92.310 27.600,91.943 27.769,91.816 27.975 C 91.688 28.181,91.048 28.631,90.392 28.975 C 89.736 29.319,88.664 29.881,88.008 30.225 C 87.352 30.569,86.712 31.019,86.584 31.225 C 86.457 31.431,86.069 31.600,85.722 31.600 C 85.375 31.600,84.675 32.050,84.165 32.600 C 83.655 33.150,82.982 33.600,82.668 33.600 C 82.355 33.600,81.874 33.870,81.600 34.200 C 81.326 34.530,80.888 34.800,80.626 34.800 C 80.365 34.800,79.788 35.138,79.345 35.551 C 78.901 35.964,78.147 36.426,77.669 36.578 C 77.191 36.730,76.800 37.022,76.800 37.227 C 76.800 37.432,76.573 37.600,76.295 37.600 C 76.017 37.600,75.452 38.050,75.039 38.600 C 74.626 39.150,74.088 39.603,73.844 39.608 C 73.600 39.612,72.680 40.244,71.800 41.012 C 70.920 41.780,69.885 42.509,69.500 42.631 C 69.115 42.754,68.800 43.022,68.800 43.227 C 68.800 43.432,68.627 43.600,68.416 43.600 C 68.205 43.600,67.298 44.320,66.400 45.200 C 65.502 46.080,64.616 46.800,64.430 46.800 C 63.844 46.800,45.600 65.219,45.600 65.811 C 45.600 65.974,45.150 66.525,44.600 67.035 C 44.050 67.545,43.600 68.068,43.600 68.198 C 43.600 68.328,43.150 68.920,42.600 69.513 C 42.050 70.107,41.600 70.716,41.600 70.867 C 41.600 71.019,40.976 71.804,40.214 72.613 C 39.451 73.421,38.719 74.424,38.587 74.841 C 38.454 75.259,38.178 75.600,37.973 75.600 C 37.768 75.600,37.600 75.788,37.600 76.017 C 37.600 76.247,37.150 76.920,36.600 77.513 C 36.050 78.107,35.600 78.727,35.600 78.893 C 35.600 79.058,35.217 79.634,34.749 80.173 C 33.869 81.185,33.115 82.388,32.451 83.838 C 32.240 84.299,31.827 84.937,31.533 85.256 C 30.889 85.957,29.600 88.328,29.600 88.812 C 29.600 89.003,29.150 89.644,28.600 90.238 C 28.050 90.831,27.600 91.636,27.600 92.025 C 27.600 92.415,27.465 92.793,27.300 92.867 C 27.135 92.940,26.649 93.720,26.219 94.600 C 25.789 95.480,25.257 96.443,25.037 96.740 C 24.816 97.038,24.592 97.574,24.539 97.933 C 24.487 98.292,24.254 98.649,24.022 98.726 C 23.790 98.803,23.600 99.287,23.600 99.800 C 23.600 100.313,23.465 100.793,23.300 100.867 C 22.865 101.060,21.600 103.565,21.600 104.232 C 21.600 104.545,21.420 104.800,21.200 104.800 C 20.980 104.800,20.800 105.088,20.800 105.440 C 20.800 105.791,20.509 106.736,20.153 107.540 C 19.796 108.343,19.256 109.567,18.953 110.260 C 18.649 110.954,18.400 111.809,18.400 112.160 C 18.400 112.512,18.220 112.800,18.000 112.800 C 17.780 112.800,17.600 113.411,17.600 114.157 C 17.600 114.995,17.370 115.603,17.000 115.745 C 16.653 115.878,16.400 116.476,16.400 117.164 C 16.400 117.818,16.220 118.464,16.000 118.600 C 15.780 118.736,15.600 119.467,15.600 120.224 C 15.600 120.981,15.422 121.600,15.205 121.600 C 14.987 121.600,14.694 122.324,14.552 123.209 C 14.411 124.094,14.139 124.914,13.947 125.032 C 13.756 125.151,13.600 126.032,13.600 126.990 C 13.600 127.949,13.402 128.799,13.161 128.880 C 12.919 128.960,12.626 129.875,12.509 130.913 C 12.392 131.951,12.139 132.800,11.948 132.800 C 11.757 132.800,11.600 133.865,11.600 135.167 C 11.600 136.621,11.419 137.594,11.131 137.690 C 10.868 137.777,10.583 138.934,10.483 140.329 C 10.384 141.695,10.145 142.911,9.951 143.030 C 9.758 143.149,9.600 144.566,9.600 146.178 C 9.600 147.991,9.373 149.546,9.005 150.254 C 8.483 151.260,8.411 165.724,8.411 269.000 L 8.412 386.600 9.723 388.100 C 10.445 388.925,11.252 389.600,11.517 389.600 C 11.783 389.600,12.000 389.780,12.000 390.000 C 12.000 390.220,12.315 390.406,12.700 390.413 C 13.085 390.420,13.749 390.690,14.176 391.013 C 15.369 391.915,383.251 391.902,384.000 391.000 C 384.274 390.670,384.844 390.400,385.268 390.400 C 385.691 390.400,386.839 389.610,387.819 388.644 L 389.600 386.888 389.600 268.921 C 389.600 165.815,389.526 150.855,389.013 150.176 C 388.610 149.643,388.421 148.366,388.413 146.100 C 388.405 144.175,388.233 142.800,388.000 142.800 C 387.778 142.800,387.600 141.729,387.600 140.387 C 387.600 138.612,387.442 137.914,387.000 137.745 C 386.561 137.576,386.400 136.884,386.400 135.157 C 386.400 133.852,386.221 132.800,386.000 132.800 C 385.780 132.800,385.600 131.900,385.600 130.800 C 385.600 129.289,385.453 128.800,385.000 128.800 C 384.547 128.800,384.400 128.311,384.400 126.800 C 384.400 125.700,384.220 124.800,384.000 124.800 C 383.780 124.800,383.600 124.164,383.600 123.387 C 383.600 122.501,383.377 121.889,383.000 121.745 C 382.633 121.604,382.400 120.997,382.400 120.181 C 382.400 119.447,382.220 118.736,382.000 118.600 C 381.780 118.464,381.600 117.818,381.600 117.164 C 381.600 116.476,381.347 115.878,381.000 115.745 C 380.630 115.603,380.400 114.995,380.400 114.157 C 380.400 113.411,380.220 112.800,380.000 112.800 C 379.780 112.800,379.600 112.384,379.600 111.876 C 379.600 111.369,379.336 110.604,379.013 110.176 C 378.690 109.749,378.420 108.995,378.413 108.500 C 378.406 108.005,378.220 107.600,378.000 107.600 C 377.780 107.600,377.600 107.163,377.600 106.629 C 377.600 106.094,377.330 105.387,377.000 105.057 C 376.670 104.727,376.400 104.084,376.400 103.629 C 376.400 103.173,376.220 102.800,376.000 102.800 C 375.780 102.800,375.600 102.434,375.600 101.987 C 375.600 101.541,375.330 101.071,375.000 100.945 C 374.670 100.818,374.400 100.284,374.400 99.757 C 374.400 99.231,374.220 98.800,374.000 98.800 C 373.780 98.800,373.600 98.462,373.600 98.049 C 373.600 97.636,373.330 97.074,373.000 96.800 C 372.670 96.526,372.400 95.964,372.400 95.551 C 372.400 95.138,372.220 94.800,372.000 94.800 C 371.780 94.800,371.600 94.434,371.600 93.987 C 371.600 93.541,371.330 93.071,371.000 92.945 C 370.670 92.818,370.400 92.500,370.400 92.237 C 370.400 91.354,369.405 89.606,368.900 89.603 C 368.625 89.601,368.400 89.150,368.400 88.600 C 368.400 88.050,368.220 87.600,368.000 87.600 C 367.780 87.600,367.600 87.373,367.600 87.096 C 367.600 86.819,367.150 86.107,366.600 85.513 C 366.050 84.920,365.600 84.179,365.600 83.866 C 365.600 83.554,365.330 83.074,365.000 82.800 C 364.670 82.526,364.400 82.080,364.400 81.809 C 364.400 81.538,363.950 80.831,363.400 80.238 C 362.850 79.644,362.394 78.943,362.387 78.679 C 362.369 77.996,361.395 76.800,360.856 76.800 C 360.605 76.800,360.400 76.530,360.400 76.200 C 360.400 75.870,360.220 75.600,360.000 75.600 C 359.780 75.600,359.600 75.367,359.600 75.082 C 359.600 74.798,358.880 73.792,358.000 72.849 C 357.120 71.905,356.394 70.923,356.387 70.666 C 356.369 69.993,355.390 68.800,354.856 68.800 C 354.605 68.800,354.400 68.573,354.400 68.295 C 354.400 68.017,353.950 67.452,353.400 67.039 C 352.850 66.626,352.400 66.114,352.400 65.900 C 352.400 65.687,352.042 65.127,351.604 64.656 C 348.796 61.636,347.600 60.225,347.600 59.933 C 347.600 59.750,347.360 59.600,347.068 59.600 C 346.775 59.600,346.294 59.150,346.000 58.600 C 345.706 58.050,345.256 57.600,345.000 57.600 C 344.744 57.600,344.294 57.150,344.000 56.600 C 343.706 56.050,343.256 55.600,343.000 55.600 C 342.744 55.600,342.294 55.150,342.000 54.600 C 341.706 54.050,341.256 53.600,341.000 53.600 C 340.744 53.600,340.294 53.150,340.000 52.600 C 339.706 52.050,339.331 51.600,339.168 51.600 C 339.005 51.600,337.731 50.520,336.336 49.201 C 334.941 47.881,333.672 46.801,333.515 46.801 C 333.359 46.800,332.518 46.080,331.647 45.200 C 330.776 44.320,329.869 43.600,329.631 43.600 C 329.394 43.600,329.200 43.420,329.200 43.200 C 329.200 42.980,328.975 42.797,328.700 42.794 C 328.425 42.790,327.390 42.073,326.400 41.200 C 325.410 40.327,324.441 39.610,324.246 39.606 C 324.051 39.603,323.475 39.150,322.965 38.600 C 322.455 38.050,321.850 37.600,321.619 37.600 C 321.389 37.600,321.197 37.465,321.194 37.300 C 321.191 37.135,320.113 36.370,318.800 35.600 C 317.487 34.830,316.409 34.065,316.406 33.900 C 316.403 33.735,316.032 33.600,315.583 33.600 C 315.134 33.600,314.369 33.223,313.883 32.762 C 313.397 32.300,312.640 31.761,312.200 31.563 C 311.296 31.155,309.901 30.308,309.600 29.985 C 309.490 29.867,308.325 29.237,307.012 28.585 C 305.698 27.933,304.380 27.175,304.083 26.900 C 303.786 26.625,303.286 26.400,302.971 26.400 C 302.657 26.400,302.400 26.220,302.400 26.000 C 302.400 25.780,301.950 25.600,301.400 25.600 C 300.850 25.600,300.400 25.444,300.400 25.254 C 300.400 25.064,299.545 24.586,298.500 24.191 C 297.455 23.796,296.510 23.367,296.400 23.237 C 295.916 22.665,293.454 21.600,292.617 21.600 C 292.111 21.600,291.474 21.330,291.200 21.000 C 290.926 20.670,290.375 20.400,289.975 20.400 C 289.575 20.400,289.136 20.220,289.000 20.000 C 288.864 19.780,288.301 19.600,287.748 19.600 C 287.195 19.600,286.473 19.330,286.143 19.000 C 285.813 18.670,285.116 18.400,284.595 18.400 C 284.074 18.400,283.536 18.220,283.400 18.000 C 283.264 17.780,282.553 17.600,281.819 17.600 C 281.003 17.600,280.396 17.367,280.255 17.000 C 280.122 16.653,279.524 16.400,278.836 16.400 C 278.182 16.400,277.536 16.220,277.400 16.000 C 277.264 15.780,276.548 15.600,275.810 15.600 C 275.071 15.600,274.401 15.402,274.320 15.161 C 274.240 14.919,273.325 14.626,272.287 14.509 C 271.249 14.392,270.400 14.139,270.400 13.948 C 270.400 13.757,269.577 13.600,268.571 13.600 C 267.479 13.600,266.501 13.358,266.143 13.000 C 265.774 12.631,264.793 12.400,263.595 12.400 C 262.524 12.400,261.536 12.220,261.400 12.000 C 261.264 11.780,260.098 11.600,258.810 11.600 C 257.306 11.600,256.408 11.423,256.302 11.106 C 256.194 10.783,254.976 10.563,252.769 10.468 C 250.916 10.389,249.229 10.161,249.020 9.962 C 248.477 9.444,149.320 9.482,149.000 10.000 M235.600 14.033 C 246.900 14.524,254.602 15.340,258.228 16.431 C 258.904 16.634,260.041 16.800,260.755 16.800 C 261.469 16.800,262.413 16.993,262.853 17.228 C 263.293 17.464,264.496 17.815,265.527 18.008 C 267.846 18.443,269.948 18.965,272.800 19.814 C 274.010 20.174,275.540 20.614,276.200 20.791 C 278.847 21.503,283.860 23.361,286.095 24.459 C 286.477 24.646,287.107 24.806,287.495 24.813 C 287.883 24.820,288.549 25.090,288.976 25.413 C 289.404 25.736,290.079 26.000,290.476 26.000 C 290.874 26.000,291.200 26.180,291.200 26.400 C 291.200 26.620,291.491 26.800,291.847 26.800 C 292.578 26.800,306.483 33.683,307.200 34.400 C 307.310 34.510,308.030 34.943,308.800 35.362 C 309.570 35.781,311.787 37.176,313.726 38.462 C 315.666 39.748,317.338 40.800,317.444 40.800 C 317.549 40.800,318.120 41.250,318.713 41.800 C 319.307 42.350,319.931 42.800,320.102 42.800 C 320.272 42.800,321.376 43.565,322.554 44.500 C 323.733 45.435,325.846 47.100,327.249 48.200 C 332.258 52.127,339.271 58.758,344.800 64.793 C 346.450 66.595,348.084 68.368,348.431 68.734 C 348.778 69.100,349.587 70.120,350.229 71.000 C 350.870 71.880,351.491 72.690,351.608 72.800 C 351.725 72.910,352.445 73.810,353.207 74.800 C 353.970 75.790,354.730 76.660,354.897 76.733 C 355.064 76.807,355.200 77.122,355.200 77.433 C 355.200 77.745,355.368 78.000,355.573 78.000 C 355.778 78.000,356.050 78.328,356.178 78.729 C 356.305 79.131,356.722 79.811,357.105 80.242 C 358.183 81.457,361.200 86.015,361.200 86.429 C 361.200 86.633,361.341 86.800,361.513 86.800 C 361.685 86.800,362.444 87.970,363.200 89.400 C 363.956 90.830,364.715 92.000,364.887 92.000 C 365.059 92.000,365.200 92.349,365.200 92.776 C 365.200 93.203,365.369 93.657,365.575 93.784 C 365.974 94.031,366.091 94.243,368.892 99.800 C 370.505 102.999,371.772 105.744,372.768 108.200 C 372.947 108.640,373.285 109.450,373.519 110.000 C 374.770 112.932,375.211 114.045,376.138 116.600 C 377.646 120.756,378.844 124.422,379.211 126.000 C 379.390 126.770,379.838 128.390,380.207 129.600 C 380.575 130.810,381.035 132.610,381.228 133.600 C 382.039 137.759,382.675 140.638,382.907 141.200 C 383.044 141.530,383.245 142.700,383.353 143.800 C 383.462 144.900,383.861 148.140,384.239 151.000 C 384.874 155.794,384.939 165.104,385.066 270.271 L 385.204 384.343 384.102 385.126 C 380.939 387.372,396.342 387.200,198.775 387.200 C 96.364 387.200,17.554 387.049,17.432 386.852 C 17.314 386.660,16.713 386.403,16.097 386.279 C 15.481 386.156,14.487 385.601,13.888 385.047 L 12.800 384.038 12.807 272.719 C 12.812 199.330,12.954 160.105,13.225 157.600 C 13.451 155.510,13.809 152.180,14.022 150.200 C 14.658 144.264,15.152 141.351,16.800 133.800 C 17.156 132.170,18.163 128.366,18.812 126.200 C 19.009 125.540,19.409 124.154,19.700 123.119 C 19.990 122.085,20.357 121.110,20.514 120.953 C 20.671 120.795,20.800 120.357,20.800 119.979 C 20.800 119.601,21.069 118.776,21.398 118.146 C 21.726 117.516,21.996 116.721,21.998 116.380 C 21.999 116.039,22.143 115.589,22.318 115.380 C 22.493 115.171,22.874 114.280,23.164 113.400 C 24.008 110.843,25.640 107.171,28.856 100.600 C 32.249 93.665,38.922 82.365,40.888 80.225 C 41.280 79.798,41.600 79.316,41.600 79.153 C 41.600 78.990,41.834 78.619,42.120 78.329 C 42.406 78.038,43.429 76.720,44.392 75.400 C 45.356 74.080,46.253 72.910,46.386 72.800 C 46.519 72.690,47.029 72.077,47.521 71.437 C 51.789 65.881,65.305 52.274,69.800 49.008 C 70.680 48.369,71.580 47.651,71.800 47.414 C 72.847 46.285,86.740 36.620,88.400 35.866 C 88.730 35.716,89.540 35.264,90.200 34.862 C 93.842 32.644,100.737 29.068,104.400 27.497 C 105.170 27.166,106.840 26.424,108.111 25.848 C 109.382 25.272,110.599 24.800,110.816 24.800 C 111.219 24.800,111.591 24.641,113.932 23.468 C 114.665 23.100,115.670 22.800,116.166 22.800 C 116.661 22.800,117.195 22.672,117.352 22.515 C 117.795 22.071,121.318 20.801,122.105 20.800 C 122.493 20.800,123.123 20.642,123.505 20.450 C 124.206 20.096,127.250 19.198,130.200 18.474 C 131.080 18.258,132.610 17.868,133.600 17.608 C 135.615 17.079,138.057 16.628,142.200 16.019 C 143.740 15.793,145.270 15.503,145.600 15.375 C 149.372 13.914,211.506 12.988,235.600 14.033 " stroke="none" fill="#3fa9f5" fill-rule="evenodd"></path><path id="path4" d="" stroke="none" fill="#00ffff" fill-rule="evenodd"></path></g></svg>