<svg id="svg" version="1.1" width="400" height="400" xmlns="http://www.w3.org/2000/svg" xmlns:xlink="http://www.w3.org/1999/xlink" style="display: block;"><g id="svgg"><path id="path0" d="M13.600 80.000 C 13.600 80.220,13.150 80.400,12.600 80.400 C 11.978 80.400,11.600 80.627,11.600 81.000 C 11.600 81.330,11.407 81.600,11.171 81.600 C 10.618 81.600,9.600 82.618,9.600 83.171 C 9.600 83.407,9.407 83.600,9.171 83.600 C 8.479 83.600,7.600 84.679,7.600 85.529 C 7.600 85.961,7.330 86.418,7.000 86.545 C 6.590 86.702,6.400 87.343,6.400 88.564 C 6.400 89.548,6.220 90.464,6.000 90.600 C 5.480 90.922,5.480 92.400,6.000 92.400 C 6.265 92.400,6.400 121.138,6.400 177.813 C 6.400 253.366,6.469 263.252,7.000 263.455 C 7.330 263.582,7.600 264.039,7.600 264.471 C 7.600 265.321,8.479 266.400,9.171 266.400 C 9.407 266.400,9.600 266.593,9.600 266.829 C 9.600 267.382,10.618 268.400,11.171 268.400 C 11.407 268.400,11.600 268.670,11.600 269.000 C 11.600 269.373,11.978 269.600,12.600 269.600 C 13.150 269.600,13.600 269.780,13.600 270.000 C 13.600 270.266,75.000 270.400,197.000 270.400 C 319.000 270.400,380.400 270.266,380.400 270.000 C 380.400 269.780,380.850 269.600,381.400 269.600 C 382.022 269.600,382.400 269.373,382.400 269.000 C 382.400 268.670,382.593 268.400,382.829 268.400 C 383.382 268.400,384.400 267.382,384.400 266.829 C 384.400 266.593,384.593 266.400,384.829 266.400 C 385.534 266.400,386.400 265.314,386.400 264.429 C 386.400 263.959,386.660 263.600,387.000 263.600 C 387.453 263.600,387.600 263.111,387.600 261.600 C 387.600 260.500,387.780 259.600,388.000 259.600 C 388.220 259.600,388.400 259.150,388.400 258.600 C 388.400 258.050,388.220 257.600,388.000 257.600 C 387.735 257.600,387.600 228.862,387.600 172.187 C 387.600 96.634,387.531 86.748,387.000 86.545 C 386.670 86.418,386.400 85.961,386.400 85.529 C 386.400 84.679,385.521 83.600,384.829 83.600 C 384.593 83.600,384.400 83.407,384.400 83.171 C 384.400 82.618,383.382 81.600,382.829 81.600 C 382.593 81.600,382.400 81.330,382.400 81.000 C 382.400 80.627,382.022 80.400,381.400 80.400 C 380.850 80.400,380.400 80.220,380.400 80.000 C 380.400 79.734,319.000 79.600,197.000 79.600 C 75.000 79.600,13.600 79.734,13.600 80.000 M195.101 175.100 L 195.202 266.400 106.198 266.400 L 17.194 266.400 15.176 265.310 C 13.778 264.555,12.796 263.631,11.979 262.304 L 10.800 260.388 10.800 174.986 L 10.800 89.584 11.864 87.892 C 13.013 86.064,13.803 85.378,15.990 84.313 C 17.311 83.669,22.983 83.632,106.200 83.713 L 195.000 83.800 195.101 175.100 M378.140 84.373 C 380.100 85.266,381.733 86.783,382.596 88.512 C 383.429 90.181,383.524 259.704,382.693 261.254 C 381.515 263.453,380.679 264.339,378.837 265.341 L 376.888 266.402 287.944 266.301 L 199.000 266.200 198.897 175.400 C 198.841 125.460,198.880 84.375,198.985 84.100 C 199.354 83.128,375.997 83.396,378.140 84.373 " stroke="none" fill="#000000" fill-rule="evenodd"></path><path id="path1" d="M16.442 84.034 C 15.915 84.245,15.585 84.518,15.708 84.641 C 15.831 84.764,16.297 84.669,16.743 84.431 C 17.321 84.121,43.075 84.026,106.339 84.098 C 155.170 84.154,195.040 84.065,194.938 83.900 C 194.656 83.444,17.585 83.577,16.442 84.034 M199.063 83.897 C 198.961 84.064,238.954 84.200,287.938 84.200 C 339.647 84.200,377.336 84.351,377.800 84.559 C 378.474 84.861,378.518 84.829,378.080 84.359 C 377.505 83.740,199.444 83.281,199.063 83.897 M13.757 85.532 C 11.930 87.058,10.797 89.466,10.856 91.692 L 10.913 93.800 11.191 91.800 C 11.582 88.989,12.202 87.689,13.890 86.143 C 15.390 84.769,15.279 84.259,13.757 85.532 M379.857 85.911 C 381.405 87.252,382.409 88.815,382.812 90.510 C 383.088 91.675,383.122 91.699,383.159 90.761 C 383.232 88.909,380.361 84.777,379.024 84.811 C 378.791 84.817,379.166 85.312,379.857 85.911 M10.860 258.908 C 10.796 260.527,12.196 263.237,13.746 264.491 C 15.219 265.683,15.321 265.261,13.889 263.900 C 12.395 262.481,11.332 260.474,11.081 258.600 C 10.938 257.538,10.913 257.574,10.860 258.908 M382.854 259.141 C 382.736 261.190,380.725 263.907,378.532 264.981 L 376.443 266.004 287.660 265.902 C 238.829 265.846,198.960 265.935,199.062 266.100 C 199.164 266.265,239.204 266.400,288.040 266.400 L 376.832 266.400 378.466 265.566 C 381.260 264.141,383.458 261.078,383.086 259.129 L 382.909 258.200 382.854 259.141 M16.176 265.767 C 17.013 266.449,195.200 266.780,195.200 266.100 C 195.200 265.935,155.105 265.800,106.100 265.800 C 57.095 265.800,16.640 265.650,16.200 265.467 C 15.412 265.140,15.411 265.144,16.176 265.767 " stroke="none" fill="#113817" fill-rule="evenodd"></path><path id="path2" d="M16.131 84.621 C 15.432 84.927,14.754 85.350,14.624 85.561 C 14.493 85.773,14.975 85.650,15.693 85.290 C 16.412 84.929,17.720 84.514,18.600 84.367 L 20.200 84.100 18.800 84.083 C 18.030 84.073,16.829 84.315,16.131 84.621 M194.800 174.920 L 195.000 265.800 195.101 175.221 C 195.156 125.402,195.066 84.506,194.901 84.341 C 194.735 84.175,194.690 124.936,194.800 174.920 M199.067 84.267 C 198.696 84.637,198.729 265.509,199.100 265.738 C 199.265 265.840,199.400 224.991,199.400 174.962 C 199.400 124.933,199.385 84.000,199.367 84.000 C 199.348 84.000,199.213 84.120,199.067 84.267 M374.433 84.143 C 374.525 84.222,375.320 84.397,376.200 84.532 C 377.290 84.699,377.609 84.655,377.200 84.395 C 376.653 84.046,374.045 83.809,374.433 84.143 M12.800 87.200 C 12.330 87.860,12.036 88.400,12.146 88.400 C 12.256 88.400,12.730 87.860,13.200 87.200 C 13.670 86.540,13.964 86.000,13.854 86.000 C 13.744 86.000,13.270 86.540,12.800 87.200 M382.012 89.200 C 382.012 89.530,382.187 90.070,382.400 90.400 C 382.745 90.933,382.788 90.933,382.788 90.400 C 382.788 90.070,382.613 89.530,382.400 89.200 C 382.055 88.667,382.012 88.667,382.012 89.200 M11.449 89.815 C 11.312 90.173,11.215 90.766,11.234 91.133 C 11.253 91.500,11.427 91.269,11.621 90.620 C 11.998 89.358,11.865 88.733,11.449 89.815 M382.996 175.000 C 382.996 220.980,383.043 239.849,383.100 216.932 C 383.157 194.014,383.157 156.394,383.100 133.332 C 383.043 110.269,382.996 129.020,382.996 175.000 M10.996 175.600 C 10.996 220.810,11.043 239.305,11.100 216.700 C 11.157 194.095,11.157 157.105,11.100 134.500 C 11.043 111.895,10.996 130.390,10.996 175.600 M11.200 259.310 C 11.200 259.883,11.387 260.468,11.616 260.610 C 11.889 260.779,11.938 260.477,11.760 259.734 C 11.392 258.201,11.200 258.056,11.200 259.310 M12.866 262.790 C 14.015 264.354,16.888 265.993,18.400 265.948 C 19.316 265.921,19.300 265.892,18.200 265.610 C 15.841 265.003,14.666 264.355,13.265 262.888 L 11.844 261.400 12.866 262.790 M379.400 264.078 C 378.520 264.751,377.980 265.228,378.200 265.138 C 379.673 264.535,380.786 263.814,380.965 263.346 C 381.229 262.659,381.298 262.627,379.400 264.078 M375.800 265.600 C 374.693 265.882,374.677 265.909,375.600 265.947 C 376.150 265.969,376.870 265.813,377.200 265.600 C 377.881 265.160,377.529 265.160,375.800 265.600 " stroke="none" fill="#206529" fill-rule="evenodd"></path><path id="path3" d="M63.500 84.300 C 87.535 84.357,126.865 84.357,150.900 84.300 C 174.935 84.243,155.270 84.196,107.200 84.196 C 59.130 84.196,39.465 84.243,63.500 84.300 M199.385 84.500 C 199.280 84.775,199.241 125.680,199.297 175.400 L 199.400 265.800 287.800 265.800 C 358.077 265.800,376.405 265.697,377.200 265.296 C 378.119 264.833,378.070 264.814,376.600 265.061 C 375.720 265.209,335.535 265.391,287.300 265.467 L 199.600 265.604 199.600 175.003 L 199.600 84.402 287.100 84.300 L 374.600 84.198 287.087 84.099 C 217.372 84.020,199.536 84.102,199.385 84.500 M16.800 84.800 C 16.325 85.107,16.408 85.188,17.200 85.188 C 17.750 85.188,18.470 85.013,18.800 84.800 C 19.275 84.493,19.192 84.412,18.400 84.412 C 17.850 84.412,17.130 84.587,16.800 84.800 M375.200 84.800 C 375.530 85.013,376.255 85.191,376.811 85.194 C 378.929 85.207,381.457 87.773,381.835 90.293 C 382.070 91.863,382.800 93.117,382.800 91.952 C 382.800 89.622,380.610 86.366,378.285 85.241 C 376.504 84.379,373.993 84.020,375.200 84.800 M13.675 86.770 C 11.058 89.467,11.200 84.391,11.200 175.053 C 11.200 259.878,11.212 260.544,12.730 262.000 C 13.287 262.533,13.308 262.533,12.925 262.000 C 11.647 260.222,11.600 257.144,11.600 175.000 C 11.600 91.539,11.634 89.509,13.041 88.102 C 13.339 87.804,13.721 87.334,13.891 87.056 C 14.061 86.779,14.645 86.248,15.189 85.876 C 15.733 85.504,15.958 85.200,15.689 85.200 C 15.419 85.200,14.513 85.907,13.675 86.770 M382.278 258.000 C 382.159 258.330,381.951 259.268,381.816 260.084 C 381.648 261.094,381.032 262.107,379.885 263.255 C 378.507 264.635,378.427 264.785,379.447 264.081 C 380.920 263.065,381.698 261.951,382.372 259.897 C 382.845 258.451,382.757 256.665,382.278 258.000 M13.200 262.973 C 13.200 263.068,13.785 263.543,14.500 264.029 L 15.800 264.912 14.717 263.856 C 13.701 262.864,13.200 262.573,13.200 262.973 M17.000 265.279 C 17.651 265.703,34.219 265.801,106.200 265.804 L 194.600 265.808 106.800 265.576 C 58.510 265.448,18.370 265.212,17.600 265.050 C 16.357 264.790,16.290 264.816,17.000 265.279 " stroke="none" fill="#2a8737" fill-rule="evenodd"></path><path id="path4" d="M18.400 84.828 C 17.850 85.016,16.946 85.260,16.392 85.370 C 14.474 85.749,12.629 88.042,12.043 90.774 C 11.399 93.774,11.417 256.155,12.061 259.362 C 12.649 262.290,14.764 264.563,17.323 265.019 C 18.245 265.183,58.555 265.382,106.900 265.461 L 194.800 265.604 194.800 175.002 L 194.800 84.400 107.100 84.443 C 58.865 84.466,18.950 84.639,18.400 84.828 M199.600 175.002 L 199.600 265.604 287.300 265.461 C 335.535 265.382,375.755 265.183,376.677 265.019 C 378.917 264.620,381.475 262.159,381.807 260.084 C 381.937 259.268,382.214 258.287,382.422 257.905 C 382.913 257.004,382.937 92.532,382.446 92.229 C 382.252 92.108,381.972 91.206,381.824 90.223 C 381.517 88.172,379.418 85.734,377.657 85.383 C 377.076 85.267,376.047 84.998,375.372 84.786 C 374.598 84.543,341.847 84.400,286.872 84.400 L 199.600 84.400 199.600 175.002 " stroke="none" fill="#39b54a" fill-rule="evenodd"></path></g></svg>