<svg id="svg" version="1.1" width="400" height="400" xmlns="http://www.w3.org/2000/svg" xmlns:xlink="http://www.w3.org/1999/xlink" style="display: block;"><g id="svgg"><path id="path0" d="M14.400 12.000 C 14.400 12.220,14.116 12.400,13.768 12.400 C 12.945 12.400,8.400 16.945,8.400 17.768 C 8.400 18.116,8.220 18.400,8.000 18.400 C 7.780 18.400,7.600 19.306,7.600 20.413 C 7.600 21.832,7.423 22.493,7.000 22.655 C 6.670 22.782,6.400 23.142,6.400 23.455 C 6.400 23.769,6.670 24.129,7.000 24.255 C 7.532 24.460,7.600 44.916,7.600 205.043 C 7.600 325.148,7.734 385.600,8.000 385.600 C 8.220 385.600,8.400 385.935,8.400 386.344 C 8.400 386.753,8.850 387.426,9.400 387.839 C 9.950 388.252,10.400 388.817,10.400 389.095 C 10.400 389.373,10.627 389.600,10.905 389.600 C 11.183 389.600,11.748 390.050,12.161 390.600 C 12.574 391.150,13.247 391.600,13.656 391.600 C 14.065 391.600,14.400 391.780,14.400 392.000 C 14.400 392.266,75.867 392.400,198.000 392.400 C 320.133 392.400,381.600 392.266,381.600 392.000 C 381.600 391.780,382.050 391.600,382.600 391.600 C 383.150 391.600,383.600 391.407,383.600 391.171 C 383.600 390.936,383.857 390.486,384.171 390.171 C 384.486 389.857,384.936 389.600,385.171 389.600 C 385.407 389.600,385.600 389.407,385.600 389.171 C 385.600 388.936,385.857 388.486,386.171 388.171 C 386.486 387.857,386.936 387.600,387.171 387.600 C 387.407 387.600,387.600 387.150,387.600 386.600 C 387.600 386.050,387.780 385.600,388.000 385.600 C 388.220 385.600,388.400 384.719,388.400 383.643 C 388.400 382.272,388.580 381.617,389.000 381.455 C 389.330 381.329,389.600 380.859,389.600 380.413 C 389.600 379.957,389.336 379.600,389.000 379.600 C 388.468 379.600,388.400 359.267,388.400 199.000 C 388.400 78.867,388.266 18.400,388.000 18.400 C 387.780 18.400,387.600 18.065,387.600 17.656 C 387.600 17.247,387.150 16.574,386.600 16.161 C 386.050 15.748,385.600 15.183,385.600 14.905 C 385.600 14.627,385.373 14.400,385.095 14.400 C 384.817 14.400,384.252 13.950,383.839 13.400 C 383.426 12.850,382.753 12.400,382.344 12.400 C 381.935 12.400,381.600 12.220,381.600 12.000 C 381.600 11.734,320.133 11.600,198.000 11.600 C 75.867 11.600,14.400 11.734,14.400 12.000 M379.515 16.402 C 381.576 17.477,382.640 18.518,383.600 20.399 C 384.397 21.961,384.400 22.732,384.400 202.168 L 384.400 382.367 383.300 384.205 C 382.634 385.317,381.448 386.508,380.294 387.221 L 378.388 388.400 198.178 388.400 C 18.732 388.400,17.961 388.397,16.399 387.600 C 14.518 386.640,13.477 385.576,12.402 383.515 C 11.166 381.143,11.130 23.387,12.366 20.678 C 13.270 18.696,14.666 17.301,16.714 16.331 C 19.209 15.149,377.246 15.220,379.515 16.402 M195.200 78.400 L 195.200 128.400 116.200 128.400 L 37.200 128.400 37.200 130.000 L 37.200 131.600 116.200 131.600 L 195.200 131.600 195.200 200.000 L 195.200 268.400 116.200 268.400 L 37.200 268.400 37.200 270.000 L 37.200 271.600 116.198 271.600 L 195.197 271.600 195.298 318.100 L 195.400 364.600 197.098 364.723 L 198.797 364.846 198.898 318.323 L 199.000 271.800 277.300 271.699 L 355.600 271.598 355.600 269.999 L 355.600 268.400 277.199 268.400 L 198.798 268.400 198.899 200.100 L 199.000 131.800 277.300 131.699 L 355.600 131.598 355.600 129.999 L 355.600 128.400 277.200 128.400 L 198.800 128.400 198.800 78.400 L 198.800 28.400 197.000 28.400 L 195.200 28.400 195.200 78.400 " stroke="none" fill="#000000" fill-rule="evenodd"></path><path id="path1" d="M17.242 16.034 C 16.715 16.245,16.385 16.518,16.508 16.641 C 16.631 16.764,17.095 16.670,17.539 16.432 C 18.631 15.848,378.239 15.816,378.600 16.400 C 378.736 16.620,379.062 16.794,379.324 16.787 C 379.586 16.780,379.451 16.510,379.024 16.187 C 378.088 15.480,19.008 15.328,17.242 16.034 M14.006 18.194 C 13.263 18.961,12.732 19.664,12.827 19.757 C 12.922 19.850,13.693 19.223,14.541 18.363 C 15.388 17.503,15.918 16.800,15.719 16.800 C 15.520 16.800,14.749 17.427,14.006 18.194 M381.095 17.900 C 381.790 18.505,382.728 19.680,383.179 20.512 L 384.000 22.024 384.006 201.912 L 384.013 381.800 382.962 383.824 C 382.180 385.329,381.420 386.124,379.996 386.924 L 378.082 388.000 198.053 388.000 L 18.024 388.000 16.512 387.172 C 15.680 386.717,14.510 385.772,13.911 385.072 C 13.312 384.372,12.817 383.982,12.811 384.204 C 12.792 384.900,14.764 386.766,16.400 387.600 C 17.961 388.396,18.776 388.400,198.168 388.400 L 378.367 388.400 380.205 387.300 C 381.317 386.634,382.508 385.448,383.221 384.294 L 384.400 382.388 384.400 202.178 C 384.400 22.776,384.396 21.961,383.600 20.400 C 382.778 18.790,380.910 16.800,380.219 16.800 C 380.005 16.800,380.399 17.295,381.095 17.900 M12.011 21.371 C 11.279 23.295,11.454 382.054,12.187 383.024 C 12.510 383.451,12.780 383.586,12.787 383.324 C 12.794 383.062,12.620 382.736,12.400 382.600 C 11.816 382.239,11.848 22.631,12.432 21.539 C 12.670 21.095,12.765 20.632,12.644 20.510 C 12.522 20.389,12.237 20.776,12.011 21.371 M196.305 28.283 C 196.802 28.379,197.522 28.375,197.905 28.275 C 198.287 28.175,197.880 28.096,197.000 28.101 C 196.120 28.105,195.807 28.187,196.305 28.283 M198.800 128.100 C 198.800 128.265,234.080 128.400,277.200 128.400 L 355.600 128.400 355.600 130.000 L 355.600 131.600 277.424 131.600 C 234.427 131.600,199.164 131.735,199.062 131.900 C 198.960 132.065,234.184 132.110,277.338 132.000 L 355.800 131.800 355.800 130.000 L 355.800 128.200 277.300 128.000 C 234.125 127.890,198.800 127.935,198.800 128.100 M76.900 128.300 C 98.625 128.357,134.175 128.357,155.900 128.300 C 177.625 128.243,159.850 128.196,116.400 128.196 C 72.950 128.196,55.175 128.243,76.900 128.300 M76.732 131.900 C 98.584 131.957,134.224 131.957,155.932 131.900 C 177.639 131.843,159.760 131.796,116.200 131.796 C 72.640 131.796,54.879 131.843,76.732 131.900 M198.800 268.100 C 198.800 268.265,234.080 268.400,277.200 268.400 L 355.600 268.400 355.600 270.000 L 355.600 271.600 277.424 271.600 C 234.427 271.600,199.164 271.735,199.062 271.900 C 198.960 272.065,234.184 272.110,277.338 272.000 L 355.800 271.800 355.800 270.000 L 355.800 268.200 277.300 268.000 C 234.125 267.890,198.800 267.935,198.800 268.100 M76.900 268.300 C 98.625 268.357,134.175 268.357,155.900 268.300 C 177.625 268.243,159.850 268.196,116.400 268.196 C 72.950 268.196,55.175 268.243,76.900 268.300 M76.732 271.900 C 98.584 271.957,134.224 271.957,155.932 271.900 C 177.639 271.843,159.760 271.796,116.200 271.796 C 72.640 271.796,54.879 271.843,76.732 271.900 " stroke="none" fill="#0e2d12" fill-rule="evenodd"></path><path id="path2" d="M17.600 16.406 C 17.178 16.682,17.415 16.723,18.400 16.542 C 20.125 16.225,20.451 15.998,19.167 16.006 C 18.635 16.009,17.930 16.189,17.600 16.406 M376.033 16.143 C 376.476 16.522,378.817 16.751,378.596 16.394 C 378.462 16.177,377.793 16.000,377.110 16.000 C 376.426 16.000,375.942 16.064,376.033 16.143 M380.158 17.569 C 380.795 17.988,381.754 18.842,382.291 19.466 L 383.266 20.600 382.443 19.353 C 381.658 18.163,379.983 16.797,379.314 16.803 C 379.141 16.804,379.521 17.149,380.158 17.569 M12.249 21.815 C 12.112 22.173,12.018 22.856,12.041 23.333 C 12.067 23.881,12.203 23.686,12.410 22.803 C 12.760 21.316,12.665 20.733,12.249 21.815 M383.440 22.266 C 383.808 23.799,384.000 23.944,384.000 22.690 C 384.000 22.117,383.813 21.532,383.584 21.390 C 383.311 21.221,383.262 21.523,383.440 22.266 M194.985 28.500 C 194.880 28.775,194.841 51.320,194.897 78.600 L 195.000 128.200 195.200 78.100 C 195.310 50.545,195.349 28.000,195.287 28.000 C 195.226 28.000,195.089 28.225,194.985 28.500 M198.800 77.920 L 199.000 127.800 199.102 78.222 C 199.157 50.953,199.067 28.507,198.902 28.342 C 198.736 28.176,198.690 50.486,198.800 77.920 M36.959 128.562 C 36.841 128.871,36.807 129.726,36.883 130.462 C 37.006 131.635,37.047 131.566,37.215 129.900 C 37.411 127.952,37.339 127.574,36.959 128.562 M194.995 200.000 C 194.995 237.510,195.042 252.855,195.100 234.100 C 195.157 215.345,195.157 184.655,195.100 165.900 C 195.042 147.145,194.995 162.490,194.995 200.000 M198.995 200.000 C 198.995 237.290,199.042 252.545,199.100 233.900 C 199.157 215.255,199.157 184.745,199.100 166.100 C 199.042 147.455,198.995 162.710,198.995 200.000 M36.959 268.562 C 36.841 268.871,36.807 269.726,36.883 270.462 C 37.006 271.635,37.047 271.566,37.215 269.900 C 37.411 267.952,37.339 267.574,36.959 268.562 M194.993 318.200 C 194.993 343.720,195.041 354.219,195.100 341.531 C 195.159 328.843,195.159 307.963,195.100 295.131 C 195.041 282.299,194.993 292.680,194.993 318.200 M198.898 318.478 L 198.800 364.756 196.900 364.906 L 195.000 365.056 196.913 365.128 C 198.132 365.174,198.894 365.019,199.016 364.700 C 199.120 364.425,199.159 343.500,199.101 318.200 L 198.997 272.200 198.898 318.478 M12.000 381.310 C 12.000 381.883,12.187 382.468,12.416 382.610 C 12.689 382.779,12.738 382.477,12.560 381.734 C 12.192 380.201,12.000 380.056,12.000 381.310 M383.552 381.513 C 383.421 382.307,383.479 382.681,383.701 382.459 C 383.903 382.257,384.001 381.667,383.919 381.146 C 383.793 380.345,383.737 380.402,383.552 381.513 M382.168 384.593 C 381.383 385.791,379.176 387.209,377.457 387.618 C 376.441 387.861,376.380 387.926,377.141 387.959 C 378.499 388.018,381.744 386.072,382.509 384.740 C 383.313 383.338,383.061 383.230,382.168 384.593 M15.000 386.165 C 15.660 386.732,16.365 387.197,16.567 387.198 C 17.001 387.200,16.996 387.196,15.200 386.037 L 13.800 385.134 15.000 386.165 M17.390 387.584 C 17.532 387.813,18.117 388.000,18.690 388.000 C 19.944 388.000,19.799 387.808,18.266 387.440 C 17.523 387.262,17.221 387.311,17.390 387.584 " stroke="none" fill="#184f20" fill-rule="evenodd"></path><path id="path3" d="M18.376 16.545 C 15.810 17.238,14.219 18.501,13.134 20.703 L 12.200 22.600 12.098 201.190 C 11.984 399.475,11.749 382.523,14.650 385.424 C 15.437 386.210,16.166 386.767,16.272 386.661 C 16.378 386.556,15.803 385.863,14.994 385.123 C 14.011 384.222,13.377 383.184,13.079 381.988 C 12.552 379.878,12.460 24.825,12.985 22.239 C 13.485 19.776,16.015 17.524,19.000 16.885 C 22.465 16.143,376.289 16.352,378.421 17.098 C 380.893 17.961,382.438 19.817,383.109 22.731 C 383.828 25.852,383.793 378.430,383.073 381.512 C 382.718 383.032,382.134 384.087,380.990 385.276 C 379.907 386.402,379.725 386.719,380.420 386.271 C 381.919 385.304,383.130 383.487,383.582 381.527 C 384.193 378.878,384.146 24.942,383.534 22.477 C 382.911 19.969,381.530 18.235,379.268 17.120 L 377.400 16.200 198.800 16.126 C 58.311 16.068,19.811 16.157,18.376 16.545 M195.062 27.900 C 194.960 28.065,195.832 28.200,197.000 28.200 C 198.168 28.200,199.040 28.065,198.938 27.900 C 198.836 27.735,197.964 27.600,197.000 27.600 C 196.036 27.600,195.164 27.735,195.062 27.900 M37.062 127.900 C 36.894 128.171,91.015 128.170,166.600 127.897 C 182.220 127.841,159.506 127.751,116.124 127.697 C 72.742 127.644,37.164 127.735,37.062 127.900 M277.600 127.899 L 356.000 128.002 356.000 130.000 L 356.000 131.998 277.700 132.100 L 199.400 132.203 277.800 132.201 L 356.200 132.200 356.200 130.000 L 356.200 127.800 277.700 127.798 L 199.200 127.797 277.600 127.899 M37.141 132.101 C 37.307 132.267,72.893 132.357,116.221 132.301 L 195.000 132.200 115.920 132.000 C 72.426 131.890,36.975 131.935,37.141 132.101 M37.062 267.900 C 36.894 268.171,91.015 268.170,166.600 267.897 C 182.220 267.841,159.506 267.751,116.124 267.697 C 72.742 267.644,37.164 267.735,37.062 267.900 M277.600 267.899 L 356.000 268.002 356.000 270.000 L 356.000 271.998 277.700 272.100 L 199.400 272.203 277.800 272.201 L 356.200 272.200 356.200 270.000 L 356.200 267.800 277.700 267.798 L 199.200 267.797 277.600 267.899 M37.141 272.101 C 37.307 272.267,72.893 272.357,116.221 272.301 L 195.000 272.200 115.920 272.000 C 72.426 271.890,36.975 271.935,37.141 272.101 M18.395 387.407 C 20.924 388.248,377.311 388.120,378.600 387.277 C 379.298 386.821,379.196 386.795,377.800 387.077 C 375.809 387.479,20.403 387.503,18.200 387.101 L 16.600 386.810 18.395 387.407 " stroke="none" fill="#277c32" fill-rule="evenodd"></path><path id="path4" d="M18.400 16.954 C 16.030 17.528,13.425 20.070,12.985 22.239 C 12.463 24.809,12.552 379.878,13.075 381.968 C 13.611 384.111,15.976 386.530,18.006 387.014 C 20.426 387.590,373.732 387.730,376.913 387.156 C 380.383 386.530,382.314 384.761,383.073 381.512 C 383.793 378.430,383.828 25.852,383.109 22.731 C 382.438 19.817,380.893 17.961,378.421 17.098 C 376.491 16.423,21.177 16.281,18.400 16.954 M199.102 77.699 L 199.203 127.598 277.702 127.699 L 356.200 127.800 356.200 130.000 L 356.200 132.200 277.700 132.301 L 199.200 132.402 199.200 200.000 L 199.200 267.598 277.700 267.699 L 356.200 267.800 356.200 270.000 L 356.200 272.200 277.700 272.301 L 199.200 272.402 199.200 318.801 L 199.200 365.200 197.000 365.200 L 194.800 365.200 194.800 318.801 L 194.800 272.402 115.900 272.301 L 37.000 272.200 37.000 270.000 L 37.000 267.800 115.900 267.699 L 194.800 267.598 194.800 200.000 L 194.800 132.402 115.900 132.301 L 37.000 132.200 37.000 130.000 L 37.000 127.800 115.900 127.699 L 194.800 127.598 194.800 77.866 C 194.800 50.513,194.928 28.005,195.085 27.848 C 195.242 27.691,196.187 27.616,197.185 27.682 L 199.000 27.800 199.102 77.699 " stroke="none" fill="#39b54a" fill-rule="evenodd"></path></g></svg>