<svg id="svg" version="1.1" width="400" height="400" xmlns="http://www.w3.org/2000/svg" xmlns:xlink="http://www.w3.org/1999/xlink" style="display: block;"><g id="svgg"><path id="path0" d="M14.400 12.000 C 14.400 12.220,14.116 12.400,13.768 12.400 C 12.945 12.400,8.400 16.945,8.400 17.768 C 8.400 18.116,8.220 18.400,8.000 18.400 C 7.734 18.400,7.600 79.867,7.600 202.000 C 7.600 324.133,7.734 385.600,8.000 385.600 C 8.220 385.600,8.400 385.935,8.400 386.344 C 8.400 386.753,8.850 387.426,9.400 387.839 C 9.950 388.252,10.400 388.817,10.400 389.095 C 10.400 389.373,10.627 389.600,10.905 389.600 C 11.183 389.600,11.748 390.050,12.161 390.600 C 12.574 391.150,13.247 391.600,13.656 391.600 C 14.065 391.600,14.400 391.780,14.400 392.000 C 14.400 392.266,75.867 392.400,198.000 392.400 C 320.133 392.400,381.600 392.266,381.600 392.000 C 381.600 391.780,382.050 391.600,382.600 391.600 C 383.150 391.600,383.600 391.407,383.600 391.171 C 383.600 390.936,383.857 390.486,384.171 390.171 C 384.486 389.857,384.936 389.600,385.171 389.600 C 385.407 389.600,385.600 389.407,385.600 389.171 C 385.600 388.936,385.857 388.486,386.171 388.171 C 386.486 387.857,386.936 387.600,387.171 387.600 C 387.407 387.600,387.600 387.150,387.600 386.600 C 387.600 386.050,387.780 385.600,388.000 385.600 C 388.266 385.600,388.400 324.133,388.400 202.000 C 388.400 79.867,388.266 18.400,388.000 18.400 C 387.780 18.400,387.600 18.065,387.600 17.656 C 387.600 17.247,387.150 16.574,386.600 16.161 C 386.050 15.748,385.600 15.183,385.600 14.905 C 385.600 14.627,385.373 14.400,385.095 14.400 C 384.817 14.400,384.252 13.950,383.839 13.400 C 383.426 12.850,382.753 12.400,382.344 12.400 C 381.935 12.400,381.600 12.220,381.600 12.000 C 381.600 11.734,320.133 11.600,198.000 11.600 C 75.867 11.600,14.400 11.734,14.400 12.000 M379.100 16.300 C 379.192 16.575,379.576 16.800,379.955 16.800 C 380.845 16.800,382.886 18.993,383.736 20.860 C 384.788 23.174,384.758 381.425,383.706 383.338 C 382.653 385.253,381.221 386.708,379.515 387.597 C 377.296 388.754,19.364 388.881,16.860 387.726 C 15.150 386.937,12.800 384.696,12.800 383.853 C 12.800 383.531,12.575 383.192,12.300 383.100 C 11.564 382.855,11.564 21.145,12.300 20.900 C 12.575 20.808,12.800 20.469,12.800 20.147 C 12.800 19.474,15.273 16.800,15.895 16.800 C 16.122 16.800,16.824 16.531,17.454 16.201 C 19.030 15.378,378.825 15.476,379.100 16.300 M289.297 183.500 L 289.400 208.600 292.100 208.718 L 294.800 208.837 294.800 202.133 L 294.800 195.430 296.483 193.715 C 298.680 191.477,298.611 191.453,301.400 195.436 C 302.720 197.321,304.070 199.168,304.400 199.541 C 304.730 199.913,305.857 201.493,306.903 203.052 C 308.599 205.576,309.298 206.515,310.808 208.300 C 311.078 208.619,312.330 208.800,314.262 208.800 L 317.292 208.800 316.622 207.777 C 316.253 207.215,314.028 204.188,311.676 201.051 C 309.324 197.913,307.040 194.844,306.600 194.229 C 306.160 193.614,305.575 192.874,305.300 192.584 C 305.025 192.294,304.800 191.946,304.800 191.811 C 304.800 191.676,304.350 191.080,303.800 190.487 C 301.932 188.472,301.930 188.474,311.600 178.404 C 312.590 177.373,313.836 176.050,314.370 175.465 L 315.339 174.400 312.267 174.400 C 309.440 174.400,309.123 174.484,308.297 175.456 C 307.804 176.037,306.846 177.109,306.169 177.839 C 305.492 178.569,304.592 179.638,304.169 180.214 C 303.746 180.791,302.860 181.852,302.200 182.573 C 301.540 183.293,300.460 184.566,299.800 185.400 C 294.469 192.140,294.800 192.882,294.800 174.200 L 294.800 158.400 291.997 158.400 L 289.194 158.400 289.297 183.500 M88.400 184.600 L 88.400 208.800 90.994 208.800 L 93.587 208.800 93.694 197.900 L 93.800 187.000 102.700 186.892 L 111.600 186.785 111.600 184.592 L 111.600 182.400 102.808 182.400 C 92.347 182.400,93.529 183.644,93.687 172.800 L 93.800 165.000 103.500 164.893 L 113.200 164.786 113.200 162.593 L 113.200 160.400 100.800 160.400 L 88.400 160.400 88.400 184.600 M121.500 161.137 C 119.437 162.381,119.606 166.276,121.748 166.849 C 125.048 167.732,127.638 165.322,126.220 162.689 C 125.071 160.555,123.384 160.000,121.500 161.137 M186.200 160.604 C 185.980 160.712,183.910 160.935,181.600 161.100 L 177.400 161.400 177.400 184.600 L 177.400 207.800 180.400 208.100 C 187.058 208.767,190.114 208.875,190.946 208.473 C 191.416 208.246,193.240 207.946,195.000 207.806 C 196.760 207.667,198.371 207.383,198.580 207.176 C 198.789 206.969,199.376 206.800,199.885 206.800 C 200.394 206.800,201.123 206.631,201.505 206.426 C 201.887 206.220,203.280 205.555,204.600 204.948 C 208.721 203.054,211.929 199.274,214.403 193.400 C 216.423 188.602,216.240 177.356,214.068 172.800 C 210.812 165.973,205.474 162.296,197.200 161.184 C 193.806 160.727,186.712 160.354,186.200 160.604 M193.000 164.400 C 193.136 164.620,194.317 164.800,195.624 164.800 C 196.941 164.800,198.000 164.978,198.000 165.200 C 198.000 165.420,198.297 165.600,198.660 165.600 C 201.984 165.600,209.200 172.423,209.200 175.566 C 209.200 175.937,209.425 176.465,209.700 176.740 C 210.552 177.590,210.624 187.492,209.799 190.294 C 206.884 200.198,200.302 204.547,188.581 204.312 L 183.000 204.200 183.000 184.600 L 183.000 165.000 185.269 164.798 C 186.517 164.687,187.672 164.462,187.836 164.298 C 188.282 163.851,192.715 163.939,193.000 164.400 M143.000 165.081 C 142.340 165.169,141.221 165.507,140.514 165.833 L 139.229 166.424 139.114 170.312 L 139.000 174.200 136.700 174.320 L 134.400 174.440 134.400 176.220 L 134.400 178.000 136.026 178.000 C 139.361 178.000,139.200 177.388,139.200 190.079 C 139.200 202.916,139.483 204.632,142.014 207.178 C 145.454 210.638,152.800 210.473,152.800 206.937 L 152.800 205.200 150.213 205.200 C 147.786 205.200,147.540 205.113,146.213 203.787 L 144.800 202.373 144.800 190.819 C 144.800 176.650,144.311 178.000,149.443 178.000 L 153.600 178.000 153.600 176.214 L 153.600 174.427 149.300 174.314 L 145.000 174.200 144.887 169.500 C 144.825 166.915,144.645 164.827,144.487 164.860 C 144.329 164.893,143.660 164.992,143.000 165.081 M235.800 173.969 C 230.731 175.358,225.200 180.227,225.200 183.301 C 225.200 183.597,225.052 184.011,224.872 184.220 C 223.811 185.447,223.092 192.237,223.747 194.847 C 224.106 196.279,224.400 197.757,224.400 198.131 C 224.400 198.505,224.554 199.123,224.741 199.505 C 224.929 199.887,225.424 200.913,225.841 201.784 C 228.331 206.982,236.096 210.458,242.559 209.267 C 243.952 209.010,245.665 208.800,246.366 208.800 C 247.353 208.800,249.527 208.039,250.289 207.427 C 250.338 207.387,250.195 206.690,249.970 205.878 C 249.567 204.418,248.395 203.836,247.800 204.800 C 247.664 205.020,246.584 205.200,245.400 205.200 C 244.216 205.200,243.136 205.380,243.000 205.600 C 242.864 205.820,241.964 206.000,241.000 206.000 C 240.036 206.000,239.136 205.820,239.000 205.600 C 238.864 205.380,238.245 205.200,237.625 205.200 C 233.323 205.200,228.800 199.648,228.800 194.367 L 228.800 192.000 240.026 192.000 C 254.705 192.000,254.046 192.540,251.267 182.800 C 249.328 176.005,242.531 172.125,235.800 173.969 M270.000 173.807 C 269.230 174.108,268.191 174.365,267.692 174.377 C 265.208 174.439,261.200 178.257,261.200 180.562 C 261.200 181.107,261.020 181.664,260.800 181.800 C 260.309 182.104,260.267 184.671,260.748 184.968 C 260.940 185.086,261.197 185.683,261.319 186.293 C 261.523 187.316,264.328 190.800,264.947 190.800 C 265.095 190.800,265.929 191.250,266.800 191.800 C 267.671 192.350,268.641 192.800,268.955 192.800 C 270.530 192.800,274.401 195.324,275.724 197.213 C 277.664 199.983,275.460 205.150,272.324 205.187 C 271.732 205.194,271.136 205.380,271.000 205.600 C 270.490 206.425,266.575 205.866,262.470 204.382 C 260.907 203.817,260.559 204.074,260.193 206.063 C 259.596 209.317,270.491 210.702,276.000 208.073 C 277.901 207.166,280.662 204.216,280.958 202.776 C 281.091 202.129,281.313 201.042,281.451 200.361 C 282.367 195.842,278.755 191.573,271.600 188.715 C 267.299 186.998,265.600 185.256,265.600 182.566 C 265.600 178.170,271.824 175.858,277.103 178.293 C 278.669 179.015,279.408 178.586,279.819 176.713 C 280.151 175.204,279.607 174.812,276.200 174.106 C 272.183 173.273,271.454 173.238,270.000 173.807 M120.400 191.600 L 120.400 208.800 123.000 208.800 L 125.600 208.800 125.600 191.600 L 125.600 174.400 123.000 174.400 L 120.400 174.400 120.400 191.600 M240.568 177.148 C 240.686 177.340,241.295 177.599,241.921 177.724 C 244.602 178.260,247.200 182.374,247.200 186.083 L 247.200 188.415 238.100 188.308 L 229.000 188.200 228.867 187.035 C 228.740 185.923,228.878 185.488,230.303 182.504 C 232.113 178.713,239.238 174.996,240.568 177.148 " stroke="none" fill="#000000" fill-rule="evenodd"></path><path id="path1" d="M17.642 16.034 C 17.115 16.245,16.785 16.518,16.908 16.641 C 17.031 16.764,17.495 16.670,17.939 16.432 C 19.013 15.858,376.663 15.816,378.174 16.390 C 378.738 16.605,379.200 16.627,379.200 16.440 C 379.200 16.253,378.637 15.987,377.950 15.850 C 375.830 15.426,18.706 15.608,17.642 16.034 M14.100 18.197 C 13.385 18.957,12.801 19.808,12.803 20.089 C 12.804 20.370,13.145 20.085,13.559 19.457 C 13.974 18.828,14.828 17.974,15.457 17.559 C 16.099 17.135,16.337 16.807,16.000 16.810 C 15.670 16.813,14.815 17.437,14.100 18.197 M380.456 17.503 C 381.036 17.886,381.885 18.650,382.342 19.200 C 382.799 19.750,383.179 20.010,383.187 19.778 C 383.206 19.162,380.661 16.800,379.981 16.803 C 379.653 16.804,379.859 17.108,380.456 17.503 M383.441 21.000 C 383.898 22.018,383.924 381.902,383.467 383.000 C 383.139 383.789,383.143 383.789,383.769 383.022 C 384.675 381.909,384.549 21.564,383.641 20.720 C 383.171 20.282,383.139 20.326,383.441 21.000 M11.850 22.050 C 11.523 23.684,11.523 380.316,11.850 381.950 C 11.987 382.637,12.248 383.200,12.429 383.200 C 12.610 383.200,12.587 382.705,12.377 382.100 C 11.893 380.705,12.058 22.490,12.543 21.500 C 12.751 21.076,12.731 20.800,12.493 20.800 C 12.277 20.800,11.988 21.363,11.850 22.050 M291.900 158.287 L 294.800 158.435 294.800 174.218 C 294.800 192.880,294.469 192.140,299.800 185.400 C 300.460 184.566,301.540 183.293,302.200 182.573 C 302.860 181.852,303.746 180.791,304.169 180.214 C 304.592 179.638,305.492 178.569,306.169 177.839 C 306.846 177.109,307.804 176.037,308.297 175.456 C 309.123 174.484,309.440 174.400,312.267 174.400 L 315.339 174.400 314.370 175.465 C 313.836 176.050,312.590 177.373,311.600 178.404 C 302.093 188.304,302.012 188.424,303.577 190.300 C 304.680 191.622,304.995 191.397,303.998 189.998 C 302.728 188.213,303.036 187.804,314.860 175.553 C 316.172 174.193,315.815 174.000,311.990 174.000 C 308.755 174.000,308.864 173.921,303.958 179.800 C 302.123 182.000,300.283 184.160,299.869 184.600 C 299.456 185.040,298.649 186.030,298.074 186.800 C 296.900 188.375,295.739 189.600,295.421 189.600 C 295.305 189.600,295.162 182.535,295.105 173.900 L 295.000 158.200 292.000 158.170 L 289.000 158.139 291.900 158.287 M88.186 160.494 C 88.080 160.772,88.041 171.800,88.099 185.000 L 88.206 209.000 88.303 184.700 L 88.400 160.400 100.780 160.400 L 113.160 160.400 113.310 162.500 L 113.460 164.600 113.430 162.400 L 113.400 160.200 100.890 160.094 C 91.097 160.012,88.337 160.098,88.186 160.494 M121.368 160.754 C 119.667 161.792,118.944 163.616,119.604 165.209 C 120.274 166.826,120.881 167.152,120.341 165.604 C 118.898 161.462,124.196 158.400,125.990 162.338 C 126.232 162.869,126.528 163.206,126.647 163.086 C 127.024 162.709,125.630 160.942,124.576 160.462 C 123.210 159.840,122.808 159.876,121.368 160.754 M182.200 160.629 L 177.800 161.146 182.000 160.887 C 187.351 160.558,192.143 160.563,196.200 160.900 L 199.400 161.166 195.800 160.618 C 191.411 159.949,187.971 159.951,182.200 160.629 M177.067 161.467 C 176.672 161.861,176.754 207.309,177.151 207.934 C 177.368 208.277,178.688 208.547,180.845 208.688 C 182.690 208.809,184.059 208.757,183.886 208.573 C 183.713 208.389,182.183 208.139,180.486 208.019 L 177.400 207.800 177.400 184.500 C 177.400 171.685,177.385 161.200,177.367 161.200 C 177.348 161.200,177.213 161.320,177.067 161.467 M200.600 161.778 C 201.260 162.100,202.087 162.372,202.439 162.382 C 203.659 162.416,207.686 164.745,209.833 166.658 C 211.030 167.724,213.171 170.772,213.838 172.361 C 214.153 173.110,214.502 173.631,214.615 173.519 C 216.294 171.840,207.293 163.184,202.600 161.966 C 199.568 161.178,199.327 161.156,200.600 161.778 M187.600 164.400 C 187.184 164.669,187.959 164.790,190.124 164.794 C 192.106 164.798,193.157 164.654,193.000 164.400 C 192.684 163.888,188.392 163.888,187.600 164.400 M142.800 164.800 L 141.800 165.120 142.800 165.154 C 143.350 165.173,144.070 165.013,144.400 164.800 C 145.164 164.306,144.342 164.306,142.800 164.800 M93.867 165.067 C 93.533 165.400,93.511 180.903,93.843 181.767 C 94.054 182.318,95.225 182.400,102.823 182.400 L 111.560 182.400 111.704 184.700 L 111.849 187.000 111.924 184.508 L 112.000 182.015 103.100 181.908 L 94.200 181.800 94.092 173.507 L 93.984 165.215 103.492 165.100 L 113.000 164.985 103.567 164.892 C 98.378 164.842,94.013 164.920,93.867 165.067 M126.032 165.539 C 125.379 166.760,125.514 167.100,126.241 166.063 C 126.593 165.560,126.788 165.054,126.673 164.940 C 126.559 164.825,126.270 165.095,126.032 165.539 M182.938 165.417 C 182.808 165.757,182.813 166.147,182.951 166.284 C 183.088 166.421,183.200 166.246,183.200 165.894 C 183.200 165.543,183.605 165.178,184.100 165.082 L 185.000 164.909 184.087 164.854 C 183.586 164.825,183.068 165.078,182.938 165.417 M197.400 165.587 C 198.720 165.987,200.145 166.454,200.566 166.625 C 201.093 166.839,201.244 166.795,201.052 166.483 C 200.898 166.235,200.148 165.914,199.386 165.771 C 198.624 165.628,198.000 165.351,198.000 165.155 C 198.000 164.960,197.325 164.814,196.500 164.831 C 195.070 164.860,195.112 164.895,197.400 165.587 M139.689 165.823 C 138.878 166.391,138.800 166.773,138.800 170.204 L 138.800 173.962 136.300 174.081 C 133.521 174.213,133.245 174.583,133.783 177.452 L 134.036 178.800 136.418 178.800 L 138.800 178.800 138.893 189.300 L 138.986 199.800 139.100 189.400 C 139.229 177.646,139.321 178.000,136.124 178.000 L 134.400 178.000 134.400 176.220 L 134.400 174.440 136.700 174.320 L 139.000 174.200 139.115 170.285 C 139.224 166.539,139.272 166.353,140.215 165.994 C 140.757 165.788,141.200 165.525,141.200 165.410 C 141.200 165.026,140.588 165.193,139.689 165.823 M121.447 167.276 C 121.718 167.715,124.697 167.690,124.971 167.246 C 125.092 167.052,124.303 166.906,123.218 166.922 C 122.134 166.939,121.337 167.098,121.447 167.276 M202.335 167.518 C 204.929 169.411,206.542 171.132,207.800 173.352 C 208.563 174.698,209.190 175.596,209.194 175.346 C 209.205 174.489,206.993 170.916,205.629 169.588 C 204.516 168.505,202.136 166.799,201.762 166.818 C 201.563 166.828,201.821 167.143,202.335 167.518 M235.000 173.693 C 231.818 174.775,230.572 175.515,228.584 177.503 C 226.618 179.469,224.970 181.904,225.350 182.283 C 225.434 182.367,225.964 181.649,226.528 180.686 C 228.608 177.138,231.700 174.929,235.900 173.990 C 237.055 173.731,238.000 173.448,238.000 173.360 C 238.000 173.077,236.237 173.273,235.000 173.693 M241.400 173.811 C 242.280 174.101,243.336 174.352,243.746 174.369 C 244.893 174.416,248.157 176.993,249.346 178.790 C 250.564 180.630,251.102 180.936,250.243 179.300 C 248.681 176.323,243.565 173.096,240.640 173.242 C 240.104 173.269,240.378 173.474,241.400 173.811 M268.200 173.696 C 265.287 174.695,264.771 174.931,263.949 175.644 C 262.753 176.681,263.310 176.593,265.108 175.459 C 265.929 174.942,267.410 174.397,268.400 174.248 C 270.524 173.928,272.000 173.190,270.400 173.249 C 269.850 173.269,268.860 173.470,268.200 173.696 M273.896 173.611 C 274.389 173.809,275.654 174.086,276.706 174.225 C 280.069 174.671,281.082 176.917,278.679 178.600 C 278.023 179.059,277.972 179.200,278.462 179.200 C 280.131 179.200,281.009 175.566,279.538 174.746 C 278.308 174.059,275.263 173.233,274.000 173.243 C 273.009 173.251,273.008 173.254,273.896 173.611 M145.061 174.100 C 145.163 174.265,147.127 174.400,149.424 174.400 L 153.600 174.400 153.600 176.200 L 153.600 178.000 149.443 178.000 C 145.455 178.000,143.974 178.507,144.991 179.524 C 145.106 179.639,145.200 179.529,145.200 179.280 C 145.200 178.978,146.631 178.789,149.500 178.714 L 153.800 178.600 153.800 176.400 L 153.800 174.200 149.337 174.000 C 146.882 173.890,144.958 173.935,145.061 174.100 M120.190 174.482 C 120.081 174.767,120.040 182.650,120.100 192.000 L 120.209 209.000 120.304 191.700 L 120.400 174.400 122.996 174.400 L 125.592 174.400 125.702 191.700 L 125.813 209.000 125.807 191.600 L 125.800 174.200 123.095 174.082 C 121.159 173.997,120.332 174.111,120.190 174.482 M215.017 175.200 C 216.128 182.131,216.128 184.667,215.017 191.600 C 214.817 192.848,214.862 192.804,215.432 191.200 C 216.346 188.628,216.352 178.134,215.440 175.600 C 214.859 173.986,214.815 173.945,215.017 175.200 M209.472 177.400 C 209.891 178.932,209.887 188.156,209.466 190.000 C 209.183 191.241,209.207 191.309,209.673 190.600 C 210.424 189.460,210.422 177.459,209.672 176.720 C 209.235 176.290,209.200 176.408,209.472 177.400 M235.075 177.768 C 232.969 178.800,231.263 180.493,230.303 182.504 C 228.878 185.488,228.740 185.923,228.867 187.035 L 229.000 188.200 238.100 188.308 C 243.105 188.367,247.200 188.277,247.200 188.108 C 247.201 187.938,243.151 187.852,238.200 187.915 L 229.200 188.029 229.206 187.115 C 229.274 176.823,243.640 173.914,246.493 183.614 C 246.918 185.061,247.146 185.454,247.168 184.775 C 247.243 182.391,244.093 178.159,241.921 177.724 C 241.295 177.599,240.686 177.340,240.568 177.148 C 240.152 176.476,236.983 176.833,235.075 177.768 M261.814 177.835 C 261.441 178.404,261.226 178.959,261.336 179.069 C 261.445 179.179,261.757 178.848,262.027 178.334 C 262.298 177.820,262.718 177.268,262.960 177.106 C 263.276 176.895,263.272 176.811,262.946 176.806 C 262.696 176.803,262.187 177.266,261.814 177.835 M269.833 177.631 C 264.524 178.933,264.173 185.238,269.274 187.681 C 272.289 189.124,272.809 189.325,273.012 189.121 C 273.130 189.004,272.635 188.687,271.913 188.418 C 265.485 186.022,263.960 181.603,268.528 178.610 C 269.823 177.762,274.956 177.627,276.406 178.403 C 276.881 178.657,277.368 178.765,277.490 178.644 C 278.269 177.864,272.171 177.058,269.833 177.631 M260.481 181.000 C 259.844 183.137,259.877 184.064,260.658 186.092 C 261.253 187.634,263.938 190.995,264.293 190.641 C 264.372 190.561,263.787 189.807,262.992 188.964 C 262.197 188.121,261.445 186.925,261.321 186.307 C 261.198 185.689,260.940 185.086,260.748 184.968 C 260.253 184.662,260.316 182.244,260.834 181.726 C 261.072 181.488,261.198 180.867,261.113 180.346 C 260.982 179.549,260.883 179.652,260.481 181.000 M251.012 181.600 C 251.159 182.150,251.540 183.764,251.860 185.187 C 252.180 186.611,252.522 187.856,252.621 187.954 C 253.324 188.657,252.027 182.609,251.196 181.307 C 250.813 180.707,250.785 180.752,251.012 181.600 M224.477 183.887 C 223.817 185.594,223.075 189.424,223.283 190.046 C 223.386 190.351,223.692 189.340,223.964 187.800 C 224.236 186.260,224.656 184.595,224.897 184.101 C 225.137 183.606,225.238 183.105,225.121 182.988 C 225.004 182.870,224.714 183.275,224.477 183.887 M93.781 187.306 C 93.674 187.585,93.635 192.580,93.694 198.406 L 93.801 209.000 94.001 197.900 C 94.110 191.795,94.149 186.800,94.087 186.800 C 94.026 186.800,93.887 187.028,93.781 187.306 M273.600 189.398 C 273.600 189.507,274.365 189.959,275.300 190.403 C 279.272 192.290,282.161 196.910,281.466 200.261 C 281.336 200.887,281.114 201.974,280.973 202.676 C 280.675 204.158,277.923 207.223,276.248 207.938 C 275.615 208.209,275.181 208.514,275.283 208.617 C 275.631 208.964,277.949 207.571,279.342 206.178 C 282.826 202.694,282.785 196.596,279.252 192.807 C 277.666 191.106,273.600 188.653,273.600 189.398 M264.984 191.175 C 265.270 191.637,267.672 192.861,267.882 192.651 C 268.032 192.501,265.342 190.800,264.954 190.800 C 264.843 190.800,264.857 190.969,264.984 191.175 M251.988 191.616 C 251.662 191.822,246.369 191.990,240.100 191.994 L 228.800 192.000 228.800 194.367 C 228.800 199.340,233.444 205.348,237.149 205.168 C 237.688 205.142,237.696 205.103,237.200 204.938 C 232.266 203.306,229.200 199.199,229.200 194.225 L 229.200 192.400 240.776 192.400 C 248.544 192.400,252.440 192.260,252.616 191.973 C 252.994 191.363,252.675 191.181,251.988 191.616 M304.813 191.729 C 304.806 191.909,305.025 192.294,305.300 192.584 C 305.575 192.874,306.103 193.536,306.474 194.056 C 309.813 198.732,317.372 208.631,317.694 208.750 C 318.027 208.873,315.121 204.691,314.394 204.000 C 314.278 203.890,312.927 202.090,311.392 200.000 C 309.857 197.910,308.466 196.140,308.301 196.067 C 308.135 195.993,308.000 195.770,308.000 195.570 C 308.000 195.370,307.654 194.800,307.230 194.303 C 306.807 193.806,306.093 192.950,305.644 192.400 C 305.194 191.850,304.821 191.548,304.813 191.729 M208.402 193.196 C 208.098 193.929,207.250 195.400,206.518 196.465 C 205.786 197.529,205.325 198.399,205.493 198.397 C 206.133 198.392,209.325 192.976,209.095 192.286 C 209.018 192.053,208.706 192.462,208.402 193.196 M296.473 193.725 L 294.780 195.451 294.900 202.225 L 295.021 209.000 295.110 202.372 C 295.200 195.748,295.201 195.743,296.300 194.565 C 298.746 191.942,298.119 191.565,303.330 198.800 C 304.360 200.230,305.352 201.585,305.533 201.810 C 305.715 202.036,306.208 202.756,306.628 203.410 C 307.049 204.065,307.818 205.050,308.339 205.600 C 309.281 206.596,305.543 200.852,304.400 199.548 C 304.070 199.171,302.720 197.321,301.400 195.436 C 298.609 191.451,298.681 191.476,296.473 193.725 M269.600 193.445 C 270.370 193.790,271.333 194.249,271.739 194.464 C 272.145 194.679,272.568 194.766,272.678 194.656 C 272.944 194.390,269.621 192.797,268.825 192.809 C 268.481 192.814,268.830 193.100,269.600 193.445 M214.002 194.245 C 212.015 199.704,207.654 204.067,202.245 206.008 C 201.609 206.236,201.192 206.526,201.318 206.652 C 201.906 207.239,207.607 203.906,209.766 201.712 C 211.902 199.542,215.197 193.864,214.643 193.310 C 214.522 193.188,214.233 193.609,214.002 194.245 M223.225 194.294 C 223.171 196.216,224.789 201.434,225.125 200.424 C 225.208 200.176,225.101 199.754,224.888 199.487 C 224.675 199.219,224.374 198.121,224.218 197.047 C 223.857 194.556,223.265 192.912,223.225 194.294 M274.569 196.472 C 277.001 199.313,276.268 203.224,273.041 204.628 C 272.134 205.023,272.015 205.169,272.600 205.172 C 276.537 205.186,277.666 198.866,274.324 195.524 C 272.971 194.171,273.131 194.793,274.569 196.472 M203.794 199.606 C 203.393 200.049,201.811 201.039,200.279 201.806 C 198.746 202.573,197.778 203.200,198.126 203.200 C 198.475 203.200,199.650 202.705,200.737 202.100 C 202.940 200.874,205.582 198.800,204.939 198.800 C 204.711 198.800,204.196 199.163,203.794 199.606 M144.854 200.887 C 144.760 203.466,146.915 205.200,150.213 205.200 L 152.800 205.200 152.800 206.948 C 152.800 209.426,149.448 210.296,144.800 209.024 L 143.800 208.750 144.800 209.361 C 147.750 211.163,153.790 209.722,153.389 207.312 C 152.971 204.796,152.975 204.800,150.631 204.800 C 147.089 204.800,145.624 203.640,145.078 200.400 C 144.957 199.687,144.893 199.826,144.854 200.887 M225.202 201.314 C 225.192 203.116,231.861 209.180,233.318 208.694 C 233.560 208.613,232.957 208.154,231.979 207.674 C 229.728 206.569,227.724 204.798,226.309 202.667 C 225.701 201.750,225.203 201.141,225.202 201.314 M139.222 202.400 C 139.191 204.322,142.013 208.800,143.256 208.800 C 143.445 208.800,142.880 208.080,142.000 207.200 C 141.120 206.320,140.400 205.351,140.400 205.046 C 140.400 204.741,140.137 203.886,139.816 203.146 C 139.494 202.406,139.227 202.070,139.222 202.400 M182.934 203.200 L 183.000 204.200 189.400 204.200 C 194.005 204.200,196.024 204.053,196.600 203.676 C 197.328 203.199,197.292 203.176,196.200 203.428 C 195.540 203.580,192.359 203.784,189.132 203.881 L 183.263 204.057 183.066 203.128 C 182.882 202.260,182.873 202.264,182.934 203.200 M260.503 203.700 C 260.285 203.975,260.016 204.650,259.905 205.200 C 259.794 205.750,259.575 206.503,259.419 206.873 C 259.135 207.546,261.382 209.151,261.893 208.641 C 262.013 208.521,261.617 208.234,261.012 208.005 C 260.004 207.621,259.936 207.464,260.188 206.093 C 260.577 203.973,260.912 203.781,262.895 204.539 C 263.847 204.902,264.891 205.191,265.213 205.179 C 265.536 205.168,265.080 204.885,264.200 204.550 C 263.320 204.215,262.287 203.774,261.905 203.570 C 261.019 203.098,260.976 203.102,260.503 203.700 M246.600 204.611 L 245.000 205.139 246.276 205.169 C 246.978 205.186,247.664 205.020,247.800 204.800 C 248.206 204.143,249.531 204.347,249.741 205.100 C 249.849 205.485,250.045 206.181,250.178 206.647 C 250.371 207.322,250.171 207.598,249.197 208.001 C 248.525 208.280,248.064 208.598,248.174 208.708 C 248.486 209.019,250.800 207.953,250.800 207.498 C 250.800 204.469,249.578 203.630,246.600 204.611 M239.000 205.600 C 239.136 205.820,240.036 206.000,241.000 206.000 C 241.964 206.000,242.864 205.820,243.000 205.600 C 243.154 205.351,242.396 205.200,241.000 205.200 C 239.604 205.200,238.846 205.351,239.000 205.600 M266.600 205.600 C 267.720 206.081,270.702 206.081,271.000 205.600 C 271.156 205.347,270.244 205.210,268.524 205.228 C 266.631 205.248,266.044 205.361,266.600 205.600 M198.569 207.191 C 198.354 207.406,196.602 207.703,194.676 207.851 C 192.749 207.999,191.063 208.299,190.928 208.517 C 190.601 209.046,197.420 208.270,199.000 207.599 C 199.440 207.412,200.070 207.170,200.400 207.061 C 200.730 206.952,200.541 206.849,199.980 206.832 C 199.419 206.814,198.784 206.976,198.569 207.191 M309.837 207.800 C 310.197 208.350,310.664 208.800,310.875 208.800 C 311.085 208.800,310.974 208.517,310.629 208.171 C 310.283 207.826,310.000 207.376,310.000 207.171 C 310.000 206.967,309.816 206.800,309.591 206.800 C 309.366 206.800,309.476 207.250,309.837 207.800 M236.000 209.426 C 238.314 210.063,243.226 209.950,246.000 209.195 C 247.069 208.904,246.785 208.877,244.800 209.083 C 241.492 209.425,238.343 209.427,235.800 209.087 L 233.800 208.820 236.000 209.426 M264.200 209.402 C 266.780 210.154,270.912 210.149,273.200 209.392 L 275.000 208.797 273.400 209.044 C 271.406 209.352,266.390 209.354,264.000 209.049 L 262.200 208.819 264.200 209.402 M12.807 383.920 C 12.797 384.701,15.204 386.962,16.860 387.726 C 19.158 388.786,377.409 388.767,379.338 387.707 C 380.908 386.844,383.200 384.782,383.200 384.232 C 383.200 384.007,382.685 384.385,382.056 385.074 C 381.427 385.763,380.174 386.703,379.272 387.163 L 377.632 388.000 197.970 388.000 L 18.308 388.000 16.353 386.936 C 15.277 386.350,14.041 385.315,13.605 384.636 C 13.170 383.956,12.810 383.634,12.807 383.920 " stroke="none" fill="#113817" fill-rule="evenodd"></path><path id="path2" d="M14.983 17.909 C 14.533 18.289,13.907 18.960,13.590 19.400 C 13.274 19.840,13.685 19.570,14.503 18.800 C 15.322 18.030,15.993 17.355,15.996 17.300 C 16.004 17.099,15.783 17.232,14.983 17.909 M383.458 22.400 C 383.775 24.125,384.002 24.451,383.994 23.167 C 383.991 22.635,383.811 21.930,383.594 21.600 C 383.318 21.178,383.277 21.415,383.458 22.400 M288.996 183.800 L 289.000 209.000 291.800 209.026 L 294.600 209.052 291.903 208.909 L 289.206 208.765 289.099 183.683 L 288.991 158.600 288.996 183.800 M87.784 160.500 C 87.679 160.775,87.639 171.800,87.696 185.000 L 87.800 209.000 90.600 209.026 L 93.400 209.052 90.694 208.909 L 87.988 208.765 88.094 184.382 C 88.152 170.972,88.149 160.000,88.087 160.000 C 88.026 160.000,87.889 160.225,87.784 160.500 M113.540 162.270 C 113.637 163.823,113.516 164.619,113.140 164.882 C 112.705 165.187,112.717 165.229,113.200 165.099 C 113.862 164.920,114.301 160.942,113.723 160.362 C 113.545 160.183,113.463 161.042,113.540 162.270 M180.800 160.409 C 179.994 160.583,180.844 160.623,182.800 160.501 C 184.670 160.385,186.275 160.225,186.367 160.145 C 186.664 159.887,182.242 160.096,180.800 160.409 M192.833 160.147 C 192.925 160.228,194.170 160.393,195.600 160.515 C 197.238 160.654,197.756 160.618,197.000 160.415 C 195.778 160.089,192.530 159.880,192.833 160.147 M126.153 161.686 C 127.147 163.353,126.983 165.308,125.745 166.545 C 124.508 167.783,122.553 167.947,120.886 166.953 L 119.800 166.305 120.800 167.144 C 121.410 167.655,122.373 167.986,123.269 167.991 C 126.462 168.010,128.379 164.027,126.344 161.600 L 125.505 160.600 126.153 161.686 M143.000 164.422 C 142.383 164.712,142.495 164.746,143.487 164.570 L 144.774 164.342 144.906 168.871 L 145.038 173.400 145.019 168.805 C 144.999 163.908,144.838 163.559,143.000 164.422 M207.600 164.088 C 207.600 164.166,208.455 164.933,209.500 165.792 C 210.545 166.651,211.040 166.940,210.600 166.434 C 209.822 165.539,207.600 163.802,207.600 164.088 M185.500 165.082 C 185.995 165.178,186.805 165.178,187.300 165.082 C 187.795 164.987,187.390 164.909,186.400 164.909 C 185.410 164.909,185.005 164.987,185.500 165.082 M193.300 165.076 C 193.685 165.176,194.315 165.176,194.700 165.076 C 195.085 164.975,194.770 164.893,194.000 164.893 C 193.230 164.893,192.915 164.975,193.300 165.076 M196.200 165.600 C 196.640 165.789,197.270 165.944,197.600 165.944 C 197.978 165.944,197.904 165.817,197.400 165.600 C 196.960 165.411,196.330 165.256,196.000 165.256 C 195.622 165.256,195.696 165.383,196.200 165.600 M182.984 184.400 C 182.984 194.410,183.036 198.505,183.100 193.500 C 183.163 188.495,183.163 180.305,183.100 175.300 C 183.036 170.295,182.984 174.390,182.984 184.400 M203.884 169.021 C 204.590 169.577,205.639 170.610,206.216 171.316 C 206.793 172.022,207.080 172.224,206.853 171.766 C 206.411 170.868,203.392 167.997,202.899 168.004 C 202.734 168.007,203.178 168.464,203.884 169.021 M212.839 169.776 C 213.301 170.559,213.756 171.200,213.850 171.200 C 214.134 171.200,212.836 168.869,212.402 168.601 C 212.180 168.464,212.377 168.993,212.839 169.776 M237.907 173.090 C 238.626 173.179,239.706 173.177,240.307 173.086 C 240.908 172.995,240.320 172.922,239.000 172.924 C 237.680 172.926,237.188 173.001,237.907 173.090 M271.107 173.090 C 271.826 173.179,272.906 173.177,273.507 173.086 C 274.108 172.995,273.520 172.922,272.200 172.924 C 270.880 172.926,270.388 173.001,271.107 173.090 M125.908 191.402 L 126.017 208.765 123.108 208.913 L 120.200 209.061 123.200 209.030 L 126.200 209.000 126.304 191.824 C 126.362 182.378,126.272 174.512,126.104 174.344 C 125.937 174.177,125.849 181.853,125.908 191.402 M133.467 174.267 C 133.095 174.638,133.144 177.692,133.531 178.302 C 133.709 178.582,133.839 177.742,133.825 176.405 C 133.811 175.085,133.785 174.004,133.767 174.002 C 133.748 174.001,133.613 174.120,133.467 174.267 M245.378 174.494 C 245.806 174.772,247.066 175.804,248.178 176.787 L 250.200 178.573 248.600 176.854 C 247.720 175.908,246.460 174.876,245.800 174.561 C 245.140 174.246,244.950 174.216,245.378 174.494 M279.452 174.651 C 279.920 175.063,280.412 175.670,280.545 176.000 C 280.712 176.417,280.758 176.371,280.693 175.848 C 280.642 175.434,280.150 174.827,279.600 174.499 L 278.600 173.902 279.452 174.651 M305.775 177.300 L 304.600 178.600 305.900 177.425 C 306.615 176.779,307.200 176.194,307.200 176.125 C 307.200 175.816,306.870 176.088,305.775 177.300 M209.287 177.800 C 209.291 178.240,209.432 179.140,209.600 179.800 C 209.874 180.878,209.906 180.898,209.913 180.000 C 209.917 179.450,209.776 178.550,209.600 178.000 C 209.349 177.216,209.281 177.173,209.287 177.800 M236.940 177.506 C 236.686 177.668,237.473 177.810,238.688 177.822 C 240.020 177.835,240.599 177.727,240.148 177.550 C 239.159 177.162,237.515 177.139,236.940 177.506 M144.974 189.600 C 144.974 195.210,145.030 197.505,145.099 194.700 C 145.168 191.895,145.168 187.305,145.099 184.500 C 145.030 181.695,144.974 183.990,144.974 189.600 M94.103 181.200 C 94.242 181.710,95.587 181.802,103.033 181.812 L 111.800 181.825 103.219 181.704 C 97.003 181.617,94.541 181.448,94.288 181.092 C 94.035 180.735,93.984 180.764,94.103 181.200 M216.474 182.644 C 216.433 183.768,216.315 185.568,216.211 186.644 L 216.022 188.600 216.430 186.642 C 216.654 185.566,216.773 183.766,216.693 182.642 L 216.548 180.600 216.474 182.644 M301.606 182.194 C 300.863 182.961,300.332 183.650,300.427 183.725 C 300.522 183.800,301.206 183.173,301.946 182.331 C 303.629 180.418,303.412 180.331,301.606 182.194 M112.072 184.500 L 112.000 186.800 103.224 186.800 C 98.397 186.800,94.364 186.935,94.261 187.100 C 94.159 187.265,98.117 187.348,103.056 187.285 C 113.079 187.157,112.544 187.339,112.296 184.149 L 112.144 182.200 112.072 184.500 M252.056 183.600 C 252.056 183.930,252.211 184.560,252.400 185.000 C 252.617 185.504,252.744 185.578,252.744 185.200 C 252.744 184.870,252.589 184.240,252.400 183.800 C 252.183 183.296,252.056 183.222,252.056 183.600 M266.015 183.800 C 266.017 184.020,266.386 184.650,266.836 185.200 C 267.379 185.864,267.515 185.931,267.240 185.400 C 266.566 184.095,266.012 183.372,266.015 183.800 M304.985 186.100 L 303.000 188.200 305.100 186.215 C 307.051 184.371,307.383 184.000,307.085 184.000 C 307.022 184.000,306.077 184.945,304.985 186.100 M260.030 185.200 C 260.028 185.776,261.157 188.066,261.186 187.546 C 261.194 187.406,260.937 186.686,260.616 185.946 C 260.294 185.206,260.031 184.870,260.030 185.200 M223.449 186.215 C 223.312 186.573,223.215 187.166,223.234 187.533 C 223.253 187.900,223.427 187.669,223.621 187.020 C 223.998 185.758,223.865 185.133,223.449 186.215 M252.789 189.000 L 252.600 192.200 240.800 192.409 L 229.000 192.618 240.651 192.709 C 254.170 192.815,253.299 193.092,253.107 188.737 L 252.978 185.800 252.789 189.000 M209.649 187.000 C 209.616 187.440,209.496 188.250,209.383 188.800 L 209.177 189.800 209.606 188.819 C 209.842 188.279,209.961 187.469,209.872 187.019 C 209.713 186.221,209.707 186.221,209.649 187.000 M262.200 189.148 C 262.860 189.877,263.940 190.846,264.600 191.301 C 266.018 192.280,265.698 191.934,263.000 189.574 C 261.522 188.281,261.313 188.170,262.200 189.148 M296.100 188.488 C 295.605 188.727,295.200 189.075,295.200 189.261 C 295.200 189.794,295.565 189.664,296.492 188.800 C 297.452 187.905,297.398 187.862,296.100 188.488 M222.924 191.800 C 222.926 193.120,223.001 193.612,223.090 192.893 C 223.179 192.174,223.177 191.094,223.086 190.493 C 222.995 189.892,222.922 190.480,222.924 191.800 M304.800 191.200 C 305.270 191.860,305.744 192.400,305.854 192.400 C 305.964 192.400,305.670 191.860,305.200 191.200 C 304.730 190.540,304.256 190.000,304.146 190.000 C 304.036 190.000,304.330 190.540,304.800 191.200 M208.715 191.410 C 208.592 191.845,208.369 192.560,208.220 193.000 C 208.071 193.440,208.242 193.294,208.600 192.676 C 208.958 192.058,209.181 191.342,209.095 191.086 C 209.010 190.830,208.839 190.976,208.715 191.410 M279.855 193.400 C 280.467 194.280,281.020 195.075,281.084 195.167 C 281.148 195.258,281.200 195.162,281.200 194.952 C 281.200 194.742,280.647 193.947,279.971 193.185 L 278.742 191.800 279.855 193.400 M214.715 193.410 C 214.592 193.845,214.369 194.560,214.220 195.000 C 214.071 195.440,214.242 195.294,214.600 194.676 C 214.958 194.058,215.181 193.342,215.095 193.086 C 215.010 192.830,214.839 192.976,214.715 193.410 M272.435 194.900 C 272.528 194.955,273.233 195.540,274.002 196.200 L 275.400 197.400 274.225 196.100 C 273.579 195.385,272.874 194.800,272.658 194.800 C 272.443 194.800,272.343 194.845,272.435 194.900 M301.160 196.200 C 301.834 197.505,302.388 198.228,302.385 197.800 C 302.383 197.580,302.014 196.950,301.564 196.400 C 301.021 195.736,300.885 195.669,301.160 196.200 M223.256 196.400 C 223.256 196.730,223.411 197.360,223.600 197.800 C 223.817 198.304,223.944 198.378,223.944 198.000 C 223.944 197.670,223.789 197.040,223.600 196.600 C 223.383 196.096,223.256 196.022,223.256 196.400 M310.016 198.163 C 310.768 199.209,311.556 200.173,311.767 200.303 C 311.978 200.433,311.535 199.684,310.784 198.637 C 310.032 197.591,309.244 196.627,309.033 196.497 C 308.822 196.367,309.265 197.116,310.016 198.163 M303.600 199.600 C 304.070 200.260,304.544 200.800,304.654 200.800 C 304.764 200.800,304.470 200.260,304.000 199.600 C 303.530 198.940,303.056 198.400,302.946 198.400 C 302.836 198.400,303.130 198.940,303.600 199.600 M202.614 200.046 C 200.513 201.626,200.316 201.887,201.927 200.962 C 203.062 200.310,204.847 198.745,204.362 198.827 C 204.273 198.842,203.486 199.391,202.614 200.046 M138.909 201.200 C 138.909 202.190,138.987 202.595,139.082 202.100 C 139.178 201.605,139.178 200.795,139.082 200.300 C 138.987 199.805,138.909 200.210,138.909 201.200 M231.838 201.643 C 232.257 202.107,233.140 202.858,233.800 203.311 C 234.571 203.842,234.369 203.540,233.233 202.468 C 231.364 200.703,230.557 200.226,231.838 201.643 M305.615 202.200 C 305.617 202.420,305.986 203.050,306.436 203.600 C 306.979 204.264,307.115 204.331,306.840 203.800 C 306.166 202.495,305.612 201.772,305.615 202.200 M146.000 203.174 C 146.000 203.397,146.585 203.863,147.300 204.209 C 148.393 204.739,148.473 204.742,147.800 204.233 C 147.360 203.900,146.775 203.434,146.500 203.198 C 146.178 202.921,146.000 202.913,146.000 203.174 M273.800 203.850 C 273.081 204.462,272.934 204.705,273.433 204.457 C 274.166 204.093,275.541 202.776,275.149 202.814 C 275.067 202.822,274.460 203.288,273.800 203.850 M193.200 203.600 C 191.833 203.888,191.828 203.895,193.000 203.919 C 193.660 203.933,194.560 203.789,195.000 203.600 C 195.962 203.187,195.164 203.187,193.200 203.600 M249.254 203.867 C 249.630 203.967,250.185 204.928,250.557 206.121 C 250.914 207.264,251.127 207.660,251.032 207.000 C 250.727 204.896,250.061 203.597,249.310 203.646 C 248.703 203.686,248.695 203.718,249.254 203.867 M152.452 204.864 C 153.862 206.022,153.774 208.763,152.307 209.401 C 151.588 209.713,151.295 209.976,151.656 209.984 C 153.894 210.038,154.778 204.854,152.596 204.469 C 151.876 204.342,151.862 204.379,152.452 204.864 M227.800 205.550 C 228.460 206.277,229.540 207.128,230.200 207.441 C 230.860 207.755,231.054 207.784,230.632 207.506 C 230.209 207.228,229.129 206.377,228.232 205.615 L 226.600 204.229 227.800 205.550 M316.016 206.163 C 316.768 207.209,317.556 208.173,317.767 208.303 C 317.978 208.433,317.535 207.684,316.784 206.637 C 316.032 205.591,315.244 204.627,315.033 204.497 C 314.822 204.367,315.265 205.116,316.016 206.163 M243.300 205.076 C 243.685 205.176,244.315 205.176,244.700 205.076 C 245.085 204.975,244.770 204.893,244.000 204.893 C 243.230 204.893,242.915 204.975,243.300 205.076 M308.800 206.800 C 309.270 207.460,309.744 208.000,309.854 208.000 C 309.964 208.000,309.670 207.460,309.200 206.800 C 308.730 206.140,308.256 205.600,308.146 205.600 C 308.036 205.600,308.330 206.140,308.800 206.800 M201.800 206.614 C 201.140 206.917,200.870 207.166,201.200 207.168 C 201.530 207.170,202.250 206.914,202.800 206.600 C 204.065 205.877,203.389 205.887,201.800 206.614 M194.800 208.400 C 194.008 208.654,193.967 208.720,194.600 208.720 C 195.040 208.720,195.850 208.576,196.400 208.400 C 197.192 208.146,197.233 208.080,196.600 208.080 C 196.160 208.080,195.350 208.224,194.800 208.400 M310.355 208.916 C 310.530 209.091,312.277 209.179,314.236 209.114 L 317.800 208.994 313.918 208.797 C 311.783 208.689,310.180 208.742,310.355 208.916 M144.000 209.400 C 144.550 209.714,145.180 209.972,145.400 209.972 C 145.620 209.972,145.350 209.714,144.800 209.400 C 144.250 209.086,143.620 208.828,143.400 208.828 C 143.180 208.828,143.450 209.086,144.000 209.400 M184.915 209.096 C 186.188 209.176,188.168 209.175,189.315 209.094 C 190.462 209.014,189.420 208.949,187.000 208.950 C 184.580 208.951,183.642 209.016,184.915 209.096 M235.200 209.594 C 235.530 209.811,236.235 209.991,236.767 209.994 C 238.051 210.002,237.725 209.775,236.000 209.458 C 235.015 209.277,234.778 209.318,235.200 209.594 M243.800 209.600 L 242.200 209.886 243.600 209.915 C 244.370 209.931,245.360 209.789,245.800 209.600 C 246.743 209.195,246.062 209.195,243.800 209.600 M263.600 209.582 C 263.930 209.805,264.545 209.991,264.967 209.994 C 265.990 210.002,265.671 209.773,264.200 209.444 C 263.324 209.248,263.162 209.285,263.600 209.582 M383.646 380.867 C 383.621 381.234,383.496 381.864,383.370 382.267 C 383.152 382.962,383.163 382.963,383.597 382.287 C 383.848 381.896,383.973 381.266,383.873 380.887 C 383.711 380.268,383.688 380.266,383.646 380.867 M17.200 387.358 C 17.750 387.696,18.650 387.960,19.200 387.945 C 20.115 387.920,20.098 387.892,19.000 387.609 C 18.340 387.438,17.440 387.174,17.000 387.022 C 16.469 386.838,16.536 386.951,17.200 387.358 M377.000 387.600 C 375.893 387.882,375.877 387.909,376.800 387.947 C 377.350 387.969,378.070 387.813,378.400 387.600 C 379.081 387.160,378.729 387.160,377.000 387.600 " stroke="none" fill="#1f6328" fill-rule="evenodd"></path><path id="path3" d="M18.880 16.393 C 18.154 16.566,17.434 16.843,17.280 17.008 C 17.126 17.174,17.540 17.158,18.200 16.972 C 20.185 16.414,374.172 16.268,376.800 16.824 C 379.447 17.384,380.965 18.214,381.636 19.468 C 381.911 19.980,382.297 20.400,382.495 20.400 C 383.381 20.400,381.008 17.977,379.297 17.134 L 377.400 16.200 198.800 16.140 C 100.570 16.107,19.606 16.221,18.880 16.393 M14.667 18.667 C 13.860 19.473,13.201 20.328,13.202 20.567 C 13.203 20.805,13.609 20.494,14.103 19.876 C 14.598 19.258,15.452 18.407,16.001 17.985 C 16.551 17.563,16.805 17.214,16.567 17.209 C 16.328 17.204,15.473 17.860,14.667 18.667 M383.093 22.200 C 383.487 24.251,383.499 380.133,383.105 382.000 C 382.890 383.017,382.973 382.908,383.407 381.605 C 384.234 379.119,384.121 23.234,383.293 21.600 C 382.831 20.690,382.813 20.743,383.093 22.200 M12.549 22.200 C 11.933 24.316,12.104 381.253,12.721 382.200 C 13.184 382.910,13.210 382.842,12.948 381.600 C 12.420 379.088,12.306 25.199,12.834 23.546 C 13.089 22.747,13.208 21.847,13.098 21.546 C 12.981 21.225,12.755 21.495,12.549 22.200 M289.060 157.900 C 288.958 158.065,290.297 158.141,292.037 158.070 L 295.200 157.939 295.200 173.370 C 295.200 183.390,295.340 188.800,295.600 188.800 C 296.069 188.800,296.876 187.984,298.800 185.565 C 299.570 184.597,300.837 183.083,301.617 182.202 C 302.396 181.321,304.264 179.121,305.767 177.314 L 308.501 174.029 312.150 173.897 L 315.800 173.766 312.156 173.683 L 308.512 173.600 306.156 176.261 C 304.860 177.725,303.540 179.300,303.223 179.761 C 302.906 180.223,302.536 180.690,302.401 180.800 C 301.661 181.404,296.800 187.379,296.800 187.685 C 296.800 187.884,296.620 187.936,296.400 187.800 C 296.145 187.643,296.000 182.289,296.000 173.056 C 296.000 162.315,295.876 158.436,295.520 158.080 C 294.995 157.555,289.373 157.398,289.060 157.900 M87.700 159.865 C 87.137 160.092,86.939 208.592,87.500 208.938 C 87.665 209.040,87.800 198.116,87.800 184.662 L 87.800 160.200 100.800 160.200 L 113.800 160.200 113.800 162.600 L 113.800 165.000 104.106 165.107 C 92.623 165.234,93.920 164.081,94.096 174.000 L 94.220 181.000 94.310 173.500 L 94.400 166.000 103.986 166.000 C 114.963 166.000,114.400 166.202,114.400 162.269 C 114.400 160.647,114.237 160.023,113.767 159.843 C 113.012 159.553,88.421 159.574,87.700 159.865 M121.300 159.865 C 121.025 159.976,120.800 160.268,120.800 160.513 C 120.800 160.824,120.946 160.814,121.280 160.480 C 122.237 159.523,124.647 159.909,125.969 161.231 C 126.646 161.908,127.200 162.284,127.200 162.066 C 127.200 160.548,123.255 159.076,121.300 159.865 M185.900 159.898 C 187.715 159.972,190.685 159.972,192.500 159.898 C 194.315 159.823,192.830 159.763,189.200 159.763 C 185.570 159.763,184.085 159.823,185.900 159.898 M178.000 160.400 C 177.234 160.895,178.273 160.904,180.600 160.423 L 182.200 160.092 180.400 160.052 C 179.410 160.030,178.330 160.187,178.000 160.400 M196.033 160.147 C 196.500 160.558,199.257 160.816,199.016 160.426 C 198.871 160.191,198.103 160.000,197.310 160.000 C 196.516 160.000,195.942 160.066,196.033 160.147 M119.446 161.786 C 117.728 164.407,119.879 168.400,123.009 168.400 C 124.526 168.400,127.200 166.836,127.200 165.949 C 127.200 165.723,126.646 166.092,125.969 166.769 C 122.614 170.124,117.245 165.755,119.846 161.786 C 120.201 161.244,120.402 160.800,120.292 160.800 C 120.182 160.800,119.801 161.244,119.446 161.786 M176.267 161.067 C 176.120 161.213,176.000 171.805,176.000 184.605 C 176.000 211.642,175.600 209.337,180.253 209.098 L 183.000 208.957 180.108 208.878 C 176.422 208.779,176.754 211.355,176.888 183.900 C 176.950 171.195,176.895 160.800,176.767 160.800 C 176.638 160.800,176.413 160.920,176.267 161.067 M202.786 161.802 C 204.208 162.330,205.449 162.684,205.543 162.590 C 205.637 162.496,205.374 162.298,204.957 162.150 C 204.541 162.003,203.593 161.638,202.851 161.341 C 202.109 161.043,201.209 160.809,200.851 160.821 C 200.493 160.832,201.364 161.274,202.786 161.802 M206.033 162.930 C 206.125 163.001,206.830 163.466,207.600 163.963 L 209.000 164.866 207.800 163.835 C 207.140 163.268,206.435 162.803,206.233 162.802 C 206.032 162.801,205.942 162.858,206.033 162.930 M141.800 164.400 C 141.508 164.873,141.899 164.873,143.000 164.400 C 143.771 164.069,143.769 164.055,142.924 164.028 C 142.442 164.013,141.936 164.180,141.800 164.400 M138.646 165.786 C 138.179 166.499,138.000 167.717,138.000 170.186 L 138.000 173.600 135.900 173.667 C 134.070 173.726,134.001 173.755,135.362 173.895 C 138.628 174.231,138.757 174.078,138.886 169.707 C 138.994 166.017,139.050 165.796,140.000 165.317 C 140.933 164.846,140.942 164.811,140.146 164.806 C 139.675 164.803,139.002 165.242,138.646 165.786 M189.100 165.089 C 189.815 165.178,190.985 165.178,191.700 165.089 C 192.415 165.001,191.830 164.928,190.400 164.928 C 188.970 164.928,188.385 165.001,189.100 165.089 M210.973 166.900 C 212.031 168.165,212.978 169.200,213.076 169.200 C 213.424 169.200,211.653 166.982,210.361 165.800 C 209.457 164.973,209.647 165.315,210.973 166.900 M183.612 165.584 C 182.634 166.203,183.327 166.376,184.401 165.781 C 184.980 165.461,185.148 165.225,184.800 165.220 C 184.470 165.216,183.935 165.380,183.612 165.584 M195.020 165.580 C 195.229 165.788,196.210 166.061,197.200 166.186 L 199.000 166.414 197.000 165.824 C 194.571 165.109,194.546 165.106,195.020 165.580 M199.200 166.605 C 199.200 166.706,199.785 167.040,200.500 167.347 C 202.758 168.315,205.116 170.308,206.583 172.485 C 207.362 173.642,208.000 174.383,208.000 174.131 C 208.000 173.294,204.854 169.675,203.043 168.430 C 201.305 167.234,199.200 166.234,199.200 166.605 M213.656 170.545 C 213.939 171.175,214.242 171.473,214.331 171.206 C 214.420 170.940,214.189 170.424,213.818 170.061 C 213.186 169.442,213.176 169.473,213.656 170.545 M234.200 173.200 C 234.064 173.420,233.625 173.600,233.225 173.600 C 232.825 173.600,232.251 173.905,231.949 174.277 C 231.475 174.861,231.482 174.902,232.000 174.577 C 232.330 174.370,233.590 173.900,234.800 173.533 C 236.702 172.956,236.827 172.861,235.724 172.833 C 235.022 172.815,234.336 172.980,234.200 173.200 M242.200 173.181 C 242.860 173.346,244.075 173.768,244.900 174.120 C 245.725 174.471,246.400 174.683,246.400 174.589 C 246.400 174.180,242.955 172.804,242.025 172.841 C 241.054 172.880,241.063 172.898,242.200 173.181 M266.800 173.433 C 265.519 174.144,266.119 174.139,268.400 173.421 C 269.958 172.930,270.039 172.855,269.000 172.866 C 268.340 172.873,267.350 173.128,266.800 173.433 M275.000 173.060 C 279.407 173.982,281.053 174.974,280.590 176.431 C 280.404 177.019,280.458 177.212,280.757 177.026 C 281.768 176.402,281.218 174.935,279.700 174.204 C 278.875 173.807,277.887 173.329,277.505 173.141 C 277.123 172.954,276.223 172.821,275.505 172.846 C 274.745 172.873,274.534 172.963,275.000 173.060 M119.867 173.867 C 119.497 174.237,119.529 208.709,119.900 208.938 C 120.065 209.040,120.151 201.213,120.092 191.545 L 119.984 173.966 123.092 174.083 L 126.200 174.200 126.200 191.662 C 126.200 201.266,126.335 209.040,126.500 208.938 C 127.174 208.521,126.848 174.104,126.167 173.843 C 125.310 173.514,120.200 173.533,119.867 173.867 M149.700 173.893 L 154.000 174.026 154.000 176.413 L 154.000 178.800 149.824 178.800 C 147.527 178.800,145.563 178.935,145.461 179.100 C 145.358 179.265,147.282 179.310,149.737 179.200 L 154.200 179.000 154.200 176.400 L 154.200 173.800 149.800 173.780 L 145.400 173.761 149.700 173.893 M215.434 174.400 C 215.568 174.950,215.818 176.120,215.989 177.000 L 216.300 178.600 216.332 177.200 C 216.350 176.430,216.100 175.260,215.778 174.600 C 215.284 173.590,215.230 173.558,215.434 174.400 M132.964 174.551 C 132.847 174.854,132.808 175.979,132.876 177.051 L 133.000 179.000 135.400 179.037 C 137.701 179.073,137.713 179.068,135.702 178.917 C 133.360 178.740,132.955 178.152,133.276 175.399 C 133.446 173.941,133.325 173.610,132.964 174.551 M316.029 174.200 C 316.011 174.420,314.819 175.860,313.381 177.400 C 311.943 178.940,309.109 181.976,307.083 184.146 C 305.058 186.317,303.357 188.207,303.304 188.346 C 303.251 188.486,306.547 193.055,310.628 198.499 C 315.193 204.589,317.939 208.592,317.765 208.899 C 317.545 209.289,317.597 209.294,317.999 208.923 C 318.434 208.520,314.424 202.263,312.794 200.800 C 312.671 200.690,311.326 198.890,309.804 196.800 C 308.283 194.710,306.715 192.651,306.319 192.225 C 305.924 191.798,305.600 191.316,305.600 191.153 C 305.600 190.990,305.375 190.619,305.100 190.327 C 303.351 188.472,303.287 188.655,307.058 184.699 C 314.591 176.796,316.433 174.704,316.252 174.260 C 316.148 174.007,316.048 173.980,316.029 174.200 M229.467 175.667 C 228.401 176.829,228.815 176.892,230.122 175.766 C 230.740 175.235,231.010 174.815,230.722 174.833 C 230.435 174.852,229.870 175.227,229.467 175.667 M248.700 176.933 C 249.855 178.215,250.800 179.460,250.800 179.699 C 250.800 179.938,250.903 180.030,251.029 179.905 C 251.385 179.548,249.619 177.127,248.033 175.801 C 246.957 174.900,247.123 175.182,248.700 176.933 M262.300 176.446 C 261.475 177.350,260.800 178.289,260.800 178.534 C 260.800 178.778,261.106 178.533,261.480 177.989 C 261.854 177.445,262.709 176.508,263.380 175.906 C 264.051 175.305,264.420 174.810,264.200 174.807 C 263.980 174.804,263.125 175.542,262.300 176.446 M209.090 178.600 C 209.438 181.124,209.434 185.937,209.081 188.800 C 208.812 190.988,208.814 190.985,209.381 188.400 C 210.111 185.069,210.114 182.020,209.390 179.000 C 208.842 176.715,208.827 176.696,209.090 178.600 M226.851 178.264 C 226.163 179.070,225.600 179.955,225.600 180.231 C 225.600 180.507,225.393 180.802,225.140 180.887 C 224.887 180.971,224.762 181.286,224.862 181.587 C 224.972 181.916,225.313 181.570,225.715 180.722 C 226.084 179.946,226.668 179.075,227.014 178.788 C 227.649 178.262,228.568 176.800,228.265 176.800 C 228.175 176.800,227.539 177.459,226.851 178.264 M236.400 177.952 C 235.718 178.163,236.290 178.260,238.200 178.255 C 242.531 178.243,246.000 181.134,246.000 184.754 C 246.000 185.194,246.180 185.664,246.400 185.800 C 247.586 186.533,245.515 181.243,244.099 179.923 C 242.127 178.083,238.757 177.220,236.400 177.952 M279.831 178.620 C 279.606 179.516,279.410 179.639,278.549 179.423 C 277.892 179.258,277.624 179.315,277.790 179.584 C 278.325 180.450,279.974 180.044,280.240 178.981 C 280.381 178.421,280.406 177.873,280.296 177.763 C 280.186 177.653,279.977 178.039,279.831 178.620 M268.642 178.769 C 267.106 179.781,265.898 181.750,266.116 182.885 C 266.270 183.688,266.298 183.665,266.346 182.700 C 266.381 181.993,266.983 181.017,268.031 179.969 L 269.661 178.339 272.531 178.508 C 274.109 178.601,275.850 178.804,276.400 178.960 C 276.974 179.123,276.826 178.979,276.054 178.622 C 274.119 177.728,270.100 177.807,268.642 178.769 M234.200 178.871 C 233.346 179.315,230.993 181.939,231.248 182.163 C 231.332 182.236,232.242 181.420,233.271 180.348 C 234.301 179.277,235.111 178.412,235.071 178.427 C 235.032 178.442,234.640 178.642,234.200 178.871 M216.600 183.462 C 216.600 185.984,216.717 187.632,216.860 187.124 C 217.224 185.831,217.250 179.898,216.894 179.338 C 216.732 179.084,216.600 180.940,216.600 183.462 M138.006 189.500 C 138.010 195.459,138.176 200.053,138.400 200.400 C 138.656 200.796,138.790 197.285,138.794 190.100 C 138.798 183.096,138.657 179.200,138.400 179.200 C 138.144 179.200,138.002 182.896,138.006 189.500 M259.990 180.226 C 259.776 180.790,259.628 182.275,259.663 183.526 L 259.726 185.800 259.991 183.200 C 260.137 181.770,260.398 180.285,260.571 179.900 C 260.744 179.515,260.772 179.200,260.633 179.200 C 260.494 179.200,260.205 179.662,259.990 180.226 M251.213 180.620 C 251.206 180.851,251.363 181.211,251.561 181.420 C 251.760 181.629,252.009 182.160,252.115 182.600 C 252.303 183.380,252.308 183.380,252.354 182.576 C 252.379 182.124,252.136 181.404,251.813 180.976 C 251.490 180.549,251.220 180.389,251.213 180.620 M102.769 181.500 C 112.699 181.635,112.520 181.572,112.332 184.838 C 112.259 186.096,112.335 187.042,112.500 186.939 C 112.992 186.634,112.840 182.200,112.320 181.680 C 111.970 181.330,109.453 181.225,103.020 181.292 L 94.200 181.383 102.769 181.500 M230.625 183.159 C 230.036 184.113,229.248 187.408,229.540 187.700 C 229.714 187.874,233.714 187.964,238.428 187.900 L 247.000 187.783 238.343 187.692 L 229.685 187.600 230.101 185.900 C 230.330 184.965,230.696 183.971,230.916 183.690 C 231.135 183.410,231.216 183.083,231.097 182.964 C 230.978 182.844,230.765 182.932,230.625 183.159 M252.640 184.666 C 253.008 186.199,253.200 186.344,253.200 185.090 C 253.200 184.517,253.013 183.932,252.784 183.790 C 252.511 183.621,252.462 183.923,252.640 184.666 M223.600 184.710 C 223.600 185.173,223.420 185.664,223.200 185.800 C 222.980 185.936,222.827 186.892,222.860 187.924 C 222.899 189.139,222.971 189.377,223.064 188.600 C 223.143 187.940,223.416 186.724,223.669 185.898 C 223.922 185.072,224.010 184.277,223.865 184.131 C 223.719 183.986,223.600 184.246,223.600 184.710 M267.283 185.278 C 267.825 185.981,268.523 186.631,268.834 186.721 C 269.145 186.812,268.905 186.410,268.300 185.827 C 267.695 185.244,267.200 184.595,267.200 184.384 C 267.200 184.173,266.997 184.000,266.749 184.000 C 266.501 184.000,266.741 184.575,267.283 185.278 M270.176 187.413 C 270.604 187.736,271.234 187.999,271.576 187.998 C 271.919 187.996,271.684 187.726,271.054 187.398 C 269.604 186.641,269.166 186.649,270.176 187.413 M93.913 198.400 C 93.851 204.340,93.935 209.200,94.100 209.200 C 94.265 209.200,94.400 204.340,94.400 198.400 C 94.400 192.460,94.316 187.600,94.213 187.600 C 94.109 187.600,93.974 192.460,93.913 198.400 M260.808 187.899 C 260.835 188.990,266.115 193.210,267.435 193.196 C 267.636 193.194,266.891 192.671,265.781 192.034 C 264.671 191.398,263.096 190.139,262.281 189.237 C 261.466 188.335,260.803 187.733,260.808 187.899 M215.935 189.800 C 215.801 190.680,215.578 191.850,215.441 192.400 C 215.276 193.063,215.403 192.945,215.817 192.050 C 216.162 191.307,216.384 190.137,216.312 189.450 C 216.186 188.252,216.170 188.267,215.935 189.800 M274.800 189.400 C 276.115 190.152,276.764 190.160,275.776 189.413 C 275.349 189.090,274.730 188.826,274.400 188.827 C 274.052 188.828,274.220 189.068,274.800 189.400 M278.800 192.058 C 280.010 193.257,281.063 194.197,281.139 194.147 C 281.464 193.933,279.695 192.032,278.208 190.997 C 276.743 189.977,276.796 190.071,278.800 192.058 M207.465 193.598 C 206.765 195.168,205.535 196.852,203.898 198.484 C 201.889 200.486,201.713 200.750,203.000 199.832 C 205.377 198.137,209.422 192.089,208.677 191.344 C 208.599 191.265,208.053 192.280,207.465 193.598 M252.616 192.373 C 252.440 192.660,248.544 192.800,240.776 192.800 C 234.409 192.800,229.200 192.935,229.200 193.100 C 229.200 193.265,234.461 193.350,240.892 193.288 C 251.465 193.187,253.899 192.966,253.113 192.180 C 252.985 192.052,252.761 192.139,252.616 192.373 M297.174 193.900 C 296.610 194.505,295.981 195.270,295.775 195.600 C 295.245 196.449,294.888 209.239,295.400 209.068 C 295.639 208.988,295.844 206.291,295.910 202.375 L 296.021 195.817 297.284 194.513 L 298.548 193.209 300.106 195.404 C 301.740 197.708,302.482 198.388,301.294 196.493 C 298.869 192.625,298.548 192.423,297.174 193.900 M269.775 194.221 C 270.861 194.759,271.941 195.185,272.175 195.167 C 272.674 195.128,268.790 193.251,268.200 193.246 C 267.980 193.244,268.689 193.683,269.775 194.221 M222.856 195.400 C 222.797 197.539,224.601 202.783,225.611 203.407 C 226.191 203.765,226.089 203.397,225.183 201.861 C 224.207 200.206,223.654 198.498,223.221 195.800 C 222.902 193.812,222.900 193.809,222.856 195.400 M229.248 194.400 C 229.228 194.730,229.467 195.810,229.779 196.800 C 230.091 197.790,230.345 198.240,230.343 197.800 C 230.338 196.806,229.297 193.574,229.248 194.400 M281.424 195.400 C 281.965 196.665,282.124 202.436,281.632 202.928 C 281.394 203.166,281.207 203.639,281.216 203.980 C 281.225 204.329,281.504 204.097,281.855 203.450 C 282.653 201.977,282.497 195.916,281.641 195.120 C 281.171 194.683,281.137 194.727,281.424 195.400 M273.651 196.201 C 275.912 198.779,276.159 200.543,274.571 202.762 L 273.542 204.200 274.771 202.815 C 276.661 200.686,276.290 198.241,273.738 196.001 L 272.600 195.003 273.651 196.201 M213.656 196.655 C 213.176 197.727,213.186 197.758,213.818 197.139 C 214.189 196.776,214.420 196.260,214.331 195.994 C 214.242 195.727,213.939 196.025,213.656 196.655 M212.800 198.353 C 212.800 199.417,206.995 204.616,204.483 205.801 C 203.099 206.454,202.133 207.044,202.337 207.112 C 204.094 207.698,214.176 199.243,213.056 198.122 C 212.915 197.982,212.800 198.085,212.800 198.353 M230.846 199.686 C 231.107 200.173,231.859 201.118,232.518 201.786 L 233.716 203.000 232.458 201.342 C 231.766 200.431,231.200 199.486,231.200 199.242 C 231.200 198.999,231.014 198.800,230.786 198.800 C 230.519 198.800,230.540 199.114,230.846 199.686 M302.800 199.006 C 302.800 199.258,306.779 204.791,307.490 205.529 C 307.771 205.819,308.000 206.179,308.001 206.329 C 308.001 206.478,308.562 207.230,309.247 208.000 C 310.897 209.854,310.334 208.844,307.799 205.400 C 306.665 203.860,305.136 201.745,304.401 200.700 C 303.128 198.890,302.800 198.543,302.800 199.006 M145.206 199.892 C 145.194 200.864,146.475 203.543,147.059 203.767 C 147.471 203.925,147.400 203.671,146.827 202.944 C 146.372 202.365,145.997 201.601,145.994 201.246 C 145.987 200.473,145.215 199.148,145.206 199.892 M198.800 201.819 C 197.810 202.333,197.120 202.763,197.267 202.776 C 197.702 202.815,201.200 201.247,201.200 201.014 C 201.200 200.665,200.702 200.832,198.800 201.819 M138.817 203.439 C 138.734 207.603,143.265 210.561,149.387 210.340 C 153.998 210.174,154.502 209.804,154.151 206.844 C 153.804 203.924,153.894 204.000,150.789 204.000 C 148.840 204.000,148.037 204.137,148.223 204.437 C 148.387 204.702,149.456 204.820,150.939 204.737 L 153.385 204.600 153.685 206.600 C 154.123 209.524,153.416 210.001,148.656 209.995 C 143.343 209.988,141.088 208.613,139.517 204.422 C 139.114 203.349,138.826 202.945,138.817 203.439 M183.200 203.203 C 183.200 204.156,192.153 204.163,195.000 203.213 C 196.120 202.839,196.093 202.826,194.600 203.013 C 190.428 203.536,186.055 203.653,184.693 203.277 C 183.872 203.050,183.200 203.017,183.200 203.203 M234.151 203.106 C 234.522 203.723,237.178 204.874,237.772 204.675 C 238.007 204.596,237.480 204.298,236.600 204.013 C 235.720 203.729,234.740 203.294,234.423 203.048 C 233.981 202.705,233.917 202.718,234.151 203.106 M249.014 203.177 C 248.886 203.384,247.973 203.675,246.986 203.823 C 245.998 203.971,245.092 204.252,244.971 204.446 C 244.673 204.929,244.938 204.898,247.468 204.163 C 249.885 203.460,249.994 203.500,250.670 205.329 C 251.102 206.501,251.140 206.522,251.156 205.600 C 251.182 204.118,249.564 202.288,249.014 203.177 M259.738 204.008 C 259.605 204.673,259.340 205.314,259.148 205.432 C 257.872 206.221,259.578 209.221,261.286 209.191 C 261.569 209.186,261.215 208.893,260.500 208.541 C 259.056 207.829,258.954 207.334,259.774 205.000 C 260.366 203.316,260.860 203.142,263.200 203.795 C 264.110 204.049,264.097 204.017,263.054 203.437 C 261.181 202.396,260.021 202.595,259.738 204.008 M226.800 204.925 C 226.800 204.994,227.385 205.579,228.100 206.225 L 229.400 207.400 228.225 206.100 C 227.130 204.888,226.800 204.616,226.800 204.925 M240.300 205.082 C 240.795 205.178,241.605 205.178,242.100 205.082 C 242.595 204.987,242.190 204.909,241.200 204.909 C 240.210 204.909,239.805 204.987,240.300 205.082 M268.105 205.087 C 268.714 205.179,269.614 205.177,270.105 205.082 C 270.597 204.987,270.100 204.911,269.000 204.914 C 267.900 204.917,267.497 204.995,268.105 205.087 M279.578 206.234 C 278.820 207.023,277.570 208.005,276.800 208.417 C 276.030 208.828,275.642 209.173,275.938 209.182 C 276.869 209.213,279.259 207.381,280.749 205.495 C 281.683 204.313,281.027 204.728,279.578 206.234 M199.800 207.600 C 199.664 207.820,198.978 208.027,198.276 208.060 C 197.099 208.115,197.084 208.133,198.078 208.284 C 198.671 208.375,199.661 208.175,200.278 207.840 C 201.028 207.434,201.176 207.227,200.724 207.216 C 200.352 207.207,199.936 207.380,199.800 207.600 M229.780 207.568 C 230.075 208.045,232.760 209.378,232.972 209.152 C 233.051 209.069,232.308 208.585,231.321 208.079 C 230.334 207.572,229.640 207.342,229.780 207.568 M249.600 208.600 C 249.020 208.932,248.852 209.172,249.200 209.173 C 249.530 209.174,250.149 208.910,250.576 208.587 C 251.564 207.840,250.915 207.848,249.600 208.600 M193.400 208.800 L 191.000 209.066 193.400 209.127 C 194.720 209.160,196.070 209.013,196.400 208.800 C 197.082 208.360,197.382 208.360,193.400 208.800 M234.600 209.778 C 236.209 210.564,244.361 210.563,246.600 209.776 C 248.117 209.243,248.128 209.229,246.800 209.500 C 244.989 209.869,235.701 209.854,234.400 209.479 C 233.619 209.254,233.662 209.319,234.600 209.778 M263.000 209.778 C 263.833 210.184,265.547 210.364,268.600 210.364 C 271.653 210.364,273.367 210.184,274.200 209.778 C 275.139 209.319,275.182 209.254,274.400 209.479 C 273.850 209.637,271.240 209.766,268.600 209.766 C 265.960 209.766,263.350 209.637,262.800 209.479 C 262.018 209.254,262.061 209.319,263.000 209.778 M13.200 383.586 C 13.200 383.996,16.049 386.885,16.252 386.681 C 16.344 386.589,15.695 385.789,14.810 384.904 C 13.924 384.019,13.200 383.425,13.200 383.586 M381.000 385.265 C 379.812 386.500,379.676 386.751,380.472 386.237 C 381.348 385.671,383.106 383.599,382.709 383.600 C 382.649 383.601,381.880 384.350,381.000 385.265 M17.800 387.273 C 18.963 388.039,376.891 388.058,378.400 387.293 C 379.310 386.831,379.257 386.813,377.800 387.093 C 375.643 387.507,20.177 387.488,18.400 387.073 C 17.161 386.784,17.092 386.807,17.800 387.273 " stroke="none" fill="#277c32" fill-rule="evenodd"></path><path id="path4" d="M18.400 16.954 C 16.030 17.528,13.425 20.070,12.985 22.239 C 12.463 24.809,12.552 379.878,13.075 381.968 C 13.611 384.111,15.976 386.530,18.006 387.014 C 20.426 387.590,373.732 387.730,376.913 387.156 C 380.257 386.553,382.248 384.793,383.056 381.728 C 383.790 378.946,383.842 25.910,383.109 22.731 C 382.438 19.817,380.893 17.961,378.421 17.098 C 376.491 16.423,21.177 16.281,18.400 16.954 M295.520 158.080 C 295.876 158.436,296.000 162.315,296.000 173.056 C 296.000 182.289,296.145 187.643,296.400 187.800 C 296.620 187.936,296.800 187.884,296.800 187.685 C 296.800 187.379,301.661 181.404,302.401 180.800 C 302.536 180.690,302.906 180.223,303.223 179.761 C 303.540 179.300,304.860 177.725,306.156 176.261 L 308.512 173.600 311.823 173.600 C 318.022 173.600,318.338 172.865,307.058 184.699 C 303.287 188.655,303.351 188.472,305.100 190.327 C 305.375 190.619,305.600 190.990,305.600 191.153 C 305.600 191.316,305.924 191.798,306.319 192.225 C 306.715 192.651,308.283 194.710,309.804 196.800 C 311.326 198.890,312.671 200.690,312.794 200.800 C 313.851 201.748,318.405 208.468,318.208 208.788 C 318.061 209.025,316.302 209.200,314.065 209.200 C 309.867 209.200,309.827 209.182,308.136 206.526 C 307.741 205.907,307.318 205.310,307.194 205.200 C 306.605 204.675,302.800 199.167,302.800 198.839 C 302.800 198.634,302.650 198.407,302.467 198.333 C 302.284 198.260,301.324 197.080,300.334 195.712 L 298.534 193.224 297.277 194.520 L 296.021 195.817 295.910 202.408 L 295.800 209.000 292.300 209.116 L 288.800 209.231 288.800 183.682 C 288.800 169.630,288.920 158.013,289.067 157.867 C 289.541 157.393,295.014 157.574,295.520 158.080 M113.767 159.843 C 114.237 160.023,114.400 160.647,114.400 162.269 C 114.400 166.202,114.963 166.000,103.986 166.000 L 94.400 166.000 94.400 173.600 L 94.400 181.200 103.151 181.200 C 113.224 181.200,112.907 181.085,112.721 184.666 L 112.600 187.000 103.500 187.108 L 94.400 187.215 94.400 198.223 L 94.400 209.231 90.900 209.116 L 87.400 209.000 87.297 184.626 C 87.215 165.391,87.300 160.184,87.697 159.932 C 88.279 159.562,112.818 159.479,113.767 159.843 M125.969 160.636 C 127.867 162.232,127.808 165.895,125.862 167.380 C 121.463 170.735,116.341 165.001,120.193 161.034 C 121.978 159.196,124.086 159.051,125.969 160.636 M198.887 160.327 C 199.147 160.587,199.842 160.800,200.431 160.800 C 201.447 160.800,203.021 161.329,205.870 162.629 C 208.960 164.040,214.400 169.622,214.400 171.383 C 214.400 171.722,214.536 172.000,214.703 172.000 C 215.414 172.000,216.710 177.463,217.075 182.000 C 217.422 186.318,216.006 193.023,213.949 196.800 C 213.769 197.130,213.329 197.979,212.972 198.687 C 210.886 202.814,204.529 206.983,198.000 208.505 C 194.592 209.300,177.615 209.337,176.747 208.552 C 176.034 207.907,176.000 206.820,176.000 184.528 L 176.000 161.180 177.100 160.720 C 179.763 159.604,197.839 159.279,198.887 160.327 M145.112 168.720 L 145.224 173.574 149.712 173.687 L 154.200 173.800 154.200 176.400 L 154.200 179.000 149.800 179.200 L 145.400 179.400 145.293 189.126 C 145.143 202.750,145.595 204.000,150.675 204.000 C 153.906 204.000,153.804 203.916,154.151 206.844 C 154.502 209.804,153.998 210.174,149.387 210.340 C 139.727 210.689,138.447 208.341,138.145 189.719 L 137.975 179.238 135.487 179.119 L 133.000 179.000 132.876 176.812 C 132.725 174.153,133.276 173.600,136.076 173.600 L 138.000 173.600 138.000 170.186 C 138.000 166.217,138.623 164.800,140.366 164.800 C 140.957 164.800,141.611 164.635,141.820 164.434 C 142.216 164.052,143.909 163.660,144.600 163.790 C 144.833 163.834,145.047 165.891,145.112 168.720 M184.300 165.829 L 183.200 166.426 183.200 184.625 C 183.200 205.680,182.571 203.412,188.400 203.378 C 202.515 203.296,209.329 196.866,209.359 183.600 C 209.380 174.082,204.561 167.345,196.902 166.187 C 195.968 166.046,195.103 165.766,194.978 165.565 C 194.585 164.929,185.547 165.152,184.300 165.829 M245.083 173.815 C 248.484 175.580,252.400 180.344,252.400 182.717 C 252.400 183.115,252.586 183.626,252.814 183.854 C 253.064 184.104,253.183 186.000,253.114 188.634 L 253.000 193.000 241.299 193.200 C 234.864 193.310,229.583 193.490,229.563 193.600 C 229.452 194.220,230.612 198.800,230.880 198.800 C 231.056 198.800,231.200 199.053,231.200 199.363 C 231.200 202.472,243.403 206.983,244.968 204.453 C 245.086 204.261,245.942 203.984,246.871 203.835 C 247.800 203.686,248.793 203.372,249.078 203.135 C 249.960 202.403,251.171 204.296,251.187 206.432 C 251.202 208.531,250.974 208.711,246.974 209.762 C 239.542 211.715,231.982 210.083,227.535 205.566 C 225.245 203.241,224.538 202.076,223.424 198.800 C 222.711 196.703,222.530 186.214,223.200 185.800 C 223.420 185.664,223.601 185.248,223.602 184.876 C 223.604 184.504,223.874 183.684,224.202 183.054 C 224.531 182.424,224.800 181.659,224.800 181.354 C 224.800 181.049,224.980 180.800,225.200 180.800 C 225.420 180.800,225.600 180.521,225.600 180.180 C 225.600 179.407,230.172 174.800,230.939 174.800 C 231.249 174.800,231.726 174.530,232.000 174.200 C 232.274 173.870,232.825 173.600,233.225 173.600 C 233.625 173.600,234.064 173.420,234.200 173.200 C 234.777 172.266,242.992 172.730,245.083 173.815 M277.505 173.141 C 277.887 173.329,278.875 173.807,279.700 174.204 C 281.236 174.943,281.552 175.760,280.824 177.105 C 280.617 177.487,280.344 178.295,280.217 178.900 C 279.991 179.971,278.594 180.460,277.859 179.726 C 277.185 179.052,274.390 178.412,272.100 178.406 C 268.260 178.397,265.045 182.001,266.900 184.236 C 268.190 185.790,269.138 186.521,270.800 187.245 C 271.790 187.676,272.913 188.202,273.295 188.414 C 273.677 188.626,274.180 188.800,274.414 188.800 C 276.105 188.800,280.508 192.631,281.631 195.078 C 286.620 205.960,271.649 215.104,259.700 208.471 C 258.787 207.965,258.410 205.888,259.148 205.432 C 259.340 205.314,259.605 204.673,259.738 204.008 C 259.977 202.817,261.713 202.247,262.552 203.085 C 266.079 206.613,275.600 204.516,275.600 200.212 C 275.600 198.430,273.357 195.200,272.120 195.200 C 271.828 195.200,271.277 195.026,270.895 194.812 C 270.513 194.599,268.769 193.764,267.020 192.956 C 260.406 189.902,257.931 184.492,260.626 178.983 C 261.616 176.960,263.563 174.800,264.397 174.800 C 264.618 174.800,264.800 174.634,264.800 174.432 C 264.800 174.229,265.338 173.945,265.995 173.801 C 266.653 173.657,267.294 173.372,267.419 173.169 C 267.706 172.705,276.567 172.680,277.505 173.141 M126.304 173.932 C 126.700 174.184,126.786 177.993,126.704 191.626 L 126.600 209.000 123.200 209.000 L 119.800 209.000 119.696 191.800 C 119.638 182.340,119.678 174.375,119.783 174.100 C 120.000 173.533,125.455 173.393,126.304 173.932 M236.461 178.278 C 234.028 178.602,231.079 182.205,230.058 186.100 L 229.664 187.600 238.232 187.600 C 246.446 187.600,246.800 187.568,246.800 186.824 C 246.800 186.397,246.620 185.936,246.400 185.800 C 246.180 185.664,246.000 185.194,246.000 184.754 C 246.000 180.686,241.469 177.610,236.461 178.278 " stroke="none" fill="#39b54a" fill-rule="evenodd"></path></g></svg>