<svg id="svg" version="1.1" width="400" height="400" xmlns="http://www.w3.org/2000/svg" xmlns:xlink="http://www.w3.org/1999/xlink" style="display: block;"><g id="svgg"><path id="path0" d="M289.200 183.600 L 289.200 208.800 292.000 208.800 L 294.800 208.800 294.800 202.229 L 294.800 195.657 296.552 193.829 C 298.859 191.421,298.197 190.902,304.959 200.416 L 310.918 208.800 314.059 208.800 C 317.171 208.800,317.685 208.551,316.681 207.529 C 316.396 207.238,315.361 205.920,314.381 204.600 C 313.401 203.280,312.375 201.962,312.100 201.671 C 311.825 201.381,311.600 201.010,311.600 200.847 C 311.600 200.684,311.276 200.202,310.881 199.775 C 310.485 199.349,308.920 197.290,307.402 195.200 C 305.885 193.110,304.228 190.891,303.722 190.269 C 302.348 188.584,302.535 188.094,305.908 184.549 C 307.608 182.762,310.400 179.792,312.111 177.949 L 315.223 174.600 312.111 174.481 C 309.273 174.372,308.935 174.442,308.258 175.281 C 307.849 175.786,306.637 177.207,305.564 178.437 C 304.491 179.668,303.208 181.198,302.711 181.837 C 302.215 182.477,301.276 183.593,300.624 184.318 C 299.973 185.042,299.160 186.011,298.820 186.470 C 294.727 191.987,294.800 192.215,294.800 173.976 L 294.800 158.400 292.000 158.400 L 289.200 158.400 289.200 183.600 M88.400 184.600 L 88.400 208.800 90.994 208.800 L 93.587 208.800 93.694 197.900 L 93.800 187.000 102.800 186.800 L 111.800 186.600 111.921 184.500 L 112.042 182.400 103.235 182.400 C 94.937 182.400,94.404 182.355,94.014 181.626 C 93.572 180.801,93.421 166.531,93.843 165.433 C 94.055 164.880,95.297 164.800,103.643 164.800 L 113.200 164.800 113.200 162.600 L 113.200 160.400 100.800 160.400 L 88.400 160.400 88.400 184.600 M121.800 160.862 C 119.297 162.231,119.306 166.338,121.813 166.968 C 125.077 167.787,127.612 165.273,126.188 162.630 C 125.124 160.655,123.428 159.971,121.800 160.862 M185.600 160.655 C 185.270 160.745,183.290 160.949,181.200 161.109 L 177.400 161.400 177.400 184.584 L 177.400 207.767 178.800 208.061 C 183.639 209.077,191.349 208.863,197.200 207.551 C 198.190 207.329,199.535 207.043,200.189 206.915 C 200.842 206.788,202.174 206.259,203.148 205.742 C 204.122 205.224,205.085 204.800,205.288 204.800 C 205.491 204.800,205.908 204.575,206.215 204.300 C 207.471 203.173,207.982 202.799,208.283 202.787 C 209.616 202.732,214.204 194.908,215.194 191.000 C 215.899 188.221,216.170 181.006,215.660 178.600 C 215.427 177.500,215.126 176.060,214.992 175.400 C 214.205 171.539,209.560 165.461,206.171 163.856 C 205.307 163.446,204.324 162.974,203.987 162.807 C 203.650 162.639,202.756 162.366,202.000 162.200 C 201.244 162.034,200.350 161.759,200.013 161.588 C 198.515 160.829,187.571 160.121,185.600 160.655 M198.291 165.416 C 198.901 165.735,199.604 165.996,199.854 165.998 C 201.939 166.009,206.540 170.114,208.392 173.614 C 210.453 177.510,211.138 187.371,209.600 191.000 C 206.877 197.427,204.745 200.029,200.604 201.973 C 196.444 203.928,195.001 204.200,188.800 204.200 L 183.000 204.200 183.000 184.600 L 183.000 165.000 185.200 164.739 C 188.707 164.323,197.018 164.753,198.291 165.416 M142.600 165.172 C 139.395 165.717,139.243 165.941,139.114 170.306 L 139.000 174.200 136.500 174.319 L 134.000 174.438 134.006 175.919 C 134.015 178.032,134.349 178.337,136.809 178.476 L 139.000 178.600 139.214 190.600 C 139.372 199.495,139.574 203.014,139.996 204.200 C 140.683 206.136,143.193 208.800,144.329 208.800 C 144.782 208.800,145.264 208.980,145.400 209.200 C 145.732 209.737,149.965 209.710,151.540 209.161 C 152.696 208.758,152.800 208.576,152.800 206.961 L 152.800 205.200 150.231 205.200 C 144.998 205.200,144.741 204.458,144.888 189.800 L 145.000 178.600 149.300 178.486 L 153.600 178.373 153.600 176.400 L 153.600 174.427 149.300 174.314 L 145.000 174.200 144.887 169.500 C 144.825 166.915,144.645 164.823,144.487 164.850 C 144.329 164.878,143.480 165.022,142.600 165.172 M235.224 174.034 C 230.865 175.293,225.200 180.515,225.200 183.274 C 225.200 183.585,225.041 184.011,224.847 184.220 C 224.302 184.806,223.453 189.544,223.453 192.000 C 223.453 194.456,224.302 199.194,224.847 199.780 C 225.041 199.989,225.200 200.402,225.200 200.697 C 225.200 204.977,235.100 210.308,241.460 209.452 C 242.527 209.308,244.459 209.076,245.753 208.935 C 248.326 208.655,251.199 207.494,250.455 207.034 C 250.205 206.879,250.000 206.253,250.000 205.643 C 250.000 204.173,249.724 203.966,248.459 204.489 C 238.902 208.443,228.322 202.854,228.876 194.146 L 229.000 192.200 240.800 191.985 C 254.632 191.733,252.946 192.114,252.673 189.300 C 252.260 185.039,251.697 182.963,250.095 179.800 C 247.546 174.769,241.200 172.309,235.224 174.034 M269.200 173.838 C 264.967 174.989,261.850 177.261,261.373 179.543 C 261.251 180.124,260.983 180.913,260.776 181.295 C 259.192 184.221,262.219 189.665,266.586 191.745 C 267.804 192.325,269.748 193.250,270.906 193.800 C 272.064 194.350,273.144 194.800,273.306 194.800 C 273.681 194.800,274.853 195.970,275.724 197.213 C 279.502 202.607,270.684 208.283,263.949 204.792 C 261.633 203.592,260.568 203.856,260.137 205.737 L 259.726 207.535 261.163 208.138 C 265.584 209.992,273.563 209.769,276.995 207.696 C 279.888 205.948,281.985 201.740,281.465 198.721 C 280.867 195.246,280.622 194.685,278.985 193.048 C 277.341 191.404,276.280 190.792,270.400 188.090 C 262.006 184.234,265.354 176.019,274.660 177.640 C 276.059 177.883,277.304 178.244,277.426 178.441 C 277.868 179.156,279.082 178.776,279.536 177.781 C 280.586 175.476,279.935 174.776,276.000 173.985 C 272.277 173.237,271.476 173.220,269.200 173.838 M120.400 191.618 L 120.400 208.837 123.100 208.718 L 125.800 208.600 125.904 191.500 L 126.009 174.400 123.204 174.400 L 120.400 174.400 120.400 191.618 M241.187 177.478 C 244.890 178.863,247.332 182.389,247.123 186.052 L 247.000 188.200 238.000 188.200 L 229.000 188.200 228.891 187.200 C 228.664 185.104,232.070 178.860,233.467 178.815 C 233.723 178.807,233.993 178.657,234.067 178.483 C 234.632 177.139,238.733 176.560,241.187 177.478 " stroke="none" fill="#000000" fill-rule="evenodd"></path><path id="path1" d="M18.400 16.954 C 16.030 17.528,13.425 20.070,12.985 22.239 C 12.463 24.809,12.552 379.878,13.075 381.968 C 13.611 384.111,15.976 386.530,18.006 387.014 C 20.426 387.590,373.732 387.730,376.913 387.156 C 380.257 386.553,382.248 384.793,383.056 381.728 C 383.790 378.946,383.842 25.910,383.109 22.731 C 382.438 19.817,380.893 17.961,378.421 17.098 C 376.491 16.423,21.177 16.281,18.400 16.954 M295.367 157.843 C 295.928 158.058,296.000 159.755,296.000 172.843 C 296.000 180.959,296.114 187.600,296.253 187.600 C 296.549 187.600,297.663 186.368,299.145 184.400 C 299.725 183.630,300.740 182.455,301.400 181.790 C 302.060 181.124,303.351 179.594,304.268 178.390 C 308.093 173.370,307.716 173.600,312.125 173.600 C 317.091 173.600,317.318 173.964,314.315 177.113 C 313.116 178.371,310.980 180.651,309.568 182.180 C 308.155 183.709,306.217 185.772,305.259 186.766 C 304.301 187.760,303.716 188.639,303.959 188.720 C 304.202 188.801,304.400 189.040,304.400 189.251 C 304.400 189.462,304.850 190.120,305.400 190.713 C 305.950 191.307,306.400 192.004,306.400 192.263 C 306.400 192.521,306.546 192.793,306.724 192.867 C 306.901 192.940,307.846 194.080,308.824 195.400 C 309.801 196.720,311.005 198.248,311.500 198.796 C 311.995 199.344,312.400 200.004,312.400 200.263 C 312.400 200.521,312.546 200.793,312.724 200.867 C 312.901 200.940,313.846 202.080,314.824 203.400 C 315.801 204.720,317.005 206.248,317.500 206.796 C 319.366 208.861,318.494 209.585,314.126 209.595 C 310.239 209.603,310.161 209.536,304.076 201.021 L 298.485 193.198 297.242 194.613 L 296.000 196.028 296.000 202.400 C 296.000 208.290,295.942 208.803,295.226 209.186 C 294.388 209.635,290.459 209.751,289.433 209.357 C 288.773 209.104,288.413 158.520,289.067 157.867 C 289.400 157.533,294.510 157.514,295.367 157.843 M114.320 162.335 C 114.501 166.169,114.980 166.000,103.951 166.000 L 94.400 166.000 94.400 173.400 L 94.400 180.800 102.900 180.813 C 113.073 180.829,113.200 180.876,113.200 184.574 C 113.200 187.566,113.083 187.600,102.774 187.600 L 94.400 187.600 94.400 198.392 L 94.400 209.185 93.385 209.439 C 91.725 209.856,87.578 209.411,87.174 208.772 C 86.401 207.550,86.715 160.490,87.500 160.029 C 87.949 159.766,92.862 159.651,101.200 159.709 L 114.200 159.800 114.320 162.335 M126.202 160.802 C 127.938 162.614,127.876 165.640,126.071 167.253 C 123.130 169.881,118.800 167.859,118.800 163.858 C 118.800 159.997,123.551 158.035,126.202 160.802 M198.861 160.300 C 199.135 160.575,199.956 160.800,200.685 160.800 C 201.414 160.800,202.323 160.950,202.705 161.132 C 203.087 161.315,204.000 161.765,204.732 162.132 C 205.465 162.500,206.320 162.800,206.632 162.800 C 206.945 162.800,207.200 162.968,207.200 163.173 C 207.200 163.378,207.549 163.657,207.976 163.792 C 208.964 164.106,212.594 167.702,213.355 169.121 C 215.227 172.609,216.073 174.726,216.507 177.000 C 217.090 180.063,217.310 187.237,216.850 188.175 C 216.627 188.629,216.362 189.720,216.261 190.600 C 216.041 192.505,215.128 195.200,214.702 195.200 C 214.536 195.200,214.400 195.455,214.400 195.768 C 214.400 198.656,208.270 204.859,203.600 206.696 C 203.050 206.912,201.919 207.384,201.086 207.745 C 200.254 208.105,199.075 208.400,198.466 208.400 C 197.858 208.400,197.143 208.617,196.877 208.883 C 196.172 209.588,177.467 209.519,176.611 208.809 C 176.076 208.365,176.000 205.387,176.000 184.770 L 176.000 161.238 177.300 160.642 C 179.306 159.723,179.989 159.672,189.481 159.738 C 195.982 159.783,198.495 159.934,198.861 160.300 M145.210 164.626 C 145.424 165.190,145.600 167.434,145.600 169.613 L 145.600 173.573 149.900 173.686 L 154.200 173.800 154.318 176.500 L 154.437 179.200 150.018 179.200 L 145.600 179.200 145.606 189.500 C 145.614 203.429,145.828 204.000,151.034 204.000 C 154.307 204.000,154.400 204.089,154.400 207.210 C 154.400 209.999,153.680 210.400,148.673 210.400 C 139.648 210.400,138.493 208.182,138.055 190.000 L 137.800 179.400 135.400 179.200 L 133.000 179.000 132.878 176.637 C 132.734 173.844,132.963 173.615,135.900 173.606 L 138.000 173.600 138.013 169.900 C 138.026 165.951,138.452 164.800,139.898 164.800 C 140.344 164.800,141.314 164.537,142.054 164.216 C 144.014 163.365,144.768 163.463,145.210 164.626 M187.000 165.399 C 186.780 165.473,185.925 165.647,185.100 165.785 L 183.600 166.036 183.603 184.318 L 183.606 202.600 184.683 203.100 C 185.963 203.695,191.846 203.773,192.200 203.200 C 192.336 202.980,193.472 202.794,194.724 202.787 C 196.088 202.780,197.311 202.539,197.776 202.187 C 198.204 201.864,198.879 201.600,199.276 201.600 C 199.674 201.600,200.000 201.420,200.000 201.200 C 200.000 200.980,200.269 200.800,200.597 200.800 C 201.793 200.800,206.789 195.884,206.796 194.700 C 206.798 194.315,206.936 194.000,207.102 194.000 C 207.982 194.000,209.372 187.442,209.349 183.400 C 209.323 179.004,208.846 176.870,207.073 173.229 C 205.681 170.369,200.580 166.840,197.000 166.260 C 196.340 166.153,195.080 165.875,194.200 165.642 C 192.718 165.250,187.917 165.088,187.000 165.399 M244.000 173.200 C 244.000 173.420,244.338 173.600,244.751 173.600 C 245.164 173.600,245.726 173.870,246.000 174.200 C 246.274 174.530,246.693 174.800,246.932 174.800 C 247.532 174.800,250.400 177.651,250.400 178.248 C 250.400 178.515,250.535 178.793,250.700 178.867 C 251.231 179.103,252.400 181.637,252.400 182.552 C 252.400 183.041,252.586 183.626,252.814 183.854 C 253.311 184.351,253.537 191.988,253.076 192.700 C 252.830 193.081,249.989 193.200,241.130 193.200 L 229.507 193.200 229.756 194.300 C 229.893 194.905,230.123 196.030,230.267 196.800 C 230.779 199.543,232.925 202.281,235.400 203.349 C 236.280 203.728,237.313 204.210,237.695 204.419 C 238.808 205.029,244.155 204.880,245.454 204.202 C 246.084 203.874,247.095 203.604,247.700 203.602 C 248.305 203.601,248.800 203.420,248.800 203.200 C 248.800 202.424,249.916 202.813,250.575 203.818 C 251.405 205.085,251.290 208.374,250.400 208.816 C 247.139 210.435,236.693 211.070,234.254 209.798 C 233.624 209.469,232.784 209.200,232.388 209.200 C 231.991 209.200,231.607 209.065,231.533 208.900 C 231.460 208.735,230.705 208.246,229.856 207.813 C 227.477 206.601,223.600 201.292,223.600 199.247 C 223.600 198.807,223.420 198.336,223.200 198.200 C 222.962 198.053,222.800 195.537,222.800 192.000 C 222.800 188.463,222.962 185.947,223.200 185.800 C 223.420 185.664,223.600 185.193,223.600 184.754 C 223.600 183.879,225.669 179.490,226.488 178.628 C 226.769 178.332,227.286 177.754,227.635 177.345 C 228.729 176.062,230.383 174.800,230.970 174.800 C 231.280 174.800,231.593 174.648,231.667 174.462 C 232.203 173.102,244.000 171.895,244.000 173.200 M277.800 173.200 C 277.936 173.420,278.369 173.600,278.762 173.600 C 279.876 173.600,281.200 174.983,281.200 176.147 C 281.200 176.726,281.020 177.200,280.800 177.200 C 280.580 177.200,280.400 177.734,280.400 178.386 C 280.400 179.948,279.065 180.764,278.035 179.832 C 277.651 179.484,276.957 179.200,276.492 179.200 C 276.027 179.200,275.536 179.020,275.400 178.800 C 274.020 176.567,266.400 179.756,266.400 182.566 C 266.400 183.559,269.069 186.800,269.886 186.800 C 270.128 186.800,271.288 187.271,272.463 187.848 C 273.638 188.424,275.050 189.098,275.600 189.347 C 284.716 193.459,285.001 205.097,276.087 209.223 C 273.460 210.439,263.646 211.045,263.019 210.031 C 262.894 209.828,262.233 209.539,261.552 209.389 C 259.145 208.861,258.103 206.894,259.171 204.895 C 259.375 204.513,259.639 203.885,259.758 203.500 C 259.996 202.731,262.168 202.502,262.600 203.200 C 262.736 203.420,263.152 203.601,263.524 203.602 C 263.896 203.604,264.716 203.874,265.346 204.202 C 268.445 205.819,273.491 204.519,275.100 201.690 C 276.471 199.279,273.024 194.400,269.949 194.400 C 268.089 194.400,261.855 190.219,261.072 188.446 C 260.817 187.871,260.382 187.162,260.105 186.871 C 257.553 184.199,260.826 176.437,265.600 173.839 C 267.545 172.780,277.227 172.273,277.800 173.200 M126.720 174.080 C 127.078 174.438,127.200 178.900,127.200 191.690 L 127.200 208.820 126.174 209.210 C 125.037 209.642,121.222 209.737,120.233 209.357 C 119.573 209.104,119.216 174.517,119.867 173.867 C 120.344 173.390,126.212 173.572,126.720 174.080 M234.854 178.920 C 231.761 181.636,230.691 183.293,230.217 186.100 L 229.964 187.600 238.382 187.600 C 246.679 187.600,248.232 187.332,246.423 186.214 C 246.216 186.086,245.920 185.141,245.766 184.115 C 245.540 182.604,245.120 181.882,243.562 180.324 L 241.638 178.400 238.519 178.420 C 236.692 178.432,235.174 178.639,234.854 178.920 " stroke="none" fill="#ffffff" fill-rule="evenodd"></path><path id="path2" d="M14.800 11.957 C 14.800 12.153,14.350 12.426,13.800 12.564 C 13.250 12.702,12.800 12.992,12.800 13.208 C 12.800 13.423,12.626 13.600,12.414 13.600 C 11.891 13.600,9.600 15.869,9.600 16.387 C 9.600 16.614,9.423 16.800,9.208 16.800 C 8.992 16.800,8.702 17.250,8.564 17.800 C 8.426 18.350,8.153 18.800,7.957 18.800 C 7.748 18.800,7.600 95.066,7.600 202.200 C 7.600 315.365,7.743 385.600,7.973 385.600 C 8.178 385.600,8.452 385.934,8.582 386.343 C 8.879 387.280,11.735 390.400,12.296 390.400 C 12.526 390.400,12.818 390.670,12.945 391.000 C 13.071 391.330,13.541 391.600,13.987 391.600 C 14.434 391.600,14.800 391.780,14.800 392.000 C 14.800 392.718,380.403 392.537,381.844 391.818 C 382.486 391.498,383.406 390.868,383.889 390.418 C 384.371 389.968,384.954 389.600,385.183 389.600 C 385.412 389.600,385.600 389.412,385.600 389.183 C 385.600 388.954,385.968 388.371,386.418 387.889 C 386.868 387.406,387.498 386.486,387.818 385.844 C 388.537 384.403,388.718 18.800,388.000 18.800 C 387.780 18.800,387.600 18.434,387.600 17.987 C 387.600 17.541,387.330 17.071,387.000 16.945 C 386.670 16.818,386.400 16.526,386.400 16.296 C 386.400 15.735,383.280 12.879,382.343 12.582 C 381.934 12.452,381.600 12.178,381.600 11.973 C 381.600 11.743,311.365 11.600,198.200 11.600 C 91.066 11.600,14.800 11.748,14.800 11.957 M379.515 16.402 C 381.576 17.477,382.640 18.518,383.600 20.399 C 384.397 21.961,384.400 22.732,384.400 202.168 L 384.400 382.367 383.300 384.205 C 382.634 385.317,381.448 386.508,380.294 387.221 L 378.388 388.400 198.178 388.400 C 18.732 388.400,17.961 388.397,16.399 387.600 C 14.518 386.640,13.477 385.576,12.402 383.515 C 11.166 381.143,11.130 23.387,12.366 20.678 C 13.270 18.696,14.666 17.301,16.714 16.331 C 19.209 15.149,377.246 15.220,379.515 16.402 M292.300 158.291 L 294.800 158.437 294.800 173.995 C 294.800 184.650,294.935 189.636,295.230 189.818 C 295.709 190.115,297.454 188.633,298.078 187.400 C 298.301 186.960,297.911 187.275,297.212 188.100 C 296.514 188.925,295.777 189.600,295.576 189.600 C 295.362 189.600,295.166 183.059,295.105 173.900 L 295.000 158.200 292.400 158.173 L 289.800 158.145 292.300 158.291 M88.184 160.500 C 88.079 160.775,88.041 171.800,88.099 185.000 L 88.206 209.000 88.303 184.706 L 88.400 160.412 100.700 160.300 L 113.000 160.188 100.687 160.094 C 91.136 160.021,88.332 160.112,88.184 160.500 M187.891 160.289 C 188.601 160.377,189.861 160.379,190.691 160.292 C 191.521 160.205,190.940 160.133,189.400 160.131 C 187.860 160.129,187.181 160.200,187.891 160.289 M113.324 162.600 C 113.326 163.920,113.401 164.412,113.490 163.693 C 113.579 162.974,113.577 161.894,113.486 161.293 C 113.395 160.692,113.322 161.280,113.324 162.600 M180.600 160.800 L 178.200 161.066 180.200 161.098 C 181.300 161.115,183.100 160.990,184.200 160.818 C 186.847 160.406,184.279 160.393,180.600 160.800 M194.800 160.820 C 197.214 161.250,199.106 161.213,197.000 160.777 C 196.120 160.595,194.860 160.458,194.200 160.473 C 193.300 160.493,193.450 160.580,194.800 160.820 M125.600 161.447 C 125.600 161.667,125.864 162.196,126.187 162.624 C 126.510 163.051,126.775 163.220,126.775 163.000 C 126.775 162.780,126.510 162.251,126.187 161.824 C 125.864 161.396,125.600 161.227,125.600 161.447 M119.693 164.000 C 119.693 164.770,119.775 165.085,119.876 164.700 C 119.976 164.315,119.976 163.685,119.876 163.300 C 119.775 162.915,119.693 163.230,119.693 164.000 M143.200 164.800 C 142.376 165.064,142.341 165.126,143.000 165.154 C 143.440 165.173,144.070 165.013,144.400 164.800 C 145.101 164.347,144.614 164.347,143.200 164.800 M188.711 164.693 C 189.651 164.778,191.091 164.777,191.911 164.691 C 192.730 164.605,191.960 164.536,190.200 164.537 C 188.440 164.539,187.770 164.609,188.711 164.693 M126.032 165.539 C 125.379 166.760,125.514 167.100,126.241 166.063 C 126.593 165.560,126.788 165.054,126.673 164.940 C 126.559 164.825,126.270 165.095,126.032 165.539 M195.633 164.944 C 196.105 165.350,198.043 165.593,197.810 165.216 C 197.668 164.987,197.083 164.800,196.510 164.800 C 195.936 164.800,195.542 164.865,195.633 164.944 M93.768 173.400 C 93.768 177.800,93.826 179.655,93.898 177.521 C 93.970 175.388,93.970 171.788,93.899 169.521 C 93.827 167.255,93.768 169.000,93.768 173.400 M121.739 167.294 C 122.353 167.685,124.073 167.668,124.709 167.264 C 125.005 167.077,124.393 166.953,123.249 166.971 C 122.165 166.987,121.486 167.132,121.739 167.294 M211.060 167.997 C 211.647 168.655,212.542 169.870,213.051 170.697 C 213.559 171.524,213.981 172.069,213.988 171.910 C 214.017 171.224,210.843 166.800,210.322 166.800 C 210.141 166.800,210.474 167.339,211.060 167.997 M240.800 173.600 C 242.168 174.038,243.219 174.038,242.200 173.600 C 241.760 173.411,241.040 173.262,240.600 173.268 C 239.957 173.277,239.996 173.343,240.800 173.600 M269.200 173.618 C 268.762 173.915,268.924 173.952,269.800 173.756 C 271.271 173.427,271.590 173.198,270.567 173.206 C 270.145 173.209,269.530 173.395,269.200 173.618 M274.000 173.600 C 274.330 173.813,275.050 173.973,275.600 173.954 L 276.600 173.920 275.600 173.600 C 274.058 173.106,273.236 173.106,274.000 173.600 M136.600 174.000 L 134.200 174.266 136.476 174.333 C 137.728 174.370,138.864 174.220,139.000 174.000 C 139.136 173.780,139.192 173.630,139.124 173.667 C 139.056 173.704,137.920 173.854,136.600 174.000 M145.061 174.100 C 145.163 174.265,147.117 174.400,149.402 174.400 L 153.556 174.400 153.711 176.100 L 153.865 177.800 153.833 176.000 L 153.800 174.200 149.337 174.000 C 146.882 173.890,144.958 173.935,145.061 174.100 M120.183 174.500 C 120.077 174.775,120.040 182.650,120.100 192.000 L 120.209 209.000 120.304 191.718 L 120.400 174.437 123.100 174.297 L 125.800 174.157 123.087 174.078 C 121.225 174.025,120.315 174.157,120.183 174.500 M265.824 174.613 C 265.396 174.936,265.225 175.200,265.444 175.200 C 265.662 175.200,266.011 175.037,266.220 174.839 C 266.429 174.640,266.960 174.391,267.400 174.285 L 268.200 174.093 267.400 174.059 C 266.960 174.041,266.251 174.290,265.824 174.613 M310.500 174.291 C 311.325 174.378,312.675 174.378,313.500 174.291 C 314.325 174.205,313.650 174.134,312.000 174.134 C 310.350 174.134,309.675 174.205,310.500 174.291 M215.005 175.400 C 215.626 178.528,215.907 179.424,215.948 178.400 C 215.970 177.850,215.713 176.680,215.378 175.800 C 214.922 174.604,214.828 174.503,215.005 175.400 M245.374 174.894 C 245.799 175.172,246.969 176.114,247.974 176.986 L 249.800 178.572 248.400 177.052 C 247.630 176.216,246.460 175.275,245.800 174.960 C 245.140 174.646,244.948 174.616,245.374 174.894 M279.235 174.878 C 279.584 175.165,279.975 175.670,280.104 176.000 C 280.293 176.486,280.343 176.470,280.368 175.914 C 280.386 175.537,279.995 175.032,279.500 174.792 C 278.737 174.422,278.696 174.435,279.235 174.878 M314.401 175.398 C 313.886 175.948,313.539 176.464,313.632 176.546 C 313.724 176.628,314.219 176.178,314.730 175.547 C 315.876 174.135,315.674 174.044,314.401 175.398 M236.935 177.108 C 236.679 177.271,237.309 177.417,238.335 177.432 C 239.361 177.448,240.650 177.592,241.200 177.752 C 241.750 177.913,241.594 177.764,240.854 177.422 C 239.421 176.760,237.699 176.622,236.935 177.108 M227.326 178.900 C 226.179 180.512,224.843 182.829,225.308 182.400 C 225.493 182.230,228.009 178.556,228.639 177.537 C 229.289 176.485,228.353 177.457,227.326 178.900 M134.161 178.090 C 134.225 178.408,135.176 178.675,136.694 178.800 C 138.030 178.910,139.041 178.865,138.939 178.700 C 138.836 178.535,137.788 178.400,136.610 178.400 C 135.431 178.400,134.375 178.216,134.263 177.990 C 134.151 177.764,134.106 177.810,134.161 178.090 M145.060 178.700 C 144.958 178.865,146.252 178.951,147.937 178.892 C 153.311 178.701,153.927 178.536,149.524 178.467 C 147.172 178.430,145.163 178.535,145.060 178.700 M210.153 183.400 C 210.153 186.040,210.218 187.068,210.297 185.684 C 210.375 184.301,210.374 182.141,210.295 180.884 C 210.216 179.628,210.152 180.760,210.153 183.400 M309.829 180.362 L 308.658 181.800 310.009 180.513 C 310.751 179.805,311.278 179.158,311.179 179.075 C 311.081 178.992,310.473 179.571,309.829 180.362 M230.784 181.623 C 230.305 182.296,230.000 182.933,230.107 183.040 C 230.214 183.147,230.677 182.596,231.137 181.817 C 232.164 180.077,231.963 179.967,230.784 181.623 M245.836 181.574 C 246.276 183.193,247.168 185.043,247.184 184.371 C 247.193 184.026,246.834 183.036,246.386 182.171 C 245.938 181.307,245.691 181.038,245.836 181.574 M265.701 182.600 C 265.705 183.480,265.787 183.793,265.883 183.295 C 265.979 182.798,265.975 182.078,265.875 181.695 C 265.775 181.313,265.696 181.720,265.701 182.600 M98.478 182.298 C 100.831 182.369,104.791 182.369,107.278 182.299 C 109.765 182.229,107.840 182.171,103.000 182.170 C 98.160 182.170,96.125 182.228,98.478 182.298 M304.439 186.046 C 303.470 187.126,302.750 188.061,302.839 188.123 C 302.927 188.185,303.882 187.282,304.960 186.118 C 306.038 184.953,306.758 184.018,306.560 184.041 C 306.362 184.063,305.407 184.965,304.439 186.046 M252.056 185.400 C 252.056 185.840,252.211 186.560,252.400 187.000 L 252.744 187.800 252.744 187.000 C 252.744 186.560,252.589 185.840,252.400 185.400 L 252.056 184.600 252.056 185.400 M267.182 186.178 C 267.490 186.549,268.295 187.134,268.971 187.477 C 270.495 188.252,270.252 187.967,268.200 186.574 C 267.332 185.985,266.874 185.807,267.182 186.178 M93.781 187.306 C 93.674 187.585,93.635 192.580,93.694 198.406 L 93.801 209.000 94.001 197.900 C 94.110 191.795,94.149 186.800,94.087 186.800 C 94.026 186.800,93.887 187.028,93.781 187.306 M223.400 188.400 C 223.248 189.091,223.214 189.747,223.324 189.857 C 223.434 189.967,223.648 189.491,223.800 188.800 C 223.952 188.109,223.986 187.453,223.876 187.343 C 223.766 187.233,223.552 187.709,223.400 188.400 M215.660 188.467 C 215.627 189.054,215.496 189.864,215.370 190.267 C 215.152 190.960,215.165 190.961,215.595 190.290 C 215.846 189.899,215.977 189.089,215.886 188.490 L 215.720 187.400 215.660 188.467 M229.147 188.108 C 229.317 188.277,233.403 188.367,238.228 188.307 L 247.000 188.199 237.919 187.999 C 232.925 187.890,228.978 187.939,229.147 188.108 M262.000 188.525 C 262.000 188.594,262.585 189.179,263.300 189.825 L 264.600 191.000 263.425 189.700 C 262.330 188.488,262.000 188.216,262.000 188.525 M209.429 189.829 C 209.281 190.415,209.251 190.984,209.361 191.094 C 209.471 191.204,209.681 190.815,209.829 190.229 C 209.976 189.642,210.006 189.073,209.896 188.963 C 209.786 188.853,209.576 189.242,209.429 189.829 M303.164 189.533 C 303.380 189.936,303.871 190.521,304.255 190.833 C 304.687 191.184,304.590 190.904,304.001 190.100 C 302.951 188.665,302.557 188.398,303.164 189.533 M276.840 191.242 C 277.808 191.925,279.107 193.050,279.727 193.742 C 280.760 194.896,280.798 194.909,280.181 193.901 C 279.541 192.853,276.033 190.000,275.386 190.000 C 275.218 190.000,275.872 190.559,276.840 191.242 M306.016 193.363 C 306.768 194.409,307.556 195.373,307.767 195.503 C 307.978 195.633,307.535 194.884,306.784 193.837 C 306.032 192.791,305.244 191.827,305.033 191.697 C 304.822 191.567,305.265 192.316,306.016 193.363 M298.736 192.700 C 299.190 193.085,299.946 193.850,300.415 194.400 C 300.884 194.950,300.758 194.639,300.134 193.709 C 299.510 192.778,298.755 192.013,298.456 192.009 C 298.107 192.003,298.208 192.252,298.736 192.700 M223.256 194.600 C 223.256 195.040,223.411 195.760,223.600 196.200 L 223.944 197.000 223.944 196.200 C 223.944 195.760,223.789 195.040,223.600 194.600 L 223.256 193.800 223.256 194.600 M295.049 195.415 C 294.912 195.773,294.837 198.976,294.881 202.533 L 294.963 209.000 295.181 202.000 C 295.418 194.431,295.418 194.454,295.049 195.415 M280.806 195.833 C 280.809 196.255,280.995 196.870,281.218 197.200 C 281.515 197.638,281.552 197.476,281.356 196.600 C 281.027 195.129,280.798 194.810,280.806 195.833 M308.800 197.200 C 309.270 197.860,309.744 198.400,309.854 198.400 C 309.964 198.400,309.670 197.860,309.200 197.200 C 308.730 196.540,308.256 196.000,308.146 196.000 C 308.036 196.000,308.330 196.540,308.800 197.200 M276.000 199.826 C 276.000 200.831,275.810 202.046,275.578 202.526 C 275.170 203.370,275.177 203.374,275.778 202.624 C 276.345 201.916,276.702 198.000,276.200 198.000 C 276.090 198.000,276.000 198.822,276.000 199.826 M281.527 199.800 C 281.380 200.900,281.152 202.250,281.022 202.800 C 280.891 203.350,281.065 203.080,281.408 202.200 C 281.751 201.320,281.979 199.970,281.914 199.200 C 281.807 197.935,281.770 197.993,281.527 199.800 M203.078 200.213 C 202.460 200.756,202.114 201.200,202.308 201.200 C 202.502 201.200,203.083 200.750,203.600 200.200 C 204.795 198.928,204.531 198.934,203.078 200.213 M230.699 200.600 C 231.154 201.260,232.123 202.340,232.852 203.000 C 233.830 203.887,233.719 203.678,232.426 202.200 C 230.066 199.502,229.720 199.182,230.699 200.600 M144.834 201.024 C 144.815 201.476,145.083 202.196,145.430 202.624 C 145.776 203.051,145.937 203.161,145.787 202.869 C 145.637 202.576,145.369 201.856,145.191 201.269 C 144.933 200.411,144.862 200.363,144.834 201.024 M226.000 202.800 C 226.470 203.460,226.944 204.000,227.054 204.000 C 227.164 204.000,226.870 203.460,226.400 202.800 C 225.930 202.140,225.456 201.600,225.346 201.600 C 225.236 201.600,225.530 202.140,226.000 202.800 M314.016 204.163 C 314.768 205.209,315.556 206.173,315.767 206.303 C 315.978 206.433,315.535 205.684,314.784 204.637 C 314.032 203.591,313.244 202.627,313.033 202.497 C 312.822 202.367,313.265 203.116,314.016 204.163 M182.902 203.600 C 183.037 204.096,184.034 204.203,188.633 204.219 L 194.200 204.237 188.816 204.106 C 185.169 204.018,183.320 203.818,183.086 203.488 C 182.836 203.137,182.785 203.169,182.902 203.600 M146.800 204.344 C 147.350 204.805,148.250 205.162,148.800 205.137 L 149.800 205.091 148.829 204.908 C 148.295 204.808,147.395 204.451,146.829 204.115 L 145.800 203.505 146.800 204.344 M261.200 204.000 C 262.568 204.438,263.619 204.438,262.600 204.000 C 262.160 203.811,261.440 203.662,261.000 203.668 C 260.357 203.677,260.396 203.743,261.200 204.000 M308.000 205.200 C 308.470 205.860,308.944 206.400,309.054 206.400 C 309.164 206.400,308.870 205.860,308.400 205.200 C 307.930 204.540,307.456 204.000,307.346 204.000 C 307.236 204.000,307.530 204.540,308.000 205.200 M246.400 204.800 C 245.576 205.064,245.541 205.126,246.200 205.154 C 246.640 205.173,247.270 205.013,247.600 204.800 C 248.301 204.347,247.814 204.347,246.400 204.800 M152.100 205.076 C 153.343 205.401,153.077 208.715,151.781 209.040 C 151.221 209.181,150.855 209.389,150.969 209.502 C 151.775 210.309,153.527 208.652,153.335 207.264 C 153.031 205.073,152.891 204.796,152.113 204.846 C 151.445 204.890,151.444 204.904,152.100 205.076 M239.200 205.600 C 239.530 205.813,240.340 205.988,241.000 205.988 C 241.660 205.988,242.470 205.813,242.800 205.600 C 243.224 205.326,242.695 205.212,241.000 205.212 C 239.305 205.212,238.776 205.326,239.200 205.600 M267.000 205.600 C 268.094 206.070,270.072 206.070,270.800 205.600 C 271.220 205.329,270.618 205.219,268.800 205.234 C 266.981 205.250,266.440 205.359,267.000 205.600 M141.400 207.200 C 142.032 207.860,142.682 208.400,142.844 208.400 C 143.006 208.400,142.598 207.860,141.938 207.200 C 141.278 206.540,140.629 206.000,140.494 206.000 C 140.360 206.000,140.768 206.540,141.400 207.200 M259.484 206.800 C 259.277 207.591,259.830 208.303,260.293 207.840 C 260.425 207.708,260.340 207.600,260.104 207.600 C 259.868 207.600,259.769 207.240,259.884 206.800 C 259.999 206.360,260.003 206.000,259.893 206.000 C 259.783 206.000,259.599 206.360,259.484 206.800 M229.233 206.521 C 229.325 206.588,229.940 206.958,230.600 207.345 L 231.800 208.047 230.856 207.224 C 230.336 206.771,229.721 206.400,229.489 206.400 C 229.257 206.400,229.142 206.454,229.233 206.521 M198.000 207.425 C 197.230 207.716,196.894 207.965,197.254 207.977 C 197.614 207.990,198.514 207.737,199.254 207.416 C 200.920 206.692,199.916 206.700,198.000 207.425 M178.827 208.425 C 179.356 208.760,183.941 208.981,183.567 208.654 C 183.475 208.574,182.242 208.408,180.827 208.285 C 179.220 208.146,178.469 208.199,178.827 208.425 M191.800 208.400 L 190.600 208.705 191.800 208.725 C 192.460 208.735,193.360 208.589,193.800 208.400 L 194.600 208.056 193.800 208.075 C 193.360 208.086,192.460 208.232,191.800 208.400 M235.200 209.200 C 235.750 209.376,236.560 209.520,237.000 209.520 C 237.633 209.520,237.592 209.454,236.800 209.200 C 236.250 209.024,235.440 208.880,235.000 208.880 C 234.367 208.880,234.408 208.946,235.200 209.200 M243.400 209.200 L 242.200 209.505 243.400 209.513 C 244.060 209.517,245.050 209.376,245.600 209.200 L 246.600 208.880 245.600 208.887 C 245.050 208.891,244.060 209.032,243.400 209.200 M263.800 209.200 C 264.240 209.389,264.960 209.544,265.400 209.544 L 266.200 209.544 265.400 209.200 C 264.960 209.011,264.240 208.856,263.800 208.856 L 263.000 208.856 263.800 209.200 M272.200 209.200 C 271.181 209.638,272.232 209.638,273.600 209.200 C 274.404 208.943,274.443 208.877,273.800 208.868 C 273.360 208.862,272.640 209.011,272.200 209.200 M147.107 209.890 C 147.826 209.979,148.906 209.977,149.507 209.886 C 150.108 209.795,149.520 209.722,148.200 209.724 C 146.880 209.726,146.388 209.801,147.107 209.890 M238.900 209.887 C 239.505 209.978,240.495 209.978,241.100 209.887 C 241.705 209.795,241.210 209.720,240.000 209.720 C 238.790 209.720,238.295 209.795,238.900 209.887 M267.500 209.889 C 268.215 209.978,269.385 209.978,270.100 209.889 C 270.815 209.801,270.230 209.728,268.800 209.728 C 267.370 209.728,266.785 209.801,267.500 209.889 " stroke="none" fill="#006837" fill-rule="evenodd"></path><path id="path3" d="M16.714 16.331 C 14.666 17.301,13.270 18.696,12.366 20.678 C 11.130 23.387,11.166 381.143,12.402 383.515 C 13.477 385.576,14.518 386.640,16.399 387.600 C 17.961 388.397,18.732 388.400,198.178 388.400 L 378.388 388.400 380.294 387.221 C 381.448 386.508,382.634 385.317,383.300 384.205 L 384.400 382.367 384.400 202.168 C 384.400 22.732,384.397 21.961,383.600 20.399 C 382.640 18.518,381.576 17.477,379.515 16.402 C 377.246 15.220,19.209 15.149,16.714 16.331 M379.590 17.116 C 381.437 18.046,381.954 18.563,382.884 20.410 L 383.987 22.600 383.993 202.054 L 384.000 381.509 382.886 383.641 C 381.985 385.366,381.366 385.985,379.641 386.886 L 377.509 388.000 198.054 387.993 L 18.600 387.987 16.410 386.884 C 14.563 385.954,14.046 385.437,13.116 383.590 L 12.013 381.400 12.007 202.087 L 12.000 22.773 12.957 20.887 C 14.067 18.697,14.874 17.891,17.035 16.813 C 18.580 16.042,20.866 16.032,198.000 16.023 L 377.400 16.013 379.590 17.116 M288.984 158.500 C 288.879 158.775,288.839 170.250,288.896 184.000 L 289.000 209.000 291.800 209.026 L 294.600 209.052 291.894 208.909 L 289.188 208.765 289.294 183.382 C 289.352 169.422,289.349 158.000,289.287 158.000 C 289.226 158.000,289.089 158.225,288.984 158.500 M87.784 160.500 C 87.679 160.775,87.639 171.800,87.696 185.000 L 87.800 209.000 88.000 184.500 C 88.110 171.025,88.149 160.000,88.087 160.000 C 88.026 160.000,87.889 160.225,87.784 160.500 M113.190 160.263 C 113.416 160.375,113.600 161.438,113.600 162.626 L 113.600 164.786 103.933 164.893 C 95.741 164.984,94.241 165.092,94.103 165.600 C 93.984 166.036,94.034 166.066,94.289 165.707 C 94.545 165.346,97.191 165.186,104.219 165.107 L 113.800 165.000 113.800 162.633 C 113.800 161.036,113.634 160.233,113.290 160.163 C 113.010 160.107,112.965 160.151,113.190 160.263 M120.800 160.856 L 119.800 161.695 120.817 161.093 C 121.376 160.762,122.186 160.401,122.617 160.292 C 123.381 160.098,123.380 160.092,122.600 160.055 C 122.160 160.035,121.350 160.395,120.800 160.856 M124.546 160.602 C 126.005 161.363,126.375 161.368,125.376 160.613 C 124.949 160.290,124.330 160.021,124.000 160.015 C 123.670 160.010,123.916 160.274,124.546 160.602 M181.000 160.422 C 180.029 160.609,180.815 160.647,183.000 160.517 C 184.980 160.400,186.675 160.235,186.767 160.152 C 187.051 159.892,182.686 160.097,181.000 160.422 M192.033 160.144 C 192.125 160.224,193.550 160.385,195.200 160.503 C 196.958 160.628,197.703 160.588,197.000 160.406 C 195.787 160.091,191.725 159.878,192.033 160.144 M177.067 161.067 C 176.733 161.400,176.710 207.301,177.043 208.167 C 177.186 208.541,177.718 208.783,178.343 208.757 L 179.400 208.715 178.300 208.280 L 177.200 207.846 177.200 184.552 C 177.200 162.704,177.243 161.247,177.900 161.076 C 178.461 160.929,178.474 160.884,177.967 160.846 C 177.618 160.821,177.213 160.920,177.067 161.067 M199.400 161.211 C 202.304 162.006,202.675 162.045,201.400 161.422 C 200.740 161.100,199.750 160.846,199.200 160.859 C 198.280 160.880,198.296 160.908,199.400 161.211 M119.467 162.267 C 119.047 162.686,119.155 164.765,119.647 165.726 C 121.619 169.583,127.718 167.976,127.093 163.765 C 126.930 162.669,126.916 162.683,126.847 164.000 C 126.766 165.561,126.226 166.442,124.926 167.135 C 122.171 168.602,119.122 166.288,119.740 163.198 C 119.986 161.972,119.935 161.799,119.467 162.267 M205.481 163.314 C 206.846 164.021,208.467 165.057,209.084 165.616 C 209.700 166.175,210.473 166.772,210.802 166.944 C 211.131 167.116,210.657 166.564,209.748 165.717 C 208.840 164.870,207.096 163.687,205.874 163.089 C 202.773 161.570,202.462 161.749,205.481 163.314 M143.200 164.433 C 142.733 164.769,142.842 164.812,143.687 164.628 L 144.775 164.391 144.906 168.896 L 145.038 173.400 145.019 168.805 C 144.999 164.003,144.722 163.337,143.200 164.433 M184.905 165.087 C 185.514 165.179,186.414 165.177,186.905 165.082 C 187.397 164.987,186.900 164.911,185.800 164.914 C 184.700 164.917,184.297 164.995,184.905 165.087 M194.200 165.201 C 198.595 166.029,198.761 166.042,197.000 165.424 C 196.120 165.114,194.770 164.870,194.000 164.881 L 192.600 164.900 194.200 165.201 M139.279 165.705 C 138.803 166.278,138.438 174.027,138.900 173.739 C 139.065 173.637,139.200 171.862,139.200 169.796 C 139.200 166.641,139.312 165.975,139.900 165.632 C 140.285 165.408,140.397 165.219,140.149 165.212 C 139.901 165.205,139.509 165.427,139.279 165.705 M182.985 184.600 C 182.985 194.940,183.036 199.227,183.100 194.128 C 183.163 189.028,183.163 180.568,183.100 175.328 C 183.037 170.087,182.985 174.260,182.985 184.600 M202.089 167.741 C 202.909 168.245,203.944 168.987,204.389 169.390 C 204.835 169.794,205.200 169.961,205.199 169.762 C 205.198 169.339,201.568 166.794,200.992 166.812 C 200.776 166.819,201.270 167.237,202.089 167.741 M212.014 168.646 C 212.556 169.332,213.228 170.232,213.506 170.646 C 213.804 171.091,213.780 170.908,213.447 170.199 C 213.136 169.539,212.465 168.639,211.955 168.199 C 211.060 167.427,211.062 167.443,212.014 168.646 M206.837 172.000 C 207.996 173.796,208.000 173.801,207.998 173.367 C 207.997 173.165,207.532 172.460,206.965 171.800 L 205.934 170.600 206.837 172.000 M214.014 171.854 C 214.006 172.104,214.269 172.824,214.598 173.454 C 214.926 174.084,215.190 174.330,215.183 174.000 C 215.169 173.283,214.035 171.200,214.014 171.854 M237.907 173.090 C 238.626 173.179,239.706 173.177,240.307 173.086 C 240.908 172.995,240.320 172.922,239.000 172.924 C 237.680 172.926,237.188 173.001,237.907 173.090 M271.300 173.087 C 271.905 173.178,272.895 173.178,273.500 173.087 C 274.105 172.995,273.610 172.920,272.400 172.920 C 271.190 172.920,270.695 172.995,271.300 173.087 M234.600 173.600 L 233.800 173.944 234.600 173.966 C 235.040 173.978,235.670 173.813,236.000 173.600 C 236.795 173.086,235.796 173.086,234.600 173.600 M242.200 173.600 C 242.640 173.789,243.270 173.944,243.600 173.944 C 243.978 173.944,243.904 173.817,243.400 173.600 C 242.960 173.411,242.330 173.256,242.000 173.256 C 241.622 173.256,241.696 173.383,242.200 173.600 M267.800 173.600 L 267.000 173.944 267.800 173.966 C 268.240 173.978,268.870 173.813,269.200 173.600 C 269.995 173.086,268.996 173.086,267.800 173.600 M275.600 173.600 C 277.142 174.094,277.964 174.094,277.200 173.600 C 276.870 173.387,276.150 173.227,275.600 173.246 L 274.600 173.280 275.600 173.600 M125.908 191.402 L 126.017 208.765 123.108 208.913 L 120.200 209.061 123.200 209.030 L 126.200 209.000 126.304 191.824 C 126.362 182.378,126.272 174.512,126.104 174.344 C 125.937 174.177,125.849 181.853,125.908 191.402 M133.467 174.267 C 133.133 174.600,133.117 177.317,133.443 178.167 C 133.921 179.413,134.200 178.761,134.200 176.400 C 134.200 174.103,134.054 173.679,133.467 174.267 M208.013 174.220 C 208.006 174.451,208.163 174.811,208.361 175.020 C 208.560 175.229,208.809 175.760,208.915 176.200 C 209.103 176.980,209.108 176.980,209.154 176.176 C 209.179 175.724,208.936 175.004,208.613 174.576 C 208.290 174.149,208.020 173.989,208.013 174.220 M231.577 174.729 C 230.221 175.618,227.634 177.768,228.400 177.369 C 228.730 177.197,229.541 176.651,230.203 176.155 C 230.864 175.659,231.944 174.973,232.603 174.629 C 233.261 174.286,233.530 174.017,233.200 174.032 C 232.870 174.046,232.140 174.360,231.577 174.729 M263.944 175.500 C 262.925 176.325,261.864 177.360,261.587 177.800 C 261.309 178.240,261.973 177.790,263.063 176.800 C 264.152 175.810,265.394 174.786,265.822 174.524 C 266.250 174.261,266.419 174.036,266.198 174.024 C 265.977 174.011,264.963 174.675,263.944 175.500 M279.335 174.647 C 280.268 175.153,280.431 175.453,280.246 176.331 C 280.022 177.397,280.022 177.398,280.494 176.451 C 280.979 175.476,279.846 173.974,278.656 174.016 C 278.405 174.025,278.711 174.309,279.335 174.647 M307.048 175.767 C 306.252 176.739,305.600 177.656,305.600 177.805 C 305.600 177.954,306.251 177.294,307.048 176.338 C 307.844 175.382,308.699 174.468,308.948 174.306 C 309.283 174.088,309.283 174.011,308.948 174.006 C 308.700 174.003,307.845 174.795,307.048 175.767 M315.129 174.275 C 315.523 174.432,315.421 174.756,314.729 175.543 L 313.800 176.600 314.900 175.630 C 316.167 174.513,316.299 173.987,315.300 174.032 C 314.836 174.053,314.778 174.134,315.129 174.275 M215.212 175.200 C 215.212 175.530,215.387 176.070,215.600 176.400 C 215.945 176.933,215.988 176.933,215.988 176.400 C 215.988 176.070,215.813 175.530,215.600 175.200 C 215.255 174.667,215.212 174.667,215.212 175.200 M247.943 176.465 C 248.682 177.269,249.711 178.619,250.231 179.464 C 250.750 180.309,251.181 180.861,251.188 180.692 C 251.212 180.078,249.259 177.372,247.945 176.201 L 246.600 175.002 247.943 176.465 M209.246 177.800 C 209.315 179.431,209.915 180.787,209.954 179.400 C 209.973 178.740,209.813 177.930,209.600 177.600 C 209.281 177.106,209.218 177.141,209.246 177.800 M236.696 177.535 C 236.309 177.688,237.061 177.813,238.369 177.813 C 239.676 177.813,240.533 177.678,240.273 177.513 C 239.693 177.144,237.651 177.157,236.696 177.535 M271.505 177.883 C 272.002 177.979,272.722 177.975,273.105 177.875 C 273.487 177.775,273.080 177.696,272.200 177.701 C 271.320 177.705,271.007 177.787,271.505 177.883 M312.000 178.400 C 311.493 178.840,311.257 179.200,311.477 179.200 C 311.696 179.200,312.202 178.840,312.600 178.400 C 312.998 177.960,313.234 177.600,313.123 177.600 C 313.013 177.600,312.507 177.960,312.000 178.400 M226.801 178.998 C 226.286 179.548,225.952 180.085,226.060 180.194 C 226.168 180.302,226.654 179.852,227.140 179.195 C 228.217 177.739,228.066 177.652,226.801 178.998 M233.949 178.665 C 233.447 179.274,233.485 179.287,234.400 178.811 C 235.741 178.114,235.842 178.000,235.116 178.000 C 234.776 178.000,234.251 178.299,233.949 178.665 M242.636 178.757 C 243.316 179.171,244.365 180.115,244.968 180.855 C 245.571 181.595,245.877 181.820,245.648 181.355 C 245.130 180.305,242.543 177.999,241.886 178.001 C 241.619 178.002,241.956 178.342,242.636 178.757 M267.491 179.229 C 266.671 179.905,266.001 180.760,266.003 181.129 C 266.004 181.591,266.240 181.445,266.759 180.657 C 267.174 180.028,268.028 179.174,268.657 178.759 C 269.285 178.345,269.616 178.004,269.391 178.003 C 269.166 178.001,268.311 178.553,267.491 179.229 M279.511 178.468 C 279.414 178.758,278.824 178.955,278.169 178.916 C 277.026 178.848,277.021 178.855,277.972 179.237 C 278.930 179.622,280.504 178.771,279.918 178.185 C 279.789 178.056,279.606 178.183,279.511 178.468 M304.034 179.353 L 303.069 180.600 304.213 179.512 C 304.843 178.914,305.277 178.353,305.179 178.265 C 305.080 178.177,304.565 178.667,304.034 179.353 M216.110 183.400 C 216.109 188.407,216.123 188.499,216.505 185.866 C 216.767 184.061,216.768 182.292,216.507 180.666 C 216.140 178.378,216.111 178.575,216.110 183.400 M138.094 179.051 C 138.729 179.239,138.798 180.254,138.903 190.928 L 139.018 202.600 139.009 190.805 C 139.000 179.308,138.980 179.009,138.200 178.928 C 137.589 178.865,137.564 178.895,138.094 179.051 M144.981 179.307 C 144.874 179.585,144.835 184.490,144.894 190.207 L 145.001 200.600 145.201 189.700 C 145.310 183.705,145.349 178.800,145.287 178.800 C 145.226 178.800,145.087 179.028,144.981 179.307 M260.477 180.138 C 260.215 180.864,260.009 181.714,260.019 182.028 C 260.030 182.343,260.312 181.818,260.647 180.861 C 260.982 179.905,261.188 179.055,261.105 178.971 C 261.022 178.888,260.739 179.413,260.477 180.138 M232.600 179.906 C 232.380 180.068,231.935 180.560,231.612 181.000 C 231.178 181.591,231.309 181.546,232.112 180.830 C 233.091 179.958,233.389 179.588,233.100 179.606 C 233.045 179.609,232.820 179.744,232.600 179.906 M308.984 181.700 C 307.891 182.855,306.104 184.745,305.013 185.900 C 303.922 187.055,303.136 188.000,303.266 188.000 C 303.395 188.000,305.252 186.110,307.391 183.800 C 309.530 181.490,311.211 179.600,311.126 179.600 C 311.042 179.600,310.078 180.545,308.984 181.700 M94.032 181.292 C 94.003 181.926,94.755 181.994,102.900 182.092 L 111.800 182.200 111.920 184.500 L 112.040 186.800 103.244 186.800 C 98.406 186.800,94.363 186.935,94.261 187.100 C 94.159 187.265,98.153 187.310,103.138 187.200 L 112.200 187.000 112.322 184.868 C 112.513 181.524,112.731 181.600,102.984 181.600 C 96.544 181.600,94.417 181.478,94.265 181.100 C 94.143 180.798,94.051 180.875,94.032 181.292 M224.776 182.657 C 224.338 183.678,224.049 184.582,224.133 184.666 C 224.217 184.750,224.661 183.915,225.121 182.809 C 225.580 181.704,225.869 180.800,225.764 180.800 C 225.658 180.800,225.213 181.635,224.776 182.657 M300.740 183.298 C 299.563 184.672,298.285 186.146,297.900 186.573 C 297.515 187.001,297.200 187.501,297.200 187.684 C 297.200 187.867,296.750 188.222,296.200 188.473 C 295.650 188.723,295.200 189.080,295.200 189.264 C 295.200 190.148,296.153 189.327,298.641 186.300 C 300.132 184.485,301.454 182.910,301.576 182.800 C 302.189 182.252,303.296 180.800,303.102 180.800 C 302.979 180.800,301.916 181.924,300.740 183.298 M246.236 183.400 C 246.372 183.840,246.622 185.100,246.792 186.200 C 247.094 188.158,247.101 188.166,247.132 186.600 C 247.150 185.720,246.899 184.460,246.576 183.800 C 246.253 183.140,246.099 182.960,246.236 183.400 M252.056 184.000 C 252.056 184.330,252.211 184.960,252.400 185.400 C 252.617 185.904,252.744 185.978,252.744 185.600 C 252.744 185.270,252.589 184.640,252.400 184.200 C 252.183 183.696,252.056 183.622,252.056 184.000 M266.000 184.058 C 266.000 184.384,266.570 185.179,267.266 185.825 L 268.533 187.000 267.382 185.400 C 266.750 184.520,266.180 183.725,266.116 183.633 C 266.052 183.542,266.000 183.733,266.000 184.058 M260.028 184.716 C 259.985 186.134,261.371 188.500,263.229 190.179 C 264.775 191.575,269.868 194.265,270.248 193.886 C 270.337 193.797,269.192 193.208,267.705 192.577 C 264.231 191.104,261.480 188.438,260.653 185.744 C 260.295 184.578,260.045 184.166,260.028 184.716 M229.473 184.953 C 229.323 185.345,229.211 185.966,229.225 186.333 C 229.242 186.775,229.381 186.674,229.637 186.034 C 229.849 185.503,229.961 184.882,229.885 184.654 C 229.809 184.427,229.624 184.561,229.473 184.953 M223.488 186.133 C 223.330 186.536,223.211 187.256,223.225 187.733 C 223.249 188.556,223.271 188.550,223.640 187.625 C 223.854 187.089,223.973 186.369,223.903 186.025 C 223.799 185.511,223.725 185.530,223.488 186.133 M209.454 187.954 C 209.300 188.918,209.258 189.791,209.361 189.894 C 209.630 190.163,210.115 187.345,209.907 186.722 C 209.812 186.436,209.608 186.990,209.454 187.954 M252.878 189.100 L 252.800 192.000 241.224 192.000 C 233.937 192.000,229.556 192.148,229.400 192.400 C 228.971 193.094,252.193 192.931,252.770 192.236 C 253.061 191.885,253.185 190.638,253.097 188.936 L 252.957 186.200 252.878 189.100 M304.016 190.163 C 304.768 191.209,305.556 192.173,305.767 192.303 C 305.978 192.433,305.535 191.684,304.784 190.637 C 304.032 189.591,303.244 188.627,303.033 188.497 C 302.822 188.367,303.265 189.116,304.016 190.163 M222.924 191.800 C 222.926 193.120,223.001 193.612,223.090 192.893 C 223.179 192.174,223.177 191.094,223.086 190.493 C 222.995 189.892,222.922 190.480,222.924 191.800 M215.400 190.800 C 215.250 191.273,215.217 191.750,215.327 191.860 C 215.437 191.970,215.650 191.673,215.800 191.200 C 215.950 190.727,215.983 190.250,215.873 190.140 C 215.763 190.030,215.550 190.327,215.400 190.800 M276.000 190.111 C 276.000 190.187,276.585 190.678,277.300 191.201 C 278.104 191.790,278.384 191.887,278.033 191.455 C 277.500 190.799,276.000 189.807,276.000 190.111 M208.715 191.410 C 208.592 191.845,208.369 192.560,208.220 193.000 C 208.071 193.440,208.242 193.294,208.600 192.676 C 208.958 192.058,209.181 191.342,209.095 191.086 C 209.010 190.830,208.839 190.976,208.715 191.410 M296.647 194.001 C 295.851 194.882,295.201 195.827,295.201 196.101 C 295.202 196.376,295.537 196.060,295.944 195.400 C 297.277 193.242,298.378 192.482,298.980 193.305 C 299.260 193.687,299.631 194.000,299.806 194.000 C 299.981 194.000,299.798 193.640,299.400 193.200 C 298.426 192.124,298.312 192.157,296.647 194.001 M214.444 194.044 C 214.152 194.705,213.998 195.331,214.102 195.436 C 214.207 195.540,214.521 195.074,214.800 194.400 C 215.462 192.801,215.138 192.477,214.444 194.044 M307.648 195.100 C 310.708 199.305,313.709 203.200,313.890 203.200 C 314.088 203.200,312.213 200.573,308.679 195.900 C 305.964 192.310,305.170 191.694,307.648 195.100 M300.800 195.600 C 301.270 196.260,301.744 196.800,301.854 196.800 C 301.964 196.800,301.670 196.260,301.200 195.600 C 300.730 194.940,300.256 194.400,300.146 194.400 C 300.036 194.400,300.330 194.940,300.800 195.600 M272.876 195.219 C 273.248 195.436,274.103 196.281,274.776 197.098 C 275.449 197.914,276.000 198.391,276.000 198.158 C 276.000 197.594,273.186 194.797,272.633 194.812 C 272.395 194.819,272.504 195.002,272.876 195.219 M205.743 197.145 C 205.114 198.021,203.582 199.427,202.338 200.269 C 200.057 201.813,199.360 202.675,201.465 201.349 C 203.961 199.777,207.550 196.217,207.096 195.763 C 206.981 195.647,206.372 196.269,205.743 197.145 M223.256 196.200 C 223.256 196.640,223.411 197.360,223.600 197.800 L 223.944 198.600 223.944 197.800 C 223.944 197.360,223.789 196.640,223.600 196.200 L 223.256 195.400 223.256 196.200 M229.234 196.200 C 229.222 196.640,229.387 197.270,229.600 197.600 C 230.114 198.395,230.114 197.396,229.600 196.200 L 229.256 195.400 229.234 196.200 M281.234 196.000 C 281.246 196.330,281.411 196.960,281.600 197.400 L 281.944 198.200 281.966 197.400 C 281.978 196.960,281.813 196.330,281.600 196.000 C 281.255 195.467,281.215 195.467,281.234 196.000 M211.640 199.252 C 210.892 200.340,209.753 201.673,209.109 202.215 C 208.465 202.757,208.103 203.200,208.304 203.200 C 209.067 203.200,213.573 197.834,213.154 197.424 C 213.069 197.342,212.388 198.164,211.640 199.252 M303.612 199.522 C 304.566 200.908,305.536 202.160,305.767 202.303 C 306.241 202.596,303.392 198.529,302.472 197.600 C 302.145 197.270,302.658 198.135,303.612 199.522 M230.000 198.884 C 230.000 199.224,230.299 199.749,230.665 200.051 C 231.274 200.553,231.287 200.515,230.811 199.600 C 230.114 198.259,230.000 198.158,230.000 198.884 M224.028 199.400 C 224.028 199.620,224.286 200.250,224.600 200.800 C 224.914 201.350,225.172 201.620,225.172 201.400 C 225.172 201.180,224.914 200.550,224.600 200.000 C 224.286 199.450,224.028 199.180,224.028 199.400 M232.686 202.416 C 233.614 203.376,234.452 204.080,234.548 203.980 C 234.645 203.881,233.886 203.096,232.862 202.236 L 231.000 200.672 232.686 202.416 M145.200 201.353 C 145.200 201.782,146.390 204.000,146.621 204.000 C 146.731 204.000,146.523 203.415,146.159 202.700 C 145.417 201.240,145.200 200.936,145.200 201.353 M275.127 202.600 C 274.877 203.150,274.555 203.600,274.412 203.600 C 274.270 203.600,273.804 203.879,273.376 204.219 C 272.670 204.783,272.711 204.785,273.822 204.249 C 274.839 203.759,276.437 201.600,275.783 201.600 C 275.673 201.600,275.378 202.050,275.127 202.600 M197.600 202.625 C 196.709 202.962,196.491 203.158,197.000 203.163 C 197.440 203.168,198.250 202.914,198.800 202.600 C 200.022 201.901,199.483 201.913,197.600 202.625 M306.800 204.000 C 307.270 204.660,307.744 205.200,307.854 205.200 C 307.964 205.200,307.670 204.660,307.200 204.000 C 306.730 203.340,306.256 202.800,306.146 202.800 C 306.036 202.800,306.330 203.340,306.800 204.000 M139.212 203.600 C 139.212 203.930,139.387 204.470,139.600 204.800 C 139.945 205.333,139.988 205.333,139.988 204.800 C 139.988 204.470,139.813 203.930,139.600 203.600 C 139.255 203.067,139.212 203.067,139.212 203.600 M193.400 203.600 L 192.200 203.905 193.400 203.925 C 194.060 203.935,194.960 203.789,195.400 203.600 L 196.200 203.256 195.400 203.275 C 194.960 203.286,194.060 203.432,193.400 203.600 M226.689 204.200 C 227.513 205.399,229.200 207.098,229.200 206.729 C 229.200 206.621,228.449 205.738,227.532 204.767 C 226.460 203.631,226.158 203.429,226.689 204.200 M260.184 203.627 C 260.039 203.861,260.028 204.161,260.160 204.293 C 260.292 204.425,260.400 204.302,260.400 204.020 C 260.400 203.690,260.752 203.574,261.388 203.696 C 261.931 203.799,262.281 203.730,262.164 203.542 C 261.865 203.058,260.499 203.117,260.184 203.627 M205.684 204.666 C 204.740 205.235,204.046 205.780,204.143 205.876 C 204.240 205.973,205.192 205.504,206.259 204.834 C 208.613 203.356,208.103 203.208,205.684 204.666 M315.370 205.499 C 316.197 206.654,317.037 207.699,317.237 207.823 C 318.405 208.545,317.280 208.844,313.837 208.727 C 311.767 208.657,310.158 208.735,310.261 208.900 C 310.546 209.358,317.516 209.259,317.805 208.792 C 318.062 208.375,315.750 204.950,314.537 203.953 C 314.168 203.649,314.542 204.345,315.370 205.499 M246.600 204.400 C 246.096 204.617,246.022 204.744,246.400 204.744 C 246.730 204.744,247.360 204.589,247.800 204.400 C 248.304 204.183,248.378 204.056,248.000 204.056 C 247.670 204.056,247.040 204.211,246.600 204.400 M152.477 204.900 C 152.947 205.274,153.829 208.770,153.462 208.806 C 152.450 208.904,150.414 209.969,151.211 209.982 C 153.533 210.023,154.940 205.967,153.042 204.706 C 152.290 204.206,151.810 204.371,152.477 204.900 M250.012 204.800 C 250.012 205.130,250.187 205.670,250.400 206.000 C 250.745 206.533,250.788 206.533,250.788 206.000 C 250.788 205.670,250.613 205.130,250.400 204.800 C 250.055 204.267,250.012 204.267,250.012 204.800 M243.505 205.083 C 244.002 205.179,244.722 205.175,245.105 205.075 C 245.487 204.975,245.080 204.896,244.200 204.901 C 243.320 204.905,243.007 204.987,243.505 205.083 M278.792 206.353 C 278.017 207.149,277.027 208.028,276.592 208.306 C 276.156 208.584,276.340 208.554,277.000 208.240 C 278.208 207.664,281.284 204.754,280.578 204.853 C 280.370 204.883,279.566 205.558,278.792 206.353 M140.000 205.873 C 140.000 206.936,144.234 210.007,145.684 209.996 C 145.968 209.994,145.293 209.570,144.184 209.053 C 143.075 208.537,141.680 207.535,141.084 206.826 C 140.488 206.118,140.000 205.689,140.000 205.873 M308.800 206.800 C 309.270 207.460,309.744 208.000,309.854 208.000 C 309.964 208.000,309.670 207.460,309.200 206.800 C 308.730 206.140,308.256 205.600,308.146 205.600 C 308.036 205.600,308.330 206.140,308.800 206.800 M193.800 208.400 C 192.736 208.857,194.403 208.857,196.200 208.400 L 197.400 208.095 196.000 208.075 C 195.230 208.065,194.240 208.211,193.800 208.400 M89.491 209.089 C 90.201 209.177,91.461 209.179,92.291 209.092 C 93.121 209.005,92.540 208.933,91.000 208.931 C 89.460 208.929,88.781 209.000,89.491 209.089 M184.915 209.096 C 186.188 209.176,188.168 209.175,189.315 209.094 C 190.462 209.014,189.420 208.949,187.000 208.950 C 184.580 208.951,183.642 209.016,184.915 209.096 M246.341 208.993 C 246.235 209.099,245.170 209.348,243.974 209.546 C 242.263 209.830,242.098 209.913,243.200 209.936 C 243.970 209.952,245.500 209.715,246.600 209.409 C 247.951 209.034,248.265 208.845,247.567 208.827 C 246.998 208.812,246.447 208.887,246.341 208.993 M263.000 209.412 C 263.880 209.729,265.050 209.979,265.600 209.967 C 266.230 209.954,265.859 209.740,264.600 209.391 C 261.981 208.664,260.961 208.677,263.000 209.412 M235.200 209.579 C 235.530 209.804,236.325 209.991,236.967 209.994 C 238.504 210.002,238.184 209.770,236.200 209.438 C 235.054 209.246,234.770 209.286,235.200 209.579 M272.000 209.600 L 271.000 209.920 272.000 209.954 C 272.550 209.973,273.270 209.813,273.600 209.600 C 274.364 209.106,273.542 209.106,272.000 209.600 " stroke="none" fill="#3f8d69" fill-rule="evenodd"></path><path id="path4" d="M17.035 16.813 C 14.874 17.891,14.067 18.697,12.957 20.887 L 12.000 22.773 12.007 202.087 L 12.013 381.400 13.116 383.590 C 14.046 385.437,14.563 385.954,16.410 386.884 L 18.600 387.987 198.054 387.993 L 377.509 388.000 379.641 386.886 C 381.366 385.985,381.985 385.366,382.886 383.641 L 384.000 381.509 383.993 202.054 L 383.987 22.600 382.884 20.410 C 381.954 18.563,381.437 18.046,379.590 17.116 L 377.400 16.013 198.000 16.023 C 20.866 16.032,18.580 16.042,17.035 16.813 M378.421 17.098 C 380.893 17.961,382.438 19.817,383.109 22.731 C 383.842 25.910,383.790 378.946,383.056 381.728 C 382.248 384.793,380.257 386.553,376.913 387.156 C 373.732 387.730,20.426 387.590,18.006 387.014 C 15.976 386.530,13.611 384.111,13.075 381.968 C 12.552 379.878,12.463 24.809,12.985 22.239 C 13.425 20.070,16.030 17.528,18.400 16.954 C 21.177 16.281,376.491 16.423,378.421 17.098 M289.060 157.900 C 288.958 158.065,290.297 158.141,292.037 158.070 L 295.200 157.939 295.200 173.370 C 295.200 183.390,295.340 188.800,295.600 188.800 C 296.002 188.800,296.884 187.976,298.000 186.558 C 298.804 185.536,304.943 178.253,305.214 178.000 C 305.331 177.890,306.118 176.945,306.962 175.900 L 308.496 174.000 312.248 174.000 C 316.689 174.000,316.649 173.903,313.561 177.200 C 312.222 178.630,309.325 181.732,307.124 184.094 L 303.123 188.387 304.661 190.490 C 307.567 194.461,313.644 202.602,315.721 205.307 C 316.865 206.796,317.775 208.281,317.744 208.607 C 317.714 208.933,317.849 209.200,318.044 209.200 C 318.718 209.200,318.398 207.790,317.500 206.796 C 317.005 206.248,315.801 204.720,314.824 203.400 C 313.846 202.080,312.901 200.940,312.724 200.867 C 312.546 200.793,312.400 200.521,312.400 200.263 C 312.400 200.004,311.995 199.344,311.500 198.796 C 311.005 198.248,309.801 196.720,308.824 195.400 C 307.846 194.080,306.901 192.940,306.724 192.867 C 306.546 192.793,306.400 192.521,306.400 192.263 C 306.400 192.004,305.950 191.307,305.400 190.713 C 304.850 190.120,304.400 189.462,304.400 189.251 C 304.400 189.040,304.202 188.801,303.959 188.720 C 303.716 188.639,304.301 187.760,305.259 186.766 C 306.217 185.772,308.155 183.709,309.568 182.180 C 310.980 180.651,313.116 178.371,314.315 177.113 C 317.318 173.964,317.091 173.600,312.125 173.600 C 307.716 173.600,308.093 173.370,304.268 178.390 C 303.351 179.594,302.060 181.124,301.400 181.790 C 300.740 182.455,299.725 183.630,299.145 184.400 C 297.663 186.368,296.549 187.600,296.253 187.600 C 296.114 187.600,296.000 180.959,296.000 172.843 C 296.000 159.755,295.928 158.058,295.367 157.843 C 294.462 157.495,289.283 157.542,289.060 157.900 M87.500 160.029 C 86.715 160.490,86.401 207.550,87.174 208.772 C 87.578 209.411,91.725 209.856,93.385 209.439 L 94.400 209.185 94.400 198.400 L 94.400 187.616 103.000 187.496 L 111.600 187.376 102.900 187.388 L 94.200 187.400 94.000 198.200 L 93.800 209.000 91.621 209.124 C 90.423 209.192,89.027 209.143,88.518 209.015 L 87.594 208.783 87.697 184.492 L 87.800 160.200 100.800 160.200 L 113.800 160.200 113.800 162.600 L 113.800 165.000 104.219 165.107 C 97.166 165.187,94.555 165.345,94.325 165.707 C 93.959 166.284,93.885 180.035,94.243 180.967 C 94.454 181.517,95.604 181.600,102.994 181.600 C 112.791 181.600,112.554 181.514,112.338 184.987 C 112.253 186.344,112.355 187.150,112.600 187.069 C 112.820 186.996,113.054 185.907,113.121 184.649 C 113.319 180.888,113.163 180.829,102.900 180.813 L 94.400 180.800 94.400 173.400 L 94.400 166.000 103.951 166.000 C 114.980 166.000,114.501 166.169,114.320 162.335 L 114.200 159.800 101.200 159.709 C 92.862 159.651,87.949 159.766,87.500 160.029 M120.076 160.847 C 116.091 164.744,121.705 170.953,125.969 167.364 C 126.646 166.795,127.196 166.120,127.191 165.864 C 127.186 165.609,126.871 165.784,126.491 166.253 C 124.462 168.758,121.063 168.496,119.647 165.726 C 117.332 161.200,123.618 157.781,126.518 161.989 C 126.968 162.642,127.200 162.769,127.200 162.364 C 127.200 159.711,122.304 158.669,120.076 160.847 M179.400 159.875 C 178.740 159.977,178.020 160.243,177.800 160.465 C 177.531 160.736,178.187 160.759,179.800 160.534 C 182.899 160.103,195.720 160.101,197.800 160.531 C 199.127 160.806,199.311 160.772,198.881 160.331 C 198.361 159.799,182.299 159.423,179.400 159.875 M176.267 161.067 C 175.748 161.585,175.957 208.197,176.480 208.720 C 176.784 209.024,178.065 209.171,179.980 209.121 L 183.000 209.041 180.103 208.903 C 176.419 208.728,176.755 211.337,176.888 183.900 C 176.950 171.195,176.895 160.800,176.767 160.800 C 176.638 160.800,176.413 160.920,176.267 161.067 M200.433 160.946 C 200.817 161.283,205.369 162.764,205.529 162.604 C 205.625 162.508,205.185 162.224,204.552 161.972 C 203.918 161.720,203.087 161.353,202.705 161.157 C 202.047 160.819,200.080 160.636,200.433 160.946 M206.000 162.990 C 206.000 163.094,206.585 163.474,207.300 163.834 C 208.015 164.195,209.635 165.591,210.900 166.937 C 212.165 168.284,213.200 169.187,213.200 168.945 C 213.200 168.315,208.929 164.095,207.989 163.796 C 207.555 163.659,207.200 163.378,207.200 163.173 C 207.200 162.968,206.930 162.800,206.600 162.800 C 206.270 162.800,206.000 162.885,206.000 162.990 M142.200 164.220 L 141.000 164.803 142.200 164.569 C 142.860 164.440,143.788 164.304,144.262 164.267 C 144.736 164.230,145.040 164.065,144.938 163.900 C 144.655 163.441,143.530 163.573,142.200 164.220 M138.496 165.595 C 138.197 166.074,138.000 167.819,138.000 169.995 L 138.000 173.600 135.900 173.606 C 132.963 173.615,132.734 173.844,132.878 176.637 L 133.000 179.000 135.400 179.200 L 137.800 179.400 138.000 190.067 C 138.264 204.134,138.800 204.299,138.800 190.313 L 138.800 179.293 137.900 179.052 C 137.405 178.919,136.238 178.808,135.308 178.805 C 133.418 178.799,133.021 178.166,133.271 175.555 L 133.400 174.200 136.000 174.000 L 138.600 173.800 138.800 169.810 C 138.989 166.048,139.057 165.792,140.000 165.316 L 141.000 164.812 139.996 164.806 C 139.423 164.803,138.780 165.141,138.496 165.595 M188.691 165.089 C 189.401 165.177,190.661 165.179,191.491 165.092 C 192.321 165.005,191.740 164.933,190.200 164.931 C 188.660 164.929,187.981 165.000,188.691 165.089 M145.285 169.500 L 145.200 174.000 149.600 174.000 L 154.000 174.000 154.000 176.386 L 154.000 178.773 149.700 178.886 L 145.400 179.000 145.289 189.800 C 145.147 203.639,145.777 205.290,150.974 204.704 C 153.232 204.450,153.443 204.620,153.694 206.911 C 153.988 209.585,153.301 210.001,148.611 209.995 C 143.347 209.988,141.083 208.601,139.517 204.422 C 139.114 203.349,138.826 202.945,138.817 203.439 C 138.737 207.434,142.936 210.400,148.673 210.400 C 153.680 210.400,154.400 209.999,154.400 207.210 C 154.400 204.089,154.307 204.000,151.034 204.000 C 145.828 204.000,145.614 203.429,145.606 189.500 L 145.600 179.200 150.018 179.200 L 154.437 179.200 154.318 176.500 L 154.200 173.800 149.913 173.687 L 145.627 173.573 145.498 169.287 L 145.370 165.000 145.285 169.500 M183.467 165.467 C 183.320 165.613,183.200 174.231,183.200 184.617 L 183.200 203.500 184.450 203.750 C 186.541 204.168,191.659 203.997,194.200 203.424 L 196.600 202.882 194.524 202.841 C 193.382 202.818,192.336 202.980,192.200 203.200 C 191.846 203.773,185.963 203.695,184.683 203.100 L 183.606 202.600 183.603 184.318 L 183.600 166.036 185.100 165.785 C 187.440 165.394,187.548 165.266,185.567 165.232 C 184.558 165.214,183.613 165.320,183.467 165.467 M194.400 165.668 C 195.170 165.881,196.340 166.145,197.000 166.255 C 201.706 167.038,206.390 170.913,208.003 175.355 C 208.234 175.991,208.537 176.396,208.677 176.256 C 209.110 175.824,206.728 171.569,205.250 170.133 C 203.290 168.229,200.244 166.591,197.268 165.839 C 194.520 165.146,191.952 164.992,194.400 165.668 M214.066 171.362 C 214.553 172.363,215.030 173.103,215.128 173.006 C 215.366 172.767,214.082 170.098,213.580 169.788 C 213.361 169.652,213.580 170.361,214.066 171.362 M232.900 173.524 C 232.185 173.865,231.600 174.303,231.600 174.496 C 231.600 174.689,231.825 174.702,232.100 174.524 C 232.375 174.346,233.590 173.900,234.800 173.533 C 236.781 172.932,236.860 172.867,235.600 172.885 C 234.830 172.895,233.615 173.183,232.900 173.524 M242.950 173.455 C 247.850 174.959,250.917 178.461,252.536 184.400 C 253.038 186.242,253.141 186.392,253.168 185.324 C 253.185 184.622,253.020 183.936,252.800 183.800 C 252.580 183.664,252.400 183.128,252.400 182.609 C 252.400 181.649,251.246 179.110,250.700 178.867 C 250.535 178.793,250.400 178.515,250.400 178.248 C 250.400 177.651,247.532 174.800,246.932 174.800 C 246.693 174.800,246.274 174.530,246.000 174.200 C 245.726 173.870,245.164 173.600,244.751 173.600 C 244.338 173.600,244.000 173.420,244.000 173.200 C 244.000 172.980,243.325 172.813,242.500 172.828 L 241.000 172.856 242.950 173.455 M265.600 173.839 C 263.421 175.025,261.206 177.283,260.282 179.260 C 259.251 181.469,259.377 187.200,260.457 187.200 C 260.670 187.200,260.652 186.871,260.414 186.426 C 258.072 182.050,262.205 175.111,268.097 173.527 C 270.453 172.893,270.506 172.854,269.000 172.857 C 268.064 172.858,266.653 173.266,265.600 173.839 M275.000 173.060 C 280.018 174.109,281.086 174.912,280.349 177.081 C 279.622 179.222,279.220 179.658,278.244 179.366 C 277.459 179.132,277.445 179.161,278.053 179.796 C 279.016 180.801,280.400 179.969,280.400 178.386 C 280.400 177.734,280.580 177.200,280.800 177.200 C 281.020 177.200,281.200 176.726,281.200 176.147 C 281.200 174.983,279.876 173.600,278.762 173.600 C 278.369 173.600,277.936 173.420,277.800 173.200 C 277.664 172.980,276.798 172.821,275.876 172.846 C 274.954 172.872,274.560 172.968,275.000 173.060 M119.867 173.867 C 119.720 174.013,119.600 182.004,119.600 191.624 C 119.600 211.478,119.218 209.647,123.333 209.529 L 125.800 209.459 123.000 209.229 L 120.200 209.000 120.096 191.483 L 119.992 173.966 123.096 174.083 L 126.200 174.200 126.200 191.700 C 126.200 203.189,126.337 209.154,126.600 209.067 C 127.198 208.867,127.350 174.862,126.755 174.146 C 126.282 173.576,120.397 173.337,119.867 173.867 M215.409 174.400 C 216.976 180.327,216.975 185.036,215.405 192.600 L 215.156 193.800 215.764 192.800 C 216.098 192.250,216.378 191.071,216.386 190.180 C 216.394 189.289,216.592 188.368,216.826 188.134 C 217.717 187.243,216.767 175.952,215.653 174.200 C 215.178 173.452,215.162 173.466,215.409 174.400 M229.757 175.315 C 229.514 175.582,228.884 176.179,228.357 176.643 C 226.276 178.476,223.600 183.039,223.600 184.754 C 223.600 185.193,223.420 185.664,223.200 185.800 C 222.980 185.936,222.824 186.892,222.853 187.924 L 222.907 189.800 223.191 188.000 C 223.972 183.048,226.378 178.727,229.929 175.900 C 230.688 175.295,231.060 174.807,230.755 174.815 C 230.450 174.824,230.001 175.049,229.757 175.315 M209.061 178.600 C 209.789 184.252,208.549 194.000,207.102 194.000 C 206.936 194.000,206.800 194.328,206.800 194.729 C 206.800 195.479,202.669 200.000,201.983 200.000 C 201.772 200.000,201.600 200.192,201.600 200.426 C 201.600 201.150,204.529 198.786,205.916 196.941 C 209.341 192.386,210.867 184.410,209.385 178.800 L 208.804 176.600 209.061 178.600 M236.400 177.981 C 235.673 178.228,236.252 178.331,238.519 178.360 L 241.638 178.400 243.562 180.324 C 245.120 181.882,245.540 182.604,245.766 184.115 C 246.020 185.804,246.809 187.193,246.794 185.924 C 246.735 180.812,240.991 176.423,236.400 177.981 M268.563 178.806 C 266.988 179.815,265.804 181.969,266.126 183.240 C 266.413 184.376,268.614 187.105,268.966 186.761 C 269.101 186.630,268.578 185.852,267.805 185.033 C 264.937 181.992,267.413 178.400,272.376 178.400 C 273.903 178.400,275.264 178.580,275.400 178.800 C 275.536 179.020,276.042 179.193,276.524 179.184 C 277.223 179.172,277.129 179.051,276.054 178.584 C 274.055 177.717,270.080 177.834,268.563 178.806 M234.250 178.876 C 233.331 179.390,231.228 181.668,231.212 182.167 C 231.205 182.368,231.875 181.809,232.700 180.925 C 233.525 180.040,234.470 179.225,234.800 179.113 C 235.130 179.001,235.309 178.808,235.197 178.685 C 235.085 178.561,234.659 178.647,234.250 178.876 M230.625 183.159 C 230.126 183.967,229.241 187.342,229.442 187.668 C 229.555 187.851,233.552 187.959,238.324 187.908 L 247.000 187.817 238.497 187.700 L 229.993 187.584 230.251 185.892 C 230.393 184.961,230.690 183.971,230.912 183.690 C 231.133 183.410,231.216 183.083,231.097 182.964 C 230.978 182.844,230.765 182.932,230.625 183.159 M270.176 187.413 C 270.604 187.736,271.243 188.000,271.596 188.000 C 271.950 188.000,272.453 188.213,272.713 188.473 C 272.974 188.734,273.297 188.836,273.432 188.701 C 273.693 188.440,270.543 186.791,269.825 186.813 C 269.591 186.820,269.749 187.090,270.176 187.413 M260.800 188.146 C 260.800 189.418,268.103 194.400,269.966 194.400 C 271.151 194.400,274.219 196.730,275.100 198.299 C 276.255 200.355,275.055 203.067,272.575 204.010 C 271.978 204.237,271.603 204.536,271.742 204.675 C 272.197 205.130,274.624 203.532,275.320 202.320 C 277.254 198.950,275.281 196.166,269.115 193.564 C 265.954 192.230,264.525 191.362,262.905 189.793 C 261.747 188.672,260.800 187.931,260.800 188.146 M253.309 189.600 C 253.309 190.590,253.387 190.995,253.482 190.500 C 253.578 190.005,253.578 189.195,253.482 188.700 C 253.387 188.205,253.309 188.610,253.309 189.600 M275.651 189.802 C 276.670 190.332,278.335 191.598,279.351 192.615 C 281.265 194.528,281.649 194.657,280.580 193.026 C 279.711 191.700,275.314 188.775,274.254 188.819 C 274.004 188.829,274.633 189.271,275.651 189.802 M252.616 192.373 C 252.440 192.660,248.544 192.800,240.776 192.800 L 229.200 192.800 229.204 193.900 C 229.224 198.775,234.801 205.779,237.772 204.657 C 238.007 204.568,237.660 204.290,237.000 204.039 C 233.138 202.572,230.894 200.160,230.267 196.800 C 230.123 196.030,229.893 194.905,229.756 194.300 L 229.507 193.200 241.130 193.200 C 251.940 193.200,253.956 193.022,253.080 192.147 C 252.970 192.037,252.761 192.139,252.616 192.373 M296.847 194.207 C 295.266 196.009,295.213 196.279,295.097 203.200 L 295.000 209.000 292.200 209.229 L 289.400 209.459 291.926 209.529 C 296.094 209.646,296.000 209.810,296.000 202.400 L 296.000 196.028 297.242 194.613 L 298.485 193.198 304.043 200.976 C 307.100 205.253,309.809 208.882,310.062 209.039 C 310.709 209.438,310.532 209.173,304.820 201.200 C 297.832 191.444,298.647 192.158,296.847 194.207 M222.853 195.876 C 222.824 197.018,222.980 198.064,223.200 198.200 C 223.420 198.336,223.600 198.807,223.600 199.247 C 223.600 201.292,227.477 206.601,229.856 207.813 C 230.705 208.246,231.460 208.735,231.533 208.900 C 231.607 209.065,232.054 209.200,232.527 209.200 C 233.176 209.200,232.996 208.993,231.794 208.357 C 226.913 205.776,224.118 201.634,223.185 195.600 L 222.907 193.800 222.853 195.876 M281.447 195.400 C 283.707 201.186,280.663 207.180,274.348 209.380 C 269.804 210.962,259.185 209.456,259.206 207.232 C 259.230 204.760,261.041 202.481,262.122 203.562 C 262.363 203.803,262.963 204.000,263.456 204.000 C 263.949 204.000,264.464 204.180,264.600 204.400 C 264.736 204.620,265.117 204.800,265.447 204.800 C 266.537 204.800,265.598 204.036,264.182 203.770 C 263.417 203.627,262.693 203.350,262.572 203.155 C 262.162 202.491,259.988 202.758,259.758 203.500 C 259.639 203.885,259.375 204.513,259.171 204.895 C 258.103 206.894,259.145 208.861,261.552 209.389 C 262.233 209.539,262.894 209.828,263.019 210.031 C 263.145 210.234,265.564 210.400,268.396 210.400 C 275.633 210.400,279.207 208.692,281.700 204.041 C 282.646 202.277,282.691 196.510,281.767 195.376 C 281.144 194.611,281.139 194.612,281.447 195.400 M213.234 197.417 C 210.346 203.561,202.391 207.960,192.400 208.935 C 191.630 209.010,192.294 209.101,193.876 209.136 C 195.458 209.171,196.864 209.020,197.000 208.800 C 197.136 208.580,197.770 208.400,198.410 208.400 C 199.050 208.400,200.254 208.105,201.086 207.745 C 201.919 207.384,203.050 206.912,203.600 206.696 C 208.176 204.896,215.733 197.200,214.316 195.782 C 214.198 195.665,213.712 196.401,213.234 197.417 M200.000 201.200 C 200.000 201.420,199.674 201.600,199.276 201.600 C 198.614 201.600,196.654 202.758,197.267 202.787 C 197.722 202.809,201.200 201.241,201.200 201.014 C 201.200 200.896,200.930 200.800,200.600 200.800 C 200.270 200.800,200.000 200.980,200.000 201.200 M248.800 203.200 C 248.800 203.420,248.362 203.600,247.826 203.600 C 246.668 203.600,244.599 204.332,244.902 204.635 C 245.018 204.752,246.137 204.550,247.387 204.187 C 249.962 203.438,249.884 203.407,250.619 205.470 C 251.122 206.881,251.166 206.913,251.182 205.886 C 251.203 204.580,250.149 202.800,249.354 202.800 C 249.049 202.800,248.800 202.980,248.800 203.200 M240.105 205.087 C 240.714 205.179,241.614 205.177,242.105 205.082 C 242.597 204.987,242.100 204.911,241.000 204.914 C 239.900 204.917,239.497 204.995,240.105 205.087 M268.105 205.087 C 268.714 205.179,269.614 205.177,270.105 205.082 C 270.597 204.987,270.100 204.911,269.000 204.914 C 267.900 204.917,267.497 204.995,268.105 205.087 M250.000 208.372 C 247.489 209.826,237.685 210.482,234.400 209.416 C 233.558 209.142,233.482 209.179,233.919 209.646 C 235.249 211.065,249.258 210.102,250.880 208.480 C 251.433 207.927,250.884 207.860,250.000 208.372 M185.712 209.495 C 186.764 209.577,188.384 209.576,189.312 209.492 C 190.240 209.408,189.380 209.341,187.400 209.342 C 185.420 209.343,184.660 209.412,185.712 209.495 M312.711 209.493 C 313.651 209.578,315.091 209.577,315.911 209.491 C 316.730 209.405,315.960 209.336,314.200 209.337 C 312.440 209.339,311.770 209.409,312.711 209.493 " stroke="none" fill="#afcfc0" fill-rule="evenodd"></path></g></svg>