<svg id="svg" version="1.1" width="400" height="400" xmlns="http://www.w3.org/2000/svg" xmlns:xlink="http://www.w3.org/1999/xlink" style="display: block;"><g id="svgg"><path id="path0" d="M111.600 14.000 C 111.600 14.220,111.150 14.400,110.600 14.400 C 109.978 14.400,109.600 14.627,109.600 15.000 C 109.600 15.330,109.407 15.600,109.171 15.600 C 108.618 15.600,107.600 16.618,107.600 17.171 C 107.600 17.407,107.407 17.600,107.171 17.600 C 106.479 17.600,105.600 18.679,105.600 19.529 C 105.600 19.961,105.330 20.418,105.000 20.545 C 104.086 20.895,104.086 387.105,105.000 387.455 C 105.330 387.582,105.600 388.039,105.600 388.471 C 105.600 389.321,106.479 390.400,107.171 390.400 C 107.407 390.400,107.600 390.593,107.600 390.829 C 107.600 391.382,108.618 392.400,109.171 392.400 C 109.407 392.400,109.600 392.670,109.600 393.000 C 109.600 393.373,109.978 393.600,110.600 393.600 C 111.150 393.600,111.600 393.780,111.600 394.000 C 111.600 394.265,141.333 394.400,200.000 394.400 C 258.667 394.400,288.400 394.265,288.400 394.000 C 288.400 393.780,288.850 393.600,289.400 393.600 C 290.022 393.600,290.400 393.373,290.400 393.000 C 290.400 392.670,290.593 392.400,290.829 392.400 C 291.382 392.400,292.400 391.382,292.400 390.829 C 292.400 390.593,292.593 390.400,292.829 390.400 C 293.534 390.400,294.400 389.314,294.400 388.429 C 294.400 387.959,294.660 387.600,295.000 387.600 C 295.532 387.600,295.600 366.954,295.600 204.187 C 295.600 41.523,295.532 20.749,295.000 20.545 C 294.670 20.418,294.400 19.961,294.400 19.529 C 294.400 18.679,293.521 17.600,292.829 17.600 C 292.593 17.600,292.400 17.407,292.400 17.171 C 292.400 16.618,291.382 15.600,290.829 15.600 C 290.593 15.600,290.400 15.330,290.400 15.000 C 290.400 14.627,290.022 14.400,289.400 14.400 C 288.850 14.400,288.400 14.220,288.400 14.000 C 288.400 13.735,258.667 13.600,200.000 13.600 C 141.333 13.600,111.600 13.735,111.600 14.000 M285.824 18.187 C 286.251 18.510,286.849 18.780,287.153 18.787 C 287.870 18.804,290.400 21.485,290.400 22.228 C 290.400 22.543,290.580 22.800,290.800 22.800 C 291.066 22.800,291.200 83.467,291.200 204.000 C 291.200 324.533,291.066 385.200,290.800 385.200 C 290.580 385.200,290.400 385.457,290.400 385.772 C 290.400 386.516,288.147 388.807,286.538 389.700 C 284.579 390.787,115.592 390.787,113.549 389.700 C 111.768 388.752,110.288 387.277,109.475 385.639 C 108.430 383.530,108.430 24.470,109.475 22.361 C 110.276 20.748,112.121 18.805,112.869 18.787 C 113.161 18.780,113.749 18.510,114.176 18.187 C 115.352 17.298,284.648 17.298,285.824 18.187 " stroke="none" fill="#000000" fill-rule="evenodd"></path><path id="path1" d="M114.176 18.222 C 113.426 18.823,113.430 18.830,114.274 18.422 C 115.501 17.829,284.499 17.829,285.726 18.422 C 286.570 18.830,286.574 18.823,285.824 18.222 C 284.637 17.271,115.363 17.271,114.176 18.222 M111.177 19.919 C 109.815 21.358,108.791 23.482,108.841 24.761 C 108.880 25.763,108.893 25.758,109.190 24.600 C 109.865 21.977,110.694 20.650,112.389 19.482 C 112.975 19.078,113.138 18.808,112.789 18.819 C 112.465 18.830,111.740 19.325,111.177 19.919 M287.399 19.198 C 287.534 19.417,288.040 19.799,288.522 20.047 L 289.400 20.499 288.517 19.649 C 287.595 18.763,286.975 18.513,287.399 19.198 M108.854 383.239 C 108.743 385.371,110.841 388.259,113.549 389.700 C 115.408 390.689,284.919 390.800,286.224 389.813 C 286.651 389.490,286.786 389.220,286.524 389.213 C 286.262 389.206,285.936 389.380,285.800 389.600 C 285.241 390.505,115.384 390.110,113.599 389.200 C 111.112 387.930,109.519 385.818,109.078 383.200 L 108.909 382.200 108.854 383.239 M287.944 388.387 C 287.425 388.819,287.143 389.179,287.317 389.187 C 287.491 389.194,288.020 388.840,288.492 388.400 C 289.599 387.369,289.179 387.358,287.944 388.387 " stroke="none" fill="#3f3b08" fill-rule="evenodd"></path><path id="path2" d="M113.100 19.077 C 112.056 19.658,111.281 20.214,111.379 20.313 C 111.478 20.411,112.217 20.084,113.022 19.586 C 113.828 19.089,115.052 18.546,115.743 18.382 C 116.838 18.121,116.871 18.078,116.000 18.051 C 115.450 18.034,114.145 18.495,113.100 19.077 M283.233 18.143 C 283.325 18.221,284.030 18.401,284.800 18.542 C 285.785 18.723,286.022 18.682,285.600 18.406 C 285.058 18.050,282.837 17.803,283.233 18.143 M287.446 19.697 C 288.081 20.190,288.870 20.873,289.200 21.215 C 289.735 21.770,289.758 21.770,289.413 21.219 C 288.903 20.404,287.095 18.833,286.646 18.814 C 286.451 18.806,286.811 19.203,287.446 19.697 M290.800 204.200 C 290.690 303.200,290.454 384.560,290.275 385.000 C 290.096 385.440,290.231 385.316,290.575 384.724 C 291.141 383.751,291.191 366.375,291.100 203.924 L 291.000 24.200 290.800 204.200 M108.998 204.000 C 108.998 302.230,109.044 342.415,109.100 293.300 C 109.156 244.185,109.156 163.815,109.100 114.700 C 109.044 65.585,108.998 105.770,108.998 204.000 M114.000 389.400 C 114.550 389.714,115.360 389.970,115.800 389.968 C 116.240 389.966,115.880 389.705,115.000 389.388 C 112.996 388.666,112.722 388.670,114.000 389.400 M284.400 389.600 L 283.400 389.920 284.476 389.960 C 285.068 389.982,285.664 389.820,285.800 389.600 C 286.081 389.145,285.820 389.145,284.400 389.600 " stroke="none" fill="#6e680e" fill-rule="evenodd"></path><path id="path3" d="M115.680 18.392 C 114.954 18.566,114.234 18.843,114.080 19.008 C 113.926 19.174,114.340 19.158,115.000 18.974 C 117.125 18.379,281.413 18.286,284.148 18.878 C 287.088 19.514,289.412 21.560,289.829 23.878 C 290.203 25.956,290.772 26.948,290.788 25.549 C 290.817 23.068,288.681 20.077,286.000 18.844 C 284.470 18.140,118.581 17.700,115.680 18.392 M112.321 19.927 C 111.131 20.648,109.196 24.219,109.206 25.675 C 109.215 27.032,109.891 25.830,110.222 23.867 C 110.405 22.789,110.973 21.843,112.090 20.759 C 112.974 19.901,113.630 19.216,113.548 19.237 C 113.467 19.257,112.914 19.567,112.321 19.927 M109.212 382.267 C 109.193 383.640,110.625 386.605,111.861 387.751 C 113.643 389.403,113.774 388.974,112.022 387.222 C 110.976 386.176,110.352 385.132,110.171 384.122 C 109.819 382.165,109.230 381.024,109.212 382.267 M290.300 382.229 C 290.135 382.396,290.000 382.977,290.000 383.519 C 290.000 384.698,288.667 386.968,287.491 387.791 C 287.028 388.116,286.750 388.484,286.875 388.609 C 287.261 388.994,289.592 386.394,290.229 384.868 C 290.828 383.436,290.876 381.644,290.300 382.229 M114.600 389.273 C 115.885 390.119,282.266 390.251,284.800 389.408 L 286.600 388.810 285.000 389.101 C 282.783 389.504,116.931 389.477,115.200 389.073 C 113.961 388.784,113.892 388.807,114.600 389.273 " stroke="none" fill="#ada316" fill-rule="evenodd"></path><path id="path4" d="M115.230 18.979 C 112.806 19.629,110.722 21.714,110.002 24.209 C 109.175 27.076,109.126 380.713,109.953 383.741 C 110.731 386.594,112.765 388.463,115.802 389.115 C 118.554 389.706,282.677 389.611,285.159 389.017 C 287.475 388.463,290.000 385.602,290.000 383.533 C 290.000 382.998,290.180 382.380,290.401 382.159 C 291.070 381.490,290.719 26.726,290.047 24.260 C 289.311 21.560,287.176 19.555,284.342 18.900 C 281.282 18.193,117.876 18.270,115.230 18.979 " stroke="none" fill="#fcee21" fill-rule="evenodd"></path></g></svg>