<svg id="svg" version="1.1" width="400" height="400" xmlns="http://www.w3.org/2000/svg" xmlns:xlink="http://www.w3.org/1999/xlink" style="display: block;"><g id="svgg"><path id="path0" d="" stroke="none" fill="#0000ff" fill-rule="evenodd"></path><path id="path1" d="" stroke="none" fill="#0055ff" fill-rule="evenodd"></path><path id="path2" d="M19.700 15.891 C 18.765 15.976,18.000 16.216,18.000 16.423 C 18.000 16.630,17.744 16.800,17.431 16.800 C 16.481 16.800,14.421 18.794,13.587 20.522 C 12.458 22.859,12.331 380.907,13.459 383.239 C 14.345 385.072,15.103 385.909,17.000 387.152 L 18.600 388.200 198.800 388.200 C 369.457 388.200,379.074 388.163,380.400 387.502 C 382.392 386.508,382.932 386.018,384.134 384.108 L 385.200 382.416 385.200 202.000 L 385.200 21.584 384.136 19.892 C 383.097 18.239,382.435 17.619,380.401 16.400 C 379.466 15.840,25.753 15.341,19.700 15.891 M379.277 16.870 C 381.614 17.570,383.750 19.911,384.325 22.402 C 385.014 25.390,385.014 378.612,384.324 381.599 C 383.757 384.059,381.771 386.316,379.393 387.203 C 376.787 388.176,23.324 388.331,19.657 387.361 C 16.447 386.511,14.669 384.848,13.809 381.888 C 12.972 379.012,13.066 23.960,13.904 21.554 C 14.604 19.546,16.514 17.656,18.618 16.892 C 20.392 16.248,377.128 16.227,379.277 16.870 " stroke="none" fill="#935f89" fill-rule="evenodd"></path><path id="path3" d="M18.618 16.892 C 16.514 17.656,14.604 19.546,13.904 21.554 C 13.066 23.960,12.972 379.012,13.809 381.888 C 14.669 384.848,16.447 386.511,19.657 387.361 C 23.324 388.331,376.787 388.176,379.393 387.203 C 381.771 386.316,383.757 384.059,384.324 381.599 C 385.014 378.612,385.014 25.390,384.325 22.402 C 383.750 19.911,381.614 17.570,379.277 16.870 C 377.128 16.227,20.392 16.248,18.618 16.892 " stroke="none" fill="#ff0000" fill-rule="evenodd"></path><path id="path4" d="M15.600 12.000 C 15.600 12.220,15.326 12.400,14.990 12.400 C 14.148 12.400,9.600 16.935,9.600 17.775 C 9.600 18.150,9.330 18.727,9.000 19.057 C 8.086 19.971,8.086 384.442,9.000 385.200 C 9.330 385.474,9.600 386.023,9.600 386.420 C 9.600 386.817,10.050 387.496,10.600 387.929 C 11.150 388.361,11.600 388.914,11.600 389.158 C 11.600 389.401,11.761 389.600,11.958 389.600 C 12.155 389.600,12.740 390.047,13.258 390.593 C 13.776 391.139,14.515 391.589,14.900 391.593 C 15.285 391.597,15.600 391.780,15.600 392.000 C 15.600 392.266,77.000 392.400,199.000 392.400 C 306.134 392.400,382.400 392.252,382.400 392.043 C 382.400 391.847,382.850 391.574,383.400 391.436 C 383.950 391.298,384.400 391.008,384.400 390.792 C 384.400 390.577,384.593 390.400,384.829 390.400 C 385.064 390.400,385.514 390.143,385.829 389.829 C 386.143 389.514,386.400 389.064,386.400 388.829 C 386.400 388.593,386.670 388.400,387.000 388.400 C 387.330 388.400,387.600 388.130,387.600 387.800 C 387.600 387.470,387.780 387.200,388.000 387.200 C 388.220 387.200,388.400 386.859,388.400 386.443 C 388.400 386.026,388.670 385.582,389.000 385.455 C 389.532 385.251,389.600 364.504,389.600 202.055 C 389.600 39.607,389.532 18.860,389.000 18.655 C 388.670 18.529,388.400 18.125,388.400 17.758 C 388.400 17.392,387.950 16.675,387.400 16.165 C 386.850 15.655,386.400 15.050,386.400 14.819 C 386.400 14.589,386.265 14.400,386.100 14.400 C 385.935 14.399,385.277 13.949,384.638 13.400 C 383.999 12.850,383.234 12.400,382.938 12.400 C 382.642 12.400,382.400 12.220,382.400 12.000 C 382.400 11.734,321.000 11.600,199.000 11.600 C 77.000 11.600,15.600 11.734,15.600 12.000 M380.401 16.400 C 382.435 17.619,383.097 18.239,384.136 19.892 L 385.200 21.584 385.200 202.000 L 385.200 382.416 384.134 384.108 C 382.932 386.018,382.392 386.508,380.400 387.502 C 379.074 388.163,369.457 388.200,198.800 388.200 L 18.600 388.200 17.000 387.152 C 15.103 385.909,14.345 385.072,13.459 383.239 C 12.331 380.907,12.458 22.859,13.587 20.522 C 14.421 18.794,16.481 16.800,17.431 16.800 C 17.744 16.800,18.000 16.630,18.000 16.423 C 18.000 15.424,378.735 15.401,380.401 16.400 " stroke="none" fill="#3fa9f5" fill-rule="evenodd"></path></g></svg>