<svg id="svg" version="1.1" width="400" height="400" xmlns="http://www.w3.org/2000/svg" xmlns:xlink="http://www.w3.org/1999/xlink" style="display: block;"><g id="svgg"><path id="path0" d="M14.400 12.000 C 14.400 12.220,14.116 12.400,13.768 12.400 C 12.945 12.400,8.400 16.945,8.400 17.768 C 8.400 18.116,8.220 18.400,8.000 18.400 C 7.734 18.400,7.600 79.867,7.600 202.000 C 7.600 324.133,7.734 385.600,8.000 385.600 C 8.220 385.600,8.400 385.935,8.400 386.344 C 8.400 386.753,8.850 387.426,9.400 387.839 C 9.950 388.252,10.400 388.817,10.400 389.095 C 10.400 389.373,10.627 389.600,10.905 389.600 C 11.183 389.600,11.748 390.050,12.161 390.600 C 12.574 391.150,13.247 391.600,13.656 391.600 C 14.065 391.600,14.400 391.780,14.400 392.000 C 14.400 392.266,75.867 392.400,198.000 392.400 C 320.133 392.400,381.600 392.266,381.600 392.000 C 381.600 391.780,382.050 391.600,382.600 391.600 C 383.150 391.600,383.600 391.407,383.600 391.171 C 383.600 390.936,383.857 390.486,384.171 390.171 C 384.486 389.857,384.936 389.600,385.171 389.600 C 385.407 389.600,385.600 389.407,385.600 389.171 C 385.600 388.936,385.857 388.486,386.171 388.171 C 386.486 387.857,386.936 387.600,387.171 387.600 C 387.407 387.600,387.600 387.150,387.600 386.600 C 387.600 386.050,387.780 385.600,388.000 385.600 C 388.266 385.600,388.400 324.133,388.400 202.000 C 388.400 79.867,388.266 18.400,388.000 18.400 C 387.780 18.400,387.600 18.065,387.600 17.656 C 387.600 17.247,387.150 16.574,386.600 16.161 C 386.050 15.748,385.600 15.183,385.600 14.905 C 385.600 14.627,385.373 14.400,385.095 14.400 C 384.817 14.400,384.252 13.950,383.839 13.400 C 383.426 12.850,382.753 12.400,382.344 12.400 C 381.935 12.400,381.600 12.220,381.600 12.000 C 381.600 11.734,320.133 11.600,198.000 11.600 C 75.867 11.600,14.400 11.734,14.400 12.000 M198.295 63.400 C 198.378 104.561,198.002 155.093,197.359 189.302 L 197.173 199.204 116.287 199.015 C 71.799 198.911,30.090 198.686,23.600 198.513 L 11.800 198.200 11.699 110.280 C 11.587 12.233,11.360 20.661,14.179 18.017 C 16.956 15.414,8.663 15.617,108.200 15.713 L 198.200 15.800 198.295 63.400 M379.515 16.402 C 381.576 17.477,382.640 18.518,383.601 20.401 C 384.396 21.960,384.401 22.615,384.301 111.086 L 384.200 200.200 303.240 200.120 C 247.348 200.065,222.150 199.910,221.860 199.620 C 221.588 199.348,217.792 199.200,211.120 199.200 L 200.800 199.200 200.802 149.900 C 200.803 100.637,201.457 16.555,201.843 15.931 C 202.366 15.085,377.881 15.551,379.515 16.402 M174.980 202.447 C 175.189 202.641,180.274 202.800,186.280 202.800 L 197.200 202.800 197.200 284.120 C 197.200 336.892,197.062 365.578,196.807 365.833 C 196.573 366.067,196.370 370.696,196.307 377.213 L 196.200 388.200 107.086 388.301 C 18.615 388.401,17.960 388.396,16.401 387.601 C 14.518 386.640,13.477 385.576,12.402 383.515 C 11.571 381.919,11.075 202.659,11.900 201.833 C 12.327 201.406,174.517 202.017,174.980 202.447 M373.000 203.486 L 384.200 203.800 384.301 292.944 L 384.402 382.088 383.315 384.085 C 382.521 385.544,381.686 386.393,380.214 387.237 L 378.200 388.392 289.087 388.396 C 212.091 388.399,199.945 388.322,199.755 387.827 C 199.524 387.226,200.300 233.691,200.632 214.098 L 200.824 202.796 281.312 202.984 C 325.580 203.087,366.840 203.313,373.000 203.486 " stroke="none" fill="#000000" fill-rule="evenodd"></path><path id="path1" d="M108.005 15.900 L 198.011 16.002 197.806 73.901 C 197.694 105.745,197.526 142.600,197.432 155.800 C 197.324 171.089,197.399 179.364,197.638 178.600 C 197.865 177.873,198.050 145.568,198.107 96.600 L 198.200 15.800 108.100 15.799 L 18.000 15.797 108.005 15.900 M201.843 15.931 C 201.462 16.547,200.803 100.367,200.872 139.400 C 200.937 176.607,200.951 175.769,201.216 119.000 C 201.369 86.440,201.629 49.945,201.794 37.900 L 202.095 16.000 290.224 16.000 C 348.545 16.000,378.436 16.135,378.600 16.400 C 378.736 16.620,379.062 16.794,379.324 16.787 C 379.586 16.780,379.451 16.510,379.024 16.187 C 378.149 15.525,202.251 15.271,201.843 15.931 M14.006 18.194 C 13.263 18.961,12.732 19.664,12.827 19.757 C 12.922 19.850,13.693 19.223,14.541 18.363 C 15.388 17.503,15.918 16.800,15.719 16.800 C 15.520 16.800,14.749 17.427,14.006 18.194 M381.095 17.900 C 384.310 20.698,384.000 10.759,384.000 111.015 L 384.000 200.005 326.500 199.806 C 294.875 199.697,258.296 199.513,245.214 199.397 C 228.381 199.249,221.552 199.312,221.854 199.614 C 222.152 199.912,246.582 200.064,303.240 200.120 L 384.200 200.200 384.301 111.086 C 384.401 22.636,384.396 21.960,383.601 20.402 C 382.779 18.790,380.910 16.800,380.219 16.800 C 380.005 16.800,380.399 17.295,381.095 17.900 M11.799 110.100 L 11.800 198.200 22.800 198.209 L 33.800 198.219 22.901 198.103 L 12.002 197.987 11.900 109.994 L 11.797 22.000 11.799 110.100 M35.200 198.800 C 35.580 199.046,52.794 199.161,82.200 199.115 C 126.246 199.045,127.261 199.028,102.200 198.779 C 59.739 198.356,34.526 198.364,35.200 198.800 M11.900 201.833 C 11.260 202.473,11.545 382.175,12.187 383.024 C 12.510 383.451,12.780 383.586,12.787 383.324 C 12.794 383.062,12.620 382.736,12.400 382.600 C 12.135 382.436,12.000 351.841,12.000 292.112 L 12.000 201.871 60.900 202.135 C 87.795 202.280,124.560 202.511,142.600 202.649 C 164.630 202.818,175.269 202.768,175.000 202.497 C 174.527 202.020,12.373 201.360,11.900 201.833 M319.200 203.421 C 347.250 203.693,373.305 203.935,377.100 203.958 L 384.000 204.000 384.006 292.900 L 384.013 381.800 382.962 383.824 C 382.180 385.329,381.420 386.124,379.996 386.924 L 378.082 388.000 289.043 388.000 L 200.004 388.000 199.899 353.400 L 199.793 318.800 199.797 353.500 L 199.800 388.200 289.000 388.297 L 378.200 388.393 380.214 387.238 C 381.685 386.394,382.521 385.543,383.315 384.085 L 384.402 382.088 384.301 292.944 L 384.200 203.800 373.000 203.487 C 366.840 203.315,340.740 203.119,315.000 203.050 L 268.200 202.926 319.200 203.421 M200.300 225.733 C 200.135 226.136,200.030 247.196,200.066 272.533 L 200.131 318.600 200.460 285.800 C 200.824 249.408,200.758 224.614,200.300 225.733 M196.898 283.800 C 196.353 350.155,196.324 366.175,196.751 365.778 C 197.084 365.468,197.176 353.002,197.100 318.578 C 197.043 292.850,196.952 277.200,196.898 283.800 M196.093 377.100 L 196.000 388.000 107.012 388.000 L 18.024 388.000 16.512 387.172 C 15.680 386.717,14.510 385.772,13.911 385.072 C 13.312 384.372,12.817 383.982,12.811 384.204 C 12.792 384.900,14.764 386.766,16.400 387.600 C 18.372 388.606,195.835 388.896,196.219 387.894 C 196.326 387.615,196.362 382.620,196.300 376.794 L 196.186 366.200 196.093 377.100 " stroke="none" fill="#0f2a3d" fill-rule="evenodd"></path><path id="path2" d="M17.404 16.394 C 17.252 16.640,17.655 16.694,18.480 16.537 C 20.249 16.200,20.401 16.000,18.890 16.000 C 18.207 16.000,17.538 16.177,17.404 16.394 M376.033 16.143 C 376.476 16.522,378.817 16.751,378.596 16.394 C 378.462 16.177,377.793 16.000,377.110 16.000 C 376.426 16.000,375.942 16.064,376.033 16.143 M380.323 17.700 C 381.039 18.195,381.978 19.140,382.410 19.800 C 382.841 20.460,383.196 20.775,383.197 20.500 C 383.201 19.857,380.155 16.800,379.511 16.800 C 379.242 16.800,379.608 17.205,380.323 17.700 M13.326 19.700 C 12.396 21.145,12.004 22.197,12.041 23.146 C 12.080 24.154,12.095 24.147,12.376 22.972 C 12.537 22.297,12.955 21.172,13.304 20.472 C 13.932 19.213,13.946 18.736,13.326 19.700 M383.440 22.266 C 383.808 23.799,384.000 23.944,384.000 22.690 C 384.000 22.117,383.813 21.532,383.584 21.390 C 383.311 21.221,383.262 21.523,383.440 22.266 M201.401 84.601 C 201.236 110.470,201.192 131.725,201.302 131.835 C 201.412 131.945,201.636 110.870,201.801 85.001 C 201.965 59.132,202.010 37.876,201.900 37.766 C 201.790 37.656,201.565 58.732,201.401 84.601 M197.500 73.000 C 197.120 117.603,197.157 132.999,197.638 131.338 C 197.852 130.598,197.961 110.952,197.902 83.938 L 197.800 37.800 197.500 73.000 M200.990 188.400 L 201.000 199.000 211.800 199.010 L 222.600 199.020 211.907 198.904 L 201.213 198.787 201.096 188.293 L 200.979 177.800 200.990 188.400 M196.893 188.565 L 196.800 198.930 149.100 198.666 C 122.865 198.520,86.190 198.325,67.600 198.232 C 40.305 198.095,43.692 198.164,85.200 198.590 C 156.099 199.318,196.766 199.355,197.020 198.693 C 197.127 198.414,197.163 193.689,197.100 188.193 L 196.985 178.200 196.893 188.565 M268.800 199.600 C 269.180 199.846,286.394 199.961,315.800 199.915 C 359.846 199.845,360.861 199.828,335.800 199.579 C 293.339 199.156,268.126 199.164,268.800 199.600 M61.000 202.422 C 75.740 202.568,96.980 202.677,108.200 202.665 L 128.600 202.642 102.600 202.379 C 88.300 202.234,67.060 202.124,55.400 202.136 L 34.200 202.157 61.000 202.422 M185.865 203.097 L 196.930 203.213 196.666 251.306 C 196.520 277.758,196.323 314.520,196.228 333.000 C 196.112 355.373,196.241 347.889,196.615 310.600 C 196.923 279.800,197.136 242.990,197.088 228.800 L 197.000 203.000 185.900 202.990 L 174.800 202.981 185.865 203.097 M200.984 203.300 C 200.879 203.575,200.841 219.100,200.899 237.800 L 201.005 271.800 201.102 237.435 L 201.200 203.070 248.300 203.335 C 274.205 203.480,310.520 203.675,329.000 203.768 C 356.059 203.905,352.633 203.835,311.400 203.410 C 241.179 202.686,201.234 202.646,200.984 203.300 M200.200 318.534 C 200.035 344.147,199.987 365.350,200.092 365.652 C 200.197 365.953,200.421 345.087,200.590 319.282 C 200.759 293.477,200.807 272.274,200.698 272.164 C 200.588 272.055,200.364 292.921,200.200 318.534 M12.041 380.839 C 12.000 381.888,12.958 384.203,13.598 384.599 C 13.789 384.717,13.658 384.238,13.307 383.535 C 12.957 382.831,12.537 381.703,12.376 381.028 C 12.099 379.874,12.079 379.862,12.041 380.839 M383.654 380.867 C 383.625 381.234,383.484 381.864,383.341 382.267 C 383.141 382.833,383.195 382.896,383.575 382.546 C 383.846 382.297,383.987 381.667,383.888 381.146 C 383.790 380.626,383.684 380.500,383.654 380.867 M382.382 384.234 C 381.670 385.564,379.964 386.769,377.864 387.426 C 376.700 387.790,376.483 387.955,377.141 387.973 C 379.105 388.029,383.971 384.238,383.080 383.346 C 383.000 383.267,382.686 383.666,382.382 384.234 M15.000 386.165 C 15.660 386.732,16.365 387.197,16.567 387.198 C 17.001 387.200,16.996 387.196,15.200 386.037 L 13.800 385.134 15.000 386.165 M17.390 387.584 C 17.532 387.813,18.117 388.000,18.690 388.000 C 19.944 388.000,19.799 387.808,18.266 387.440 C 17.523 387.262,17.221 387.311,17.390 387.584 " stroke="none" fill="#1b496b" fill-rule="evenodd"></path><path id="path3" d="M18.636 16.447 C 16.031 17.058,12.522 19.855,13.336 20.669 C 13.446 20.779,13.839 20.407,14.209 19.842 C 15.084 18.507,17.219 17.200,18.524 17.200 C 19.090 17.200,19.664 17.020,19.800 16.800 C 19.964 16.535,50.092 16.400,108.887 16.400 L 197.728 16.400 197.463 31.100 C 197.317 39.185,197.125 75.590,197.036 112.000 L 196.875 178.200 197.191 118.200 C 197.365 85.200,197.573 48.750,197.654 37.200 L 197.800 16.200 109.000 16.140 C 56.226 16.104,19.565 16.229,18.636 16.447 M202.221 16.496 C 202.053 17.034,201.700 79.693,201.447 153.800 C 201.357 180.046,201.420 194.136,201.597 187.400 C 201.764 181.020,202.042 139.935,202.215 96.100 L 202.529 16.400 289.241 16.400 C 346.617 16.400,376.036 16.535,376.200 16.800 C 376.336 17.020,377.037 17.200,377.757 17.200 C 378.730 17.200,379.513 17.612,380.800 18.800 C 382.861 20.703,383.141 20.802,382.024 19.234 C 381.568 18.593,380.341 17.648,379.297 17.134 L 377.400 16.200 289.889 16.096 C 219.748 16.012,202.347 16.091,202.221 16.496 M383.080 22.000 C 383.225 22.770,383.402 63.074,383.474 111.564 L 383.605 199.728 368.903 199.463 C 360.816 199.318,324.590 199.126,288.400 199.037 L 222.600 198.875 282.200 199.191 C 314.980 199.366,351.250 199.574,362.800 199.654 L 383.800 199.800 383.901 111.991 C 383.989 35.364,383.926 23.954,383.410 22.391 C 382.938 20.962,382.871 20.883,383.080 22.000 M12.578 22.200 C 12.346 22.937,12.200 57.012,12.200 110.600 L 12.200 197.800 53.400 198.041 C 76.060 198.174,112.870 198.410,135.200 198.565 C 164.919 198.771,175.613 198.728,175.101 198.404 C 174.600 198.087,151.506 197.892,93.401 197.716 L 12.400 197.470 12.400 110.815 C 12.400 49.389,12.526 24.034,12.831 23.729 C 13.068 23.492,13.193 22.781,13.109 22.149 L 12.955 21.000 12.578 22.200 M12.201 202.454 C 11.712 203.729,12.193 381.389,12.688 382.200 C 13.137 382.937,13.177 382.900,13.188 381.724 C 13.195 381.022,13.020 380.336,12.800 380.200 C 12.535 380.036,12.400 349.908,12.400 291.113 L 12.400 202.273 27.700 202.536 C 36.115 202.680,72.610 202.871,108.800 202.960 L 174.600 203.123 116.200 202.818 C 84.080 202.650,47.587 202.377,35.105 202.211 C 16.096 201.957,12.376 201.997,12.201 202.454 M180.924 203.499 C 183.962 203.567,188.822 203.567,191.724 203.499 C 194.626 203.431,192.140 203.375,186.200 203.375 C 180.260 203.375,177.886 203.431,180.924 203.499 M201.293 213.834 L 201.386 224.600 201.500 214.039 L 201.614 203.478 215.307 203.737 C 222.838 203.880,263.786 204.116,306.303 204.262 L 383.605 204.527 383.474 292.563 C 383.402 340.983,383.225 381.230,383.080 382.000 C 382.871 383.117,382.938 383.038,383.410 381.609 C 383.926 380.046,383.989 368.636,383.901 292.009 L 383.800 204.200 344.600 203.958 C 323.040 203.825,281.955 203.571,253.300 203.392 L 201.200 203.068 201.293 213.834 M196.221 225.166 C 196.078 225.397,195.851 262.039,195.716 306.593 L 195.470 387.600 107.758 387.600 C 49.716 387.600,19.964 387.465,19.800 387.200 C 19.664 386.980,18.888 386.818,18.076 386.840 L 16.600 386.879 18.391 387.440 C 19.909 387.916,33.539 387.986,107.991 387.901 L 195.800 387.800 195.870 376.800 C 195.909 370.750,196.163 334.165,196.436 295.499 C 196.902 229.449,196.885 224.091,196.221 225.166 M200.510 329.354 C 200.240 361.229,200.116 387.464,200.234 387.654 C 200.614 388.270,375.923 388.030,377.800 387.411 L 379.400 386.884 377.924 386.842 C 377.112 386.819,376.336 386.980,376.200 387.200 C 376.036 387.465,346.263 387.600,288.176 387.600 L 200.400 387.600 200.400 376.880 C 200.400 370.237,200.553 366.007,200.802 365.758 C 201.067 365.493,201.169 349.429,201.102 318.378 L 201.000 271.400 200.510 329.354 M13.200 383.520 C 13.200 384.029,15.991 386.942,16.240 386.693 C 16.328 386.605,15.680 385.753,14.800 384.800 C 13.920 383.847,13.200 383.271,13.200 383.520 M380.900 385.085 C 380.185 385.845,379.600 386.547,379.600 386.643 C 379.600 387.062,381.602 385.456,382.181 384.572 C 383.084 383.195,382.431 383.456,380.900 385.085 " stroke="none" fill="#2f7eb7" fill-rule="evenodd"></path><path id="path4" d="M19.800 16.800 C 19.664 17.020,19.090 17.200,18.524 17.200 C 16.252 17.200,13.200 20.158,13.200 22.360 C 13.200 23.016,13.020 23.664,12.800 23.800 C 12.535 23.964,12.400 53.404,12.400 110.824 L 12.400 197.600 66.900 197.655 C 115.479 197.704,153.897 198.017,186.037 198.624 L 196.674 198.825 196.939 121.512 C 197.084 78.991,197.320 37.945,197.462 30.300 L 197.722 16.400 108.884 16.400 C 50.091 16.400,19.964 16.535,19.800 16.800 M202.264 93.500 C 202.120 135.905,201.884 176.917,201.740 184.637 L 201.478 198.674 278.639 198.938 C 321.078 199.084,362.056 199.320,369.703 199.462 L 383.605 199.722 383.474 111.561 C 383.402 63.072,383.200 22.770,383.025 22.000 C 382.571 20.000,379.497 17.200,377.754 17.200 C 377.035 17.200,376.336 17.020,376.200 16.800 C 376.036 16.535,346.617 16.400,289.239 16.400 L 202.526 16.400 202.264 93.500 M12.400 291.118 C 12.400 349.910,12.535 380.036,12.800 380.200 C 13.020 380.336,13.200 381.035,13.200 381.754 C 13.200 383.780,16.128 386.800,18.093 386.800 C 18.896 386.800,19.664 386.980,19.800 387.200 C 19.964 387.465,49.716 387.600,107.758 387.600 L 195.470 387.600 195.716 306.539 C 195.885 250.909,196.094 225.346,196.381 225.059 C 196.736 224.704,197.049 203.651,196.700 203.579 C 196.645 203.568,163.930 203.400,124.000 203.205 C 84.070 203.011,42.625 202.724,31.900 202.567 L 12.400 202.283 12.400 291.118 M201.466 219.205 C 201.320 227.854,201.200 264.321,201.200 300.242 C 201.200 343.351,201.064 365.637,200.800 365.800 C 200.549 365.955,200.400 370.071,200.400 376.824 L 200.400 387.600 288.176 387.600 C 346.263 387.600,376.036 387.465,376.200 387.200 C 376.336 386.980,377.090 386.800,377.876 386.800 C 379.673 386.800,382.514 384.147,383.016 382.000 C 383.196 381.230,383.402 340.983,383.474 292.563 L 383.605 204.527 306.303 204.262 C 263.786 204.116,222.865 203.880,215.366 203.738 L 201.732 203.480 201.466 219.205 " stroke="none" fill="#3fa9f5" fill-rule="evenodd"></path></g></svg>