<svg id="svg" version="1.1" width="400" height="400" xmlns="http://www.w3.org/2000/svg" xmlns:xlink="http://www.w3.org/1999/xlink" style="display: block;"><g id="svgg"><path id="path0" d="M14.400 12.000 C 14.400 12.220,14.116 12.400,13.768 12.400 C 12.945 12.400,8.400 16.945,8.400 17.768 C 8.400 18.116,8.220 18.400,8.000 18.400 C 7.734 18.400,7.600 79.867,7.600 202.000 C 7.600 324.133,7.734 385.600,8.000 385.600 C 8.220 385.600,8.400 385.935,8.400 386.344 C 8.400 386.753,8.850 387.426,9.400 387.839 C 9.950 388.252,10.400 388.817,10.400 389.095 C 10.400 389.373,10.627 389.600,10.905 389.600 C 11.183 389.600,11.748 390.050,12.161 390.600 C 12.574 391.150,13.247 391.600,13.656 391.600 C 14.065 391.600,14.400 391.780,14.400 392.000 C 14.400 392.266,75.867 392.400,198.000 392.400 C 320.133 392.400,381.600 392.266,381.600 392.000 C 381.600 391.780,382.050 391.600,382.600 391.600 C 383.150 391.600,383.600 391.407,383.600 391.171 C 383.600 390.936,383.857 390.486,384.171 390.171 C 384.486 389.857,384.936 389.600,385.171 389.600 C 385.407 389.600,385.600 389.407,385.600 389.171 C 385.600 388.936,385.857 388.486,386.171 388.171 C 386.486 387.857,386.936 387.600,387.171 387.600 C 387.407 387.600,387.600 387.150,387.600 386.600 C 387.600 386.050,387.780 385.600,388.000 385.600 C 388.266 385.600,388.400 324.133,388.400 202.000 C 388.400 79.867,388.266 18.400,388.000 18.400 C 387.780 18.400,387.600 18.065,387.600 17.656 C 387.600 17.247,387.150 16.574,386.600 16.161 C 386.050 15.748,385.600 15.183,385.600 14.905 C 385.600 14.627,385.373 14.400,385.095 14.400 C 384.817 14.400,384.252 13.950,383.839 13.400 C 383.426 12.850,382.753 12.400,382.344 12.400 C 381.935 12.400,381.600 12.220,381.600 12.000 C 381.600 11.734,320.133 11.600,198.000 11.600 C 75.867 11.600,14.400 11.734,14.400 12.000 M379.515 16.402 C 381.576 17.477,382.640 18.518,383.600 20.399 C 384.397 21.961,384.400 22.732,384.400 202.030 L 384.400 382.092 383.314 384.087 C 382.521 385.544,381.685 386.393,380.214 387.237 L 378.200 388.392 198.084 388.396 C 18.728 388.400,17.962 388.397,16.399 387.600 C 14.518 386.640,13.477 385.576,12.402 383.515 C 11.166 381.143,11.130 23.387,12.366 20.678 C 13.270 18.696,14.666 17.301,16.714 16.331 C 19.209 15.149,377.246 15.220,379.515 16.402 " stroke="none" fill="#000000" fill-rule="evenodd"></path><path id="path1" d="M17.242 16.034 C 16.715 16.245,16.385 16.518,16.508 16.641 C 16.631 16.764,17.096 16.670,17.541 16.432 C 18.522 15.907,377.736 16.007,379.000 16.533 C 379.788 16.860,379.789 16.856,379.024 16.233 C 378.106 15.485,19.108 15.288,17.242 16.034 M14.143 18.100 C 13.475 18.815,12.629 20.057,12.264 20.860 C 11.266 23.056,11.234 381.798,12.233 383.024 C 12.856 383.789,12.860 383.788,12.533 383.000 C 12.350 382.560,12.155 301.239,12.099 202.286 L 11.998 22.372 12.836 20.730 C 13.297 19.827,14.237 18.573,14.926 17.944 C 15.615 17.315,15.993 16.800,15.768 16.800 C 15.542 16.800,14.810 17.385,14.143 18.100 M381.095 17.900 C 381.790 18.505,382.728 19.680,383.179 20.512 L 384.000 22.024 384.000 202.000 L 384.000 381.976 383.166 383.488 C 382.117 385.389,381.389 386.117,379.488 387.166 L 377.976 388.000 198.049 388.000 C 34.130 388.000,18.009 387.943,16.844 387.362 C 16.140 387.011,14.942 386.083,14.182 385.300 C 12.602 383.674,12.272 384.038,13.816 385.704 C 16.597 388.703,-4.098 388.400,198.030 388.400 L 378.092 388.400 380.087 387.314 C 381.544 386.521,382.393 385.685,383.237 384.214 L 384.392 382.200 384.396 202.084 C 384.400 22.772,384.396 21.961,383.600 20.400 C 382.778 18.790,380.910 16.800,380.219 16.800 C 380.005 16.800,380.399 17.295,381.095 17.900 " stroke="none" fill="#0f2a3d" fill-rule="evenodd"></path><path id="path2" d="M17.600 16.406 C 17.178 16.682,17.415 16.723,18.400 16.542 C 20.125 16.225,20.451 15.998,19.167 16.006 C 18.635 16.009,17.930 16.189,17.600 16.406 M376.033 16.143 C 376.125 16.221,376.830 16.401,377.600 16.542 C 378.585 16.723,378.822 16.682,378.400 16.406 C 377.858 16.050,375.637 15.803,376.033 16.143 M380.323 17.700 C 381.039 18.195,381.978 19.140,382.410 19.800 C 382.841 20.460,383.196 20.775,383.197 20.500 C 383.201 19.857,380.155 16.800,379.511 16.800 C 379.242 16.800,379.608 17.205,380.323 17.700 M12.418 21.556 C 12.149 22.205,12.014 23.066,12.118 23.468 C 12.267 24.042,12.317 24.001,12.354 23.274 C 12.379 22.764,12.595 21.984,12.832 21.539 C 13.070 21.095,13.184 20.651,13.086 20.553 C 12.988 20.455,12.688 20.906,12.418 21.556 M383.440 22.266 C 383.808 23.799,384.000 23.944,384.000 22.690 C 384.000 22.117,383.813 21.532,383.584 21.390 C 383.311 21.221,383.262 21.523,383.440 22.266 M12.041 380.651 C 11.994 381.630,13.005 384.232,13.567 384.579 C 13.775 384.708,13.658 384.238,13.307 383.535 C 12.957 382.831,12.537 381.703,12.376 381.028 C 12.170 380.166,12.070 380.054,12.041 380.651 M383.654 380.867 C 383.625 381.234,383.484 381.864,383.341 382.267 C 383.141 382.833,383.195 382.896,383.575 382.546 C 383.846 382.297,383.987 381.667,383.888 381.146 C 383.790 380.626,383.684 380.500,383.654 380.867 M382.373 384.250 C 382.064 384.827,381.182 385.727,380.413 386.250 C 379.644 386.772,379.163 387.200,379.345 387.200 C 380.342 387.200,383.603 383.870,383.099 383.366 C 383.009 383.275,382.682 383.673,382.373 384.250 M17.390 387.584 C 17.532 387.813,18.117 388.000,18.690 388.000 C 19.944 388.000,19.799 387.808,18.266 387.440 C 17.523 387.262,17.221 387.311,17.390 387.584 M377.200 387.600 L 376.200 387.920 377.276 387.960 C 377.868 387.982,378.464 387.820,378.600 387.600 C 378.881 387.145,378.620 387.145,377.200 387.600 " stroke="none" fill="#1d5074" fill-rule="evenodd"></path><path id="path3" d="M18.636 16.446 C 16.653 16.913,14.667 18.133,13.841 19.393 C 12.808 20.970,13.088 20.890,14.900 19.089 C 17.832 16.175,2.520 16.400,198.081 16.400 C 391.938 16.400,378.128 16.212,380.938 18.886 C 382.848 20.703,383.136 20.795,382.024 19.234 C 381.568 18.593,380.341 17.648,379.297 17.134 L 377.400 16.200 198.800 16.139 C 91.237 16.102,19.578 16.225,18.636 16.446 M383.110 22.200 C 383.491 24.303,383.488 380.180,383.107 382.000 C 382.832 383.316,382.848 383.304,383.376 381.800 C 384.219 379.402,384.222 24.611,383.380 22.200 L 382.821 20.600 383.110 22.200 M12.549 22.200 C 11.933 24.316,12.104 381.253,12.721 382.200 C 13.184 382.910,13.210 382.842,12.948 381.600 C 12.420 379.088,12.306 25.199,12.834 23.546 C 13.089 22.747,13.208 21.847,13.098 21.546 C 12.981 21.225,12.755 21.495,12.549 22.200 M13.200 383.570 C 13.200 384.046,16.006 386.927,16.241 386.693 C 16.329 386.604,15.681 385.775,14.801 384.849 C 13.920 383.924,13.200 383.348,13.200 383.570 M381.000 385.265 C 379.812 386.500,379.676 386.751,380.472 386.237 C 381.348 385.671,383.106 383.599,382.709 383.600 C 382.649 383.601,381.880 384.350,381.000 385.265 M18.200 387.377 C 20.598 388.219,375.389 388.222,377.800 387.380 L 379.400 386.821 377.800 387.110 C 375.710 387.489,20.294 387.482,18.200 387.104 L 16.600 386.815 18.200 387.377 " stroke="none" fill="#2b74a8" fill-rule="evenodd"></path><path id="path4" d="M18.400 16.955 C 16.030 17.528,13.425 20.069,12.985 22.239 C 12.573 24.268,12.569 379.718,12.981 381.730 C 13.391 383.730,16.104 386.592,18.000 387.025 C 20.486 387.594,373.775 387.723,376.913 387.156 C 380.257 386.553,382.248 384.793,383.056 381.728 C 383.770 379.023,383.844 25.971,383.132 22.731 C 382.496 19.838,380.211 17.571,377.239 16.885 C 374.374 16.223,21.140 16.292,18.400 16.955 " stroke="none" fill="#3fa9f5" fill-rule="evenodd"></path></g></svg>