<svg id="svg" version="1.1" width="400" height="400" xmlns="http://www.w3.org/2000/svg" xmlns:xlink="http://www.w3.org/1999/xlink" style="display: block;"><g id="svgg"><path id="path0" d="M13.600 107.000 C 13.600 107.340,13.242 107.600,12.774 107.600 C 11.692 107.600,7.600 111.692,7.600 112.774 C 7.600 113.242,7.340 113.600,7.000 113.600 C 6.468 113.600,6.400 123.689,6.400 202.000 C 6.400 280.311,6.468 290.400,7.000 290.400 C 7.373 290.400,7.600 290.778,7.600 291.400 C 7.600 291.950,7.780 292.400,8.000 292.400 C 8.220 292.400,8.400 292.670,8.400 293.000 C 8.400 293.330,8.593 293.600,8.829 293.600 C 9.382 293.600,10.400 294.618,10.400 295.171 C 10.400 295.407,10.670 295.600,11.000 295.600 C 11.330 295.600,11.600 295.780,11.600 296.000 C 11.600 296.220,12.050 296.400,12.600 296.400 C 13.222 296.400,13.600 296.627,13.600 297.000 C 13.600 297.532,34.244 297.600,197.000 297.600 C 359.756 297.600,380.400 297.532,380.400 297.000 C 380.400 296.627,380.778 296.400,381.400 296.400 C 381.950 296.400,382.400 296.220,382.400 296.000 C 382.400 295.780,382.670 295.600,383.000 295.600 C 383.330 295.600,383.600 295.407,383.600 295.171 C 383.600 294.618,384.618 293.600,385.171 293.600 C 385.407 293.600,385.600 293.330,385.600 293.000 C 385.600 292.670,385.780 292.400,386.000 292.400 C 386.220 292.400,386.400 291.950,386.400 291.400 C 386.400 290.778,386.627 290.400,387.000 290.400 C 387.532 290.400,387.600 280.311,387.600 202.000 C 387.600 123.689,387.532 113.600,387.000 113.600 C 386.627 113.600,386.400 113.222,386.400 112.600 C 386.400 112.050,386.220 111.600,386.000 111.600 C 385.780 111.600,385.600 111.330,385.600 111.000 C 385.600 110.670,385.407 110.400,385.171 110.400 C 384.618 110.400,383.600 109.382,383.600 108.829 C 383.600 108.593,383.330 108.400,383.000 108.400 C 382.670 108.400,382.400 108.220,382.400 108.000 C 382.400 107.780,381.950 107.600,381.400 107.600 C 380.778 107.600,380.400 107.373,380.400 107.000 C 380.400 106.468,359.756 106.400,197.000 106.400 C 34.244 106.400,13.600 106.468,13.600 107.000 M195.200 202.000 L 195.200 293.200 105.700 293.187 L 16.200 293.173 14.612 292.075 C 13.738 291.471,12.529 290.262,11.925 289.388 L 10.827 287.800 10.813 202.361 C 10.801 123.323,10.850 116.821,11.468 115.561 C 12.256 113.957,14.613 111.600,15.428 111.600 C 15.743 111.600,16.000 111.420,16.000 111.200 C 16.000 110.935,46.133 110.800,105.600 110.800 L 195.200 110.800 195.200 202.000 M379.323 111.861 C 380.317 112.461,381.539 113.683,382.139 114.677 L 383.200 116.433 383.200 201.955 C 383.200 295.456,383.376 288.515,380.945 290.945 C 378.513 293.378,385.822 293.200,288.139 293.200 L 198.800 293.200 198.800 202.000 L 198.800 110.800 288.184 110.800 L 377.567 110.800 379.323 111.861 " stroke="none" fill="#000000" fill-rule="evenodd"></path><path id="path1" d="M16.000 111.157 C 16.000 111.353,15.550 111.626,15.000 111.764 C 14.450 111.902,14.000 112.189,14.000 112.401 C 14.000 112.613,14.611 112.443,15.358 112.024 C 16.104 111.604,17.229 111.184,17.858 111.091 C 18.829 110.945,18.775 110.911,17.500 110.860 C 16.675 110.827,16.000 110.960,16.000 111.157 M376.200 111.068 C 379.090 111.701,381.349 113.610,382.592 116.473 C 382.909 117.203,383.176 117.492,383.184 117.116 C 383.237 114.821,378.880 110.744,376.484 110.846 C 375.682 110.881,375.608 110.938,376.200 111.068 M12.726 113.561 C 11.585 114.894,10.735 117.096,10.910 118.267 C 11.066 119.309,11.087 119.287,11.169 118.000 C 11.218 117.230,11.599 116.060,12.016 115.400 C 13.820 112.540,14.001 112.072,12.726 113.561 M10.873 286.200 C 10.785 289.214,14.658 293.209,17.600 293.141 L 19.000 293.108 17.534 292.823 C 14.227 292.178,11.544 289.259,11.081 285.800 C 10.949 284.821,10.911 284.894,10.873 286.200 M382.059 288.488 C 381.004 290.680,378.839 292.362,376.480 292.820 C 375.042 293.100,375.035 293.109,376.239 293.154 C 379.022 293.257,383.907 288.817,383.138 286.882 C 383.062 286.690,382.577 287.413,382.059 288.488 " stroke="none" fill="#112f44" fill-rule="evenodd"></path><path id="path2" d="M17.800 111.090 C 17.140 111.184,16.420 111.452,16.200 111.685 C 15.920 111.982,16.100 112.004,16.800 111.760 C 17.353 111.567,57.358 111.363,106.300 111.302 L 194.800 111.193 194.800 201.996 L 194.800 292.798 106.800 292.900 L 18.800 293.003 106.900 293.001 L 195.000 293.000 195.000 202.000 L 195.000 111.000 107.000 110.959 C 58.600 110.937,18.460 110.996,17.800 111.090 M287.600 111.201 C 336.330 111.318,376.650 111.569,377.200 111.761 C 378.043 112.054,378.118 112.022,377.680 111.554 C 377.240 111.085,363.486 110.999,288.080 110.995 L 199.000 110.990 287.600 111.201 M198.999 202.300 L 199.000 293.000 287.100 293.001 L 375.200 293.003 287.201 292.900 L 199.202 292.798 199.100 202.199 L 198.997 111.600 198.999 202.300 M13.419 113.461 C 12.639 114.265,12.006 115.120,12.014 115.361 C 12.022 115.603,12.465 115.266,12.998 114.614 C 13.531 113.962,14.379 113.111,14.883 112.723 C 15.388 112.335,15.584 112.014,15.319 112.009 C 15.055 112.004,14.200 112.658,13.419 113.461 M380.002 113.449 C 383.029 116.184,382.818 109.188,382.698 202.812 C 382.638 248.895,382.455 287.050,382.291 287.600 C 382.063 288.362,382.131 288.314,382.578 287.400 C 383.087 286.358,383.166 275.131,383.182 201.979 L 383.200 117.757 382.166 115.681 C 381.597 114.540,380.624 113.244,380.004 112.803 C 378.241 111.548,378.240 111.858,380.002 113.449 M11.467 116.267 C 11.320 116.413,11.216 117.088,11.236 117.767 L 11.272 119.000 11.659 117.656 C 12.045 116.313,11.969 115.764,11.467 116.267 M10.996 202.000 C 10.996 247.650,11.043 266.325,11.100 243.500 C 11.157 220.675,11.157 183.325,11.100 160.500 C 11.043 137.675,10.996 156.350,10.996 202.000 M11.240 286.276 C 11.218 286.978,11.380 287.664,11.600 287.800 C 12.060 288.084,12.060 287.436,11.600 286.000 C 11.294 285.045,11.278 285.057,11.240 286.276 M12.014 288.711 C 12.078 289.995,15.980 292.822,17.600 292.757 C 18.363 292.727,18.228 292.619,17.034 292.303 C 16.085 292.052,14.785 291.206,13.734 290.155 C 12.780 289.201,12.006 288.551,12.014 288.711 M380.200 290.482 C 379.027 291.695,378.886 291.951,379.672 291.441 C 380.533 290.882,382.339 288.761,381.909 288.813 C 381.849 288.821,381.080 289.572,380.200 290.482 M376.600 292.400 L 375.800 292.744 376.600 292.766 C 377.040 292.778,377.670 292.613,378.000 292.400 C 378.795 291.886,377.796 291.886,376.600 292.400 " stroke="none" fill="#1f547a" fill-rule="evenodd"></path><path id="path3" d="M17.212 111.723 C 14.678 112.329,12.314 114.833,11.679 117.586 C 10.976 120.632,10.987 283.416,11.691 286.469 C 12.333 289.257,14.634 291.662,17.300 292.333 C 18.685 292.682,41.353 292.800,106.977 292.800 L 194.800 292.800 194.800 202.000 L 194.800 111.200 106.900 111.248 C 46.083 111.281,18.449 111.428,17.212 111.723 M199.200 202.000 L 199.200 292.800 287.194 292.800 C 383.571 292.800,377.753 292.953,380.353 290.353 C 382.949 287.757,382.800 293.128,382.800 202.067 C 382.800 110.256,382.973 116.287,380.271 113.669 C 377.573 111.053,383.504 111.210,286.900 111.205 L 199.200 111.200 199.200 202.000 M194.400 202.002 L 194.400 292.404 106.700 292.261 C 23.724 292.125,15.600 292.027,15.600 291.158 C 15.600 290.961,15.417 290.800,15.194 290.800 C 14.210 290.800,12.423 288.183,12.412 286.724 C 12.405 285.912,12.220 285.136,12.000 285.000 C 11.446 284.658,11.446 119.342,12.000 119.000 C 12.220 118.864,12.400 118.110,12.400 117.324 C 12.400 115.264,15.264 112.400,17.324 112.400 C 18.110 112.400,18.864 112.220,19.000 112.000 C 19.164 111.735,48.871 111.600,106.824 111.600 L 194.400 111.600 194.400 202.002 M375.000 112.000 C 375.136 112.220,375.913 112.400,376.728 112.400 C 378.798 112.400,381.390 114.898,381.818 117.306 C 382.212 119.520,382.212 284.480,381.818 286.694 C 381.405 289.019,379.018 291.405,376.694 291.817 C 375.762 291.983,335.535 292.182,287.300 292.261 L 199.600 292.404 199.600 202.002 L 199.600 111.600 287.176 111.600 C 345.129 111.600,374.836 111.735,375.000 112.000 " stroke="none" fill="#3793d6" fill-rule="evenodd"></path><path id="path4" d="M19.000 112.000 C 18.864 112.220,18.110 112.400,17.324 112.400 C 15.264 112.400,12.400 115.264,12.400 117.324 C 12.400 118.110,12.220 118.864,12.000 119.000 C 11.446 119.342,11.446 284.658,12.000 285.000 C 12.220 285.136,12.405 285.912,12.412 286.724 C 12.423 288.183,14.210 290.800,15.194 290.800 C 15.417 290.800,15.600 290.961,15.600 291.158 C 15.600 292.027,23.724 292.125,106.700 292.261 L 194.400 292.404 194.400 202.002 L 194.400 111.600 106.824 111.600 C 48.871 111.600,19.164 111.735,19.000 112.000 M199.600 202.002 L 199.600 292.404 287.300 292.261 C 335.535 292.182,375.762 291.983,376.694 291.817 C 379.018 291.405,381.405 289.019,381.818 286.694 C 382.212 284.480,382.212 119.520,381.818 117.306 C 381.390 114.898,378.798 112.400,376.728 112.400 C 375.913 112.400,375.136 112.220,375.000 112.000 C 374.836 111.735,345.129 111.600,287.176 111.600 L 199.600 111.600 199.600 202.002 " stroke="none" fill="#3fa9f5" fill-rule="evenodd"></path></g></svg>