<?xml version="1.0" encoding="utf-8"?>
<!-- Generator: Adobe Illustrator 16.0.0, SVG Export Plug-In . SVG Version: 6.00 Build 0)  -->
<!DOCTYPE svg PUBLIC "-//W3C//DTD SVG 1.1//EN" "http://www.w3.org/Graphics/SVG/1.1/DTD/svg11.dtd">
<svg version="1.1" xmlns="http://www.w3.org/2000/svg" xmlns:xlink="http://www.w3.org/1999/xlink" x="0px" y="0px" width="300px"
	 height="300px" viewBox="0 0 300 300" enable-background="new 0 0 300 300" xml:space="preserve">
<g id="Wheel_Guides" display="none">
	<circle display="inline" fill="#FFFFFF" stroke="#000000" stroke-miterlimit="10" cx="549.667" cy="149.667" r="145.271"/>
	<circle display="inline" fill="#FFFFFF" stroke="#000000" stroke-miterlimit="10" cx="549.667" cy="149.667" r="121.115"/>
</g>
<g id="Circles">
	<circle fill="#1C75BC" cx="549.895" cy="16.563" r="12.062"/>
	<circle fill="#1C75BC" cx="573.895" cy="18.896" r="12.063"/>
	<circle fill="#1C75BC" cx="597.227" cy="25.229" r="12.063"/>
	<circle fill="#1C75BC" cx="619.395" cy="36.063" r="12.063"/>
	<circle fill="#1C75BC" cx="638.896" cy="50.896" r="12.063"/>
	<circle fill="#1C75BC" cx="655.228" cy="68.563" r="12.063"/>
	<circle fill="#1C75BC" cx="668.353" cy="88.813" r="12.063"/>
	<circle fill="#1C75BC" cx="677.353" cy="111.063" r="12.063"/>
	<circle fill="#1C75BC" cx="682.228" cy="135.063" r="12.063"/>
	<circle fill="#1C75BC" cx="682.603" cy="159.188" r="12.063"/>
	<circle fill="#1C75BC" cx="678.478" cy="183.188" r="12.063"/>
	<circle fill="#1C75BC" cx="670.353" cy="205.938" r="12.063"/>
	<circle fill="#1C75BC" cx="658.353" cy="226.813" r="12.063"/>
	<circle fill="#1C75BC" cx="642.603" cy="245.188" r="12.063"/>
	<circle fill="#1C75BC" cx="623.727" cy="260.188" r="12.063"/>
	<circle fill="#1C75BC" cx="602.102" cy="272.188" r="12.063"/>
	<circle fill="#1C75BC" cx="578.977" cy="279.313" r="12.063"/>
	<circle fill="#1C75BC" cx="554.978" cy="282.563" r="12.062"/>
	<circle opacity="0.95" fill="#1C75BC" cx="530.854" cy="281.542" r="12.063"/>
	<circle opacity="0.9" fill="#1C75BC" cx="507.354" cy="275.917" r="12.063"/>
	<circle opacity="0.85" fill="#1C75BC" cx="485.229" cy="266.292" r="12.063"/>
	<circle opacity="0.8" fill="#1C75BC" cx="465.104" cy="252.667" r="12.063"/>
	<circle opacity="0.75" fill="#1C75BC" cx="447.729" cy="235.417" r="12.063"/>
	<circle opacity="0.7" fill="#1C75BC" cx="433.854" cy="215.542" r="12.063"/>
	<circle opacity="0.65" fill="#1C75BC" cx="423.479" cy="193.542" r="12.063"/>
	<circle opacity="0.6" fill="#1C75BC" cx="418.104" cy="169.792" r="12.063"/>
	<circle opacity="0.55" fill="#1C75BC" cx="416.604" cy="145.291" r="12.063"/>
	<circle opacity="0.5" fill="#1C75BC" cx="419.604" cy="120.917" r="12.063"/>
	<circle opacity="0.45" fill="#1C75BC" cx="426.729" cy="97.917" r="12.063"/>
	<circle opacity="0.4" fill="#1C75BC" cx="438.354" cy="76.292" r="12.063"/>
	<circle opacity="0.3" fill="#1C75BC" cx="453.104" cy="55.792" r="12.063"/>
	<circle opacity="0.2" fill="#1C75BC" cx="472.229" cy="41.167" r="12.063"/>
	<circle opacity="0.1" fill="#1C75BC" cx="493.104" cy="29.042" r="12.063"/>
	<circle opacity="0" fill="#1C75BC" cx="515.854" cy="20.542" r="12.063"/>
	<ellipse fill="#1C75BC" cx="149.917" cy="49.833" rx="49.75" ry="49.833"/>
	<ellipse opacity="0.85" fill="#1C75BC" cx="224.417" cy="74.833" rx="49.75" ry="49.833"/>
	<ellipse opacity="0.7" fill="#1C75BC" cx="249.417" cy="149.5" rx="49.75" ry="49.834"/>
	<ellipse opacity="0.55" fill="#1C75BC" cx="224.917" cy="224.501" rx="49.75" ry="49.834"/>
	<ellipse opacity="0.4" fill="#1C75BC" cx="149.917" cy="249.5" rx="49.75" ry="49.834"/>
	<ellipse opacity="0.25" fill="#1C75BC" cx="74.417" cy="224.833" rx="49.75" ry="49.834"/>
	<ellipse opacity="0.1" fill="#1C75BC" cx="49.667" cy="149.667" rx="49.75" ry="49.834"/>
	<ellipse opacity="0.01" fill="#1C75BC" cx="74.417" cy="74.833" rx="49.75" ry="49.834"/>
</g>
</svg>