<svg id="svg" version="1.1" width="400" height="400" xmlns="http://www.w3.org/2000/svg" xmlns:xlink="http://www.w3.org/1999/xlink" style="display: block;"><g id="svgg"><path id="path0" d="M16.400 8.000 C 16.400 8.220,16.034 8.400,15.587 8.400 C 15.141 8.400,14.671 8.670,14.545 9.000 C 14.418 9.330,14.019 9.606,13.657 9.613 C 12.828 9.629,11.600 10.543,11.600 11.144 C 11.600 11.395,11.395 11.600,11.144 11.600 C 10.543 11.600,9.629 12.828,9.613 13.657 C 9.606 14.019,9.330 14.418,9.000 14.545 C 8.670 14.671,8.400 15.141,8.400 15.587 C 8.400 16.034,8.220 16.400,8.000 16.400 C 7.734 16.400,7.600 77.867,7.600 200.000 C 7.600 322.133,7.734 383.600,8.000 383.600 C 8.220 383.600,8.400 383.966,8.400 384.413 C 8.400 384.859,8.670 385.329,9.000 385.455 C 9.330 385.582,9.600 386.039,9.600 386.471 C 9.600 387.321,10.479 388.400,11.171 388.400 C 11.407 388.400,11.600 388.605,11.600 388.856 C 11.600 389.457,12.828 390.371,13.657 390.387 C 14.019 390.394,14.418 390.670,14.545 391.000 C 14.671 391.330,15.141 391.600,15.587 391.600 C 16.034 391.600,16.400 391.780,16.400 392.000 C 16.400 392.266,77.867 392.400,200.000 392.400 C 322.133 392.400,383.600 392.266,383.600 392.000 C 383.600 391.780,384.050 391.600,384.600 391.600 C 385.222 391.600,385.600 391.373,385.600 391.000 C 385.600 390.660,385.959 390.400,386.429 390.400 C 387.314 390.400,388.400 389.534,388.400 388.829 C 388.400 388.593,388.593 388.400,388.829 388.400 C 389.534 388.400,390.400 387.314,390.400 386.429 C 390.400 385.959,390.660 385.600,391.000 385.600 C 391.373 385.600,391.600 385.222,391.600 384.600 C 391.600 384.050,391.780 383.600,392.000 383.600 C 392.266 383.600,392.400 322.133,392.400 200.000 C 392.400 77.867,392.266 16.400,392.000 16.400 C 391.780 16.400,391.600 16.034,391.600 15.587 C 391.600 15.141,391.330 14.671,391.000 14.545 C 390.670 14.418,390.394 14.019,390.387 13.657 C 390.371 12.828,389.457 11.600,388.856 11.600 C 388.605 11.600,388.400 11.407,388.400 11.171 C 388.400 10.466,387.314 9.600,386.429 9.600 C 385.959 9.600,385.600 9.340,385.600 9.000 C 385.600 8.627,385.222 8.400,384.600 8.400 C 384.050 8.400,383.600 8.220,383.600 8.000 C 383.600 7.734,322.133 7.600,200.000 7.600 C 77.867 7.600,16.400 7.734,16.400 8.000 M382.122 12.380 C 384.422 13.449,386.135 15.049,387.364 17.277 L 388.400 19.154 388.400 200.000 L 388.400 380.846 387.353 382.723 C 386.036 385.084,385.084 386.036,382.723 387.353 L 380.846 388.400 200.000 388.400 L 19.154 388.400 17.277 387.364 C 15.049 386.135,13.449 384.422,12.380 382.122 C 11.610 380.466,11.600 378.071,11.600 199.966 L 11.600 19.488 12.500 17.684 C 13.638 15.404,15.635 13.395,17.752 12.402 C 20.359 11.179,379.492 11.157,382.122 12.380 M193.400 91.639 C 192.740 91.842,190.580 92.179,188.600 92.386 C 184.325 92.834,181.781 93.309,178.800 94.212 C 177.590 94.579,176.150 94.977,175.600 95.098 C 175.050 95.218,174.245 95.560,173.811 95.858 C 173.377 96.156,172.612 96.400,172.111 96.400 C 171.610 96.400,171.200 96.580,171.200 96.800 C 171.200 97.020,170.957 97.200,170.660 97.200 C 169.896 97.200,163.123 100.816,161.969 101.840 C 161.621 102.148,161.218 102.400,161.072 102.400 C 159.057 102.400,149.033 113.878,146.400 119.200 C 145.693 120.630,144.953 122.113,144.757 122.495 C 144.561 122.877,144.400 123.441,144.400 123.749 C 144.400 124.057,144.131 124.824,143.802 125.454 C 143.474 126.084,143.204 127.095,143.202 127.700 C 143.201 128.305,143.020 128.800,142.800 128.800 C 142.580 128.800,142.397 129.565,142.394 130.500 C 142.390 131.435,142.127 133.280,141.808 134.600 C 141.052 137.732,141.050 143.277,141.804 145.764 C 142.132 146.844,142.400 148.498,142.400 149.440 C 142.400 150.382,142.580 151.264,142.800 151.400 C 143.020 151.536,143.206 152.132,143.214 152.724 C 143.222 153.316,143.486 154.250,143.800 154.800 C 144.114 155.350,144.378 156.205,144.386 156.700 C 144.394 157.195,144.580 157.600,144.800 157.600 C 145.020 157.600,145.209 157.915,145.219 158.300 C 145.240 159.050,147.450 163.165,148.476 164.363 C 148.817 164.762,149.164 165.282,149.248 165.520 C 149.677 166.741,157.308 174.800,158.035 174.800 C 158.236 174.800,158.400 174.935,158.401 175.100 C 158.401 175.265,159.301 176.013,160.401 176.763 C 161.500 177.512,162.400 178.277,162.400 178.463 C 162.400 178.648,162.597 178.800,162.838 178.800 C 163.079 178.800,163.842 179.205,164.533 179.700 C 165.223 180.195,166.189 180.811,166.679 181.068 C 168.460 182.005,170.205 183.005,170.400 183.200 C 170.915 183.715,178.809 187.384,180.300 187.802 C 180.795 187.940,181.200 188.222,181.200 188.427 C 181.200 188.632,181.562 188.800,182.005 188.800 C 182.813 188.800,183.060 188.893,185.532 190.132 C 186.265 190.500,187.177 190.800,187.558 190.800 C 187.939 190.800,189.183 191.250,190.323 191.800 C 191.463 192.350,192.560 192.800,192.761 192.800 C 192.962 192.800,193.998 193.227,195.063 193.748 C 201.918 197.104,203.888 198.091,204.586 198.519 C 205.018 198.783,206.503 199.691,207.886 200.536 C 209.269 201.381,210.400 202.236,210.400 202.436 C 210.400 202.636,210.588 202.800,210.817 202.800 C 211.620 202.800,216.780 207.766,217.839 209.558 C 218.242 210.241,218.694 210.800,218.843 210.800 C 218.992 210.800,219.226 211.250,219.364 211.800 C 219.502 212.350,219.792 212.800,220.008 212.800 C 220.223 212.800,220.400 213.036,220.400 213.325 C 220.400 213.614,220.850 214.783,221.400 215.923 C 221.950 217.063,222.400 218.526,222.400 219.174 C 222.400 219.823,222.580 220.464,222.800 220.600 C 223.041 220.749,223.200 223.530,223.200 227.600 C 223.200 231.670,223.041 234.451,222.800 234.600 C 222.580 234.736,222.400 235.379,222.400 236.029 C 222.400 236.679,222.231 237.523,222.026 237.905 C 221.820 238.287,221.155 239.662,220.550 240.959 C 217.960 246.506,210.029 254.400,207.046 254.400 C 206.691 254.400,206.400 254.559,206.400 254.753 C 206.400 254.948,206.085 255.206,205.700 255.327 C 205.315 255.448,204.190 255.847,203.200 256.214 C 197.481 258.334,193.431 258.943,185.000 258.952 C 177.937 258.959,170.541 258.301,169.843 257.603 C 169.621 257.381,168.767 257.200,167.944 257.200 C 167.121 257.200,166.336 257.020,166.200 256.800 C 166.064 256.580,165.378 256.399,164.676 256.398 C 163.974 256.396,162.884 256.126,162.254 255.798 C 161.624 255.469,160.679 255.200,160.154 255.200 C 159.629 255.200,159.200 255.020,159.200 254.800 C 159.200 254.580,158.733 254.400,158.162 254.400 C 157.591 254.400,156.646 254.152,156.062 253.849 C 155.478 253.546,154.550 253.115,154.000 252.893 C 152.447 252.264,147.605 249.867,145.502 248.685 L 143.603 247.618 143.002 249.058 C 142.671 249.850,142.394 250.881,142.387 251.349 C 142.380 251.817,142.110 252.549,141.787 252.976 C 141.464 253.404,141.200 254.248,141.200 254.853 C 141.200 255.458,141.020 256.064,140.800 256.200 C 140.580 256.336,140.394 256.932,140.386 257.524 C 140.378 258.116,140.114 259.050,139.800 259.600 C 139.486 260.150,139.222 261.059,139.214 261.620 C 139.206 262.181,139.043 262.811,138.852 263.020 C 137.458 264.543,138.273 267.125,140.357 267.786 C 140.821 267.934,141.200 268.222,141.200 268.427 C 141.200 268.632,141.460 268.800,141.779 268.800 C 142.097 268.800,143.204 269.250,144.238 269.800 C 145.273 270.350,146.365 270.800,146.665 270.800 C 146.965 270.800,147.523 270.958,147.905 271.151 C 149.877 272.148,151.729 272.800,152.590 272.800 C 153.120 272.800,153.664 272.980,153.800 273.200 C 153.936 273.420,154.532 273.601,155.124 273.602 C 155.716 273.604,156.716 273.874,157.346 274.202 C 157.976 274.531,159.180 274.800,160.022 274.800 C 160.864 274.800,161.648 274.953,161.764 275.141 C 161.879 275.328,163.171 275.594,164.633 275.730 C 166.096 275.867,167.496 276.140,167.746 276.337 C 170.156 278.238,200.844 277.267,204.895 275.161 C 205.277 274.962,206.021 274.800,206.549 274.800 C 207.077 274.800,208.024 274.531,208.654 274.202 C 209.284 273.874,210.194 273.604,210.676 273.602 C 211.158 273.601,211.664 273.420,211.800 273.200 C 211.936 272.980,212.382 272.800,212.791 272.800 C 213.200 272.800,214.045 272.546,214.668 272.236 C 215.290 271.926,216.880 271.163,218.200 270.540 C 219.520 269.917,221.548 268.821,222.708 268.104 C 223.867 267.387,224.977 266.800,225.174 266.800 C 225.372 266.800,225.593 266.654,225.667 266.476 C 225.740 266.299,226.870 265.354,228.177 264.376 C 230.856 262.374,234.406 258.781,236.650 255.800 C 237.478 254.700,238.255 253.710,238.377 253.600 C 239.070 252.978,242.800 245.552,242.800 244.796 C 242.800 244.432,242.932 244.001,243.093 243.840 C 245.235 241.699,246.817 224.473,245.577 216.800 C 245.381 215.590,245.113 213.880,244.980 213.000 C 244.846 212.120,244.482 210.833,244.169 210.140 C 243.856 209.446,243.600 208.602,243.600 208.263 C 243.600 207.924,243.420 207.536,243.200 207.400 C 242.980 207.264,242.800 206.713,242.800 206.176 C 242.800 205.639,242.654 205.200,242.475 205.200 C 242.296 205.200,241.772 204.334,241.310 203.277 C 240.444 201.293,237.321 196.501,235.839 194.883 C 232.134 190.837,229.815 188.797,225.472 185.769 C 223.453 184.360,221.617 183.071,221.394 182.904 C 220.531 182.258,217.616 180.712,213.200 178.558 C 210.670 177.325,208.122 176.064,207.538 175.758 C 206.954 175.451,206.189 175.200,205.838 175.200 C 205.487 175.200,205.200 175.020,205.200 174.800 C 205.200 174.580,204.936 174.400,204.614 174.400 C 204.291 174.400,203.346 174.105,202.514 173.745 C 201.681 173.384,200.640 172.959,200.200 172.800 C 199.760 172.641,198.719 172.216,197.886 171.855 C 197.054 171.495,196.109 171.200,195.786 171.200 C 195.464 171.200,195.200 171.020,195.200 170.800 C 195.200 170.580,194.943 170.400,194.629 170.400 C 193.731 170.400,184.709 166.191,182.200 164.601 C 181.320 164.044,180.285 163.479,179.900 163.347 C 179.515 163.215,179.200 162.948,179.200 162.753 C 179.200 162.559,179.018 162.400,178.797 162.400 C 177.781 162.400,172.223 157.677,169.800 154.755 C 168.385 153.048,166.800 150.435,166.800 149.809 C 166.800 149.474,166.628 149.200,166.418 149.200 C 166.208 149.200,165.918 148.568,165.773 147.796 C 165.628 147.023,165.350 146.293,165.155 146.172 C 164.960 146.051,164.800 145.074,164.800 144.000 C 164.800 142.926,164.620 141.936,164.400 141.800 C 164.180 141.664,164.000 139.954,164.000 138.000 C 164.000 136.046,164.180 134.336,164.400 134.200 C 164.620 134.064,164.800 133.164,164.800 132.200 C 164.800 131.236,164.980 130.336,165.200 130.200 C 165.420 130.064,165.600 129.614,165.600 129.200 C 165.600 126.941,172.899 116.800,174.525 116.800 C 174.626 116.800,175.787 116.080,177.105 115.200 C 178.423 114.320,179.793 113.600,180.150 113.600 C 180.508 113.600,180.800 113.420,180.800 113.200 C 180.800 112.980,181.205 112.794,181.700 112.787 C 182.195 112.780,182.949 112.510,183.376 112.187 C 183.804 111.864,184.623 111.600,185.196 111.600 C 185.770 111.600,186.411 111.436,186.620 111.235 C 187.922 109.986,211.689 109.983,212.980 111.232 C 213.189 111.435,213.999 111.601,214.780 111.602 C 215.561 111.604,216.716 111.874,217.346 112.202 C 217.976 112.531,219.000 112.800,219.622 112.800 C 220.244 112.800,220.864 112.980,221.000 113.200 C 221.136 113.420,221.552 113.601,221.924 113.602 C 222.296 113.604,223.116 113.874,223.746 114.202 C 224.376 114.531,225.231 114.800,225.646 114.800 C 226.061 114.800,226.400 114.980,226.400 115.200 C 226.400 115.420,226.654 115.600,226.966 115.600 C 227.277 115.600,228.628 116.161,229.968 116.847 C 232.574 118.181,233.600 118.030,233.600 116.313 C 233.600 115.879,233.852 115.046,234.159 114.462 C 234.466 113.878,234.930 112.590,235.189 111.600 C 235.448 110.610,235.917 109.290,236.230 108.668 C 236.544 108.045,236.800 107.277,236.800 106.962 C 236.800 106.647,236.956 106.077,237.146 105.695 C 237.692 104.601,238.474 102.297,238.680 101.175 C 238.862 100.185,236.061 98.412,231.800 96.819 C 229.192 95.844,228.081 95.487,227.095 95.308 C 226.487 95.198,225.892 94.949,225.771 94.754 C 225.651 94.559,225.018 94.400,224.364 94.400 C 223.709 94.400,222.528 94.130,221.738 93.800 C 220.949 93.470,219.435 93.200,218.375 93.200 C 217.315 93.200,216.353 93.047,216.238 92.861 C 216.123 92.675,214.177 92.411,211.914 92.276 C 209.651 92.141,207.171 91.843,206.403 91.615 C 204.698 91.109,195.062 91.126,193.400 91.639 " stroke="none" fill="#000000" fill-rule="evenodd"></path><path id="path1" d="M18.442 12.033 C 17.915 12.244,17.585 12.518,17.708 12.641 C 17.831 12.764,18.296 12.670,18.741 12.432 C 19.762 11.885,380.580 12.012,381.800 12.559 C 382.474 12.861,382.518 12.829,382.080 12.359 C 381.444 11.675,20.142 11.352,18.442 12.033 M14.964 14.335 C 14.104 15.180,12.994 16.686,12.499 17.682 L 11.597 19.493 11.699 200.526 C 11.785 354.916,11.882 381.637,12.359 382.080 C 12.829 382.518,12.861 382.474,12.559 381.800 C 12.349 381.333,12.158 305.850,12.099 200.286 L 11.998 19.572 12.848 17.886 C 13.315 16.959,14.510 15.435,15.504 14.500 C 16.498 13.565,17.135 12.800,16.919 12.800 C 16.704 12.800,15.824 13.491,14.964 14.335 M383.985 13.970 C 384.747 14.601,385.781 15.632,386.283 16.259 C 386.785 16.887,387.197 17.178,387.198 16.906 C 387.200 16.295,383.650 12.796,383.042 12.811 C 382.799 12.817,383.223 13.338,383.985 13.970 M387.467 18.200 C 387.902 19.246,387.902 380.754,387.467 381.800 C 387.140 382.588,387.144 382.589,387.767 381.824 C 388.738 380.632,388.738 19.368,387.767 18.176 C 387.144 17.411,387.140 17.412,387.467 18.200 M191.104 91.429 C 190.978 91.556,189.643 91.817,188.137 92.010 L 185.400 92.361 188.800 92.190 C 192.770 91.991,195.808 91.294,192.967 91.234 C 192.068 91.215,191.230 91.303,191.104 91.429 M206.600 91.623 C 207.260 91.842,209.651 92.134,211.914 92.272 C 214.177 92.409,216.123 92.675,216.238 92.861 C 216.353 93.047,217.112 93.185,217.924 93.166 L 219.400 93.131 218.200 92.739 C 217.059 92.366,212.378 91.773,207.600 91.398 C 205.741 91.252,205.586 91.286,206.600 91.623 M183.200 92.800 L 182.200 93.120 183.200 93.154 C 183.750 93.173,184.470 93.013,184.800 92.800 C 185.564 92.306,184.742 92.306,183.200 92.800 M179.600 93.600 C 179.270 93.813,178.640 93.999,178.200 94.012 C 177.760 94.025,176.860 94.300,176.200 94.622 C 174.904 95.256,174.989 95.246,178.565 94.356 C 180.446 93.888,181.743 93.228,180.800 93.218 C 180.470 93.215,179.930 93.387,179.600 93.600 M221.800 93.778 C 222.460 94.100,223.540 94.351,224.200 94.336 C 225.385 94.308,225.383 94.304,224.000 93.989 C 223.230 93.813,222.150 93.562,221.600 93.431 C 220.754 93.228,220.785 93.282,221.800 93.778 M225.800 94.800 C 225.936 95.020,226.442 95.187,226.924 95.172 C 227.769 95.145,227.771 95.131,227.000 94.800 C 225.899 94.327,225.508 94.327,225.800 94.800 M173.380 95.561 C 173.171 95.760,172.640 96.009,172.200 96.115 C 171.420 96.303,171.420 96.308,172.224 96.354 C 172.676 96.379,173.396 96.136,173.824 95.813 C 174.251 95.490,174.411 95.220,174.180 95.213 C 173.949 95.206,173.589 95.363,173.380 95.561 M228.800 95.800 C 229.350 96.114,230.194 96.378,230.676 96.386 C 231.158 96.394,231.664 96.580,231.800 96.800 C 231.936 97.020,232.337 97.200,232.690 97.200 C 233.675 97.200,233.110 96.844,230.756 95.984 C 228.253 95.069,227.377 94.987,228.800 95.800 M166.400 98.678 C 163.605 100.211,160.422 102.400,160.990 102.400 C 161.181 102.400,161.621 102.148,161.969 101.841 C 162.662 101.226,164.767 100.007,167.700 98.521 C 169.456 97.631,170.036 97.162,169.300 97.226 C 169.135 97.241,167.830 97.894,166.400 98.678 M233.600 97.388 C 233.600 97.491,234.759 98.135,236.176 98.818 C 237.768 99.586,238.820 100.357,238.929 100.836 C 239.065 101.430,239.094 101.399,239.053 100.706 C 238.993 99.679,233.600 96.397,233.600 97.388 M238.065 103.017 C 237.809 103.578,237.600 104.353,237.600 104.739 C 237.600 105.124,237.403 105.637,237.162 105.878 C 236.922 106.118,236.789 106.647,236.867 107.053 C 236.956 107.513,237.213 107.115,237.550 105.995 C 237.848 105.008,238.281 103.795,238.513 103.301 C 238.745 102.806,238.844 102.310,238.732 102.199 C 238.621 102.088,238.321 102.456,238.065 103.017 M157.573 104.608 C 155.051 106.636,151.033 110.766,151.312 111.045 C 151.386 111.119,153.055 109.599,155.023 107.667 C 156.990 105.735,159.039 103.854,159.576 103.486 C 160.113 103.119,160.473 102.746,160.376 102.657 C 160.279 102.569,159.018 103.446,157.573 104.608 M236.066 108.848 C 235.305 110.840,234.733 112.866,234.888 113.021 C 234.977 113.110,235.435 112.068,235.906 110.706 C 236.713 108.370,236.849 106.802,236.066 108.848 M191.739 110.306 C 191.485 110.468,194.933 110.600,199.401 110.600 C 203.869 110.600,207.316 110.468,207.062 110.306 C 206.808 110.144,203.360 110.012,199.400 110.012 C 195.440 110.012,191.992 110.144,191.739 110.306 M186.600 111.200 C 186.464 111.420,185.858 111.600,185.253 111.600 C 184.207 111.600,182.079 112.761,183.076 112.787 C 183.338 112.794,183.664 112.620,183.800 112.400 C 183.936 112.180,184.442 111.997,184.924 111.994 C 186.566 111.983,189.647 110.859,188.124 110.827 C 187.422 110.812,186.736 110.980,186.600 111.200 M212.200 111.430 C 217.097 112.597,217.797 112.737,217.952 112.581 C 218.256 112.278,215.940 111.600,214.598 111.600 C 213.855 111.600,213.136 111.420,213.000 111.200 C 212.864 110.980,212.088 110.813,211.276 110.829 C 209.965 110.854,210.068 110.922,212.200 111.430 M150.119 112.500 C 148.702 114.055,145.023 120.357,145.345 120.678 C 145.445 120.779,146.006 119.907,146.591 118.742 C 147.177 117.577,148.462 115.494,149.448 114.112 C 151.302 111.514,151.541 110.940,150.119 112.500 M180.800 113.200 C 180.800 113.420,180.521 113.600,180.181 113.600 C 179.558 113.600,175.200 116.216,175.200 116.590 C 175.200 116.700,176.181 116.162,177.381 115.395 C 178.580 114.628,179.795 113.994,180.081 113.987 C 180.948 113.966,182.318 112.800,181.476 112.800 C 181.104 112.800,180.800 112.980,180.800 113.200 M219.264 112.998 C 219.599 113.333,224.171 114.763,224.346 114.587 C 224.553 114.380,222.539 113.600,221.798 113.600 C 221.495 113.600,221.136 113.420,221.000 113.200 C 220.864 112.980,220.373 112.800,219.910 112.800 C 219.446 112.800,219.156 112.889,219.264 112.998 M234.032 114.739 C 233.795 115.184,233.600 115.897,233.600 116.325 C 233.600 117.707,232.602 118.159,231.150 117.435 C 230.446 117.084,229.792 116.875,229.696 116.970 C 229.601 117.066,230.254 117.497,231.148 117.929 C 233.023 118.835,233.222 118.707,234.151 116.012 C 234.808 114.107,234.743 113.412,234.032 114.739 M225.824 115.387 C 226.251 115.710,226.904 115.980,227.276 115.987 C 227.648 115.994,228.064 116.180,228.200 116.400 C 228.336 116.620,228.662 116.794,228.924 116.787 C 229.690 116.767,227.921 115.600,227.124 115.600 C 226.726 115.600,226.400 115.420,226.400 115.200 C 226.400 114.980,226.096 114.800,225.724 114.800 C 225.134 114.800,225.146 114.875,225.824 115.387 M171.972 119.122 C 168.711 122.457,165.600 127.377,165.600 129.200 C 165.600 129.614,165.420 130.064,165.200 130.200 C 164.980 130.336,164.811 130.932,164.825 131.524 C 164.843 132.334,165.004 132.105,165.475 130.600 C 166.264 128.075,167.986 124.476,168.900 123.441 C 169.285 123.006,169.600 122.508,169.600 122.336 C 169.600 122.164,170.798 120.848,172.263 119.411 C 173.728 117.975,174.763 116.810,174.563 116.822 C 174.363 116.834,173.197 117.869,171.972 119.122 M144.665 121.894 C 144.336 122.427,143.212 125.748,143.208 126.200 C 143.206 126.420,143.474 126.084,143.802 125.454 C 144.131 124.824,144.400 124.005,144.400 123.634 C 144.400 123.263,144.613 122.747,144.873 122.487 C 145.134 122.226,145.242 121.908,145.113 121.780 C 144.985 121.652,144.783 121.703,144.665 121.894 M142.679 127.757 C 142.515 128.174,142.475 128.609,142.591 128.724 C 142.955 129.089,143.276 128.491,143.124 127.731 C 142.983 127.035,142.962 127.036,142.679 127.757 M141.908 131.000 C 141.197 136.131,141.179 136.818,141.817 134.400 C 142.137 133.190,142.350 131.480,142.292 130.600 L 142.185 129.000 141.908 131.000 M164.267 134.267 C 163.865 134.668,163.946 141.520,164.356 141.773 C 164.555 141.896,164.697 140.234,164.679 137.996 C 164.661 135.798,164.621 134.000,164.590 134.000 C 164.559 134.000,164.413 134.120,164.267 134.267 M164.831 144.676 C 164.814 145.378,164.960 146.051,165.155 146.172 C 165.350 146.293,165.628 147.023,165.773 147.796 C 165.918 148.568,166.219 149.200,166.442 149.200 C 166.665 149.200,166.729 149.010,166.586 148.777 C 166.442 148.544,165.995 147.239,165.593 145.877 C 164.997 143.858,164.855 143.636,164.831 144.676 M141.439 146.000 C 141.562 146.990,141.805 148.520,141.981 149.400 L 142.300 151.000 142.319 149.200 C 142.330 148.210,142.086 146.680,141.778 145.800 L 141.217 144.200 141.439 146.000 M166.800 150.009 C 166.800 150.467,168.580 153.283,169.800 154.755 C 172.223 157.677,177.781 162.400,178.797 162.400 C 179.018 162.400,179.200 162.580,179.200 162.800 C 179.200 163.020,179.402 163.200,179.649 163.200 C 179.959 163.200,179.944 163.015,179.600 162.600 C 179.326 162.270,178.869 162.000,178.584 162.000 C 178.300 162.000,178.007 161.865,177.933 161.700 C 177.860 161.535,176.749 160.601,175.465 159.625 C 172.506 157.374,169.199 153.732,168.002 151.403 C 167.061 149.575,166.800 149.272,166.800 150.009 M142.406 151.676 C 142.418 152.681,143.187 153.508,143.194 152.524 C 143.197 152.042,143.020 151.536,142.800 151.400 C 142.580 151.264,142.403 151.388,142.406 151.676 M143.214 154.254 C 143.206 154.504,143.463 155.314,143.784 156.054 C 144.188 156.983,144.369 157.152,144.370 156.600 C 144.372 155.763,143.239 153.464,143.214 154.254 M145.200 159.386 C 145.200 160.158,148.782 165.751,149.084 165.449 C 149.192 165.341,148.947 164.895,148.540 164.458 C 148.133 164.020,147.275 162.658,146.633 161.431 C 145.572 159.400,145.200 158.870,145.200 159.386 M180.656 163.616 C 181.216 164.176,183.329 165.377,186.000 166.653 C 191.098 169.089,194.088 170.399,194.529 170.391 C 195.032 170.381,194.854 170.291,188.400 167.290 C 186.090 166.215,183.439 164.856,182.508 164.268 C 180.779 163.177,179.911 162.871,180.656 163.616 M149.206 166.111 C 149.194 166.734,156.443 174.400,157.044 174.400 C 157.218 174.400,156.380 173.452,155.181 172.294 C 153.981 171.136,152.148 169.201,151.106 167.994 C 150.064 166.787,149.209 165.940,149.206 166.111 M195.200 170.810 C 195.200 171.024,195.464 171.200,195.786 171.200 C 196.313 171.200,197.660 171.714,200.299 172.923 C 200.794 173.149,201.295 173.238,201.412 173.121 C 201.530 173.004,201.035 172.685,200.313 172.413 C 199.591 172.142,198.640 171.761,198.200 171.568 C 196.185 170.683,195.200 170.434,195.200 170.810 M202.800 173.800 C 203.350 174.114,204.070 174.377,204.400 174.383 C 204.730 174.390,204.484 174.126,203.854 173.798 C 202.394 173.036,201.467 173.038,202.800 173.800 M158.996 176.208 C 159.873 176.973,160.715 177.600,160.867 177.600 C 161.019 177.600,161.426 177.883,161.771 178.229 C 162.117 178.574,162.400 178.692,162.400 178.491 C 162.400 178.290,161.500 177.512,160.401 176.763 C 159.301 176.013,158.401 175.265,158.401 175.100 C 158.400 174.935,158.175 174.803,157.900 174.808 C 157.625 174.812,158.118 175.442,158.996 176.208 M207.424 175.787 C 207.851 176.110,208.408 176.380,208.662 176.387 C 209.214 176.403,219.236 181.482,219.780 182.022 C 219.989 182.230,220.344 182.400,220.569 182.400 C 221.343 182.400,219.021 181.031,213.306 178.119 C 207.869 175.347,205.711 174.492,207.424 175.787 M162.800 178.960 C 162.800 179.049,163.475 179.502,164.300 179.968 L 165.800 180.816 164.600 179.810 C 163.499 178.887,162.800 178.557,162.800 178.960 M166.000 180.962 C 166.000 181.119,167.777 182.201,170.947 183.974 C 171.798 184.450,172.596 184.737,172.721 184.613 C 172.845 184.488,172.374 184.170,171.674 183.905 C 170.973 183.641,170.400 183.284,170.400 183.112 C 170.400 182.941,170.216 182.800,169.992 182.800 C 169.768 182.800,168.871 182.350,168.000 181.800 C 166.453 180.823,166.000 180.634,166.000 180.962 M221.228 182.705 C 221.243 182.867,222.770 183.990,224.620 185.200 C 228.748 187.899,232.280 190.945,235.839 194.874 C 237.341 196.531,240.450 201.307,241.310 203.277 C 241.772 204.334,242.280 205.200,242.439 205.200 C 244.980 205.200,232.618 189.910,227.374 186.567 C 226.728 186.155,226.110 185.709,226.000 185.575 C 225.574 185.056,221.202 182.426,221.228 182.705 M173.200 184.991 C 173.200 185.277,176.513 186.821,176.708 186.625 C 176.801 186.532,176.106 186.083,175.164 185.628 C 173.324 184.739,173.200 184.699,173.200 184.991 M177.242 186.975 C 177.761 187.494,181.200 188.711,181.200 188.376 C 181.200 188.158,180.656 187.871,179.992 187.738 C 179.327 187.605,178.686 187.340,178.568 187.148 C 178.450 186.957,178.063 186.800,177.710 186.800 C 177.356 186.800,177.145 186.879,177.242 186.975 M183.200 189.474 C 183.970 189.816,184.933 190.267,185.339 190.476 C 185.745 190.685,186.174 190.760,186.291 190.643 C 186.408 190.526,185.985 190.224,185.352 189.972 C 184.718 189.720,183.887 189.353,183.505 189.157 C 183.123 188.961,182.583 188.812,182.305 188.826 C 182.027 188.840,182.430 189.131,183.200 189.474 M187.200 190.962 C 187.200 191.105,188.913 191.763,191.400 192.577 C 191.840 192.721,191.311 192.380,190.225 191.819 C 188.427 190.891,187.200 190.543,187.200 190.962 M194.169 193.818 C 195.252 194.355,196.215 194.719,196.308 194.625 C 196.519 194.415,193.207 192.792,192.625 192.821 C 192.391 192.833,193.086 193.281,194.169 193.818 M197.200 194.991 C 197.200 195.277,200.513 196.821,200.708 196.625 C 200.801 196.532,200.106 196.083,199.164 195.628 C 197.324 194.739,197.200 194.699,197.200 194.991 M201.200 196.991 C 201.200 197.096,201.921 197.530,202.802 197.955 C 203.683 198.381,204.309 198.576,204.194 198.390 C 203.839 197.815,201.200 196.582,201.200 196.991 M204.800 198.943 C 204.800 199.022,205.925 199.775,207.300 200.616 C 208.675 201.458,209.932 202.338,210.094 202.573 C 210.296 202.866,210.390 202.855,210.394 202.536 C 210.397 202.281,209.234 201.336,207.810 200.436 C 205.357 198.887,204.800 198.611,204.800 198.943 M213.569 205.454 C 215.146 206.914,216.985 208.907,217.657 209.882 C 218.328 210.858,218.968 211.565,219.079 211.455 C 219.190 211.344,218.902 210.847,218.440 210.351 C 217.978 209.855,217.600 209.316,217.600 209.153 C 217.600 208.637,211.508 202.800,210.968 202.800 C 210.822 202.800,211.993 203.994,213.569 205.454 M242.800 206.510 C 242.800 206.863,242.980 207.264,243.200 207.400 C 243.420 207.536,243.600 207.895,243.600 208.198 C 243.600 208.970,244.384 210.949,244.604 210.730 C 244.791 210.542,243.398 206.465,243.016 206.083 C 242.897 205.964,242.800 206.156,242.800 206.510 M245.022 213.000 C 245.132 213.880,245.381 215.590,245.577 216.800 C 246.047 219.710,246.056 230.718,245.590 234.000 C 244.796 239.598,244.776 239.901,245.354 237.600 C 247.276 229.951,247.282 221.280,245.371 213.600 C 244.957 211.937,244.872 211.790,245.022 213.000 M219.213 212.271 C 219.235 212.834,220.400 214.185,220.400 213.648 C 220.400 213.370,220.130 212.873,219.800 212.543 C 219.470 212.213,219.206 212.091,219.213 212.271 M221.405 216.800 C 221.546 217.350,221.809 218.340,221.989 219.000 L 222.318 220.200 222.345 219.000 C 222.360 218.340,222.097 217.350,221.761 216.800 L 221.150 215.800 221.405 216.800 M222.440 220.876 C 222.559 222.446,223.120 223.416,223.160 222.124 C 223.182 221.422,223.020 220.736,222.800 220.600 C 222.580 220.464,222.418 220.588,222.440 220.876 M222.854 232.400 C 222.819 232.730,222.677 233.450,222.540 234.000 C 222.348 234.772,222.402 234.897,222.777 234.549 C 223.044 234.301,223.185 233.581,223.091 232.949 C 222.997 232.317,222.890 232.070,222.854 232.400 M221.928 236.200 C 221.789 236.860,221.551 237.850,221.400 238.400 C 221.159 239.280,221.205 239.259,221.782 238.218 C 222.142 237.568,222.380 236.578,222.309 236.018 C 222.185 235.032,222.173 235.038,221.928 236.200 M219.805 241.670 C 218.395 244.484,215.952 247.615,213.779 249.396 C 212.811 250.189,211.790 251.056,211.510 251.324 C 210.907 251.899,209.006 253.138,207.600 253.873 C 207.050 254.160,206.846 254.396,207.146 254.398 C 207.930 254.401,212.723 251.122,214.560 249.325 C 217.234 246.710,221.595 240.262,221.055 239.722 C 220.955 239.621,220.392 240.498,219.805 241.670 M244.012 241.473 C 243.755 242.313,243.356 243.387,243.126 243.861 C 242.895 244.334,242.778 244.935,242.865 245.196 C 242.952 245.457,243.436 244.468,243.941 242.998 C 244.446 241.528,244.773 240.240,244.669 240.136 C 244.565 240.032,244.269 240.633,244.012 241.473 M241.547 247.856 C 241.053 248.925,240.220 250.492,239.695 251.338 C 239.171 252.184,238.823 252.957,238.923 253.056 C 239.126 253.260,240.677 250.683,241.947 248.031 C 242.413 247.057,242.716 246.183,242.620 246.087 C 242.524 245.991,242.041 246.787,241.547 247.856 M142.814 248.366 C 142.548 249.007,142.187 250.132,142.012 250.866 C 141.836 251.600,141.557 252.560,141.392 253.000 L 141.092 253.800 141.733 253.000 C 142.086 252.560,142.380 251.817,142.387 251.349 C 142.394 250.881,142.671 249.850,143.002 249.058 L 143.603 247.618 145.502 248.685 C 147.146 249.609,150.959 251.528,153.899 252.911 C 154.394 253.144,154.888 253.246,154.996 253.137 C 155.105 253.029,154.250 252.522,153.097 252.011 C 150.320 250.782,146.955 249.122,145.088 248.060 C 143.220 246.998,143.390 246.975,142.814 248.366 M156.176 253.813 C 156.604 254.136,157.414 254.392,157.976 254.382 C 158.824 254.368,158.725 254.266,157.400 253.788 C 155.403 253.069,155.199 253.073,156.176 253.813 M236.658 255.770 C 235.810 256.954,234.148 258.885,232.964 260.061 C 231.780 261.238,230.809 262.352,230.806 262.537 C 230.800 262.871,233.103 260.578,235.400 257.962 C 237.281 255.820,238.872 253.599,238.520 253.609 C 238.344 253.613,237.506 254.586,236.658 255.770 M204.800 255.127 C 204.030 255.510,202.617 256.055,201.661 256.339 C 200.705 256.623,200.017 256.951,200.134 257.067 C 200.250 257.183,201.393 256.887,202.673 256.408 C 203.953 255.929,205.315 255.440,205.700 255.322 C 206.085 255.204,206.400 254.948,206.400 254.753 C 206.400 254.313,206.474 254.296,204.800 255.127 M161.852 255.573 C 162.100 255.842,163.090 256.133,164.052 256.218 C 165.710 256.366,165.728 256.356,164.400 256.041 C 163.630 255.858,162.640 255.567,162.200 255.395 C 161.580 255.153,161.502 255.193,161.852 255.573 M166.190 256.784 C 166.332 257.013,166.917 257.200,167.490 257.200 C 168.744 257.200,168.599 257.008,167.066 256.640 C 166.323 256.462,166.021 256.511,166.190 256.784 M139.683 258.423 C 139.398 259.345,139.239 260.172,139.329 260.262 C 139.613 260.546,140.477 258.093,140.335 257.405 C 140.261 257.043,139.967 257.501,139.683 258.423 M169.838 257.566 C 170.079 257.825,171.609 258.109,173.238 258.199 C 176.013 258.351,176.061 258.340,174.000 258.029 C 172.790 257.846,171.260 257.562,170.600 257.397 C 169.690 257.169,169.506 257.210,169.838 257.566 M197.442 257.491 C 197.282 257.651,196.217 257.896,195.075 258.035 L 193.000 258.287 194.800 258.313 C 196.612 258.339,200.255 257.292,198.567 257.230 C 198.108 257.214,197.602 257.331,197.442 257.491 M177.676 258.860 C 178.909 259.207,191.214 259.217,192.085 258.872 C 192.462 258.722,189.166 258.600,184.761 258.600 C 180.357 258.600,177.168 258.717,177.676 258.860 M138.479 262.687 C 137.471 265.303,137.466 266.430,138.460 267.135 C 139.984 268.215,141.200 268.778,141.200 268.403 C 141.200 268.211,140.821 267.934,140.357 267.786 C 138.131 267.080,137.653 265.478,138.900 262.901 C 139.139 262.406,139.238 261.905,139.121 261.788 C 139.004 261.670,138.715 262.075,138.479 262.687 M227.913 264.513 C 226.655 265.441,225.620 266.346,225.613 266.525 C 225.597 266.914,228.917 264.576,229.860 263.533 C 230.847 262.443,230.445 262.645,227.913 264.513 M223.575 267.592 C 223.011 268.013,221.602 268.834,220.444 269.415 C 219.286 269.997,218.422 270.555,218.523 270.656 C 218.623 270.757,219.402 270.450,220.253 269.974 C 223.423 268.201,225.200 267.119,225.200 266.962 C 225.200 266.610,224.551 266.862,223.575 267.592 M142.000 268.991 C 142.000 269.277,145.313 270.821,145.508 270.625 C 145.601 270.532,144.906 270.083,143.964 269.628 C 142.124 268.739,142.000 268.699,142.000 268.991 M147.600 271.480 C 148.370 271.826,149.405 272.295,149.899 272.522 C 150.394 272.749,150.895 272.838,151.012 272.721 C 151.130 272.604,150.635 272.288,149.913 272.020 C 149.191 271.753,148.287 271.368,147.905 271.167 C 147.523 270.965,146.983 270.812,146.705 270.826 C 146.427 270.840,146.830 271.134,147.600 271.480 M216.800 271.181 C 216.470 271.364,215.682 271.721,215.048 271.972 C 214.415 272.224,214.013 272.546,214.155 272.688 C 214.297 272.830,214.626 272.734,214.887 272.473 C 215.147 272.213,215.639 271.994,215.980 271.987 C 216.321 271.980,216.949 271.710,217.376 271.387 C 218.202 270.763,217.806 270.621,216.800 271.181 M152.800 273.262 C 154.261 273.863,157.773 274.760,157.955 274.578 C 158.210 274.323,156.024 273.600,154.998 273.600 C 154.475 273.600,153.936 273.420,153.800 273.200 C 153.664 272.980,153.158 272.811,152.676 272.825 C 151.847 272.849,151.854 272.873,152.800 273.262 M211.832 273.147 C 211.714 273.339,210.904 273.609,210.032 273.749 C 208.486 273.996,207.355 274.800,208.553 274.800 C 208.883 274.800,209.264 274.620,209.400 274.400 C 209.536 274.180,210.042 273.994,210.524 273.986 C 211.613 273.968,213.740 272.835,212.724 272.814 C 212.352 272.806,211.951 272.956,211.832 273.147 M160.200 275.253 C 160.860 275.465,162.390 275.807,163.600 276.015 C 164.810 276.222,166.340 276.506,167.000 276.646 C 167.892 276.835,168.090 276.783,167.772 276.442 C 167.536 276.190,166.135 275.870,164.659 275.733 C 163.182 275.595,161.879 275.328,161.764 275.141 C 161.648 274.953,160.978 274.815,160.276 274.834 L 159.000 274.869 160.200 275.253 M205.036 275.142 C 204.920 275.330,203.726 275.598,202.382 275.739 C 201.039 275.879,199.638 276.187,199.270 276.424 C 198.755 276.754,198.925 276.790,200.000 276.579 C 200.770 276.428,202.210 276.171,203.200 276.008 C 205.562 275.620,207.431 274.863,206.124 274.825 C 205.642 274.811,205.152 274.954,205.036 275.142 M174.200 277.430 C 178.195 278.092,192.055 277.953,195.000 277.222 C 196.275 276.906,195.991 276.880,193.600 277.095 C 189.625 277.453,177.373 277.464,173.600 277.113 L 170.600 276.835 174.200 277.430 M12.811 383.042 C 12.796 383.650,16.295 387.200,16.906 387.198 C 17.178 387.197,16.887 386.785,16.259 386.283 C 15.632 385.781,14.601 384.747,13.970 383.985 C 13.338 383.223,12.817 382.799,12.811 383.042 M384.924 385.044 C 383.782 386.230,383.012 387.200,383.213 387.200 C 383.704 387.200,387.200 383.683,387.200 383.189 C 387.200 382.664,387.271 382.606,384.924 385.044 M18.176 387.767 C 19.319 388.698,380.593 388.744,381.824 387.813 C 382.251 387.490,382.411 387.220,382.180 387.213 C 381.949 387.206,381.580 387.380,381.359 387.601 C 380.864 388.096,19.393 387.963,18.200 387.467 C 17.412 387.140,17.411 387.144,18.176 387.767 " stroke="none" fill="#0e2d12" fill-rule="evenodd"></path><path id="path2" d="M18.131 12.621 C 17.432 12.927,16.723 13.407,16.554 13.689 C 16.316 14.085,16.377 14.097,16.823 13.743 C 17.140 13.492,18.210 13.005,19.200 12.662 C 20.190 12.319,20.640 12.044,20.200 12.052 C 19.760 12.059,18.829 12.315,18.131 12.621 M380.000 12.285 C 380.330 12.407,381.276 12.827,382.102 13.218 C 382.928 13.609,383.500 13.762,383.374 13.558 C 383.101 13.117,380.494 11.987,379.851 12.032 C 379.603 12.049,379.670 12.163,380.000 12.285 M385.039 15.176 C 385.500 15.739,386.175 16.645,386.539 17.189 C 386.902 17.733,387.200 17.981,387.200 17.740 C 387.200 17.500,386.525 16.594,385.700 15.728 C 384.875 14.862,384.577 14.613,385.039 15.176 M12.465 18.617 C 12.209 19.178,12.008 19.944,12.018 20.319 C 12.027 20.693,12.289 20.287,12.600 19.415 C 13.245 17.604,13.159 17.094,12.465 18.617 M196.300 91.098 C 198.335 91.171,201.665 91.171,203.700 91.098 C 205.735 91.025,204.070 90.966,200.000 90.966 C 195.930 90.966,194.265 91.025,196.300 91.098 M188.200 91.600 L 187.000 91.905 188.200 91.913 C 188.860 91.917,189.850 91.776,190.400 91.600 L 191.400 91.280 190.400 91.287 C 189.850 91.291,188.860 91.432,188.200 91.600 M210.000 91.600 C 210.330 91.813,211.410 91.969,212.400 91.947 C 214.042 91.909,214.094 91.878,213.000 91.600 C 211.137 91.126,209.267 91.126,210.000 91.600 M183.200 92.400 C 182.436 92.894,183.258 92.894,184.800 92.400 L 185.800 92.080 184.800 92.046 C 184.250 92.027,183.530 92.187,183.200 92.400 M217.000 92.405 C 217.660 92.624,219.100 92.973,220.200 93.181 C 221.300 93.389,222.740 93.662,223.400 93.788 C 224.560 94.009,224.567 94.002,223.600 93.578 C 222.645 93.158,219.565 92.498,217.000 92.164 L 215.800 92.008 217.000 92.405 M179.000 93.422 C 177.985 93.918,177.954 93.972,178.800 93.769 C 179.350 93.638,180.430 93.387,181.200 93.211 C 182.583 92.896,182.585 92.892,181.400 92.864 C 180.740 92.849,179.660 93.100,179.000 93.422 M174.257 94.814 C 173.189 95.220,172.214 95.653,172.091 95.776 C 171.729 96.138,172.750 96.032,173.505 95.630 C 173.887 95.426,174.920 94.985,175.800 94.650 C 176.680 94.315,177.130 94.049,176.800 94.059 C 176.470 94.068,175.326 94.408,174.257 94.814 M227.794 95.005 C 229.330 95.522,230.665 95.868,230.760 95.773 C 230.856 95.678,230.856 95.600,230.761 95.600 C 230.666 95.600,229.604 95.240,228.400 94.800 C 227.196 94.360,225.939 94.014,225.606 94.032 C 225.273 94.049,226.257 94.487,227.794 95.005 M169.242 96.837 C 168.275 97.266,167.568 97.702,167.672 97.806 C 167.776 97.910,168.748 97.555,169.831 97.018 C 172.174 95.857,171.748 95.725,169.242 96.837 M231.642 96.175 C 231.975 96.508,235.600 97.971,235.600 97.772 C 235.600 97.662,234.775 97.218,233.767 96.786 C 231.979 96.020,231.287 95.821,231.642 96.175 M165.497 98.766 C 163.898 99.791,163.603 100.206,165.000 99.466 C 166.676 98.577,167.471 98.008,167.000 98.035 C 166.780 98.048,166.104 98.377,165.497 98.766 M238.126 99.246 C 238.525 99.478,238.990 100.044,239.160 100.503 C 239.329 100.962,239.582 101.153,239.720 100.929 C 240.018 100.447,238.584 98.795,237.884 98.812 C 237.618 98.819,237.726 99.014,238.126 99.246 M158.925 103.168 C 157.206 104.470,154.900 106.490,153.800 107.657 L 151.800 109.779 154.400 107.385 C 155.830 106.069,157.863 104.364,158.919 103.596 C 161.837 101.473,162.626 100.828,162.325 100.813 C 162.173 100.806,160.643 101.865,158.925 103.168 M238.846 102.276 C 238.821 102.758,238.620 103.264,238.400 103.400 C 238.180 103.536,238.007 103.952,238.016 104.324 C 238.027 104.776,238.234 104.628,238.641 103.877 C 238.976 103.259,239.169 102.449,239.071 102.077 C 238.941 101.582,238.880 101.636,238.846 102.276 M236.715 108.210 C 236.592 108.645,236.369 109.360,236.220 109.800 C 236.071 110.240,236.242 110.094,236.600 109.476 C 236.958 108.858,237.181 108.142,237.095 107.886 C 237.010 107.630,236.839 107.776,236.715 108.210 M150.216 111.709 C 149.565 112.639,149.348 113.146,149.735 112.836 C 150.671 112.084,152.141 109.998,151.727 110.009 C 151.547 110.013,150.867 110.778,150.216 111.709 M196.100 110.697 C 197.805 110.772,200.595 110.772,202.300 110.697 C 204.005 110.622,202.610 110.561,199.200 110.561 C 195.790 110.561,194.395 110.622,196.100 110.697 M189.900 111.082 C 190.395 111.178,191.205 111.178,191.700 111.082 C 192.195 110.987,191.790 110.909,190.800 110.909 C 189.810 110.909,189.405 110.987,189.900 111.082 M207.500 111.082 C 207.995 111.178,208.805 111.178,209.300 111.082 C 209.795 110.987,209.390 110.909,208.400 110.909 C 207.410 110.909,207.005 110.987,207.500 111.082 M187.000 111.600 C 186.496 111.817,186.422 111.944,186.800 111.944 C 187.130 111.944,187.760 111.789,188.200 111.600 C 188.704 111.383,188.778 111.256,188.400 111.256 C 188.070 111.256,187.440 111.411,187.000 111.600 M211.000 111.600 C 211.440 111.789,212.160 111.944,212.600 111.944 L 213.400 111.944 212.600 111.600 C 212.160 111.411,211.440 111.256,211.000 111.256 L 210.200 111.256 211.000 111.600 M183.800 112.400 C 183.508 112.873,183.899 112.873,185.000 112.400 C 185.771 112.069,185.769 112.055,184.924 112.028 C 184.442 112.013,183.936 112.180,183.800 112.400 M214.600 112.221 C 215.076 112.409,218.982 113.467,220.400 113.793 L 221.400 114.023 220.400 113.575 C 219.167 113.023,215.334 111.989,214.680 112.032 C 214.416 112.049,214.380 112.134,214.600 112.221 M181.376 113.387 C 180.366 114.151,180.804 114.159,182.254 113.402 C 182.884 113.074,183.119 112.804,182.776 112.802 C 182.434 112.801,181.804 113.064,181.376 113.387 M234.732 114.000 C 234.606 114.550,234.378 115.360,234.226 115.800 C 234.074 116.240,234.242 116.095,234.599 115.477 C 234.957 114.859,235.185 114.049,235.105 113.677 C 235.002 113.194,234.895 113.287,234.732 114.000 M147.389 115.844 C 146.600 117.078,146.030 118.163,146.123 118.256 C 146.216 118.349,146.938 117.339,147.729 116.012 C 149.539 112.973,149.301 112.855,147.389 115.844 M178.081 114.881 C 177.356 115.329,176.838 115.771,176.931 115.864 C 177.108 116.042,180.000 114.436,180.000 114.160 C 180.000 113.846,179.381 114.078,178.081 114.881 M223.000 114.650 C 223.880 114.985,224.913 115.426,225.295 115.630 C 226.168 116.095,226.510 116.102,226.230 115.648 C 226.016 115.302,222.358 113.980,221.725 114.021 C 221.546 114.032,222.120 114.315,223.000 114.650 M174.804 117.104 C 173.088 118.451,169.600 121.977,169.600 122.365 C 169.600 122.521,169.222 123.055,168.760 123.551 C 168.298 124.047,168.010 124.544,168.121 124.655 C 168.232 124.765,168.876 124.052,169.552 123.070 C 170.228 122.087,172.090 120.097,173.691 118.646 C 176.714 115.906,177.214 115.213,174.804 117.104 M233.281 118.018 C 232.972 118.513,232.946 118.800,233.209 118.800 C 233.438 118.800,233.732 118.522,233.862 118.183 C 234.222 117.245,233.833 117.134,233.281 118.018 M144.670 121.010 C 144.521 121.445,144.291 122.070,144.158 122.400 C 144.026 122.730,144.219 122.590,144.588 122.090 C 144.958 121.589,145.188 120.964,145.100 120.700 C 145.010 120.431,144.822 120.567,144.670 121.010 M142.712 126.400 C 142.576 126.950,142.350 127.850,142.210 128.400 C 142.052 129.022,142.197 128.879,142.592 128.021 C 142.942 127.262,143.168 126.362,143.094 126.021 C 143.010 125.631,142.868 125.772,142.712 126.400 M166.485 127.613 C 166.218 128.040,166.007 128.617,166.016 128.895 C 166.025 129.173,166.309 128.889,166.647 128.265 C 167.350 126.968,167.218 126.438,166.485 127.613 M141.453 131.741 C 141.286 132.588,141.241 133.375,141.355 133.488 C 141.658 133.791,142.097 131.785,141.914 130.932 C 141.820 130.490,141.637 130.811,141.453 131.741 M164.680 135.366 C 164.526 137.108,164.473 138.607,164.564 138.698 C 164.811 138.944,165.306 133.836,165.121 132.958 C 165.033 132.541,164.835 133.625,164.680 135.366 M140.955 140.200 C 140.956 143.060,141.020 144.178,141.097 142.683 C 141.174 141.189,141.174 138.849,141.096 137.483 C 141.018 136.118,140.955 137.340,140.955 140.200 M164.924 141.400 C 164.926 142.720,165.001 143.212,165.090 142.493 C 165.179 141.774,165.177 140.694,165.086 140.093 C 164.995 139.492,164.922 140.080,164.924 141.400 M165.256 144.400 C 165.256 144.730,165.411 145.360,165.600 145.800 C 165.817 146.304,165.944 146.378,165.944 146.000 C 165.944 145.670,165.789 145.040,165.600 144.600 C 165.383 144.096,165.256 144.022,165.256 144.400 M141.268 147.400 C 141.274 147.840,141.424 148.650,141.600 149.200 L 141.920 150.200 141.932 149.200 C 141.938 148.650,141.789 147.840,141.600 147.400 L 141.256 146.600 141.268 147.400 M166.030 147.200 C 166.028 147.776,167.157 150.066,167.186 149.546 C 167.194 149.406,166.937 148.686,166.616 147.946 C 166.294 147.206,166.031 146.870,166.030 147.200 M142.024 151.200 C 142.017 151.530,142.271 152.520,142.588 153.400 C 142.905 154.280,143.170 154.730,143.176 154.400 C 143.183 154.070,142.929 153.080,142.612 152.200 C 142.295 151.320,142.030 150.870,142.024 151.200 M168.000 151.386 C 168.000 151.936,170.698 155.359,172.570 157.183 C 173.577 158.164,174.400 158.860,174.400 158.730 C 174.400 158.599,173.526 157.617,172.457 156.546 C 171.388 155.476,169.948 153.808,169.257 152.840 C 168.566 151.872,168.000 151.218,168.000 151.386 M144.027 157.600 C 144.026 157.930,144.290 158.549,144.613 158.976 C 145.360 159.964,145.352 159.315,144.600 158.000 C 144.268 157.420,144.028 157.252,144.027 157.600 M175.646 159.678 C 177.690 161.479,178.478 162.055,178.655 161.878 C 178.753 161.780,177.881 161.037,176.717 160.228 C 175.553 159.418,175.071 159.171,175.646 159.678 M146.002 161.900 C 146.003 162.065,146.457 162.740,147.010 163.400 L 148.016 164.600 147.168 163.100 C 146.345 161.642,145.998 161.285,146.002 161.900 M179.401 162.402 C 179.519 162.593,180.155 163.018,180.815 163.347 C 181.474 163.676,181.917 163.789,181.799 163.598 C 181.681 163.407,181.045 162.982,180.385 162.653 C 179.726 162.324,179.283 162.211,179.401 162.402 M182.800 164.421 C 183.842 165.130,185.600 166.028,185.600 165.850 C 185.600 165.628,182.839 163.998,182.477 164.006 C 182.325 164.009,182.470 164.196,182.800 164.421 M148.000 165.102 C 148.000 165.322,148.270 165.726,148.600 166.000 C 148.935 166.278,149.200 166.321,149.200 166.098 C 149.200 165.878,148.930 165.474,148.600 165.200 C 148.265 164.922,148.000 164.879,148.000 165.102 M151.260 169.300 C 153.818 172.288,153.598 172.069,156.710 174.727 C 158.079 175.898,159.200 176.663,159.200 176.427 C 159.200 176.192,159.026 176.000,158.814 176.000 C 158.602 176.000,156.532 174.104,154.214 171.786 C 151.896 169.468,150.000 167.398,150.000 167.186 C 150.000 166.974,149.802 166.800,149.560 166.800 C 149.319 166.800,150.084 167.925,151.260 169.300 M188.546 167.402 C 190.005 168.163,190.375 168.168,189.376 167.413 C 188.949 167.090,188.330 166.821,188.000 166.815 C 187.670 166.810,187.916 167.074,188.546 167.402 M192.946 169.402 C 194.396 170.159,194.834 170.151,193.824 169.387 C 193.396 169.064,192.766 168.801,192.424 168.802 C 192.081 168.804,192.316 169.074,192.946 169.402 M200.800 172.600 C 201.350 172.914,202.070 173.171,202.400 173.170 C 202.730 173.169,202.394 172.906,201.654 172.584 C 199.951 171.845,199.494 171.853,200.800 172.600 M205.600 174.600 C 206.150 174.914,206.870 175.177,207.200 175.183 C 207.530 175.190,207.284 174.926,206.654 174.598 C 205.194 173.836,204.267 173.838,205.600 174.600 M159.764 177.142 C 160.232 177.899,170.400 184.353,170.400 183.893 C 170.400 183.792,168.672 182.664,166.560 181.386 C 164.448 180.108,162.513 178.866,162.260 178.626 C 161.465 177.872,159.489 176.697,159.764 177.142 M211.824 177.387 C 212.251 177.710,212.780 177.975,213.000 177.975 C 213.220 177.975,213.051 177.710,212.624 177.387 C 212.196 177.064,211.667 176.800,211.447 176.800 C 211.227 176.800,211.396 177.064,211.824 177.387 M215.824 179.387 C 216.251 179.710,216.780 179.975,217.000 179.975 C 217.220 179.975,217.051 179.710,216.624 179.387 C 216.196 179.064,215.667 178.800,215.447 178.800 C 215.227 178.800,215.396 179.064,215.824 179.387 M217.600 180.145 C 217.600 180.225,219.328 181.336,221.440 182.614 C 223.552 183.892,225.487 185.134,225.740 185.374 C 225.993 185.614,226.740 186.133,227.400 186.527 L 228.600 187.244 227.400 186.207 C 225.509 184.571,217.600 179.680,217.600 180.145 M177.200 187.400 C 177.750 187.714,178.380 187.972,178.600 187.972 C 178.820 187.972,178.550 187.714,178.000 187.400 C 177.450 187.086,176.820 186.828,176.600 186.828 C 176.380 186.828,176.650 187.086,177.200 187.400 M181.152 189.009 C 182.335 189.570,183.378 189.956,183.468 189.865 C 183.559 189.774,182.861 189.388,181.917 189.006 C 179.180 187.900,178.817 187.901,181.152 189.009 M187.146 191.416 C 187.886 191.737,188.696 191.993,188.946 191.984 C 189.196 191.976,188.794 191.706,188.054 191.384 C 187.314 191.063,186.504 190.807,186.254 190.816 C 186.004 190.824,186.406 191.094,187.146 191.416 M232.800 190.877 C 232.800 190.987,233.160 191.493,233.600 192.000 C 234.040 192.507,234.400 192.743,234.400 192.523 C 234.400 192.304,234.040 191.798,233.600 191.400 C 233.160 191.002,232.800 190.766,232.800 190.877 M191.552 193.009 C 192.735 193.570,193.778 193.956,193.868 193.865 C 193.959 193.774,193.261 193.388,192.317 193.006 C 189.580 191.900,189.217 191.901,191.552 193.009 M235.149 193.504 C 235.356 193.892,235.936 194.567,236.437 195.004 C 237.183 195.656,237.145 195.528,236.226 194.300 C 235.040 192.713,234.520 192.329,235.149 193.504 M196.946 195.402 C 198.405 196.163,198.775 196.168,197.776 195.413 C 197.349 195.090,196.730 194.821,196.400 194.815 C 196.070 194.810,196.316 195.074,196.946 195.402 M198.800 196.191 C 198.800 196.437,202.099 198.035,202.265 197.869 C 202.385 197.748,199.296 196.000,198.962 196.000 C 198.873 196.000,198.800 196.086,198.800 196.191 M238.000 197.200 C 238.470 197.860,238.942 198.400,239.050 198.400 C 239.157 198.400,238.926 197.860,238.536 197.200 C 238.146 196.540,237.674 196.000,237.487 196.000 C 237.299 196.000,237.530 196.540,238.000 197.200 M203.344 198.524 C 209.428 202.422,211.797 204.216,214.713 207.134 C 216.618 209.040,217.796 210.060,217.331 209.400 C 215.107 206.244,204.502 197.891,202.887 198.024 C 202.729 198.036,202.935 198.261,203.344 198.524 M242.000 203.725 C 242.000 204.008,243.960 207.779,243.979 207.533 C 244.014 207.094,242.446 203.600,242.214 203.600 C 242.096 203.600,242.000 203.656,242.000 203.725 M244.020 208.400 C 244.016 208.510,244.271 209.320,244.588 210.200 C 244.905 211.080,245.166 211.440,245.168 211.000 C 245.171 210.335,244.045 207.785,244.020 208.400 M245.444 213.400 C 245.773 214.871,246.002 215.190,245.994 214.167 C 245.991 213.745,245.805 213.130,245.582 212.800 C 245.285 212.362,245.248 212.524,245.444 213.400 M220.014 214.254 C 220.006 214.504,220.269 215.224,220.598 215.854 C 220.926 216.484,221.190 216.730,221.183 216.400 C 221.169 215.683,220.035 213.600,220.014 214.254 M246.095 217.000 C 246.095 217.660,246.232 218.740,246.400 219.400 L 246.705 220.600 246.705 219.400 C 246.705 218.740,246.568 217.660,246.400 217.000 L 246.095 215.800 246.095 217.000 M222.283 221.400 C 222.438 222.280,222.564 225.070,222.564 227.600 C 222.564 230.130,222.438 232.920,222.283 233.800 C 222.047 235.145,222.097 235.081,222.594 233.400 C 222.933 232.251,223.185 229.783,223.185 227.600 C 223.185 225.417,222.933 222.949,222.594 221.800 C 222.097 220.119,222.047 220.055,222.283 221.400 M246.715 226.400 C 246.558 229.590,246.337 232.920,246.225 233.800 C 246.112 234.680,246.286 234.140,246.613 232.600 C 246.989 230.821,247.168 228.123,247.103 225.200 L 247.000 220.600 246.715 226.400 M221.400 236.800 C 221.250 237.273,221.217 237.750,221.327 237.860 C 221.437 237.970,221.650 237.673,221.800 237.200 C 221.950 236.727,221.983 236.250,221.873 236.140 C 221.763 236.030,221.550 236.327,221.400 236.800 M245.400 237.600 C 245.248 238.291,245.214 238.947,245.324 239.057 C 245.434 239.167,245.648 238.691,245.800 238.000 C 245.952 237.309,245.986 236.653,245.876 236.543 C 245.766 236.433,245.552 236.909,245.400 237.600 M220.670 239.010 C 220.521 239.445,220.291 240.070,220.158 240.400 C 220.026 240.730,220.219 240.590,220.588 240.090 C 220.958 239.589,221.188 238.964,221.100 238.700 C 221.010 238.431,220.822 238.567,220.670 239.010 M244.712 240.400 C 244.576 240.950,244.350 241.850,244.210 242.400 C 244.052 243.022,244.197 242.879,244.592 242.021 C 244.942 241.262,245.168 240.362,245.094 240.021 C 245.010 239.631,244.868 239.772,244.712 240.400 M218.867 242.667 C 218.359 243.442,218.023 244.157,218.122 244.255 C 218.220 244.354,218.690 243.774,219.167 242.967 C 220.290 241.063,220.065 240.838,218.867 242.667 M216.435 246.223 C 215.404 247.737,210.331 252.001,208.332 253.035 C 207.669 253.378,207.216 253.749,207.326 253.859 C 207.552 254.085,210.577 252.192,211.800 251.059 C 212.240 250.652,213.174 249.874,213.875 249.331 C 215.322 248.210,218.224 244.799,217.727 244.803 C 217.547 244.804,216.966 245.443,216.435 246.223 M242.670 246.210 C 242.521 246.645,242.291 247.270,242.158 247.600 C 242.026 247.930,242.219 247.790,242.588 247.290 C 242.958 246.789,243.188 246.164,243.100 245.900 C 243.010 245.631,242.822 245.767,242.670 246.210 M142.610 247.980 C 142.275 248.629,142.009 249.394,142.021 249.680 C 142.032 249.966,142.321 249.525,142.663 248.700 C 143.290 247.189,143.745 246.863,144.200 247.600 C 144.336 247.820,144.662 247.994,144.924 247.987 C 145.434 247.974,144.060 246.800,143.534 246.800 C 143.362 246.800,142.946 247.331,142.610 247.980 M239.251 252.801 C 236.695 256.787,233.085 260.838,228.789 264.542 C 227.353 265.780,227.276 265.902,228.400 265.160 C 231.858 262.877,241.975 251.022,241.149 250.220 C 241.067 250.141,240.213 251.302,239.251 252.801 M141.400 251.600 C 141.250 252.073,141.217 252.550,141.327 252.660 C 141.437 252.770,141.650 252.473,141.800 252.000 C 141.950 251.527,141.983 251.050,141.873 250.940 C 141.763 250.830,141.550 251.127,141.400 251.600 M155.552 253.009 C 156.735 253.570,157.778 253.956,157.868 253.865 C 157.959 253.774,157.261 253.388,156.317 253.006 C 153.580 251.900,153.217 251.901,155.552 253.009 M140.846 253.876 C 140.821 254.358,140.620 254.864,140.400 255.000 C 140.180 255.136,140.007 255.642,140.016 256.124 C 140.028 256.814,140.158 256.707,140.630 255.621 C 140.959 254.862,141.153 253.962,141.060 253.621 C 140.956 253.236,140.875 253.333,140.846 253.876 M158.800 254.165 C 158.800 254.426,164.072 256.061,164.271 255.863 C 164.368 255.765,163.275 255.306,161.841 254.842 C 159.120 253.964,158.800 253.892,158.800 254.165 M203.200 255.400 C 201.867 256.162,202.794 256.164,204.254 255.402 C 204.884 255.074,205.130 254.810,204.800 254.817 C 204.470 254.823,203.750 255.086,203.200 255.400 M166.200 256.400 C 167.396 256.914,168.395 256.914,167.600 256.400 C 167.270 256.187,166.640 256.022,166.200 256.034 L 165.400 256.056 166.200 256.400 M200.200 256.400 C 200.064 256.620,199.558 256.803,199.076 256.806 C 198.594 256.809,197.390 257.081,196.400 257.410 C 195.239 257.796,195.026 257.944,195.800 257.829 C 199.182 257.323,203.008 256.074,201.324 256.025 C 200.842 256.011,200.336 256.180,200.200 256.400 M171.600 257.600 C 172.150 257.776,172.960 257.926,173.400 257.932 L 174.200 257.944 173.400 257.600 C 172.960 257.411,172.150 257.262,171.600 257.268 L 170.600 257.280 171.600 257.600 M177.800 258.465 C 180.418 258.812,189.304 258.815,191.600 258.470 C 192.590 258.322,189.440 258.200,184.600 258.200 C 179.760 258.200,176.700 258.319,177.800 258.465 M138.854 260.476 C 138.825 261.068,138.620 261.664,138.400 261.800 C 138.180 261.936,138.007 262.352,138.016 262.724 C 138.027 263.176,138.234 263.028,138.641 262.277 C 138.976 261.659,139.173 260.759,139.079 260.277 C 138.936 259.537,138.900 259.568,138.854 260.476 M137.443 264.633 C 136.883 266.092,137.801 268.031,139.031 267.987 C 139.234 267.979,138.980 267.623,138.466 267.195 C 137.717 266.571,137.585 266.179,137.798 265.209 C 138.079 263.931,137.853 263.564,137.443 264.633 M223.695 267.902 C 222.098 268.904,220.864 269.797,220.953 269.886 C 221.140 270.074,226.800 266.508,226.800 266.203 C 226.800 265.937,227.013 265.821,223.695 267.902 M139.600 268.191 C 139.600 268.437,142.899 270.035,143.065 269.869 C 143.185 269.748,140.096 268.000,139.762 268.000 C 139.673 268.000,139.600 268.086,139.600 268.191 M146.346 271.416 C 147.086 271.737,147.806 271.994,147.946 271.986 C 148.466 271.957,146.176 270.828,145.600 270.830 C 145.270 270.831,145.606 271.094,146.346 271.416 M217.376 271.387 C 216.949 271.710,216.780 271.975,217.000 271.975 C 217.220 271.975,217.749 271.710,218.176 271.387 C 218.604 271.064,218.773 270.800,218.553 270.800 C 218.333 270.800,217.804 271.064,217.376 271.387 M214.800 272.376 C 214.470 272.557,213.570 272.985,212.800 273.327 C 212.030 273.669,211.704 273.960,212.076 273.974 C 212.448 273.988,212.864 273.820,213.000 273.600 C 213.136 273.380,213.562 273.200,213.947 273.200 C 214.332 273.200,214.996 272.936,215.424 272.613 C 216.248 271.989,215.809 271.823,214.800 272.376 M151.800 273.412 C 152.680 273.729,153.580 273.976,153.800 273.961 C 154.510 273.915,151.828 272.836,151.000 272.836 C 150.560 272.835,150.920 273.095,151.800 273.412 M156.000 274.600 C 156.770 274.897,157.850 275.141,158.400 275.143 C 158.979 275.145,158.558 274.912,157.400 274.591 C 154.878 273.890,154.170 273.895,156.000 274.600 M205.800 275.422 C 204.525 276.045,204.896 276.006,207.800 275.211 C 208.904 274.908,208.920 274.880,208.000 274.859 C 207.450 274.846,206.460 275.100,205.800 275.422 M160.200 275.600 C 160.640 275.789,161.270 275.944,161.600 275.944 C 161.978 275.944,161.904 275.817,161.400 275.600 C 160.960 275.411,160.330 275.256,160.000 275.256 C 159.622 275.256,159.696 275.383,160.200 275.600 M164.400 276.400 C 165.768 276.838,166.819 276.838,165.800 276.400 C 165.360 276.211,164.640 276.062,164.200 276.068 C 163.557 276.077,163.596 276.143,164.400 276.400 M201.000 276.400 L 200.200 276.744 201.000 276.744 C 201.440 276.744,202.160 276.589,202.600 276.400 L 203.400 276.056 202.600 276.056 C 202.160 276.056,201.440 276.211,201.000 276.400 M168.105 277.087 C 168.714 277.179,169.614 277.177,170.105 277.082 C 170.597 276.987,170.100 276.911,169.000 276.914 C 167.900 276.917,167.497 276.995,168.105 277.087 M196.200 277.027 C 195.980 277.117,194.540 277.365,193.000 277.578 L 190.200 277.965 193.000 277.759 C 194.540 277.645,196.790 277.408,198.000 277.232 L 200.200 276.913 198.400 276.888 C 197.410 276.874,196.420 276.937,196.200 277.027 M172.000 277.579 C 172.979 277.913,177.096 278.147,176.767 277.849 C 176.675 277.766,175.340 277.595,173.800 277.468 C 172.032 277.322,171.369 277.363,172.000 277.579 M12.032 379.851 C 11.987 380.494,13.117 383.101,13.558 383.374 C 13.762 383.500,13.609 382.928,13.218 382.102 C 12.827 381.276,12.407 380.330,12.285 380.000 C 12.163 379.670,12.049 379.603,12.032 379.851 M386.314 383.112 C 385.368 384.710,383.997 385.877,381.774 386.979 C 380.688 387.518,380.020 387.967,380.288 387.979 C 381.966 388.051,387.931 382.998,387.123 382.189 C 387.032 382.099,386.668 382.514,386.314 383.112 M14.959 385.113 C 16.098 386.345,19.104 388.022,20.096 387.978 C 20.373 387.965,19.801 387.631,18.825 387.236 C 17.849 386.840,16.319 385.918,15.425 385.188 L 13.800 383.859 14.959 385.113 " stroke="none" fill="#1a5422" fill-rule="evenodd"></path><path id="path3" d="M199.980 12.300 C 318.766 12.367,379.496 12.536,379.760 12.800 C 379.980 13.020,380.529 13.185,380.980 13.168 C 381.644 13.141,381.571 13.030,380.600 12.586 C 379.587 12.122,351.412 12.049,200.000 12.118 L 20.600 12.199 199.980 12.300 M17.815 13.223 C 15.179 14.538,12.400 18.026,12.400 20.019 C 12.400 20.891,13.105 19.975,13.341 18.797 C 13.484 18.082,14.410 16.752,15.581 15.581 C 16.752 14.410,18.082 13.484,18.797 13.341 C 19.468 13.206,20.114 12.940,20.232 12.748 C 20.589 12.170,19.495 12.385,17.815 13.223 M382.543 13.800 C 382.873 14.130,383.259 14.400,383.400 14.400 C 384.140 14.400,386.800 18.089,386.800 19.114 C 386.800 19.575,386.980 20.064,387.200 20.200 C 387.732 20.529,387.756 378.922,387.224 379.905 C 387.017 380.287,386.755 381.052,386.641 381.604 C 386.420 382.672,384.449 384.996,382.811 386.121 C 382.267 386.494,382.010 386.800,382.239 386.800 C 383.197 386.800,386.025 383.824,386.976 381.814 L 388.000 379.650 388.000 200.296 C 388.000 33.926,387.952 20.801,387.333 18.985 C 386.679 17.066,383.376 13.200,382.390 13.200 C 382.128 13.200,382.191 13.448,382.543 13.800 M12.118 200.000 C 12.049 351.412,12.122 379.587,12.586 380.600 C 13.030 381.571,13.141 381.644,13.168 380.980 C 13.185 380.529,13.020 379.980,12.800 379.760 C 12.536 379.496,12.367 318.766,12.300 199.980 L 12.199 20.600 12.118 200.000 M187.200 91.200 C 186.870 91.413,185.880 91.599,185.000 91.612 C 184.120 91.625,182.860 91.899,182.200 92.220 L 181.000 92.803 182.200 92.577 C 183.579 92.318,187.595 91.685,190.800 91.222 L 193.000 90.905 190.400 90.859 C 188.970 90.833,187.530 90.987,187.200 91.200 M209.800 91.206 C 214.355 91.727,218.530 92.335,219.600 92.631 C 220.401 92.854,220.505 92.807,220.123 92.398 C 219.571 91.805,215.281 91.194,210.400 91.012 L 207.000 90.885 209.800 91.206 M177.800 93.200 C 177.664 93.420,177.158 93.606,176.676 93.614 C 176.194 93.622,175.350 93.903,174.800 94.239 L 173.800 94.850 174.800 94.598 C 177.056 94.029,178.252 93.669,179.200 93.271 L 180.200 92.851 179.124 92.825 C 178.532 92.811,177.936 92.980,177.800 93.200 M222.800 93.253 C 223.350 93.474,224.520 93.801,225.400 93.978 C 226.280 94.156,227.360 94.428,227.800 94.583 C 228.589 94.861,228.589 94.856,227.824 94.233 C 227.396 93.885,226.462 93.600,225.747 93.600 C 225.032 93.600,224.336 93.420,224.200 93.200 C 224.064 92.980,223.468 92.811,222.876 92.825 L 221.800 92.851 222.800 93.253 M172.000 95.200 C 172.000 95.420,171.674 95.600,171.276 95.600 C 170.879 95.600,170.204 95.864,169.776 96.187 C 168.638 97.048,169.518 96.884,171.800 95.809 C 173.256 95.123,173.555 94.858,172.900 94.833 C 172.405 94.815,172.000 94.980,172.000 95.200 M229.283 95.016 C 229.596 95.330,233.725 96.808,233.873 96.660 C 233.942 96.591,233.504 96.303,232.899 96.021 C 232.295 95.738,231.487 95.348,231.105 95.153 C 230.353 94.771,228.930 94.663,229.283 95.016 M167.533 97.100 C 167.460 97.265,166.680 97.750,165.800 98.177 C 164.920 98.605,163.627 99.370,162.927 99.877 C 162.226 100.385,161.544 100.800,161.409 100.800 C 161.275 100.800,160.680 101.250,160.087 101.800 C 159.493 102.350,158.873 102.800,158.709 102.800 C 158.270 102.800,156.800 104.121,156.800 104.516 C 156.800 104.702,157.565 104.234,158.500 103.478 C 160.301 102.020,166.581 98.009,167.096 97.987 C 167.795 97.958,168.979 96.800,168.310 96.800 C 167.956 96.800,167.607 96.935,167.533 97.100 M234.400 96.953 C 234.400 97.037,235.435 97.610,236.700 98.226 C 239.205 99.446,240.171 100.371,239.573 100.980 C 239.368 101.189,239.207 101.639,239.216 101.980 C 239.226 102.347,239.469 102.163,239.814 101.528 C 240.134 100.938,240.290 100.179,240.160 99.840 C 239.838 99.000,234.400 96.275,234.400 96.953 M238.485 104.173 C 238.218 104.759,238.000 105.579,238.000 105.995 C 238.000 106.412,237.820 106.864,237.600 107.000 C 237.380 107.136,237.206 107.552,237.214 107.924 C 237.235 108.906,238.368 106.833,238.386 105.780 C 238.394 105.329,238.600 104.760,238.845 104.515 C 239.090 104.270,239.218 103.854,239.130 103.590 C 239.042 103.325,238.752 103.588,238.485 104.173 M153.500 107.341 C 150.051 111.027,148.813 112.546,148.806 113.100 C 148.803 113.375,148.633 113.600,148.429 113.600 C 148.055 113.600,146.687 116.020,146.926 116.259 C 146.997 116.330,147.801 115.262,148.713 113.885 C 150.538 111.130,151.079 110.479,154.349 107.100 C 155.573 105.835,156.401 104.819,156.187 104.841 C 155.974 104.864,154.765 105.989,153.500 107.341 M236.499 109.742 C 236.225 110.345,236.000 111.179,236.000 111.595 C 236.000 112.012,235.820 112.464,235.600 112.600 C 235.380 112.736,235.201 113.242,235.202 113.724 C 235.205 114.506,235.269 114.477,235.802 113.454 C 236.131 112.824,236.400 111.894,236.400 111.388 C 236.400 110.881,236.601 110.400,236.846 110.318 C 237.091 110.236,237.225 109.827,237.145 109.408 C 237.020 108.761,236.923 108.811,236.499 109.742 M195.900 111.098 C 197.935 111.171,201.265 111.171,203.300 111.098 C 205.335 111.025,203.670 110.966,199.600 110.966 C 195.530 110.966,193.865 111.025,195.900 111.098 M186.228 112.059 C 183.434 112.837,181.537 113.571,179.485 114.668 C 178.871 114.995,177.909 115.502,177.347 115.794 C 172.107 118.512,165.132 128.524,165.220 133.200 C 165.236 134.051,166.400 131.264,166.400 130.375 C 166.400 129.972,166.850 128.796,167.400 127.762 C 167.950 126.727,168.400 125.638,168.400 125.340 C 168.400 125.043,168.568 124.800,168.773 124.800 C 168.978 124.800,169.260 124.440,169.400 123.999 C 169.848 122.588,176.325 116.400,177.354 116.400 C 177.655 116.400,178.126 116.130,178.400 115.800 C 178.674 115.470,179.146 115.200,179.449 115.200 C 179.752 115.200,180.000 115.020,180.000 114.800 C 180.000 114.580,180.405 114.394,180.900 114.387 C 181.395 114.380,182.149 114.110,182.576 113.787 C 183.004 113.464,183.758 113.200,184.253 113.200 C 184.748 113.200,185.264 113.020,185.400 112.800 C 185.536 112.580,186.222 112.386,186.924 112.370 C 187.626 112.353,188.830 112.097,189.600 111.800 C 191.804 110.951,189.594 111.121,186.228 112.059 M208.800 111.622 C 209.350 111.858,210.880 112.214,212.200 112.411 C 213.520 112.609,215.230 112.870,216.000 112.991 C 218.466 113.380,215.881 112.469,213.080 111.962 C 208.913 111.208,207.593 111.103,208.800 111.622 M218.746 113.816 C 219.486 114.137,220.395 114.400,220.766 114.400 C 221.137 114.400,221.637 114.597,221.878 114.838 C 222.118 115.078,222.649 115.205,223.058 115.119 C 223.498 115.026,222.709 114.604,221.116 114.081 C 218.087 113.086,216.711 112.932,218.746 113.816 M234.515 115.800 C 234.256 116.460,233.988 117.358,233.918 117.795 C 233.717 119.051,232.682 118.957,229.325 117.381 C 227.606 116.573,225.795 115.722,225.301 115.489 C 224.806 115.256,224.311 115.155,224.201 115.265 C 224.009 115.457,224.987 115.998,226.900 116.757 C 227.395 116.954,228.808 117.600,230.041 118.193 C 232.880 119.559,234.150 119.443,234.336 117.801 C 234.411 117.142,234.654 116.490,234.875 116.353 C 235.097 116.216,235.213 115.766,235.132 115.352 C 235.015 114.752,234.890 114.843,234.515 115.800 M145.764 117.800 C 145.626 118.350,145.353 118.800,145.157 118.800 C 144.960 118.800,144.800 119.072,144.800 119.405 C 144.800 119.738,144.632 120.323,144.426 120.705 C 143.412 122.587,142.802 124.204,142.821 124.961 C 142.834 125.514,143.054 125.254,143.464 124.200 C 144.215 122.271,145.060 120.318,146.016 118.300 C 146.407 117.475,146.567 116.800,146.371 116.800 C 146.175 116.800,145.902 117.250,145.764 117.800 M142.216 126.374 C 141.806 127.037,141.141 130.761,140.996 133.200 C 140.925 134.410,140.943 134.950,141.037 134.400 C 141.733 130.336,142.130 128.450,142.491 127.487 C 142.909 126.371,142.712 125.572,142.216 126.374 M164.901 137.800 C 164.905 138.680,164.987 138.993,165.083 138.495 C 165.179 137.998,165.175 137.278,165.075 136.895 C 164.975 136.513,164.896 136.920,164.901 137.800 M165.206 142.849 C 165.163 147.368,170.765 155.999,176.200 159.789 L 177.800 160.904 176.157 159.352 C 175.254 158.498,173.994 157.334,173.357 156.765 C 170.646 154.341,169.251 152.304,166.794 147.185 C 166.632 146.846,166.378 145.852,166.230 144.976 C 165.928 143.189,165.217 141.711,165.206 142.849 M141.002 147.200 C 141.174 150.235,141.879 153.646,142.441 154.166 C 142.793 154.493,142.840 154.353,142.631 153.600 C 142.252 152.237,141.282 147.671,141.059 146.200 C 140.959 145.540,140.933 145.990,141.002 147.200 M142.821 155.479 C 142.809 155.962,143.250 157.204,143.800 158.238 C 144.350 159.273,144.800 160.362,144.800 160.660 C 144.800 160.957,144.960 161.200,145.157 161.200 C 145.353 161.200,145.626 161.650,145.764 162.200 C 145.902 162.750,146.177 163.200,146.376 163.200 C 146.574 163.200,146.140 161.985,145.411 160.500 C 144.683 159.015,143.806 157.080,143.464 156.200 C 143.024 155.070,142.835 154.858,142.821 155.479 M179.000 161.812 C 179.660 162.353,180.380 162.790,180.600 162.784 C 180.820 162.777,180.460 162.329,179.800 161.788 C 179.140 161.247,178.420 160.810,178.200 160.816 C 177.980 160.823,178.340 161.271,179.000 161.812 M181.374 163.159 C 181.496 163.356,182.272 163.871,183.098 164.305 C 183.924 164.738,185.295 165.485,186.145 165.964 C 186.995 166.444,187.895 166.765,188.145 166.677 C 188.395 166.589,187.700 166.096,186.600 165.583 C 185.500 165.069,183.929 164.233,183.108 163.724 C 181.522 162.742,181.014 162.576,181.374 163.159 M146.800 163.797 C 146.800 164.130,149.271 167.582,150.798 169.382 C 154.810 174.114,161.697 179.716,167.160 182.692 C 169.226 183.817,168.273 182.837,165.906 181.402 C 161.715 178.861,155.567 174.087,153.283 171.600 C 151.172 169.302,148.000 165.282,148.000 164.904 C 148.000 164.681,147.730 164.274,147.400 164.000 C 147.070 163.726,146.800 163.635,146.800 163.797 M188.800 166.991 C 188.800 167.322,192.129 168.805,192.358 168.575 C 192.664 168.269,191.543 167.614,190.700 167.606 C 190.315 167.603,190.000 167.420,190.000 167.200 C 190.000 166.980,189.730 166.800,189.400 166.800 C 189.070 166.800,188.800 166.886,188.800 166.991 M193.824 169.387 C 194.251 169.710,194.904 169.980,195.276 169.987 C 195.648 169.994,196.064 170.180,196.200 170.400 C 196.336 170.620,196.662 170.794,196.924 170.787 C 197.690 170.767,195.921 169.600,195.124 169.600 C 194.726 169.600,194.400 169.420,194.400 169.200 C 194.400 168.980,194.096 168.800,193.724 168.800 C 193.134 168.800,193.146 168.875,193.824 169.387 M198.400 171.291 C 200.407 172.174,202.173 172.760,202.336 172.597 C 202.428 172.505,201.985 172.224,201.352 171.972 C 200.718 171.720,199.887 171.353,199.505 171.157 C 199.123 170.961,198.493 170.811,198.105 170.825 C 197.591 170.844,197.670 170.970,198.400 171.291 M204.000 173.445 C 204.770 173.790,205.713 174.236,206.095 174.436 C 207.165 174.997,207.491 174.843,206.624 174.187 C 206.196 173.864,205.521 173.600,205.124 173.600 C 204.726 173.600,204.400 173.420,204.400 173.200 C 204.400 172.980,203.995 172.804,203.500 172.809 C 202.772 172.816,202.868 172.938,204.000 173.445 M209.369 175.818 C 210.452 176.355,211.415 176.719,211.508 176.625 C 211.719 176.415,208.407 174.792,207.825 174.821 C 207.591 174.833,208.286 175.281,209.369 175.818 M212.033 176.957 C 212.621 177.511,215.334 178.799,215.521 178.613 C 215.645 178.488,215.174 178.170,214.474 177.905 C 213.773 177.641,213.200 177.284,213.200 177.112 C 213.200 176.941,212.900 176.800,212.533 176.800 C 212.167 176.800,211.942 176.871,212.033 176.957 M216.033 178.957 C 216.673 179.560,219.200 180.712,219.200 180.401 C 219.200 180.189,218.750 179.902,218.200 179.764 C 217.650 179.626,217.200 179.353,217.200 179.157 C 217.200 178.960,216.900 178.800,216.533 178.800 C 216.167 178.800,215.942 178.871,216.033 178.957 M219.600 180.960 C 219.600 181.049,220.230 181.493,221.000 181.947 C 221.770 182.401,222.400 182.612,222.400 182.416 C 222.400 182.219,221.832 181.775,221.139 181.429 C 219.806 180.765,219.600 180.702,219.600 180.960 M222.833 182.930 C 222.925 183.001,223.630 183.476,224.400 183.986 L 225.800 184.912 224.717 183.856 C 224.122 183.275,223.417 182.800,223.151 182.800 C 222.885 182.800,222.742 182.858,222.833 182.930 M168.967 183.547 C 169.168 183.871,169.870 184.280,173.071 185.933 C 174.026 186.427,177.777 188.124,179.800 188.979 C 180.680 189.350,181.850 189.846,182.400 190.081 C 182.950 190.315,183.760 190.638,184.200 190.798 C 184.640 190.958,185.681 191.384,186.514 191.745 C 187.346 192.105,188.370 192.400,188.790 192.400 C 189.210 192.400,189.664 192.580,189.800 192.800 C 189.936 193.020,190.352 193.188,190.724 193.174 C 191.595 193.141,190.320 192.571,183.600 189.985 C 180.630 188.842,176.071 186.843,173.469 185.542 C 170.867 184.241,168.842 183.344,168.967 183.547 M226.800 185.642 C 232.920 190.630,236.716 194.415,238.661 197.469 C 239.057 198.091,239.476 198.690,239.591 198.800 C 240.309 199.487,243.993 206.866,244.014 207.661 C 244.037 208.534,245.169 210.333,245.186 209.524 C 245.194 209.152,245.020 208.736,244.800 208.600 C 244.580 208.464,244.400 207.924,244.400 207.400 C 244.400 206.876,244.234 206.345,244.031 206.219 C 243.828 206.094,243.543 205.453,243.399 204.795 C 243.255 204.138,242.971 203.600,242.768 203.600 C 242.566 203.600,242.400 203.324,242.400 202.986 C 242.400 202.407,241.319 200.436,240.763 200.000 C 240.623 199.890,240.395 199.440,240.256 199.000 C 240.118 198.560,239.539 197.660,238.969 197.000 C 238.399 196.340,237.543 195.291,237.066 194.669 C 234.997 191.967,227.005 184.776,226.114 184.813 C 225.941 184.821,226.250 185.193,226.800 185.642 M192.176 193.813 C 192.604 194.136,193.179 194.400,193.455 194.400 C 193.732 194.400,194.804 194.850,195.838 195.400 C 196.873 195.950,197.947 196.400,198.226 196.400 C 198.505 196.400,198.793 196.535,198.867 196.700 C 199.060 197.135,201.565 198.400,202.232 198.400 C 202.545 198.400,202.800 198.580,202.800 198.800 C 202.800 199.020,203.047 199.200,203.350 199.200 C 206.357 199.200,217.192 209.466,219.545 214.544 C 220.040 215.613,220.558 216.375,220.696 216.237 C 220.834 216.099,220.734 215.774,220.473 215.513 C 220.213 215.253,220.000 214.809,220.000 214.528 C 220.000 212.342,213.146 204.943,207.884 201.449 C 202.485 197.864,188.622 191.124,192.176 193.813 M245.424 211.800 C 245.549 212.460,245.797 213.720,245.976 214.600 L 246.300 216.200 246.332 214.600 C 246.350 213.720,246.101 212.460,245.780 211.800 L 245.197 210.600 245.424 211.800 M246.636 218.465 C 246.993 221.264,247.200 221.420,247.200 218.890 C 247.200 217.767,247.012 216.731,246.782 216.589 C 246.498 216.413,246.451 217.018,246.636 218.465 M220.825 217.676 C 220.811 218.268,220.961 218.852,221.157 218.974 C 221.354 219.095,221.641 220.787,221.795 222.734 C 221.949 224.681,222.250 226.527,222.463 226.837 C 223.214 227.925,222.151 219.620,221.281 217.600 L 220.851 216.600 220.825 217.676 M222.332 228.850 C 222.184 229.207,221.936 230.966,221.779 232.758 C 221.623 234.551,221.339 236.114,221.148 236.232 C 220.956 236.351,220.811 236.932,220.825 237.524 C 220.853 238.779,221.615 236.505,222.406 232.800 C 222.894 230.518,222.839 227.620,222.332 228.850 M246.670 232.537 C 246.488 233.602,246.443 234.577,246.570 234.703 C 247.048 235.182,247.243 234.421,247.124 232.543 L 247.000 230.600 246.670 232.537 M245.926 236.800 C 245.775 237.790,245.539 239.050,245.403 239.600 C 245.164 240.560,245.180 240.555,245.799 239.482 C 246.191 238.802,246.396 237.705,246.322 236.682 L 246.200 235.000 245.926 236.800 M219.998 239.300 C 219.996 239.575,219.723 240.322,219.390 240.960 C 219.058 241.597,218.866 242.200,218.965 242.298 C 219.112 242.445,220.800 239.342,220.800 238.925 C 220.800 238.856,220.620 238.800,220.400 238.800 C 220.180 238.800,219.999 239.025,219.998 239.300 M244.437 242.600 C 244.166 243.480,243.747 244.605,243.505 245.099 C 243.263 245.594,243.162 246.095,243.279 246.212 C 243.396 246.330,243.715 245.835,243.987 245.113 C 244.258 244.391,244.663 243.413,244.887 242.939 C 245.110 242.466,245.211 241.836,245.112 241.539 C 245.012 241.243,244.709 241.720,244.437 242.600 M217.411 244.232 C 216.987 245.019,215.479 246.732,214.061 248.039 C 212.643 249.346,211.561 250.495,211.658 250.592 C 211.866 250.799,215.844 247.059,217.000 245.570 C 218.171 244.063,218.852 242.800,218.494 242.800 C 218.323 242.800,217.835 243.444,217.411 244.232 M142.440 247.440 C 141.978 248.027,141.600 249.013,141.600 249.630 C 141.600 250.248,141.420 250.864,141.200 251.000 C 140.980 251.136,140.809 251.732,140.819 252.324 C 140.839 253.441,141.568 251.715,142.138 249.200 C 142.674 246.838,143.330 246.515,145.147 247.717 C 146.929 248.896,147.200 248.990,147.200 248.427 C 147.200 248.222,146.795 247.928,146.300 247.773 C 145.805 247.619,145.310 247.361,145.200 247.200 C 144.584 246.301,143.245 246.417,142.440 247.440 M242.062 248.375 C 241.039 250.482,241.011 250.655,241.800 250.000 C 242.130 249.726,242.400 249.179,242.400 248.784 C 242.400 248.390,242.607 247.998,242.860 247.913 C 243.113 247.829,243.231 247.499,243.122 247.180 C 242.999 246.817,242.603 247.263,242.062 248.375 M147.600 248.991 C 147.600 249.158,150.753 250.800,151.075 250.800 C 151.774 250.800,150.919 250.002,150.005 249.801 C 149.347 249.657,148.706 249.372,148.581 249.169 C 148.345 248.788,147.600 248.652,147.600 248.991 M153.552 251.848 C 154.735 252.388,155.770 252.763,155.851 252.682 C 155.932 252.601,155.504 252.303,154.899 252.021 C 154.295 251.738,153.487 251.348,153.105 251.153 C 152.723 250.959,152.183 250.815,151.905 250.833 C 151.627 250.851,152.368 251.308,153.552 251.848 M209.800 251.615 C 209.140 252.032,207.846 252.738,206.924 253.185 C 205.540 253.857,203.874 255.248,205.048 254.752 C 206.579 254.105,209.305 252.542,210.253 251.767 C 211.629 250.642,211.442 250.579,209.800 251.615 M238.783 254.116 C 233.724 261.726,226.964 267.109,215.663 272.526 C 215.074 272.808,214.918 273.039,215.243 273.148 C 215.527 273.242,215.829 273.113,215.913 272.860 C 215.998 272.607,216.415 272.400,216.841 272.400 C 217.267 272.400,218.329 271.950,219.200 271.400 C 220.071 270.850,220.980 270.400,221.219 270.400 C 221.458 270.400,222.243 269.950,222.964 269.400 C 223.686 268.850,224.484 268.400,224.738 268.400 C 224.992 268.400,225.200 268.249,225.200 268.064 C 225.200 267.880,225.605 267.542,226.100 267.314 C 229.402 265.795,236.457 258.634,239.754 253.456 C 242.040 249.865,241.254 250.400,238.783 254.116 M156.967 253.269 C 157.388 253.514,158.288 253.848,158.967 254.011 C 159.645 254.174,160.545 254.449,160.966 254.622 C 161.493 254.838,161.644 254.795,161.452 254.483 C 161.298 254.235,160.546 253.914,159.782 253.770 C 159.017 253.627,158.293 253.350,158.172 253.155 C 158.051 252.960,157.558 252.805,157.076 252.812 C 156.240 252.824,156.235 252.844,156.967 253.269 M140.290 253.855 C 140.031 254.273,139.307 256.952,138.953 258.800 C 138.807 259.563,138.909 259.480,139.381 258.454 C 139.721 257.714,140.000 256.715,140.000 256.234 C 140.000 255.753,140.200 255.160,140.445 254.915 C 140.690 254.670,140.813 254.238,140.718 253.955 C 140.608 253.624,140.454 253.588,140.290 253.855 M163.200 255.278 C 163.750 255.513,164.920 255.846,165.800 256.018 C 166.680 256.190,167.833 256.465,168.363 256.628 C 169.034 256.836,169.241 256.790,169.046 256.475 C 168.893 256.226,167.870 255.904,166.775 255.759 C 165.679 255.613,164.685 255.338,164.567 255.147 C 164.449 254.956,163.868 254.811,163.276 254.825 L 162.200 254.851 163.200 255.278 M202.600 255.200 C 202.464 255.420,201.958 255.606,201.476 255.614 C 200.387 255.632,198.260 256.765,199.276 256.786 C 199.648 256.794,200.064 256.620,200.200 256.400 C 200.336 256.180,200.842 255.994,201.324 255.986 C 202.413 255.968,204.540 254.835,203.524 254.814 C 203.152 254.806,202.736 254.980,202.600 255.200 M171.800 257.233 C 177.113 258.525,192.142 258.657,196.000 257.445 C 197.653 256.925,197.700 256.876,196.580 256.840 C 195.909 256.818,195.174 256.986,194.947 257.213 C 194.526 257.634,176.287 257.515,172.200 257.064 C 170.246 256.849,170.237 256.853,171.800 257.233 M138.019 261.600 C 137.747 262.590,137.362 263.713,137.163 264.095 C 136.963 264.477,136.800 265.288,136.800 265.898 C 136.800 267.163,137.172 267.462,141.685 269.825 C 144.014 271.045,144.380 271.200,144.895 271.184 C 145.173 271.176,143.702 270.321,141.627 269.284 C 136.702 266.825,136.429 266.168,138.492 261.739 C 138.713 261.266,138.807 260.636,138.703 260.339 C 138.598 260.043,138.290 260.610,138.019 261.600 M146.176 271.767 C 146.604 272.115,147.243 272.400,147.596 272.400 C 147.950 272.400,148.437 272.597,148.678 272.838 C 148.918 273.078,149.449 273.206,149.858 273.121 C 150.548 272.978,149.953 272.700,146.200 271.410 C 145.411 271.139,145.411 271.144,146.176 271.767 M151.600 273.761 C 152.150 274.097,153.084 274.378,153.676 274.386 C 154.268 274.394,154.864 274.580,155.000 274.800 C 155.136 275.020,155.717 275.200,156.290 275.200 C 158.064 275.200,156.419 274.566,151.600 273.393 L 150.600 273.150 151.600 273.761 M212.800 273.585 C 212.470 273.771,211.392 274.163,210.405 274.457 C 209.290 274.788,208.889 275.045,209.347 275.133 C 209.753 275.211,210.282 275.078,210.522 274.838 C 210.763 274.597,211.329 274.394,211.780 274.386 C 212.231 274.378,213.050 274.114,213.600 273.800 C 214.164 273.477,214.339 273.232,214.000 273.238 C 213.670 273.243,213.130 273.399,212.800 273.585 M159.000 275.780 C 159.660 276.101,160.954 276.372,161.876 276.382 C 162.798 276.392,163.664 276.580,163.800 276.800 C 163.936 277.020,164.802 277.182,165.724 277.159 L 167.400 277.118 166.000 276.770 C 164.670 276.440,161.617 275.842,159.000 275.399 L 157.800 275.197 159.000 275.780 M206.000 275.619 C 205.450 275.802,203.830 276.231,202.400 276.571 C 199.786 277.192,200.878 277.144,204.600 276.473 C 206.952 276.048,209.100 275.240,207.800 275.268 C 207.360 275.277,206.550 275.435,206.000 275.619 M170.373 277.828 C 173.168 278.630,196.337 278.505,198.000 277.680 C 198.861 277.252,198.695 277.226,196.800 277.491 C 194.035 277.879,173.357 277.880,170.400 277.492 L 168.200 277.204 170.373 277.828 M13.200 382.390 C 13.200 383.022,17.053 386.803,17.681 386.787 C 18.046 386.778,18.012 386.630,17.565 386.287 C 15.256 384.516,14.407 383.759,14.404 383.471 C 14.402 383.291,14.130 382.873,13.800 382.543 C 13.448 382.191,13.200 382.128,13.200 382.390 M19.400 387.414 C 21.241 388.257,379.325 388.243,380.800 387.400 C 381.766 386.848,381.770 386.828,380.924 386.814 C 380.442 386.806,379.936 386.980,379.800 387.200 C 379.636 387.466,319.270 387.600,200.000 387.600 C 80.730 387.600,20.364 387.466,20.200 387.200 C 20.064 386.980,19.558 386.815,19.076 386.832 C 18.314 386.861,18.357 386.937,19.400 387.414 " stroke="none" fill="#2a8737" fill-rule="evenodd"></path><path id="path4" d="M20.232 12.748 C 20.114 12.940,19.468 13.206,18.797 13.341 C 17.192 13.662,13.662 17.192,13.341 18.797 C 13.206 19.468,12.940 20.114,12.748 20.232 C 12.241 20.545,12.293 379.487,12.800 379.800 C 13.020 379.936,13.200 380.474,13.200 380.995 C 13.200 381.516,13.470 382.213,13.800 382.543 C 14.130 382.873,14.400 383.259,14.400 383.400 C 14.400 384.140,18.089 386.800,19.114 386.800 C 19.575 386.800,20.064 386.980,20.200 387.200 C 20.529 387.732,378.922 387.756,379.905 387.224 C 380.287 387.017,381.081 386.748,381.668 386.625 C 383.049 386.335,386.335 383.049,386.625 381.668 C 386.748 381.081,387.017 380.287,387.224 379.905 C 387.756 378.922,387.732 20.529,387.200 20.200 C 386.980 20.064,386.800 19.575,386.800 19.114 C 386.800 18.089,384.140 14.400,383.400 14.400 C 383.259 14.400,382.873 14.130,382.543 13.800 C 382.213 13.470,381.516 13.200,380.995 13.200 C 380.474 13.200,379.936 13.020,379.800 12.800 C 379.487 12.293,20.545 12.241,20.232 12.748 M216.723 91.491 C 218.331 91.709,219.852 92.092,220.103 92.343 C 220.354 92.594,221.323 92.800,222.256 92.800 C 223.189 92.800,224.064 92.980,224.200 93.200 C 224.336 93.420,225.032 93.600,225.747 93.600 C 226.462 93.600,227.396 93.864,227.824 94.187 C 228.251 94.510,229.007 94.780,229.505 94.787 C 230.003 94.794,230.723 94.960,231.105 95.156 C 231.487 95.351,232.430 95.786,233.200 96.121 C 240.271 99.199,240.810 99.647,239.797 101.605 C 239.469 102.241,239.200 103.042,239.200 103.386 C 239.200 103.729,239.044 104.323,238.854 104.705 C 238.292 105.832,237.524 108.117,237.309 109.300 C 237.199 109.905,236.950 110.400,236.755 110.400 C 236.560 110.400,236.400 110.829,236.400 111.354 C 236.400 111.879,236.131 112.824,235.802 113.454 C 235.474 114.084,235.204 115.005,235.202 115.500 C 235.201 115.995,235.031 116.400,234.825 116.400 C 234.619 116.400,234.394 116.985,234.325 117.700 C 234.156 119.452,232.948 119.591,230.041 118.193 C 228.808 117.600,227.350 116.932,226.800 116.708 C 226.250 116.485,225.322 116.054,224.738 115.751 C 224.154 115.448,223.387 115.200,223.033 115.200 C 222.679 115.200,222.077 115.038,221.695 114.840 C 221.313 114.642,219.920 114.175,218.600 113.803 C 217.280 113.431,215.647 112.963,214.972 112.763 C 214.296 112.563,213.200 112.400,212.535 112.400 C 211.871 112.400,210.444 112.132,209.364 111.804 C 206.553 110.952,192.013 110.949,189.600 111.800 C 188.665 112.130,187.393 112.400,186.773 112.400 C 186.154 112.400,185.536 112.580,185.400 112.800 C 185.264 113.020,184.748 113.200,184.253 113.200 C 183.758 113.200,183.004 113.464,182.576 113.787 C 182.149 114.110,181.395 114.380,180.900 114.387 C 180.405 114.394,180.000 114.580,180.000 114.800 C 180.000 115.020,179.752 115.200,179.449 115.200 C 179.146 115.200,178.674 115.470,178.400 115.800 C 178.126 116.130,177.655 116.400,177.354 116.400 C 176.325 116.400,169.848 122.588,169.400 123.999 C 169.260 124.440,168.978 124.800,168.773 124.800 C 168.568 124.800,168.400 125.043,168.400 125.340 C 168.400 125.638,167.950 126.727,167.400 127.762 C 166.850 128.796,166.400 129.971,166.400 130.372 C 166.400 130.774,166.119 131.774,165.776 132.596 C 164.719 135.126,165.266 143.038,166.772 147.000 C 167.574 149.109,169.340 152.326,170.316 153.454 C 170.912 154.143,171.773 155.133,172.228 155.654 C 173.284 156.860,177.570 160.550,178.156 160.757 C 178.400 160.843,179.137 161.293,179.794 161.757 C 181.096 162.676,181.552 162.933,185.970 165.246 C 187.604 166.100,189.179 166.800,189.470 166.800 C 189.762 166.800,190.000 166.980,190.000 167.200 C 190.000 167.420,190.347 167.600,190.771 167.600 C 191.196 167.600,191.813 167.870,192.143 168.200 C 192.473 168.530,193.116 168.800,193.571 168.800 C 194.027 168.800,194.400 168.980,194.400 169.200 C 194.400 169.420,194.726 169.600,195.124 169.600 C 195.521 169.600,196.196 169.864,196.624 170.187 C 197.051 170.510,197.717 170.780,198.105 170.787 C 198.815 170.800,199.087 170.907,201.532 172.132 C 202.265 172.500,203.210 172.800,203.632 172.800 C 204.055 172.800,204.400 172.980,204.400 173.200 C 204.400 173.420,204.687 173.600,205.038 173.600 C 205.389 173.600,206.154 173.849,206.738 174.153 C 209.273 175.473,212.247 176.800,212.672 176.800 C 212.926 176.800,213.193 176.935,213.267 177.100 C 213.460 177.535,215.965 178.800,216.632 178.800 C 216.945 178.800,217.200 178.980,217.200 179.200 C 217.200 179.420,217.457 179.600,217.771 179.600 C 218.086 179.600,218.581 179.832,218.871 180.115 C 219.162 180.399,220.075 180.947,220.900 181.334 C 221.725 181.721,222.400 182.209,222.400 182.419 C 222.400 182.628,222.678 182.800,223.017 182.800 C 223.357 182.800,224.120 183.250,224.713 183.800 C 225.307 184.350,225.935 184.800,226.110 184.800 C 227.034 184.800,235.010 191.984,237.066 194.669 C 237.543 195.291,238.399 196.340,238.969 197.000 C 239.539 197.660,240.118 198.560,240.256 199.000 C 240.395 199.440,240.623 199.890,240.763 200.000 C 241.319 200.436,242.400 202.407,242.400 202.986 C 242.400 203.324,242.566 203.600,242.768 203.600 C 242.971 203.600,243.255 204.138,243.399 204.795 C 243.543 205.453,243.828 206.094,244.031 206.219 C 244.234 206.345,244.400 206.799,244.400 207.229 C 244.400 207.659,244.558 208.323,244.752 208.705 C 245.541 210.264,246.404 213.491,246.402 214.876 C 246.401 215.688,246.580 216.464,246.800 216.600 C 247.047 216.753,247.200 220.271,247.200 225.824 C 247.200 231.541,247.055 234.800,246.800 234.800 C 246.580 234.800,246.394 235.655,246.386 236.700 C 246.378 237.745,246.114 239.050,245.800 239.600 C 245.486 240.150,245.222 241.007,245.214 241.505 C 245.206 242.003,245.042 242.723,244.849 243.105 C 243.999 244.786,243.200 246.874,243.200 247.414 C 243.200 247.736,243.020 248.000,242.800 248.000 C 242.580 248.000,242.400 248.338,242.400 248.751 C 242.400 249.164,242.130 249.726,241.800 250.000 C 241.470 250.274,241.200 250.652,241.200 250.841 C 241.200 253.342,230.064 265.490,226.100 267.314 C 225.605 267.542,225.200 267.880,225.200 268.064 C 225.200 268.249,224.992 268.400,224.738 268.400 C 224.484 268.400,223.686 268.850,222.964 269.400 C 222.243 269.950,221.458 270.400,221.219 270.400 C 220.980 270.400,220.071 270.850,219.200 271.400 C 218.329 271.950,217.252 272.400,216.808 272.400 C 216.364 272.400,216.000 272.559,216.000 272.753 C 216.000 272.948,215.595 273.199,215.100 273.313 C 214.605 273.426,213.570 273.744,212.800 274.020 C 207.851 275.792,206.091 276.242,200.400 277.195 C 199.190 277.397,197.480 277.747,196.600 277.972 C 193.960 278.647,172.642 278.509,170.000 277.800 C 168.790 277.475,166.956 277.207,165.924 277.205 C 164.892 277.202,163.936 277.020,163.800 276.800 C 163.664 276.580,162.838 276.400,161.964 276.400 C 161.089 276.400,159.728 276.130,158.938 275.800 C 158.149 275.470,156.995 275.200,156.375 275.200 C 155.755 275.200,155.148 275.040,155.027 274.844 C 154.906 274.649,154.221 274.401,153.504 274.294 C 152.077 274.082,149.664 273.262,146.200 271.814 C 143.056 270.499,142.525 270.264,141.485 269.720 C 137.212 267.486,136.800 267.150,136.800 265.898 C 136.800 265.288,136.958 264.477,137.150 264.095 C 137.343 263.713,137.812 262.320,138.193 261.000 C 138.573 259.680,139.046 258.187,139.242 257.681 C 139.439 257.176,139.601 256.456,139.602 256.081 C 139.604 255.707,139.874 254.884,140.202 254.254 C 140.531 253.624,140.800 252.690,140.800 252.178 C 140.800 251.666,140.980 251.136,141.200 251.000 C 141.420 250.864,141.600 250.233,141.600 249.599 C 141.600 247.996,143.128 246.326,144.300 246.647 C 144.795 246.782,145.200 247.052,145.200 247.247 C 145.200 247.441,145.457 247.600,145.771 247.600 C 146.086 247.600,146.581 247.832,146.871 248.115 C 147.495 248.723,150.130 250.000,150.760 250.000 C 151.002 250.000,151.200 250.180,151.200 250.400 C 151.200 250.620,151.472 250.800,151.805 250.800 C 152.414 250.800,152.745 250.936,155.062 252.143 C 155.756 252.504,156.690 252.800,157.138 252.800 C 157.586 252.800,158.064 252.980,158.200 253.200 C 158.336 253.420,158.752 253.601,159.124 253.602 C 159.496 253.604,160.316 253.874,160.946 254.202 C 161.576 254.531,162.600 254.800,163.222 254.800 C 163.844 254.800,164.448 254.955,164.565 255.144 C 164.682 255.333,165.620 255.604,166.649 255.745 C 167.678 255.886,168.717 256.163,168.960 256.361 C 170.041 257.245,193.378 258.030,195.000 257.237 C 195.440 257.021,196.520 256.769,197.400 256.677 C 198.926 256.516,200.995 255.894,202.495 255.146 C 202.877 254.956,203.541 254.800,203.971 254.800 C 204.401 254.800,204.864 254.620,205.001 254.399 C 205.137 254.178,206.003 253.633,206.924 253.186 C 210.746 251.335,215.575 247.253,217.293 244.424 C 217.769 243.641,218.267 242.910,218.400 242.800 C 218.761 242.501,220.000 239.745,220.000 239.240 C 220.000 238.998,220.180 238.800,220.400 238.800 C 220.620 238.800,220.800 238.290,220.800 237.667 C 220.800 237.043,220.935 236.400,221.100 236.236 C 222.492 234.857,222.492 220.337,221.100 218.963 C 220.935 218.800,220.799 218.292,220.798 217.833 C 220.791 213.488,207.411 199.200,203.350 199.200 C 203.047 199.200,202.800 199.020,202.800 198.800 C 202.800 198.580,202.545 198.400,202.232 198.400 C 201.565 198.400,199.060 197.135,198.867 196.700 C 198.793 196.535,198.526 196.400,198.272 196.400 C 198.019 196.400,196.819 195.932,195.606 195.360 C 194.393 194.787,192.770 194.047,192.000 193.715 C 191.230 193.383,190.287 192.951,189.905 192.756 C 189.523 192.560,188.945 192.400,188.619 192.400 C 188.293 192.400,187.346 192.105,186.514 191.745 C 185.681 191.384,184.640 190.952,184.200 190.785 C 183.760 190.618,182.680 190.181,181.800 189.814 C 180.920 189.446,179.840 188.997,179.400 188.816 C 178.960 188.634,177.610 188.032,176.400 187.478 C 175.190 186.924,173.930 186.371,173.600 186.248 C 173.270 186.126,172.100 185.487,171.000 184.828 C 169.900 184.170,168.370 183.306,167.600 182.908 C 162.206 180.125,154.962 174.293,150.798 169.382 C 149.008 167.271,146.800 164.104,146.800 163.646 C 146.800 163.401,146.623 163.200,146.408 163.200 C 146.192 163.200,145.902 162.750,145.764 162.200 C 145.626 161.650,145.353 161.200,145.157 161.200 C 144.960 161.200,144.800 160.957,144.800 160.660 C 144.800 160.362,144.350 159.273,143.800 158.238 C 143.250 157.204,142.800 155.953,142.800 155.459 C 142.800 154.964,142.614 154.374,142.386 154.146 C 140.520 152.280,140.520 128.120,142.386 126.254 C 142.614 126.026,142.800 125.424,142.800 124.915 C 142.800 124.406,142.968 123.677,143.174 123.295 C 144.043 121.683,144.800 119.840,144.800 119.339 C 144.800 119.042,144.980 118.800,145.200 118.800 C 145.420 118.800,145.600 118.543,145.600 118.229 C 145.600 117.914,145.832 117.419,146.115 117.129 C 146.399 116.838,146.947 115.925,147.334 115.100 C 147.721 114.275,148.209 113.600,148.419 113.600 C 148.628 113.600,148.806 113.375,148.813 113.100 C 148.832 112.320,155.572 104.800,156.251 104.800 C 156.354 104.800,156.855 104.350,157.365 103.800 C 157.875 103.250,158.453 102.800,158.650 102.800 C 158.847 102.800,159.493 102.350,160.087 101.800 C 160.680 101.250,161.275 100.800,161.409 100.800 C 161.544 100.800,162.226 100.385,162.927 99.877 C 163.627 99.370,164.920 98.605,165.800 98.177 C 166.680 97.750,167.460 97.265,167.533 97.100 C 167.607 96.935,167.967 96.794,168.333 96.787 C 168.700 96.780,169.349 96.510,169.776 96.187 C 170.204 95.864,170.879 95.600,171.276 95.600 C 171.674 95.600,172.000 95.440,172.000 95.245 C 172.000 95.050,172.495 94.801,173.100 94.691 C 174.283 94.476,176.568 93.708,177.695 93.146 C 178.077 92.956,178.910 92.800,179.546 92.800 C 180.182 92.800,181.349 92.530,182.138 92.200 C 182.928 91.870,184.255 91.597,185.087 91.594 C 185.919 91.591,186.870 91.411,187.200 91.194 C 187.963 90.693,212.662 90.942,216.723 91.491 " stroke="none" fill="#39b54a" fill-rule="evenodd"></path></g></svg>