<svg id="svg" version="1.1" width="400" height="400" xmlns="http://www.w3.org/2000/svg" xmlns:xlink="http://www.w3.org/1999/xlink" style="display: block;"><g id="svgg"><path id="path0" d="M16.400 8.000 C 16.400 8.220,16.034 8.400,15.587 8.400 C 15.141 8.400,14.671 8.670,14.545 9.000 C 14.418 9.330,14.019 9.606,13.657 9.613 C 12.828 9.629,11.600 10.543,11.600 11.144 C 11.600 11.395,11.395 11.600,11.144 11.600 C 10.543 11.600,9.629 12.828,9.613 13.657 C 9.606 14.019,9.330 14.418,9.000 14.545 C 8.670 14.671,8.400 15.141,8.400 15.587 C 8.400 16.034,8.220 16.400,8.000 16.400 C 7.734 16.400,7.600 77.867,7.600 200.000 C 7.600 322.133,7.734 383.600,8.000 383.600 C 8.220 383.600,8.400 383.966,8.400 384.413 C 8.400 384.859,8.670 385.329,9.000 385.455 C 9.330 385.582,9.600 386.039,9.600 386.471 C 9.600 387.321,10.479 388.400,11.171 388.400 C 11.407 388.400,11.600 388.605,11.600 388.856 C 11.600 389.457,12.828 390.371,13.657 390.387 C 14.019 390.394,14.418 390.670,14.545 391.000 C 14.671 391.330,15.141 391.600,15.587 391.600 C 16.034 391.600,16.400 391.780,16.400 392.000 C 16.400 392.266,77.867 392.400,200.000 392.400 C 322.133 392.400,383.600 392.266,383.600 392.000 C 383.600 391.780,384.050 391.600,384.600 391.600 C 385.222 391.600,385.600 391.373,385.600 391.000 C 385.600 390.660,385.959 390.400,386.429 390.400 C 387.314 390.400,388.400 389.534,388.400 388.829 C 388.400 388.593,388.593 388.400,388.829 388.400 C 389.534 388.400,390.400 387.314,390.400 386.429 C 390.400 385.959,390.660 385.600,391.000 385.600 C 391.373 385.600,391.600 385.222,391.600 384.600 C 391.600 384.050,391.780 383.600,392.000 383.600 C 392.266 383.600,392.400 322.133,392.400 200.000 C 392.400 77.867,392.266 16.400,392.000 16.400 C 391.780 16.400,391.600 16.034,391.600 15.587 C 391.600 15.141,391.330 14.671,391.000 14.545 C 390.670 14.418,390.394 14.019,390.387 13.657 C 390.371 12.828,389.457 11.600,388.856 11.600 C 388.605 11.600,388.400 11.407,388.400 11.171 C 388.400 10.466,387.314 9.600,386.429 9.600 C 385.959 9.600,385.600 9.340,385.600 9.000 C 385.600 8.627,385.222 8.400,384.600 8.400 C 384.050 8.400,383.600 8.220,383.600 8.000 C 383.600 7.734,322.133 7.600,200.000 7.600 C 77.867 7.600,16.400 7.734,16.400 8.000 M382.122 12.380 C 384.422 13.449,386.135 15.049,387.364 17.277 L 388.400 19.154 388.400 200.000 L 388.400 380.846 387.353 382.723 C 386.036 385.084,385.084 386.036,382.723 387.353 L 380.846 388.400 200.000 388.400 L 19.154 388.400 17.277 387.364 C 15.049 386.135,13.449 384.422,12.380 382.122 C 11.610 380.466,11.600 378.071,11.600 199.966 L 11.600 19.488 12.500 17.684 C 13.638 15.404,15.635 13.395,17.752 12.402 C 20.359 11.179,379.492 11.157,382.122 12.380 " stroke="none" fill="#000000" fill-rule="evenodd"></path><path id="path1" d="M18.442 12.033 C 17.915 12.244,17.585 12.518,17.708 12.641 C 17.831 12.764,18.296 12.670,18.741 12.432 C 19.762 11.885,380.580 12.012,381.800 12.559 C 382.474 12.861,382.518 12.829,382.080 12.359 C 381.444 11.675,20.142 11.352,18.442 12.033 M14.964 14.335 C 14.104 15.180,12.994 16.686,12.499 17.682 L 11.597 19.493 11.699 200.526 C 11.785 354.916,11.882 381.637,12.359 382.080 C 12.829 382.518,12.861 382.474,12.559 381.800 C 12.349 381.333,12.158 305.850,12.099 200.286 L 11.998 19.572 12.848 17.886 C 13.315 16.959,14.510 15.435,15.504 14.500 C 16.498 13.565,17.135 12.800,16.919 12.800 C 16.704 12.800,15.824 13.491,14.964 14.335 M383.985 13.970 C 384.747 14.601,385.781 15.632,386.283 16.259 C 386.785 16.887,387.197 17.178,387.198 16.906 C 387.200 16.295,383.650 12.796,383.042 12.811 C 382.799 12.817,383.223 13.338,383.985 13.970 M387.467 18.200 C 387.902 19.246,387.902 380.754,387.467 381.800 C 387.140 382.588,387.144 382.589,387.767 381.824 C 388.738 380.632,388.738 19.368,387.767 18.176 C 387.144 17.411,387.140 17.412,387.467 18.200 M12.811 383.042 C 12.796 383.650,16.295 387.200,16.906 387.198 C 17.178 387.197,16.887 386.785,16.259 386.283 C 15.632 385.781,14.601 384.747,13.970 383.985 C 13.338 383.223,12.817 382.799,12.811 383.042 M384.924 385.044 C 383.782 386.230,383.012 387.200,383.213 387.200 C 383.704 387.200,387.200 383.683,387.200 383.189 C 387.200 382.664,387.271 382.606,384.924 385.044 M18.176 387.767 C 19.319 388.698,380.593 388.744,381.824 387.813 C 382.251 387.490,382.411 387.220,382.180 387.213 C 381.949 387.206,381.580 387.380,381.359 387.601 C 380.864 388.096,19.393 387.963,18.200 387.467 C 17.412 387.140,17.411 387.144,18.176 387.767 " stroke="none" fill="#0e2d12" fill-rule="evenodd"></path><path id="path2" d="M18.131 12.621 C 17.432 12.927,16.723 13.407,16.554 13.689 C 16.316 14.085,16.377 14.097,16.823 13.743 C 17.140 13.492,18.210 13.005,19.200 12.662 C 20.190 12.319,20.640 12.044,20.200 12.052 C 19.760 12.059,18.829 12.315,18.131 12.621 M380.000 12.285 C 380.330 12.407,381.276 12.827,382.102 13.218 C 382.928 13.609,383.500 13.762,383.374 13.558 C 383.101 13.117,380.494 11.987,379.851 12.032 C 379.603 12.049,379.670 12.163,380.000 12.285 M385.039 15.176 C 385.500 15.739,386.175 16.645,386.539 17.189 C 386.902 17.733,387.200 17.981,387.200 17.740 C 387.200 17.500,386.525 16.594,385.700 15.728 C 384.875 14.862,384.577 14.613,385.039 15.176 M12.465 18.617 C 12.209 19.178,12.008 19.944,12.018 20.319 C 12.027 20.693,12.289 20.287,12.600 19.415 C 13.245 17.604,13.159 17.094,12.465 18.617 M12.032 379.851 C 11.987 380.494,13.117 383.101,13.558 383.374 C 13.762 383.500,13.609 382.928,13.218 382.102 C 12.827 381.276,12.407 380.330,12.285 380.000 C 12.163 379.670,12.049 379.603,12.032 379.851 M386.314 383.112 C 385.368 384.710,383.997 385.877,381.774 386.979 C 380.688 387.518,380.020 387.967,380.288 387.979 C 381.966 388.051,387.931 382.998,387.123 382.189 C 387.032 382.099,386.668 382.514,386.314 383.112 M14.959 385.113 C 16.098 386.345,19.104 388.022,20.096 387.978 C 20.373 387.965,19.801 387.631,18.825 387.236 C 17.849 386.840,16.319 385.918,15.425 385.188 L 13.800 383.859 14.959 385.113 " stroke="none" fill="#1a5422" fill-rule="evenodd"></path><path id="path3" d="M199.980 12.300 C 318.766 12.367,379.496 12.536,379.760 12.800 C 379.980 13.020,380.529 13.185,380.980 13.168 C 381.644 13.141,381.571 13.030,380.600 12.586 C 379.587 12.122,351.412 12.049,200.000 12.118 L 20.600 12.199 199.980 12.300 M17.815 13.223 C 15.179 14.538,12.400 18.026,12.400 20.019 C 12.400 20.891,13.105 19.975,13.341 18.797 C 13.484 18.082,14.410 16.752,15.581 15.581 C 16.752 14.410,18.082 13.484,18.797 13.341 C 19.468 13.206,20.114 12.940,20.232 12.748 C 20.589 12.170,19.495 12.385,17.815 13.223 M382.543 13.800 C 382.873 14.130,383.259 14.400,383.400 14.400 C 384.140 14.400,386.800 18.089,386.800 19.114 C 386.800 19.575,386.980 20.064,387.200 20.200 C 387.732 20.529,387.756 378.922,387.224 379.905 C 387.017 380.287,386.755 381.052,386.641 381.604 C 386.420 382.672,384.449 384.996,382.811 386.121 C 382.267 386.494,382.010 386.800,382.239 386.800 C 383.197 386.800,386.025 383.824,386.976 381.814 L 388.000 379.650 388.000 200.296 C 388.000 33.926,387.952 20.801,387.333 18.985 C 386.679 17.066,383.376 13.200,382.390 13.200 C 382.128 13.200,382.191 13.448,382.543 13.800 M12.118 200.000 C 12.049 351.412,12.122 379.587,12.586 380.600 C 13.030 381.571,13.141 381.644,13.168 380.980 C 13.185 380.529,13.020 379.980,12.800 379.760 C 12.536 379.496,12.367 318.766,12.300 199.980 L 12.199 20.600 12.118 200.000 M13.200 382.390 C 13.200 383.022,17.053 386.803,17.681 386.787 C 18.046 386.778,18.012 386.630,17.565 386.287 C 15.256 384.516,14.407 383.759,14.404 383.471 C 14.402 383.291,14.130 382.873,13.800 382.543 C 13.448 382.191,13.200 382.128,13.200 382.390 M19.400 387.414 C 21.241 388.257,379.325 388.243,380.800 387.400 C 381.766 386.848,381.770 386.828,380.924 386.814 C 380.442 386.806,379.936 386.980,379.800 387.200 C 379.636 387.466,319.270 387.600,200.000 387.600 C 80.730 387.600,20.364 387.466,20.200 387.200 C 20.064 386.980,19.558 386.815,19.076 386.832 C 18.314 386.861,18.357 386.937,19.400 387.414 " stroke="none" fill="#2a8737" fill-rule="evenodd"></path><path id="path4" d="M20.232 12.748 C 20.114 12.940,19.468 13.206,18.797 13.341 C 17.192 13.662,13.662 17.192,13.341 18.797 C 13.206 19.468,12.940 20.114,12.748 20.232 C 12.241 20.545,12.293 379.487,12.800 379.800 C 13.020 379.936,13.200 380.474,13.200 380.995 C 13.200 381.516,13.470 382.213,13.800 382.543 C 14.130 382.873,14.400 383.259,14.400 383.400 C 14.400 384.140,18.089 386.800,19.114 386.800 C 19.575 386.800,20.064 386.980,20.200 387.200 C 20.529 387.732,378.922 387.756,379.905 387.224 C 380.287 387.017,381.081 386.748,381.668 386.625 C 383.049 386.335,386.335 383.049,386.625 381.668 C 386.748 381.081,387.017 380.287,387.224 379.905 C 387.756 378.922,387.732 20.529,387.200 20.200 C 386.980 20.064,386.800 19.575,386.800 19.114 C 386.800 18.089,384.140 14.400,383.400 14.400 C 383.259 14.400,382.873 14.130,382.543 13.800 C 382.213 13.470,381.516 13.200,380.995 13.200 C 380.474 13.200,379.936 13.020,379.800 12.800 C 379.487 12.293,20.545 12.241,20.232 12.748 " stroke="none" fill="#39b54a" fill-rule="evenodd"></path></g></svg>